<?xml version="1.0" encoding="UTF-8"?>
<svg width="40px" height="32px" viewBox="0 0 40 32" version="1.1" xmlns="http://www.w3.org/2000/svg" xmlns:xlink="http://www.w3.org/1999/xlink">
    <!-- Generator: Sketch 58 (84663) - https://sketch.com -->
    <title>avocado</title>
    <desc>Created with Sketch.</desc>
    <g id="Page-1" stroke="none" stroke-width="1" fill="none" fill-rule="evenodd">
        <g id="Nutritions" transform="translate(-22.000000, -12.000000)" fill-rule="nonzero">
            <g id="Group" transform="translate(22.000000, 12.000000)">
                <g id="avocado">
                    <path d="M39.7055487,19.2090239 C39.678092,19.2909711 39.6506355,19.3800993 39.6164205,19.4624689 C39.1357196,20.7212461 38.363557,21.8482318 37.362449,22.7504962 C34.2936516,25.5797879 29.7928898,26.2167798 26.3950363,24.2783475 L24.3577603,19.2086014 L39.7055487,19.2086014 L39.7055487,19.2090239 Z" id="Path" fill="#527F72"></path>
                    <path d="M28.0183518,20.3529059 C29.7071408,20.7896762 31.4398603,21.0329835 33.1835623,21.0790261 C35.9511824,21.0790261 39.0406777,20.4555511 39.7051262,19.2090239 C41.2122795,16.3932491 33.6220222,15.215152 32.1148689,15.0436543 C31.1146057,14.9342504 30.1147649,14.8725788 29.1145018,14.8451222 L28.0183518,20.3529059 Z" id="Path" fill="#F9EAB0"></path>
                    <path d="M9.17090968,30.8683416 C12.5070915,31.9847671 16.4663259,32.6699137 19.6931039,31.2041563 C20.6240921,30.7690756 21.4925638,30.2114964 22.2757091,29.5462032 C24.5469993,27.5499009 26.2928134,25.025588 27.3585499,22.1954515 C29.8727249,15.9205741 30.2017811,7.66586838 25.9679813,2.10317165 L25.9612228,2.09641312 L9.17090968,30.8683416 Z" id="Path" fill="#4C8056"></path>
                    <path d="M4.88937773,29.3772399 C6.32260954,30.2102293 7.91382216,30.7357054 9.56121508,30.9198755 C14.8079503,31.517161 19.208179,27.6652185 21.9407393,22.9794416 C23.5640548,20.08003 24.82072,16.9901124 25.6811659,13.780653 C26.5031728,10.9036291 27.1198891,7.84285755 26.8258929,5.01187612 C26.6476365,3.30407888 26.0723162,1.56206636 24.6078261,0.704577279 L24.5064481,0.645440097 L24.5165859,0.651776251 L24.4152079,0.596018337 C22.947761,-0.261048362 21.0017253,0.00844816881 19.2576009,0.596018337 C16.3260862,1.71244387 13.600707,3.30788053 11.1925564,5.31727745 C8.4663324,7.37905302 5.9918637,9.75383333 3.81941707,12.3926188 C0.419451555,16.6880903 -1.45055053,22.0184624 1.38592207,26.1441256 C2.30466045,27.4687985 3.50430042,28.5742414 4.89951553,29.3818864 L4.88937773,29.3772399 Z" id="Path" fill="#71C285"></path>
                    <path d="M6.42905647,27.132139 C5.28601917,26.4731818 4.30307481,25.5688054 3.55203255,24.483638 C0.895928276,20.6131095 4.17888668,15.6924736 5.70969487,13.7553085 C7.7216263,11.3171669 10.0127697,9.1244447 12.5362378,7.22191708 C14.2985257,5.84571044 16.9508283,3.91361418 19.697328,2.989807 C20.6904103,2.65694904 22.0539446,2.35999599 22.8818652,2.84365362 L23.0736387,2.95601432 C23.9028265,3.44051672 24.19809,4.70563003 24.2998904,5.68266073 C24.5740334,8.37086804 23.8314394,11.416433 23.2459813,13.473562 C22.4543879,16.4443605 21.2961439,19.3049106 19.7978612,21.9888938 C18.564851,24.1000912 15.1695319,28.9552538 10.2522753,28.3955626 C8.90394755,28.24603 7.60123992,27.8155958 6.42905647,27.132139 L6.42905647,27.132139 Z" id="Path" fill="#F9EAB0"></path>
                    <path d="M16.6678147,20.4411893 C14.9722672,22.9241061 11.7864627,23.8783267 9.55107728,22.5718174 C7.31569181,21.2657305 6.87934392,18.1943987 8.57320171,15.7110595 C10.267482,13.2277203 13.454976,12.2743444 15.6903615,13.5804314 C17.925747,14.8869407 18.3633621,17.9586949 16.6678147,20.4411893 Z" id="Path" fill="#7F6E5D"></path>
                    <path d="M9.95236524,19.5604677 C9.92744323,19.5604677 9.9025211,19.5587781 9.87759898,19.5562436 C9.5020779,19.51527 9.23089163,19.178188 9.27102046,18.8026669 C9.64611915,15.3401849 12.3461539,14.7061499 13.7236278,14.8527255 C14.0999938,14.892432 14.3728696,15.229514 14.3327408,15.6058798 C14.2934569,15.9822458 13.9559525,16.2551216 13.5795866,16.2149928 C13.3058659,16.1879587 10.9475595,16.052788 10.6341325,18.9505099 C10.5956933,19.2981521 10.3016971,19.5604677 9.95236524,19.5604677 Z" id="Path" fill="#CBB292"></path>
                </g>
            </g>
        </g>
    </g>
</svg>