<?xml version="1.0" encoding="UTF-8"?>
<svg width="25px" height="25px" viewBox="0 0 25 25" version="1.1" xmlns="http://www.w3.org/2000/svg" xmlns:xlink="http://www.w3.org/1999/xlink">
    <!-- Generator: Sketch 58 (84663) - https://sketch.com -->
    <title>Carbohydrates</title>
    <desc>Created with Sketch.</desc>
    <g id="Page-1" stroke="none" stroke-width="1" fill="none" fill-rule="evenodd">
        <g id="Today" transform="translate(-245.000000, -83.000000)" fill-rule="nonzero">
            <g id="carbohydrates" transform="translate(226.000000, 75.000000)">
                <g id="Carbohydrates" transform="translate(19.000000, 8.000000)">
                    <circle id="Oval" fill="#FFE853" cx="12.5" cy="12.5" r="12.5"></circle>
                    <path d="M25,12.5 C25,16.753418 22.875,20.5112305 19.6289062,22.769043 C17.6069336,24.175293 15.1499023,25 12.5,25 C9.85009766,25 7.39306641,24.175293 5.37109375,22.769043 C2.125,20.5112305 0,16.753418 0,12.5 C0,10.2431641 0.598144531,8.12646484 1.64453125,6.29882812 C3.79882812,10.0620117 7.85351562,12.5976562 12.5,12.5976562 C17.1464844,12.5976562 21.2016602,10.0620117 23.3554688,6.29882812 C24.4018555,8.12646484 25,10.2431641 25,12.5 Z" id="Path" fill="#FED110"></path>
                    <polygon id="Path" fill="#BC0E5C" points="3.23291016 15.2158203 9.4109375 15.2158203 9.4109375 17.7384766 3.23291016 17.7384766"></polygon>
                    <path d="M21.7211914,20.7827148 C21.7211914,20.8364258 21.7202148,20.8896484 21.7177734,20.9423828 C19.4326172,23.4360352 16.1489258,25 12.5,25 C11.8774414,25 11.265625,24.9545898 10.6674805,24.8662109 C7.75976562,24.4389648 5.17724609,23.0107422 3.28222656,20.9423828 C3.28173828,20.9355469 3.27490234,20.9287109 3.26318359,20.9213867 C3.22070312,20.8754883 3.17919922,20.8291016 3.13818359,20.7827148 L21.7211914,20.7827148 Z" id="Path" fill="#F79F63"></path>
                    <path d="M21.7211914,20.7827148 C21.7211914,20.8364258 21.7202148,20.8896484 21.7177734,20.9423828 C19.4326172,23.4360352 16.1489258,25 12.5,25 L11.7524414,25 C11.3876953,25 11.0229492,24.9536133 10.6674805,24.8662109 C8.75439453,24.3974609 7.10791016,22.7470703 7.10791016,20.7827148 L21.7211914,20.7827148 Z" id="Path" fill="#F4873D"></path>
                    <path d="M21.8618164,20.7827148 C21.8144531,20.8364258 21.7661133,20.8896484 21.7177734,20.9423828 C19.4326172,23.4360352 16.1489258,25 12.5,25 L12.5,20.7827148 L21.8618164,20.7827148 Z" id="Path" fill="#EC781B"></path>
                    <path d="M22.6582031,17.7680664 L22.6582031,19.7851562 C22.409668,20.1313477 22.144043,20.4643555 21.8618164,20.7827148 L3.13818359,20.7827148 C2.85595703,20.4643555 2.59033203,20.1313477 2.34179688,19.7851562 L2.34179688,17.7680664 L22.6582031,17.7680664 Z" id="Path" fill="#A63917"></path>
                    <path d="M22.6582031,17.7680664 L22.6582031,19.7851562 C22.409668,20.1313477 22.144043,20.4643555 21.8618164,20.7827148 L12.5,20.7827148 L12.5,17.7680664 L22.6582031,17.7680664 Z" id="Path" fill="#83250D"></path>
                    <polygon id="Path" fill="#FE3345" points="9.41113281 15.2158203 15.5888672 15.2158203 15.5888672 17.7382812 9.41113281 17.7382812"></polygon>
                    <polygon id="Path" fill="#DE1263" points="12.5 15.2158203 15.5888672 15.2158203 15.5888672 17.7382812 12.5 17.7382812"></polygon>
                    <polygon id="Path" fill="#BC0E5C" points="15.5890137 15.2158203 21.767041 15.2158203 21.767041 17.7384766 15.5890137 17.7384766"></polygon>
                    <path d="M21.9266602,15.2158203 L3.07333984,15.2158203 C2.77729492,15.2158203 2.56235352,14.935791 2.63671875,14.6492676 C3.77514648,10.2646484 7.75913086,7.02734375 12.5,7.02734375 L12.5322266,7.02734375 C17.259082,7.0418457 21.2273926,10.2746582 22.3632812,14.6493164 C22.4376953,14.935791 22.2226562,15.2158203 21.9266602,15.2158203 Z" id="Path" fill="#F79F63"></path>
                    <path d="M21.9266602,15.2158203 L7.10791016,15.2158203 C7.10791016,11.9240723 8.89018555,8.4246582 12.5,7.02734375 L12.5322266,7.02734375 C17.259082,7.0418457 21.2273926,10.2746582 22.3632812,14.6493164 C22.4376953,14.935791 22.2226563,15.2158203 21.9266602,15.2158203 Z" id="Path" fill="#F4873D"></path>
                    <path d="M21.926709,15.2158203 L12.5,15.2158203 L12.5,7.02734375 C17.2408691,7.02734375 21.2248535,10.2646484 22.3632812,14.6492676 C22.4376953,14.935791 22.2227051,15.2158203 21.926709,15.2158203 L21.926709,15.2158203 Z" id="Path" fill="#EC781B"></path>
                    <path d="M23.2119141,17.7446289 C23.2119141,17.8823242 23.1635742,18.0087891 23.0834961,18.1035156 C23.003418,18.1982422 22.8920898,18.2617188 22.7661133,18.2719727 C21.4116211,18.3857422 21.2641602,19.0102539 19.6411133,19.0102539 C17.8554688,19.0102539 17.8554688,18.2543945 16.0703125,18.2543945 C14.284668,18.2543945 14.284668,19.0102539 12.5,19.0102539 L12.4995117,19.0102539 C10.7143555,19.0102539 10.7143555,18.2543945 8.92919922,18.2543945 C7.14404297,18.2543945 7.14404297,19.0102539 5.35839844,19.0102539 C3.73583984,19.0102539 3.58837891,18.3857422 2.23388672,18.2719727 C1.98193359,18.2509766 1.78808594,18.0200195 1.78808594,17.7446289 C1.78808594,17.4697266 1.98193359,17.2387695 2.23388672,17.2177734 C3.58837891,17.1040039 3.73583984,16.4794922 5.35839844,16.4794922 C7.14404297,16.4794922 7.14404297,17.2353516 8.92919922,17.2353516 C10.7143555,17.2353516 10.7143555,16.4794922 12.4995117,16.4794922 L12.5,16.4794922 C14.284668,16.4794922 14.284668,17.2353516 16.0703125,17.2353516 C17.8554688,17.2353516 17.8554688,16.4794922 19.6411133,16.4794922 C21.2641602,16.4794922 21.4116211,17.1040039 22.7661133,17.2177734 C23.0180664,17.2387695 23.2119141,17.4697266 23.2119141,17.7446289 Z" id="Path" fill="#6CDC2D"></path>
                    <path d="M23.2119141,17.7446289 C23.2119141,17.8823242 23.1635742,18.0087891 23.0834961,18.1035156 C23.003418,18.1982422 22.8920898,18.2617188 22.7661133,18.2719727 C21.4116211,18.3857422 21.2641602,19.0102539 19.6411133,19.0102539 C17.8554688,19.0102539 17.8554688,18.2543945 16.0703125,18.2543945 C14.284668,18.2543945 14.284668,19.0102539 12.5,19.0102539 L12.5,16.4794922 C14.284668,16.4794922 14.284668,17.2353516 16.0703125,17.2353516 C17.8554688,17.2353516 17.8554688,16.4794922 19.6411133,16.4794922 C21.2641602,16.4794922 21.4116211,17.1040039 22.7661133,17.2177734 C23.0180664,17.2387695 23.2119141,17.4697266 23.2119141,17.7446289 L23.2119141,17.7446289 Z" id="Path" fill="#00A042"></path>
                    <g id="Group" transform="translate(6.103516, 7.910156)" fill="#C55733">
                        <ellipse id="Oval" cx="6.39648438" cy="3.37480469" rx="1" ry="1"></ellipse>
                        <ellipse id="Oval" cx="6.39648438" cy="0.419921875" rx="1" ry="1"></ellipse>
                        <ellipse id="Oval" cx="0.817871094" cy="4.58984375" rx="1" ry="1"></ellipse>
                        <ellipse id="Oval" cx="11.9750977" cy="4.58984375" rx="1" ry="1"></ellipse>
                        <ellipse id="Oval" cx="9.67587891" cy="1.37041016" rx="1" ry="1"></ellipse>
                        <ellipse id="Oval" cx="3.11708984" cy="1.37041016" rx="1" ry="1"></ellipse>
                    </g>
                </g>
            </g>
        </g>
    </g>
</svg>