<?xml version="1.0" encoding="UTF-8"?>
<svg width="25px" height="25px" viewBox="0 0 25 25" version="1.1" xmlns="http://www.w3.org/2000/svg" xmlns:xlink="http://www.w3.org/1999/xlink">
    <!-- Generator: Sketch 58 (84663) - https://sketch.com -->
    <title>Fat</title>
    <desc>Created with Sketch.</desc>
    <g id="Page-1" stroke="none" stroke-width="1" fill="none" fill-rule="evenodd">
        <g id="Today" transform="translate(-643.000000, -83.000000)" fill-rule="nonzero">
            <g id="fat" transform="translate(624.000000, 75.000000)">
                <g id="Fat" transform="translate(19.000000, 8.000000)">
                    <circle id="Oval" fill="#4E689B" cx="12.5" cy="12.5" r="12.5"></circle>
                    <path d="M25,12.5 C25,16.753418 22.875,20.5112305 19.6289062,22.769043 C17.6069336,24.175293 15.1499023,25 12.5,25 C9.85009766,25 7.39306641,24.175293 5.37109375,22.769043 C2.125,20.5112305 0,16.753418 0,12.5 C0,10.2431641 0.598144531,8.12646484 1.64453125,6.29882812 C3.79882812,10.0620117 7.85351562,12.5976562 12.5,12.5976562 C17.1464844,12.5976562 21.2016602,10.0620117 23.3554688,6.29882812 C24.4018555,8.12646484 25,10.2431641 25,12.5 Z" id="Path" fill="#374C81"></path>
                    <path d="M23.3613281,16.1035156 C23.3613281,17.3300781 23.1582031,18.5087891 22.7832031,19.6083984 C22.7827148,19.6083984 22.7827148,19.6088867 22.7827148,19.6088867 C20.5263672,22.8662109 16.762207,25 12.5,25 C8.23779297,25 4.47363281,22.8662109 2.21728516,19.6088867 C1.84179688,18.5092773 1.63867188,17.3300781 1.63867188,16.1035156 C1.63867188,13.1044922 2.85449219,10.3891602 4.8203125,8.42382812 C6.6015625,6.64208984 8.99902344,5.4765625 11.6660156,5.27441406 C12.1162109,5.24023437 12.5,5.59619141 12.5,6.04736328 L12.5,16.1035156 L19.6108398,8.99267578 C19.9277344,8.67578125 20.4501953,8.69042969 20.7421875,9.03027344 C22.375,10.9301758 23.3613281,13.4018555 23.3613281,16.1035156 Z" id="Path" fill="#F4873D"></path>
                    <path d="M23.3613281,16.1035156 C23.3613281,17.3300781 23.1582031,18.5092773 22.7827148,19.6088867 C20.5263672,22.8662109 16.762207,25 12.5,25 L12.5,16.1035156 L19.6108398,8.99267578 C19.9277344,8.67578125 20.4501953,8.69042969 20.7421875,9.03027344 C22.375,10.9301758 23.3613281,13.4018555 23.3613281,16.1035156 Z" id="Path" fill="#EC781B"></path>
                    <path d="M21.2394531,16.1035156 C21.2394531,18.5168945 20.2610352,20.7015137 18.6794922,22.2835449 C17.097998,23.8650879 14.9133789,24.8435059 12.4999512,24.8435059 C10.0865234,24.8435059 7.90195312,23.8650879 6.32041016,22.2835449 C4.73891602,20.7015137 3.76044922,18.5168945 3.76044922,16.1035156 C3.76044922,13.6901367 4.73886719,11.5049805 6.32041016,9.92397461 C7.90195312,8.34248047 10.0865234,7.36401367 12.4999512,7.36401367 L12.4999512,16.1035156 L17.6599121,10.9435547 L18.6794434,9.92397461 C20.2610352,11.5049805 21.2394531,13.6900879 21.2394531,16.1035156 Z" id="Path" fill="#F79F63"></path>
                    <path d="M21.2394531,16.1035156 C21.2394531,18.5168945 20.2610352,20.7015137 18.6794922,22.2835449 C17.097998,23.8650879 14.9133789,24.8435059 12.4999512,24.8435059 L12.4999512,16.1035156 L17.6599121,10.9435547 L18.6794434,9.92397461 C20.2610352,11.5049805 21.2394531,13.6900879 21.2394531,16.1035156 L21.2394531,16.1035156 Z" id="Path" fill="#F4873D"></path>
                    <path d="M19.7976563,16.1035156 C19.7976563,17.1446777 20.3258789,18.2844238 19.9505371,19.1895996 C19.5609375,20.1285156 18.3674316,20.5560547 17.6599609,21.2635254 C16.9524902,21.9709961 16.5249512,23.1650391 15.586084,23.5541016 C14.6804199,23.9294434 13.5411621,23.4012207 12.5,23.4012207 C11.4588379,23.4012207 10.3190918,23.9294434 9.41391602,23.5541016 C8.475,23.1650391 8.04750977,21.9709961 7.34003906,21.2635254 C6.63256836,20.5560547 5.4390625,20.1285156 5.04946289,19.1895996 C4.67412109,18.2844238 5.20234375,17.1446777 5.20234375,16.1035156 C5.20234375,15.0623535 4.67412109,13.9231445 5.04946289,13.0174316 C5.4390625,12.0785156 6.63256836,11.6509766 7.34003906,10.9435547 C8.04750977,10.2366211 8.47504883,9.04257813 9.41391602,8.65351563 C10.3190918,8.27763672 11.4588379,8.80639648 12.5,8.80639648 L12.5,16.1035156 L17.6599609,10.9435547 C18.3674316,11.6510254 19.5609375,12.0785645 19.9505371,13.0174316 C20.3258789,13.9230957 19.7976563,15.0623535 19.7976563,16.1035156 Z" id="Path" fill="#FFE853"></path>
                    <path d="M19.7976563,16.1035156 C19.7976563,17.1446777 20.3258789,18.2844238 19.9505371,19.1895996 C19.5609375,20.1285156 18.3674316,20.5560547 17.6599609,21.2635254 C16.9524902,21.9709961 16.5249512,23.1650391 15.586084,23.5541016 C14.6804199,23.9294434 13.5411621,23.4012207 12.5,23.4012207 L12.5,16.1035156 L17.6599609,10.9435547 C18.3674316,11.6510254 19.5609375,12.0785645 19.9505371,13.0174316 C20.3258789,13.9230957 19.7976563,15.0623535 19.7976563,16.1035156 L19.7976563,16.1035156 Z" id="Path" fill="#FED110"></path>
                    <path d="M20.6100586,6.10405273 L14.1057617,12.6083496 C13.9043945,12.8097168 13.5596191,12.6668457 13.5596191,12.3821777 L13.5596191,3.1824707 C13.5596191,2.68588867 13.9824219,2.28999023 14.4774414,2.33164062 C16.7843262,2.52456055 18.8856445,3.4387207 20.5562988,4.84731445 C20.9390137,5.16992187 20.9637695,5.7503418 20.6100586,6.10405273 Z" id="Path" fill="#EC781B"></path>
                    <path d="M19.7391113,6.97480469 L18.7195801,7.99433594 L14.1057129,12.6082031 C13.9041992,12.8097168 13.5596191,12.6669922 13.5596191,12.3819824 L13.5596191,4.41484375 C15.972998,4.41484375 18.1575684,5.39331055 19.7391113,6.97480469 L19.7391113,6.97480469 Z" id="Path" fill="#F4873D"></path>
                    <path d="M18.7195801,7.99453125 L14.1057617,12.6083496 C13.9043945,12.8097168 13.5596191,12.6668457 13.5596191,12.3821777 L13.5596191,5.85737305 C14.6007812,5.85737305 15.7399902,5.32861328 16.6457031,5.70449219 C17.5845703,6.09355469 18.0121094,7.28706055 18.7195801,7.99453125 Z" id="Path" fill="#FED110"></path>
                    <circle id="Oval" fill="#FE3345" transform="translate(7.657588, 13.703544) rotate(-19.630702) translate(-7.657588, -13.703544) " cx="7.65758789" cy="13.7035439" r="1.17461556"></circle>
                    <path d="M8.83032227,13.7024414 C8.83032227,14.3510254 8.30444336,14.8769043 7.65585938,14.8769043 L7.65585938,12.5279297 C8.30444336,12.5279297 8.83032227,13.0538574 8.83032227,13.7024414 Z" id="Path" fill="#DE1263"></path>
                    <path d="M8.1574707,13.7024414 C8.1574707,13.9795898 7.9328125,14.2041016 7.65581055,14.2041016 C7.37885742,14.2041016 7.15415039,13.9796387 7.15415039,13.7024414 C7.15415039,13.4254883 7.37880859,13.2009766 7.65581055,13.2009766 C7.9328125,13.2010254 8.1574707,13.4254883 8.1574707,13.7024414 Z" id="Path" fill="#FF6477"></path>
                    <path d="M8.1574707,13.7024414 C8.1574707,13.9795898 7.9328125,14.2041016 7.65581055,14.2041016 L7.65581055,13.2010254 C7.9328125,13.2010254 8.1574707,13.4254883 8.1574707,13.7024414 Z" id="Path" fill="#FE3345"></path>
                    <circle id="Oval" fill="#FE3345" transform="translate(10.494217, 20.523540) rotate(-31.258485) translate(-10.494217, -20.523540) " cx="10.4942173" cy="20.5235399" r="1.17468954"></circle>
                    <path d="M11.6680176,20.5161133 C11.6680176,21.1646973 11.1421387,21.6905762 10.4935547,21.6905762 L10.4935547,19.3416016 C11.1421387,19.3416504 11.6680176,19.8675293 11.6680176,20.5161133 L11.6680176,20.5161133 Z" id="Path" fill="#DE1263"></path>
                    <path d="M10.995166,20.5161621 C10.995166,20.7933105 10.7705078,21.0178223 10.4935059,21.0178223 C10.2165527,21.0178223 9.9918457,20.7933105 9.9918457,20.5161621 C9.9918457,20.239209 10.2165039,20.0146973 10.4935059,20.0146973 C10.7705078,20.0146973 10.995166,20.239209 10.995166,20.5161621 Z" id="Path" fill="#FF6477"></path>
                    <path d="M10.995166,20.5161621 C10.995166,20.7933105 10.7705078,21.0178223 10.4935059,21.0178223 L10.4935059,20.0147461 C10.7705078,20.0146973 10.995166,20.239209 10.995166,20.5161621 Z" id="Path" fill="#FE3345"></path>
                    <circle id="Oval" fill="#FE3345" transform="translate(16.722981, 19.514078) rotate(-8.680851) translate(-16.722981, -19.514078) " cx="16.7229811" cy="19.5140781" r="1.17500419"></circle>
                    <path d="M17.8827148,19.5130371 C17.8827148,20.1616211 17.3568359,20.6875 16.708252,20.6875 L16.708252,18.3385254 C17.3567871,18.3385254 17.8827148,18.8644531 17.8827148,19.5130371 L17.8827148,19.5130371 Z" id="Path" fill="#DE1263"></path>
                    <path d="M17.2098633,19.5130859 C17.2098633,19.7902344 16.9852051,20.0147461 16.7082031,20.0147461 C16.43125,20.0147461 16.206543,19.7902344 16.206543,19.5130859 C16.206543,19.2361328 16.4312012,19.0116211 16.7082031,19.0116211 C16.9852051,19.0116211 17.2098633,19.236084 17.2098633,19.5130859 Z" id="Path" fill="#FF6477"></path>
                    <path d="M17.2098633,19.5130859 C17.2098633,19.7902344 16.9852051,20.0147461 16.7082031,20.0147461 L16.7082031,19.0116699 C16.9852051,19.0116211 17.2098633,19.236084 17.2098633,19.5130859 Z" id="Path" fill="#FE3345"></path>
                    <circle id="Oval" fill="#FE3345" transform="translate(16.704320, 14.727866) rotate(-76.880855) translate(-16.704320, -14.727866) " cx="16.70432" cy="14.7278661" r="1.17458327"></circle>
                    <path d="M17.8827148,14.7372559 C17.8827148,15.3858398 17.3568359,15.9117188 16.708252,15.9117188 L16.708252,13.5627441 C17.3567871,13.562793 17.8827148,14.0886719 17.8827148,14.7372559 L17.8827148,14.7372559 Z" id="Path" fill="#DE1263"></path>
                    <path d="M17.2098633,14.7373047 C17.2098633,15.0144531 16.9852051,15.2389648 16.7082031,15.2389648 C16.43125,15.2389648 16.206543,15.0144531 16.206543,14.7373047 C16.206543,14.4603516 16.4312012,14.2358398 16.7082031,14.2358398 C16.9852051,14.2358398 17.2098633,14.4603516 17.2098633,14.7373047 Z" id="Path" fill="#FF6477"></path>
                    <path d="M17.2098633,14.7373047 C17.2098633,15.0144531 16.9852051,15.2389648 16.7082031,15.2389648 L16.7082031,14.2358398 C16.9852051,14.2358398 17.2098633,14.4603516 17.2098633,14.7373047 Z" id="Path" fill="#FE3345"></path>
                    <circle id="Oval" fill="#FE3345" transform="translate(15.238197, 8.016588) rotate(-70.369298) translate(-15.238197, -8.016588) " cx="15.2381967" cy="8.0165876" r="1.17461556"></circle>
                    <path d="M16.4099121,8.01689453 C16.4099121,8.66547852 15.8840332,9.19135742 15.2354492,9.19135742 L15.2354492,6.84238281 C15.8839844,6.84238281 16.4099121,7.36831055 16.4099121,8.01689453 Z" id="Path" fill="#DE1263"></path>
                    <path d="M15.7370605,8.01694336 C15.7370605,8.2940918 15.5124023,8.51860352 15.2354004,8.51860352 C14.9584473,8.51860352 14.7337402,8.2940918 14.7337402,8.01694336 C14.7337402,7.73999023 14.9583984,7.51547852 15.2354004,7.51547852 C15.5124023,7.51547852 15.7370605,7.73994141 15.7370605,8.01694336 Z" id="Path" fill="#FF6477"></path>
                    <path d="M15.7370605,8.01694336 C15.7370605,8.2940918 15.5124023,8.51860352 15.2354004,8.51860352 L15.2354004,7.51552734 C15.5124023,7.51547852 15.7370605,7.73994141 15.7370605,8.01694336 Z" id="Path" fill="#FE3345"></path>
                    <path d="M9.02651367,10.806543 L9.71005859,10.3154297 C9.92133789,10.163623 10.215625,10.2118652 10.3673828,10.4231445 C10.5191406,10.6344238 10.4709473,10.9287109 10.259668,11.0804688 L9.57612305,11.571582 C9.36484375,11.7233887 9.07055664,11.6751465 8.91879883,11.4638672 C8.76704102,11.2526367 8.8152832,10.9583496 9.02651367,10.806543 Z" id="Path" fill="#00A042"></path>
                    <g id="Group" transform="translate(9.814453, 9.667969)" fill="#6CDC2D">
                        <path d="M8.90854492,3.40297852 L9.5331543,3.96713867 C9.7262207,4.14150391 9.74135742,4.43935547 9.56699219,4.63237305 C9.39262695,4.82539062 9.09477539,4.84057617 8.90175781,4.66621094 L8.27714844,4.10205078 C8.08408203,3.92768555 8.06894531,3.62983398 8.24331055,3.43681641 C8.41767578,3.24375 8.71547852,3.22861328 8.90854492,3.40297852 Z" id="Path"></path>
                        <path d="M0.234130859,5.07197266 L0.917675781,4.58085938 C1.12895508,4.42910156 1.42324219,4.47729492 1.575,4.68857422 C1.72675781,4.89985352 1.67856445,5.19414063 1.46728516,5.34589844 L0.783740234,5.83701172 C0.572460937,5.98876953 0.278173828,5.94057617 0.126416016,5.72929688 C-0.025390625,5.51801758 0.0228515625,5.22373047 0.234130859,5.07197266 Z" id="Path"></path>
                        <path d="M4.8043457,7.32021484 L5.48789062,6.82910156 C5.69912109,6.67734375 5.99345703,6.72553711 6.14521484,6.93681641 C6.29697266,7.1480957 6.2487793,7.44238281 6.0375,7.59414063 L5.35395508,8.08525391 C5.14267578,8.23701172 4.84838867,8.18881836 4.69663086,7.97753906 C4.54487305,7.76630859 4.59311523,7.47197266 4.8043457,7.32021484 Z" id="Path"></path>
                        <path d="M4.65366211,0.614453125 L5.33720703,0.123339844 C5.54848633,-0.0284667969 5.84277344,0.0197753906 5.99453125,0.231054687 C6.14628906,0.442333984 6.0980957,0.736621094 5.88681641,0.888378906 L5.20327148,1.37949219 C4.99199219,1.53125 4.69770508,1.48305664 4.54594727,1.27177734 C4.39418945,1.06054687 4.44238281,0.766210938 4.65366211,0.614453125 Z" id="Path"></path>
                    </g>
                    <path d="M7.24990234,16.7026855 L7.99306641,17.0978027 C8.22275391,17.2199219 8.30996094,17.505127 8.1878418,17.7348145 C8.06572266,17.964502 7.78051758,18.051709 7.55083008,17.9295898 L6.80766602,17.5344727 C6.57797852,17.4123535 6.49077148,17.1271484 6.61289063,16.8974609 C6.73505859,16.6677734 7.02021484,16.5805664 7.24990234,16.7026855 Z" id="Path" fill="#00A042"></path>
                    <path d="M13.9104492,19.7474609 L14.6536133,20.1425781 C14.8833008,20.2646973 14.9705078,20.5499023 14.8483887,20.7795898 C14.7262695,21.0092773 14.4410645,21.0964844 14.211377,20.9743652 L13.4682129,20.579248 C13.2385254,20.4571289 13.1513184,20.1719238 13.2734375,19.9422363 C13.3956055,19.7125488 13.6807617,19.6253418 13.9104492,19.7474609 Z" id="Path" fill="#00A042"></path>
                    <path d="M14.9342285,4.95610352 L15.6773926,5.3512207 C15.9070801,5.47333984 15.9942871,5.75854492 15.872168,5.98823242 C15.7500488,6.21791992 15.4648438,6.30512695 15.2351563,6.18300781 L14.4919922,5.78789063 C14.2623047,5.66577148 14.1750977,5.38056641 14.2972168,5.15087891 C14.4193359,4.92119141 14.704541,4.83398438 14.9342285,4.95610352 Z" id="Path" fill="#00A042"></path>
                </g>
            </g>
        </g>
    </g>
</svg>