<?xml version="1.0" encoding="UTF-8"?>
<svg width="25px" height="25px" viewBox="0 0 25 25" version="1.1" xmlns="http://www.w3.org/2000/svg" xmlns:xlink="http://www.w3.org/1999/xlink">
    <!-- Generator: Sketch 58 (84663) - https://sketch.com -->
    <title>Protein</title>
    <desc>Created with Sketch.</desc>
    <g id="Page-1" stroke="none" stroke-width="1" fill="none" fill-rule="evenodd">
        <g id="Today" transform="translate(-444.000000, -83.000000)" fill-rule="nonzero">
            <g id="protein" transform="translate(425.000000, 75.000000)">
                <g id="Protein" transform="translate(19.000000, 8.000000)">
                    <path d="M25,12.5 C25,18.3540039 20.9750977,23.2685547 15.5419922,24.6269531 L9.45800781,24.6269531 C4.02490234,23.2685547 0,18.3540039 0,12.5 C0,5.59667969 5.59667969,0 12.5,0 C19.4033203,0 25,5.59667969 25,12.5 Z" id="Path" fill="#B6E337"></path>
                    <path d="M25,12.5 C25,16.753418 22.875,20.5112305 19.6289062,22.769043 C18.4077148,23.6186523 17.027832,24.2558594 15.5419922,24.6269531 L9.45800781,24.6269531 C7.97216797,24.2558594 6.59228516,23.6186523 5.37109375,22.769043 C2.125,20.5112305 0,16.753418 0,12.5 C0,10.2431641 0.598144531,8.12646484 1.64453125,6.29882812 C3.79882812,10.0620117 7.85351562,12.5976562 12.5,12.5976562 C17.1464844,12.5976562 21.2016602,10.0620117 23.3554688,6.29882812 C24.4018555,8.12646484 25,10.2431641 25,12.5 Z" id="Path" fill="#6CDC2D"></path>
                    <path d="M15.5419922,24.6269531 C14.5683594,24.8706055 13.5493164,25 12.5,25 C11.4506836,25 10.4316406,24.8706055 9.45800781,24.6269531 C9.75683594,24.1845703 10.2631836,23.8930664 10.8374023,23.8930664 C10.8847656,23.8930664 10.9321289,23.8955078 10.9785156,23.8999023 L10.9785156,5.86621094 C10.9321289,5.87011719 10.8847656,5.87255859 10.8374023,5.87255859 C9.91894531,5.87255859 9.17480469,5.12792969 9.17480469,4.20996094 C9.17480469,3.29150391 9.91894531,2.54736328 10.8374023,2.54736328 C11.7558594,2.54736328 12.5,3.29150391 12.5,4.20996094 C12.5,3.29150391 13.2441406,2.54736328 14.1625977,2.54736328 C15.0810547,2.54736328 15.8251953,3.29150391 15.8251953,4.20996094 C15.8251953,5.12792969 15.0810547,5.87255859 14.1625977,5.87255859 C14.1152344,5.87255859 14.0678711,5.87011719 14.0214844,5.86621094 L14.0214844,23.8999023 C14.0678711,23.8955078 14.1152344,23.8930664 14.1625977,23.8930664 C14.7368164,23.8930664 15.2431641,24.1845703 15.5419922,24.6269531 Z" id="Path" fill="#FFFFFF"></path>
                    <path d="M15.5419922,24.6269531 C14.5683594,24.8706055 13.5493164,25 12.5,25 L12.5,4.20996094 C12.5,3.29150391 13.2441406,2.54736328 14.1625977,2.54736328 C15.0810547,2.54736328 15.8251953,3.29150391 15.8251953,4.20996094 C15.8251953,5.12792969 15.0810547,5.87255859 14.1625977,5.87255859 C14.1152344,5.87255859 14.0678711,5.87011719 14.0214844,5.86621094 L14.0214844,23.8999023 C14.0678711,23.8955078 14.1152344,23.8930664 14.1625977,23.8930664 C14.7368164,23.8930664 15.2431641,24.1845703 15.5419922,24.6269531 Z" id="Path" fill="#FDF7BD"></path>
                    <path d="M20.0047363,14.8835937 C20.0047363,15.3635742 19.9793945,15.838623 19.9311523,16.3074707 C19.8674316,16.920459 19.7635254,17.5229004 19.621875,18.113623 C19.3509766,19.2381348 18.9420898,20.3205566 18.4095703,21.3479492 C18.0489746,22.0437988 17.2226074,22.4885254 16.3183105,22.4885254 L8.68237305,22.4885254 C7.77807617,22.4885254 6.95048828,22.0437988 6.58984375,21.3473145 C6.05727539,20.3205566 5.6484375,19.2380859 5.378125,18.1135742 C5.23647461,17.5222656 5.13256836,16.9197754 5.06884766,16.3074219 C5.02060547,15.8385742 4.99526367,15.3635254 4.99526367,14.8835449 C4.99526367,13.4757324 5.20864258,12.1094238 5.61010742,10.807373 C5.8,10.1900879 6.03193359,9.58759766 6.30410156,9.0012207 C6.39443359,8.80512695 6.4902832,8.61152344 6.58984375,8.41918945 C6.95043945,7.72270508 7.77807617,7.27797852 8.68237305,7.27797852 L12.5,7.27744141 L16.3169922,7.27744141 C17.2219238,7.27744141 18.048877,7.72216797 18.4095215,8.41865234 C18.5097168,8.61103516 18.6049805,8.80522461 18.6952637,9.00131836 C18.9667969,9.58769531 19.2,10.1901367 19.3898926,10.8074707 C19.7913086,12.1094727 20.0047363,13.4758301 20.0047363,14.8835937 Z" id="Path" fill="#EC781B"></path>
                    <path d="M20.0047363,14.8835938 C20.0047363,15.3635742 19.9793945,15.838623 19.9311523,16.3074707 C19.8674316,16.920459 19.7635254,17.5229004 19.621875,18.113623 C19.3509766,19.2381348 18.9420898,20.3205566 18.4095703,21.3479492 C18.0489746,22.0437988 17.2226074,22.4885254 16.3183105,22.4885254 L11.5172363,22.4885254 C10.7007813,22.4885254 9.95356445,22.0437988 9.62822266,21.3473145 C9.14760742,20.3205566 8.77836914,19.2380859 8.53466797,18.1135742 C8.40664063,17.5222656 8.31259766,16.9197754 8.25507813,16.3074219 C8.21176758,15.8385742 8.18891602,15.3635254 8.18891602,14.8835449 C8.18891602,13.4757324 8.38129883,12.1094238 8.74375,10.807373 C8.91508789,10.1900879 9.12475586,9.58759766 9.3703125,9.0012207 C9.45195313,8.80512695 9.53857422,8.61152344 9.62822266,8.41918945 C9.95356445,7.72270508 10.7007813,7.27797852 11.5172363,7.27797852 L14.9631348,7.27734375 L16.3170898,7.27734375 C17.2220215,7.27734375 18.0489746,7.72207031 18.4096191,8.41855469 C18.5098145,8.6109375 18.6050781,8.80512695 18.6953613,9.0012207 C18.9668945,9.58759766 19.2000977,10.1900391 19.3899902,10.807373 C19.7913086,12.1094727 20.0047363,13.4758301 20.0047363,14.8835938 Z" id="Path" fill="#C55733"></path>
                    <g id="Group" transform="translate(5.566406, 7.275391)" fill="#A63917">
                        <path d="M14.4383301,7.60820312 C14.4383301,8.08818359 14.4129883,8.56323242 14.3647461,9.03208008 C14.3010254,9.64506836 14.1971191,10.2475098 14.0554687,10.8382324 C13.7845703,11.9627441 13.3756836,13.045166 12.8431641,14.0725586 C12.4825684,14.769043 11.6549316,15.2137695 10.7500488,15.2131354 L6.93359375,15.2131354 L6.93359375,0.00205078125 L10.7505859,0.00205078125 C11.6555176,0.00205078125 12.4824707,0.446777344 12.8431152,1.14326172 C12.9433105,1.33564453 13.0385742,1.52983398 13.1288574,1.72592773 C13.4003906,2.31230469 13.6335938,2.91474609 13.8234863,3.53208008 C14.2249023,4.83408203 14.4383301,6.20043945 14.4383301,7.60820312 Z" id="Path"></path>
                        <path d="M4.33232422,2.62900391 C4.33232422,2.87827148 4.2309082,3.1046875 4.06757812,3.26796875 C3.90429688,3.43125 3.67851563,3.53208008 3.42924805,3.53208008 L0.0439941406,3.53208008 C0.233886719,2.91479492 0.465820312,2.31230469 0.737353516,1.72592773 L3.42924805,1.72592773 C3.92783203,1.72592773 4.33232422,2.13046875 4.33232422,2.62900391 Z" id="Path"></path>
                        <path d="M9.39663086,6.07734375 C9.39663086,6.32661133 9.29521484,6.55239258 9.13188477,6.71567383 C8.96860352,6.87895508 8.74282227,6.97978516 8.49355469,6.97978516 L4.60419922,6.97978516 C4.10566406,6.97978516 3.70112305,6.57587891 3.70112305,6.07734375 C3.70112305,5.82744141 3.80258789,5.60229492 3.96586914,5.43837891 C4.12915039,5.27509766 4.35493164,5.17426758 4.60419922,5.17426758 L8.49355469,5.17426758 C8.99208984,5.17426758 9.39663086,5.57817383 9.39663086,6.07734375 L9.39663086,6.07734375 Z" id="Path"></path>
                        <path d="M9.78134766,12.808252 C9.78134766,13.0581543 9.67988281,13.2833008 9.51660156,13.4472168 C9.35332031,13.610498 9.12753906,13.7113281 8.87827148,13.7113281 L4.98891602,13.7113281 C4.49038086,13.7113281 4.08583984,13.3074219 4.08583984,12.808252 C4.08583984,12.5589844 4.18725586,12.3332031 4.35058594,12.1699219 C4.51386719,12.0066406 4.73964844,11.9058105 4.98891602,11.9058105 L8.87827148,11.9058105 C9.37680664,11.9058105 9.78134766,12.3097168 9.78134766,12.808252 Z" id="Path"></path>
                    </g>
                    <path d="M19.3895996,10.8074219 L16.1225098,10.8074219 C15.6233398,10.8074219 15.2194336,10.4035156 15.2194336,9.9043457 C15.2194336,9.65507813 15.3202637,9.42929688 15.4835449,9.26601563 C15.6474609,9.10209961 15.8726074,9.00126953 16.1225098,9.00126953 L18.6956055,9.00126953 C18.9671387,9.58769531 19.199707,10.1901367 19.3895996,10.8074219 Z" id="Path" fill="#83250D"></path>
                    <path d="M19.9308105,16.3074707 C19.8677246,16.920459 19.7638184,17.5229004 19.6215332,18.113623 L17.0255371,18.113623 C16.5263672,18.113623 16.1224609,17.7097168 16.1224609,17.2105469 C16.1224609,16.9612793 16.223291,16.735498 16.3865723,16.5722168 C16.5504883,16.4083008 16.7756348,16.3074707 17.0255371,16.3074707 L19.9308105,16.3074707 Z" id="Path" fill="#83250D"></path>
                    <path d="M7.65654297,17.2105469 C7.65654297,17.4598145 7.55571289,17.6861816 7.39179688,17.8495117 C7.22851563,18.012793 7.00273438,18.113623 6.7534668,18.113623 L5.3784668,18.113623 C5.23618164,17.5223145 5.13227539,16.9198242 5.06918945,16.3074707 L6.7534668,16.3074707 C7.25200195,16.3074707 7.65654297,16.7120117 7.65654297,17.2105469 Z" id="Path" fill="#A63917"></path>
                    <path d="M14.0599609,14.2551758 L12.5,14.2551758 L12.5,12.4496582 L14.0599609,12.4496582 C14.5584961,12.4496582 14.9630371,12.8535645 14.9630371,13.3527344 C14.9630371,13.602002 14.8616211,13.8277832 14.698291,13.9910645 C14.5350098,14.1543457 14.3092285,14.2551758 14.0599609,14.2551758 L14.0599609,14.2551758 Z" id="Path" fill="#83250D"></path>
                    <path d="M15.3477539,20.0836426 C15.3477539,20.3335449 15.2462891,20.5586914 15.0830078,20.7226074 C14.9197266,20.8858887 14.6939453,20.9867187 14.4446777,20.9867187 L12.5,20.9867187 L12.5,19.1812012 L14.4446777,19.1812012 C14.9432129,19.1812012 15.3477539,19.5851074 15.3477539,20.0836426 Z" id="Path" fill="#83250D"></path>
                </g>
            </g>
        </g>
    </g>
</svg>