<?xml version="1.0" encoding="UTF-8"?>
<svg width="25px" height="25px" viewBox="0 0 25 25" version="1.1" xmlns="http://www.w3.org/2000/svg" xmlns:xlink="http://www.w3.org/1999/xlink">
    <!-- Generator: Sketch 58 (84663) - https://sketch.com -->
    <title>Vitamins</title>
    <desc>Created with Sketch.</desc>
    <g id="Page-1" stroke="none" stroke-width="1" fill="none" fill-rule="evenodd">
        <g id="Today" transform="translate(-842.000000, -83.000000)" fill-rule="nonzero">
            <g id="vitamins" transform="translate(823.000000, 75.000000)">
                <g id="Vitamins" transform="translate(19.000000, 8.000000)">
                    <circle id="Oval" fill="#FFE853" cx="12.5" cy="12.5" r="12.5"></circle>
                    <path d="M25,12.5 C25,16.753418 22.875,20.5112305 19.6289062,22.769043 C17.6069336,24.175293 15.1499023,25 12.5,25 C9.85009766,25 7.39306641,24.175293 5.37109375,22.769043 C2.125,20.5112305 0,16.753418 0,12.5 C0,10.2431641 0.598144531,8.12646484 1.64453125,6.29882812 C3.79882812,10.0620117 7.85351562,12.5976562 12.5,12.5976562 C17.1464844,12.5976562 21.2016602,10.0620117 23.3554688,6.29882812 C24.4018555,8.12646484 25,10.2431641 25,12.5 Z" id="Path" fill="#FED110"></path>
                    <path d="M21.5664062,17.9213867 C21.5664062,18.1855469 21.5581055,18.4472656 21.5410156,18.7070312 C21.4736328,19.7485352 21.2734375,20.753418 20.956543,21.7055664 C18.730957,23.7509766 15.7612305,25 12.5,25 C9.23876953,25 6.26904297,23.7509766 4.04345703,21.7055664 C3.7265625,20.753418 3.52636719,19.7485352 3.45898438,18.7070312 C3.44189453,18.4472656 3.43359375,18.1855469 3.43359375,17.9213867 C3.43359375,17.8046875 3.43505859,17.6879883 3.43847656,17.5717773 C3.43994141,17.5224609 3.44140625,17.4726563 3.44384766,17.4228516 C3.609375,13.4238281 5.80712891,10.8198242 8.61865234,9.61132812 C9.50585938,9.23046875 10.4926758,9.23828125 11.3554688,9.59082031 C11.7680664,9.75878906 12.1523438,10.0063477 12.4838867,10.3276367 C12.4892578,10.3330078 12.4946289,10.3378906 12.5,10.3432617 C12.5053711,10.3378906 12.5107422,10.3330078 12.5161133,10.3276367 C13.5410156,9.33496094 15.0698242,9.04785156 16.3813477,9.61132813 C19.1928711,10.8198242 21.390625,13.4238281 21.5561523,17.4228516 C21.5585937,17.4726563 21.5600586,17.5224609 21.5615234,17.5717773 C21.5649414,17.6879883 21.5664062,17.8046875 21.5664062,17.9213867 L21.5664062,17.9213867 Z" id="Path" fill="#FE3345"></path>
                    <path d="M21.5664062,17.9213867 C21.5664062,18.1855469 21.5581055,18.4472656 21.5410156,18.7070312 C21.4736328,19.7485352 21.2734375,20.753418 20.956543,21.7055664 C18.730957,23.7509766 15.7612305,25 12.5,25 C11.4897461,25 10.5078125,24.8798828 9.56689453,24.6538086 C8.61523438,22.890625 8.02294922,20.9047852 7.88623047,18.7954102 C7.86621094,18.484375 7.85595703,18.1708984 7.85595703,17.8544922 C7.85595703,17.7148438 7.85791016,17.5751953 7.86181641,17.4360352 C7.86376953,17.3769531 7.86572266,17.3173828 7.86816406,17.2578125 C7.97070312,14.7895508 8.71972656,12.7661133 9.88232422,11.1855469 C10.3867188,10.5004883 11.2207031,10.1396484 12.0644531,10.2475586 C12.2895508,10.2763672 12.4604492,10.3051758 12.4838867,10.3276367 C12.4892578,10.3330078 12.4946289,10.3378906 12.5,10.3432617 C12.5053711,10.3378906 12.5107422,10.3330078 12.5161133,10.3276367 C13.5410156,9.33496094 15.0698242,9.04785156 16.3813477,9.61132813 C19.1928711,10.8198242 21.390625,13.4238281 21.5561523,17.4228516 C21.5585937,17.4726563 21.5600586,17.5224609 21.5615234,17.5717773 C21.5649414,17.6879883 21.5664062,17.8046875 21.5664062,17.9213867 L21.5664062,17.9213867 Z" id="Path" fill="#DE1263"></path>
                    <path d="M21.5664063,17.9213867 C21.5664063,18.1855469 21.5581055,18.4472656 21.5410156,18.7070312 C21.4736328,19.7485352 21.2734375,20.753418 20.956543,21.7055664 C18.730957,23.7509766 15.7612305,25 12.5,25 L12.5,10.3432617 C12.5053711,10.3378906 12.5107422,10.3330078 12.5161133,10.3276367 C13.5410156,9.33496094 15.0698242,9.04785156 16.3813477,9.61132813 C19.1928711,10.8198242 21.390625,13.4238281 21.5561523,17.4228516 C21.5585938,17.4726562 21.5600586,17.5224609 21.5615234,17.5717773 C21.5649414,17.6879883 21.5664063,17.8046875 21.5664063,17.9213867 L21.5664063,17.9213867 Z" id="Path" fill="#BC0E5C"></path>
                    <path d="M14.1265137,6.33637695 C13.0069336,7.43081055 12.4630371,8.89238281 12.5,10.3433105 C13.9506348,10.4141602 15.4241699,9.90356445 16.54375,8.80917969 C17.6642578,7.71386719 18.2081543,6.25229492 18.1703125,4.80043945 C16.7196289,4.73139648 15.2460937,5.24194336 14.1265137,6.33637695 Z" id="Path" fill="#6CDC2D"></path>
                    <path d="M18.1703125,4.80039062 L12.5,10.3433105 C12.4630371,8.89238281 13.0069336,7.43081055 14.1265137,6.33637695 C15.2460938,5.24194336 16.7196289,4.73139648 18.1703125,4.80039062 Z" id="Path" fill="#00A042"></path>
                    <g id="Group" transform="translate(15.820312, 11.523438)" fill="#FF6477">
                        <path d="M2.25048828,0.882861328 C2.23085937,0.743603516 2.17773437,0.616748047 2.09111328,0.502246094 C2.01318359,0.381689453 1.91210937,0.288378906 1.78798828,0.222314453 C1.6730957,0.133496094 1.54208984,0.07890625 1.39482422,0.0586425781 C1.20297852,0.0254394531 1.01572266,0.0422851562 0.833056641,0.109130859 C0.803271484,0.120068359 0.773242187,0.130615234 0.743603516,0.141992187 C0.542333984,0.219091797 0.419873047,0.314306641 0.274804687,0.471630859 C-0.180908203,0.965917969 0.0279296875,1.82124023 0.623535156,2.09306641 C0.834179687,2.18920898 0.983935547,2.20830078 1.21333008,2.19960937 C1.2453125,2.19838867 1.27729492,2.19663086 1.30922852,2.19511719 C1.59072266,2.18193359 1.84423828,2.01958008 2.03017578,1.81884766 C2.15546875,1.67011719 2.23535156,1.49990234 2.26972656,1.30825195 C2.30112305,1.16298828 2.29467773,1.02119141 2.25048828,0.882861328 L2.25048828,0.882861328 Z" id="Path"></path>
                        <path d="M4.01210937,3.13300781 C3.94746094,2.66889648 3.58808594,2.40942383 3.13706055,2.40942383 C2.71611328,2.40942383 2.35756836,2.8831543 2.41347656,3.28447266 C2.478125,3.74858398 2.8375,4.00805664 3.28852539,4.00805664 C3.70947266,4.00805664 4.06801758,3.534375 4.01210937,3.13300781 Z" id="Path"></path>
                    </g>
                </g>
            </g>
        </g>
    </g>
</svg>