<svg id="Capa_1" enable-background="new 0 0 512 512" height="512" viewBox="0 0 512 512" width="512" xmlns="http://www.w3.org/2000/svg"><circle cx="256" cy="256" fill="#ffe853" r="256"/><path d="m512 256c0 87.11-43.52 164.07-110 210.31-41.41 28.8-91.73 45.69-146 45.69s-104.59-16.89-146-45.69c-66.48-46.24-110-123.2-110-210.31 0-46.22 12.25-89.57 33.68-127 44.12 77.07 127.16 129 222.32 129s178.21-51.93 222.32-129c21.43 37.43 33.68 80.78 33.68 127z" fill="#fed110"/><path d="m488.64 340.11v22.85c-.63 1.37-1.27 2.73-1.93 4.08-.51 1.05-1.03 2.1-1.55 3.15-.54 1.09-1.09 2.18-1.65 3.26l-.18.36c-.01.01-.01.03-.02.04-.34.65-.68 1.3-1.03 1.95-.39.74-.78 1.48-1.18 2.21-.1.19-.2.37-.31.56-.51.94-1.03 1.88-1.56 2.82-.56 1-1.13 1.99-1.71 2.99-.35.61-.71 1.22-1.08 1.83-.34.6-.7 1.19-1.06 1.78-.5.85-1.01 1.69-1.54 2.52-.48.79-.98 1.58-1.48 2.37-.09.16-.19.32-.3.48-.58.91-1.16 1.81-1.75 2.7-.53.81-1.06 1.62-1.6 2.42-.83 1.25-1.68 2.49-2.55 3.72-.54.79-1.09 1.57-1.65 2.35-.66.93-1.33 1.85-2.01 2.77-2.74 3.74-5.58 7.4-8.52 10.98-.68.83-1.36 1.65-2.05 2.46-.7.83-1.4 1.65-2.11 2.47-.9 1.06-1.83 2.11-2.77 3.16-.44.5-.88.99-1.32 1.47-1.46 1.62-2.95 3.22-4.46 4.8-1.06 1.11-2.13 2.21-3.21 3.3-1.03 1.05-2.08 2.09-3.14 3.13-.09.08-.18.17-.27.25-.96.95-1.94 1.88-2.92 2.81-.13.12-.25.24-.38.36-1.02.96-2.05 1.91-3.09 2.86-.05.04-.11.09-.16.14-.95.87-1.91 1.73-2.88 2.58-.4.36-.81.72-1.23 1.07-.93.82-1.87 1.63-2.81 2.42-1.17.99-2.35 1.97-3.54 2.94-1.19.96-2.39 1.92-3.6 2.87-.02.01-.03.03-.05.04-.54.43-1.09.85-1.64 1.27-.219.17-.443.334-.663.503-.963.741-1.929 1.479-2.903 2.205-1.198.893-2.404 1.776-3.615 2.652-2.43 1.76-4.89 3.46-7.38 5.11-.83.55-1.66 1.1-2.5 1.64-.84.55-1.68 1.09-2.52 1.62-.84.54-1.69 1.07-2.54 1.59-.75.47-1.51.93-2.27 1.38-.95.58-1.91 1.15-2.87 1.71-.66.39-1.32.77-1.98 1.15-.65.38-1.31.75-1.97 1.12-1 .56-2 1.12-3.01 1.66-.99.54-1.98 1.07-2.98 1.6-3.24 1.71-6.53 3.36-9.87 4.93-.8.38-1.59.75-2.39 1.12-.14.07-.29.14-.45.2-.96.44-1.92.88-2.89 1.3-2.11.94-4.24 1.85-6.38 2.72-1.07.44-2.14.88-3.22 1.3-3.4 1.35-6.84 2.62-10.32 3.82-.92.32-1.85.63-2.78.94-1 .34-2.02.67-3.03.99-2.32.74-4.65 1.45-7 2.12-22.489 6.46-46.249 9.92-70.819 9.92-14.1 0-27.93-1.14-41.41-3.34-5.93-7.97-11.98-18.61-20.33-32.46-12.7-21.08-26.41-32.58-55.03-32.94h-27.35c-14.62 0-28.41-3.59-40.52-9.93-18.79-19.57-34.51-42.12-46.36-66.87-.43-3.52-.65-7.1-.65-10.73v-58.35l302.47 27.84z" fill="#83250d"/><path d="m488.64 340.11v22.85c-30.86 67.03-89.84 118.44-161.82 139.12v-176.86z" fill="#531d10"/><path d="m488.65 340.11c0 4.88-.27 9.69-.8 14.43l-4.53 19.3s0 .01-.01.01c-16.91 32.58-40.63 61.05-69.27 83.54-.02.01-.03.03-.05.04l-3.24 1.99c-16.03 7.05-33.74 10.96-52.37 10.96h-99.86c-5.99 0-11.13-.39-15.63-1.22l-30.52-21.93c-5.25-7.57-10.8-17.25-18.11-29.38-12.03-19.94-24.94-31.32-50.56-32.79-1.45-.08-2.93-.13-4.47-.15l-93.63-30.37c-13.25-15.33-21.25-35.31-21.25-57.16 0-4.18.3-8.3.87-12.33 1.53-10.95 5.11-21.25 10.32-30.51 15-26.68 43.56-44.69 76.34-44.69h246.5c18.63 0 36.34 3.91 52.37 10.96 11.07 4.86 21.33 11.22 30.53 18.81 3.21 2.64 6.27 5.44 9.22 8.38 2.1 2.11 4.14 4.29 6.1 6.54 7.97 9.14 14.69 19.39 19.88 30.51 7.81 16.73 12.17 35.39 12.17 55.06z" fill="#ec781b"/><path d="m488.65 340.11c0 4.88-.27 9.69-.8 14.43l-4.53 19.3s0 .01-.01.01c-16.91 32.58-40.63 61.05-69.27 83.54-.02.01-.03.03-.05.04l-3.24 1.99c-16.03 7.05-33.74 10.96-52.37 10.96h-31.56v-260.53h31.56c18.63 0 36.34 3.91 52.37 10.96 11.07 4.86 21.33 11.22 30.53 18.81 3.21 2.64 6.27 5.44 9.22 8.38 2.1 2.11 4.14 4.29 6.1 6.54 7.97 9.14 14.69 19.39 19.88 30.51 7.81 16.73 12.17 35.39 12.17 55.06z" fill="#a63917"/><path d="m358.37 421.68s-13.9-.01-31.55-.03c-18.87-.01-42.05-.04-57.15-.07-10.17-.02-19.58-5.36-24.83-14.06-1.31-2.19-2.62-4.38-3.87-6.46-1.58-2.65-3.24-5.43-5-8.35-6.86-11.39-18.16-27.93-36.8-39.99-16.73-10.83-36.14-16.22-59.33-16.51h-27.3c-21.26 0-39.08-16.82-39.48-38.08-.41-21.75 17.16-39.58 38.82-39.58h246.49c44.98 0 81.57 36.58 81.57 81.56s-36.59 81.57-81.57 81.57zm92.12-173.68c-23.57-23.57-56.14-38.16-92.12-38.16h-246.49c-48.34 0-87.53 39.19-87.53 87.54 0 21.85 8 41.83 21.25 57.16h.01l93.62 30.37c28.62.36 42.33 11.86 55.03 32.95 7.32 12.14 12.87 21.81 18.13 29.38l30.5 21.92c4.5.83 9.63 1.22 15.63 1.22h99.85c18.64 0 36.36-3.91 52.38-10.95v-.01l3.24-1.99c.02-.01.03-.03.05-.04 28.64-22.49 52.36-50.97 69.28-83.55 0-.01 0-.02.01-.03l4.51-19.23.01-.04c.52-4.74.79-9.56.79-14.43 0-35.97-14.57-68.53-38.15-92.11z" fill="#a63917"/><g fill="#83250d"><path d="m488.64 340.11v22.85c-1.12 2.43-2.28 4.84-3.48 7.23-.6 1.21-1.21 2.42-1.83 3.62-.01.01-.01.02-.01.03 0 0 0 .01-.01.01-1.05 2.02-2.13 4.03-3.23 6.02-.97 1.74-1.95 3.47-2.96 5.19-16.32 27.92-37.78 52.46-63.08 72.33l-3.29 2.03v.01c-16.02 7.04-33.74 10.95-52.38 10.95h-31.55v-48.73c17.65.02 31.55.03 31.55.03 28.38 0 53.42-14.57 68.03-36.62 6.02-9.07 10.27-19.41 12.26-30.52.84-4.68 1.28-9.51 1.28-14.43 0-44.98-36.59-81.56-81.57-81.56h-31.55v-48.71h31.55c35.98 0 68.55 14.59 92.12 38.16 23.58 23.58 38.15 56.14 38.15 92.11z"/><path d="m143.699 209.846v175.223c-1.445-.083-2.93-.14-4.466-.157h-26.052v-175.066z"/><path d="m242.888 209.846v259.314c-13.851-2.559-21.768-9.319-30.518-21.933v-237.381z"/></g><path d="m441.27 239.61v193.05c-8.47 8.88-17.57 17.15-27.23 24.73-.02.01-.03.03-.05.04-.54.43-1.09.85-1.64 1.27-.53.25-1.06.49-1.59.72v-238.61c11.06 4.86 21.32 11.22 30.51 18.8z" fill="#531d10"/><path d="m476.477 285.052h-451.261c1.538-10.954 5.118-21.252 10.328-30.513h421.055c7.97 9.139 14.688 19.396 19.878 30.513z" fill="#83250d"/><path d="m487.85 354.54c-.58 5.32-1.48 10.55-2.69 15.65-.6 1.21-1.21 2.42-1.83 3.62-.01.01-.01.02-.01.03 0 0 0 .01-.01.01-1.97 3.79-4.03 7.53-6.18 11.21h-333.43c-1.45-.08-2.93-.13-4.47-.15h-27.35c-24.16 0-46.05-9.79-61.88-25.64-1.53-1.52-3-3.09-4.4-4.73z" fill="#83250d"/><ellipse cx="326.821" cy="320.406" fill="#fdf7bd" rx="50.316" ry="23.796"/><ellipse cx="326.821" cy="320.406" fill="#f9d19a" rx="28.334" ry="9.344"/><path d="m476.477 285.052h-149.655v-30.513h129.777c7.97 9.139 14.688 19.396 19.878 30.513z" fill="#531d10"/><path d="m488.64 354.54v8.42c-1.12 2.43-2.28 4.84-3.48 7.23-.6 1.21-1.21 2.42-1.83 3.62-.01.01-.01.02-.01.03 0 0 0 .01-.01.01-1.05 2.02-2.13 4.03-3.23 6.02-.96 1.74-1.95 3.47-2.95 5.19h-150.31v-30.52z" fill="#531d10"/><path d="m103.968 273.542-13.827 7.983c-4.273 2.467-9.738 1.003-12.205-3.27-2.467-4.273-1.003-9.738 3.27-12.205l13.827-7.983c4.273-2.467 9.738-1.003 12.205 3.27 2.467 4.273 1.003 9.738-3.27 12.205z" fill="#6cdc2d"/><path d="m165.871 337.181-12.475-9.964c-3.855-3.08-4.485-8.702-1.405-12.557 3.079-3.856 8.701-4.485 12.557-1.405l12.475 9.964c3.855 3.079 4.484 8.702 1.405 12.557-3.08 3.855-8.702 4.484-12.557 1.405z" fill="#00a042"/><path d="m402.311 405.271-12.475-9.964c-3.855-3.079-4.484-8.701-1.405-12.557 3.079-3.855 8.701-4.485 12.557-1.405l12.475 9.964c3.855 3.079 4.484 8.702 1.405 12.557-3.08 3.855-8.702 4.485-12.557 1.405z" fill="#6cdc2d"/><path d="m275.393 382.467 12.966-9.316c4.007-2.879 9.59-1.965 12.469 2.043 2.879 4.007 1.964 9.59-2.043 12.469l-12.966 9.316c-4.007 2.879-9.59 1.964-12.469-2.043-2.879-4.008-1.964-9.59 2.043-12.469z" fill="#6cdc2d"/><path d="m196.91 404.627 12.966-9.316c4.007-2.879 9.59-1.964 12.469 2.043 2.879 4.007 1.964 9.59-2.043 12.469l-12.966 9.316c-4.007 2.879-9.59 1.965-12.469-2.043-2.879-4.007-1.965-9.59 2.043-12.469z" fill="#6cdc2d"/><path d="m255.027 238.348 12.966-9.316c4.007-2.879 9.59-1.965 12.469 2.043 2.879 4.007 1.964 9.59-2.043 12.469l-12.966 9.316c-4.007 2.879-9.59 1.964-12.469-2.043-2.879-4.007-1.964-9.59 2.043-12.469z" fill="#00a042"/><path d="m315.125 451.705 12.966-9.316c4.007-2.879 9.59-1.964 12.469 2.043 2.879 4.007 1.964 9.59-2.043 12.469l-12.966 9.316c-4.007 2.879-9.59 1.965-12.469-2.043-2.879-4.008-1.964-9.59 2.043-12.469z" fill="#6cdc2d"/><path d="m380.86 249.969 12.966-9.316c4.007-2.879 9.59-1.964 12.469 2.043 2.879 4.007 1.964 9.59-2.043 12.469l-12.966 9.316c-4.007 2.879-9.59 1.964-12.469-2.043-2.879-4.008-1.964-9.59 2.043-12.469z" fill="#00a042"/><path d="m430.043 308.769 14.097 7.495c4.357 2.316 6.011 7.726 3.695 12.083-2.316 4.357-7.726 6.011-12.083 3.695l-14.097-7.495c-4.357-2.316-6.011-7.726-3.695-12.083 2.316-4.357 7.726-6.011 12.083-3.695z" fill="#00a042"/></svg>