<svg id="Capa_1" enable-background="new 0 0 512 512" height="512" viewBox="0 0 512 512" width="512" xmlns="http://www.w3.org/2000/svg"><circle cx="256" cy="256" fill="#ffe853" r="256"/><path d="m512 256c0 87.11-43.52 164.07-110 210.31-41.41 28.8-91.73 45.69-146 45.69s-104.59-16.89-146-45.69c-66.48-46.24-110-123.2-110-210.31 0-46.22 12.25-89.57 33.68-127 44.12 77.07 127.16 129 222.32 129s178.21-51.93 222.32-129c21.43 37.43 33.68 80.78 33.68 127z" fill="#fed110"/><path d="m227.977 509.523c-8.615-.34-17.043-4.178-23.015-11.296-5.732-6.821-8.08-15.363-7.234-23.578-.09-.086-.171-.167-.257-.261.103-.104.188-.193.291-.297.004-.009.021-.022.026-.031.018-.154.032-.299.05-.453.127.005.242.016.365.03 5.768-5.911 13.832-9.577 22.742-9.543 9.291.028 17.637 4.044 23.415 10.443-5.823 6.351-14.186 10.332-23.473 10.295-.035.005-.066.002-.097-.002.023.021.045.043.063.073 5.976 7.109 8.274 16.081 7.124 24.62z" fill="#ec781b"/><path d="m244.359 474.537c-5.823 6.351-14.186 10.332-23.473 10.295-.035.005-.066.002-.097-.002.023.021.045.043.063.073l-23.091-10.811c.004-.009.021-.022.026-.031.018-.154.032-.299.05-.453.127.005.242.016.365.03 5.768-5.911 13.832-9.577 22.742-9.543 9.292.027 17.637 4.043 23.415 10.442z" fill="#c55733"/><path d="m213.604 482.732c-.079.169-.163.325-.264.472-.932 1.459-2.709 2.176-4.432 1.738-9.683-2.432-19.27-5.946-28.58-10.609-.916-.45-1.814-.914-2.717-1.391-5.17-2.724-10.101-5.726-14.775-8.976-9.482-6.585-17.942-14.196-25.286-22.595-4.734-5.412-9.012-11.152-12.809-17.154-11.872-18.785-19.05-40.192-20.946-62.332-.565-6.612-.663-13.298-.265-20.001 1.006-16.839 5.103-33.779 12.558-50.025.332-.733.678-1.47 1.032-2.203 2.144-4.488 4.504-8.81 7.061-12.953 3.012-4.905 6.31-9.567 9.839-13.981 15.991-19.972 43.835-22.945 63.413-9.651 4.806 3.247 9.115 7.485 12.628 12.683l.091.129c12.844 19.023 9.911 44.211-6.251 60.246-.492.495-1.002.983-1.525 1.452-3.876 3.536-7.489 7.412-10.796 11.605-4.44 5.666-8.321 11.919-11.503 18.715-2.047 4.371-3.736 8.812-5.069 13.301-1.634 5.409-2.752 10.876-3.388 16.351-1.299 11.08-.627 22.183 1.846 32.819 1.264 5.445 2.989 10.759 5.163 15.903 2.256 5.314 4.991 10.44 8.179 15.29 3.047 4.666 6.518 9.075 10.394 13.175 4.49 4.778 9.526 9.129 15.053 12.963 1.617 1.125 2.181 3.253 1.349 5.029z" fill="#f9d19a"/><path d="m213.604 482.732c-.079.169-.163.325-.264.472-8.018-2.703-15.764-6.471-23.082-11.338-12.565-8.353-22.744-19.163-30.453-31.709-3.339-5.409-6.203-11.137-8.608-17.127-7.513-18.726-10.431-40.001-8.555-61.936.564-6.549 1.552-13.171 2.984-19.791 3.6-16.664 9.954-33.382 19.175-49.374.412-.717.841-1.448 1.274-2.166 2.62-4.417 5.403-8.671 8.339-12.745 3.457-4.815 7.14-9.396 10.974-13.72 3.715-4.186 7.788-7.587 12.047-10.229 4.806 3.247 9.115 7.485 12.628 12.683l.091.129c12.844 19.023 9.911 44.211-6.251 60.246-.492.495-1.002.983-1.525 1.452-3.876 3.536-7.489 7.412-10.796 11.605-4.44 5.666-8.321 11.919-11.503 18.715-2.047 4.371-3.736 8.812-5.069 13.301-1.634 5.409-2.752 10.876-3.388 16.351-1.299 11.08-.627 22.183 1.846 32.819 1.264 5.445 2.989 10.759 5.163 15.903 6.934 16.354 18.393 30.861 33.626 41.427 1.615 1.128 2.179 3.256 1.347 5.032z" fill="#f79f63"/><path d="m203.9 326.128c-.492.495-1.002.983-1.525 1.452-3.876 3.536-7.489 7.412-10.796 11.605-3.903-1.589-7.747-3.281-11.559-5.065-23.224-10.874-44.828-25.16-63.934-42.262.332-.733.678-1.47 1.032-2.203 2.144-4.488 4.504-8.81 7.061-12.953 23.087 21.371 50.28 38.274 79.721 49.426z" fill="#ec781b"/><path d="m171.619 387.553c-16.875-3.103-33.518-8.414-49.323-15.815l-1.271-.595c-5.896-2.815-11.655-5.901-17.231-9.259-.565-6.612-.663-13.298-.265-20.001 21.466 14.535 46.031 24.672 71.478 29.319-1.633 5.409-2.752 10.876-3.388 16.351z" fill="#ec781b"/><path d="m178.628 436.275c-6.249 1.57-12.59 2.782-18.984 3.622-7.322.97-14.713 1.463-22.094 1.473-4.734-5.412-9.012-11.152-12.809-17.154 8.923.723 17.935.653 26.867-.192 7.364-.69 14.67-1.905 21.858-3.653 1.263 5.446 2.988 10.76 5.162 15.904z" fill="#ec781b"/><path d="m197.201 464.74c-3.013 1.947-6.09 3.799-9.222 5.561-2.514 1.412-5.068 2.751-7.651 4.033-.916-.45-1.814-.914-2.717-1.391-5.17-2.724-10.101-5.726-14.775-8.976 3.9-1.597 7.725-3.359 11.472-5.277 4.28-2.177 8.449-4.558 12.5-7.124.334.514.671 1.019 1.018 1.527 1.099 1.609 2.25 3.199 3.466 4.743.345.443.69.886 1.039 1.321 1.545 1.925 3.169 3.779 4.87 5.583z" fill="#ec781b"/><path d="m200.315 336.863c-1.283 2.995-.327 6.368-1.671 9.259-1.368 2.945-4.868 4.058-7.665 5.705-8.11 4.782-.605 13.322-2.389 20.026-1.164 4.383-6.322 6.561-7.524 11.003-.725 2.683.208 5.502.327 8.277.429 9.332-10.35 4.545-13.631 11.577-6.559 14.054-12.584-1.787-21.413 3.027-2.251 1.221-4.052 3.172-6.28 4.436-.129.091-.276.174-.419.248-3.966 2.086-7.513 2.212-10.517-1.112-6.635-7.341-17.892 5.348-23.854-5.752-2.143-3.992.683-7.349-.01-11.554-.412-2.499-2.336-4.45-4.273-6.093-1.929-1.64-4.038-3.267-5.051-5.593-1.782-4.084 1.765-4.579 2.497-7.485.646-2.514-.716-5.296-1.681-7.514-1.824-4.179-5.299-8.255-3.4-13.074 1.512-3.831 5.89-7.143 3.137-11.605-2.171-3.53-4.432-7.654-3.169-11.601 2.056-6.403 11.193-10.163 7.41-17.815-1.125-2.271-2.677-4.601-2.312-7.116.464-3.119 3.624-4.965 6.339-6.575 9.406-5.561 3.271-11.337 4.903-19.217.722-3.508 4.371-5.471 7.633-6.933 6.621-2.966 8.4-6.466 7.883-13.575-.161-2.177-.259-4.443.629-6.432 2.121-4.737 6.748-4.001 10.791-5.65 4.569-1.869 5.339-6.383 9.537-9.032 2.263-1.432 5.114-2.155 7.647-1.294 2.16.73 3.821 2.504 5.911 3.407 3.213 1.396 6.922.555 10.233-.571 3.315-1.112 6.698-2.507 10.183-2.176 3.969.385 5.588 3.613 7.661 6.425.491.663 1.003 1.304 1.58 1.877 4.234 4.214 6.375 1.284 11.595.869 2.939-.238 6.141.72 7.853 3.124 4.622 6.508-1.326 16.158 9.236 17.821 3.569.566 7.928.95 9.5 4.21 3.001 6.269-5.874 12.036-2.981 18.882 1.481 3.499 5.075 6.373 4.721 10.161-.521 5.508-8.588 7.006-10.686 12.133-1.338 3.273.172 7.013-.348 10.507-1.418 9.507-14.293 6.328-17.932 14.795z" fill="#f79f63"/><path d="m200.315 336.863c-1.283 2.995-.327 6.368-1.671 9.259-1.368 2.945-4.868 4.058-7.665 5.705-8.11 4.782-.605 13.322-2.389 20.026-1.164 4.383-6.322 6.561-7.524 11.003-.725 2.683.208 5.502.327 8.277.429 9.332-10.35 4.545-13.631 11.577-6.559 14.054-12.584-1.787-21.413 3.027-2.251 1.221-4.052 3.172-6.28 4.436-.222-1.284-.418-2.578-.6-3.855-1.482-10.161-2.959-20.331-4.437-30.501-.811-5.579-1.589-11.436.412-16.705 2.841-7.433 10.87-12.643 11.57-20.569.669-7.443-5.548-14.849-2.99-21.862 3.362-9.193 18.734-9.405 21.45-18.813 2.192-7.574-5.644-16.54-1.034-22.939 3.504-4.87 11.389-3.712 16.022-7.522 3.188-2.645 4.158-7.098 4.477-11.227.311-4.133.204-8.44 1.964-12.198.241-.515.544-1.023.874-1.497.491.663 1.003 1.304 1.58 1.877 4.234 4.214 6.375 1.284 11.595.869 2.939-.238 6.141.72 7.853 3.124 4.622 6.508-1.326 16.158 9.236 17.821 3.569.566 7.928.95 9.5 4.21 3.001 6.269-5.874 12.036-2.981 18.882 1.481 3.499 5.075 6.373 4.721 10.161-.521 5.508-8.588 7.006-10.686 12.133-1.338 3.273.172 7.013-.348 10.507-1.418 9.506-14.293 6.327-17.932 14.794z" fill="#f4873d"/><path d="m178.628 436.275c-6.249 1.57-12.59 2.782-18.984 3.622-3.083-5.029-5.765-10.336-8.036-15.873 7.364-.69 14.67-1.905 21.858-3.653 1.263 5.446 2.988 10.76 5.162 15.904z" fill="#f4873d"/><path d="m197.201 464.74c-3.013 1.947-6.09 3.799-9.222 5.561-4.943-3.485-9.507-7.365-13.671-11.611 4.28-2.177 8.449-4.558 12.5-7.124.334.514.671 1.019 1.018 1.527 1.099 1.609 2.25 3.199 3.466 4.743.345.443.69.886 1.039 1.321 1.545 1.925 3.169 3.779 4.87 5.583z" fill="#f4873d"/><path d="m341.143 329c6.122-7.729 9.069-17.902 7.341-28.386-1.65-10.055-7.313-18.455-15.072-23.84-.007-.142-.017-.273-.035-.417-.166.012-.308.019-.474.031-.011-.003-.035.002-.046-.001-.147-.099-.283-.195-.43-.294-.09.115-.167.221-.246.339-9.426.603-18.614 4.87-25.221 12.627-6.896 8.084-9.628 18.317-8.378 28.098 9.848-.322 19.532-4.614 26.418-12.702.031-.026.051-.056.07-.085.002.035.004.071.016.109 1.716 10.48 7.791 19.158 16.057 24.521z" fill="#ec781b"/><path d="m298.58 317.155c9.848-.322 19.532-4.614 26.418-12.702.031-.026.051-.056.07-.085.002.035.004.071.016.109l7.817-28.091c-.011-.003-.035.002-.046-.001-.147-.099-.283-.195-.43-.294-.09.115-.167.221-.246.339-9.426.603-18.614 4.87-25.221 12.627-6.896 8.084-9.627 18.318-8.378 28.098z" fill="#c55733"/><path d="m328.6 296.571c.206.057.403.1.607.122 1.961.278 3.906-.73 4.809-2.551 5.102-10.214 9.194-21.152 12.082-32.703.291-1.13.558-2.255.816-3.395 1.487-6.515 2.555-13.03 3.216-19.508 1.349-13.133 1.045-26.144-.774-38.773-1.17-8.14-2.965-16.127-5.345-23.893-7.458-24.295-20.688-46.469-38.489-64.606-5.317-5.416-11.046-10.48-17.159-15.128-15.362-11.67-33.114-20.733-52.765-26.364-.883-.257-1.781-.507-2.68-.746-5.492-1.482-11-2.654-16.5-3.52-6.5-1.04-13.003-1.651-19.462-1.876-29.243-.999-52.563 20.949-55.609 47.84-.762 6.589-.294 13.485 1.6 20.405l.044.175c6.941 25.315 30.983 41.532 56.937 39.45.796-.058 1.599-.137 2.396-.241 5.956-.73 12.011-.978 18.112-.724 8.224.367 16.541 1.657 24.809 3.958 5.318 1.48 10.43 3.322 15.318 5.509 5.911 2.611 11.488 5.712 16.713 9.239 10.582 7.126 19.717 15.98 27.105 26.048 3.784 5.152 7.11 10.608 9.955 16.326 2.93 5.916 5.342 12.107 7.176 18.487 1.779 6.12 3.02 12.416 3.691 18.833.802 7.455.826 15.066.036 22.719-.226 2.241 1.2 4.315 3.361 4.917z" fill="#f9d19a"/><path d="m328.6 296.571c.206.057.403.1.607.122 3.626-8.971 6.127-18.5 7.354-28.476 2.111-17.125.312-34.011-4.833-50.046-2.207-6.926-5.044-13.678-8.45-20.227-10.654-20.468-26.943-38.847-47.375-53.558-6.104-4.389-12.586-8.463-19.397-12.152-17.142-9.289-36.383-16.227-57.129-20.137-.929-.177-1.883-.349-2.828-.508-5.785-1.016-11.549-1.77-17.271-2.256-6.754-.587-13.472-.803-20.081-.697-6.399.106-12.384 1.107-17.849 2.835-.762 6.589-.294 13.485 1.6 20.405l.044.175c6.941 25.315 30.983 41.532 56.937 39.45.796-.058 1.599-.137 2.396-.241 5.956-.73 12.011-.978 18.112-.724 8.224.367 16.541 1.657 24.809 3.958 5.318 1.48 10.43 3.322 15.318 5.509 5.911 2.611 11.488 5.712 16.713 9.239 10.582 7.126 19.717 15.98 27.105 26.048 3.784 5.152 7.11 10.608 9.955 16.326 9.027 18.198 13.081 38.949 10.903 60.038-.227 2.241 1.199 4.315 3.36 4.917z" fill="#f79f63"/><path d="m199.928 171.501c.796-.058 1.599-.137 2.396-.241 5.956-.73 12.011-.978 18.112-.724 1.528-4.571 2.924-9.167 4.214-13.803 7.863-28.253 11.558-57.642 10.948-86.96-.883-.257-1.781-.507-2.68-.746-5.492-1.482-11-2.654-16.5-3.52 1.349 35.951-4.238 72.138-16.49 105.994z" fill="#ec781b"/><path d="m277.277 189.242c9.878-16.955 17.664-35.354 23.015-54.582l.43-1.546c1.949-7.213 3.56-14.509 4.8-21.85-5.317-5.416-11.046-10.48-17.159-15.128-3.376 29.455-12.877 58.323-27.799 83.866 5.911 2.612 11.488 5.713 16.713 9.24z" fill="#ec781b"/><path d="m314.338 231.615c6.017-4.253 11.792-8.853 17.284-13.776 6.295-5.631 12.229-11.678 17.736-18.076-1.17-8.14-2.965-16.127-5.345-23.893-6.02 8.282-12.793 16.051-20.178 23.172-6.084 5.876-12.581 11.312-19.451 16.247 3.782 5.152 7.108 10.608 9.954 16.326z" fill="#ec781b"/><path d="m325.205 268.934c3.934-1.164 7.834-2.455 11.695-3.861 3.098-1.129 6.162-2.349 9.198-3.635.291-1.13.558-2.255.816-3.395 1.487-6.515 2.555-13.03 3.216-19.508-4.291 2.195-8.669 4.202-13.124 6.025-5.077 2.092-10.249 3.937-15.493 5.54.197.672.384 1.341.567 2.021.577 2.152 1.1 4.335 1.534 6.541.128.629.255 1.259.372 1.885.521 2.778.92 5.568 1.219 8.387z" fill="#ec781b"/><path d="m211.915 176.385c3.555 1.118 5.77 4.459 9.279 5.447 3.575 1.006 7.147-1.202 10.66-2.402 10.19-3.476 12.011 9.398 19.158 12.843 4.671 2.255 10.403-.599 15.153 1.666 2.868 1.369 4.62 4.279 6.939 6.45 7.779 7.324 11.654-5.596 20.2-3.206 17.082 4.777 7.823-12.252 18.577-16.328 2.736-1.044 5.771-1.154 8.527-2.145.176-.044.357-.11.527-.179 4.764-1.888 7.516-4.872 6.869-9.955-1.428-11.226 17.968-11.543 12.776-24.985-1.867-4.833-6.886-4.882-10.019-8.615-1.862-2.219-2.122-5.341-2.105-8.247.014-2.896.173-5.937-1.091-8.549-2.217-4.588-5.288-1.879-8.356-3.408-2.663-1.312-4.063-4.566-5.268-7.056-2.268-4.696-3.216-10.747-8.813-12.689-4.451-1.541-10.586-.209-12.408-5.922-1.446-4.513-3.341-9.547-7.707-11.391-7.088-2.986-17.156 2.143-20.98-6.84-1.133-2.668-1.998-5.75-4.453-7.307-3.052-1.921-7.008-.553-10.428.603-11.833 4.021-12.275-5.605-20.328-10.059-3.581-1.987-8.004-.283-11.702 1.46-7.506 3.536-11.868 2.473-17.653-3.271-1.769-1.762-3.663-3.535-6.05-4.246-5.69-1.688-8.498 2.875-12.941 5.156-5.025 2.573-9.515-.121-14.941 1.548-2.928.897-5.679 2.833-6.819 5.672-.975 2.419-.673 5.181-1.447 7.668-1.182 3.829-4.675 6.42-8.117 8.455-3.435 2.049-7.165 3.945-9.473 7.216-2.622 3.731-1.027 7.54-.131 11.434.21.92.384 1.842.452 2.769.503 6.813-3.634 6.488-7.883 10.709-2.395 2.373-3.949 5.865-3.138 9.142 2.205 8.858 15.01 10.885 8.585 21.29-2.167 3.519-5.081 7.588-3.423 11.38 3.205 7.273 14.819 3.868 18.606 11.478 1.933 3.892 1.75 9.151 5.301 11.665 5.168 3.651 12.477-2.234 18.488-.235 3.837 1.277 5.958 5.373 9.377 7.524 9.31 5.853 16.141-7.688 26.2-4.54z" fill="#f79f63"/><path d="m211.915 176.385c3.555 1.118 5.77 4.459 9.279 5.447 3.575 1.006 7.147-1.202 10.66-2.402 10.19-3.476 12.011 9.398 19.158 12.843 4.671 2.255 10.403-.599 15.153 1.666 2.868 1.369 4.62 4.279 6.939 6.45 7.779 7.324 11.654-5.596 20.2-3.206 17.082 4.777 7.823-12.252 18.577-16.328 2.736-1.044 5.771-1.154 8.527-2.145-.949-1.149-1.927-2.283-2.899-3.392-7.714-8.854-15.439-17.712-23.163-26.569-4.238-4.859-8.74-9.897-14.804-12.085-8.566-3.071-19.068.016-26.467-5.281-6.957-4.964-8.753-15.875-16.745-18.879-10.482-3.93-22.116 9.252-32.303 4.6-8.206-3.739-10.149-17.218-19.136-17.984-6.836-.586-11.705 7.119-18.462 8.301-4.67.797-9.256-1.679-13.077-4.478-3.818-2.809-7.476-6.11-12.048-7.382-.627-.174-1.293-.29-1.95-.357.21.92.384 1.842.452 2.769.503 6.813-3.634 6.488-7.883 10.709-2.395 2.373-3.949 5.865-3.138 9.142 2.205 8.858 15.01 10.885 8.585 21.29-2.167 3.519-5.081 7.588-3.423 11.38 3.205 7.273 14.819 3.868 18.606 11.478 1.933 3.892 1.75 9.151 5.301 11.665 5.168 3.651 12.477-2.234 18.488-.235 3.837 1.277 5.958 5.373 9.377 7.524 9.306 5.852 16.137-7.689 26.196-4.541z" fill="#f4873d"/><path d="m314.338 231.615c6.017-4.253 11.792-8.853 17.284-13.776-2.067-6.421-4.675-12.702-7.788-18.797-6.084 5.876-12.581 11.312-19.451 16.247 3.783 5.152 7.109 10.608 9.955 16.326z" fill="#f4873d"/><path d="m325.205 268.934c3.934-1.164 7.834-2.455 11.695-3.861.658-6.885.69-13.736.107-20.513-5.077 2.092-10.249 3.937-15.493 5.54.197.672.384 1.341.567 2.021.577 2.152 1.1 4.335 1.534 6.541.128.629.255 1.259.372 1.885.52 2.778.919 5.568 1.218 8.387z" fill="#f4873d"/><path d="m243.318 433.001c5.317 5.123 12.686 8.056 20.625 7.527 7.614-.502 14.284-4.114 18.86-9.507.106.005.204.007.314.004.003-.125.008-.231.011-.356.003-.008.001-.027.004-.034.085-.102.166-.197.251-.299-.079-.076-.153-.14-.235-.208.234-7.069-2.282-14.226-7.585-19.712-5.526-5.725-12.955-8.502-20.335-8.279-.473 7.363 2.025 14.892 7.553 20.609.018.025.038.042.058.059-.026-.001-.053-.003-.083.004-7.934.521-14.842 4.42-19.438 10.192z" fill="#ec781b"/><path d="m255.229 402.136c-.473 7.363 2.025 14.892 7.553 20.609.018.025.038.042.058.059-.026-.001-.053-.003-.083.004l20.37 7.861c.003-.008.001-.027.004-.034.085-.102.166-.197.251-.299-.079-.076-.153-.14-.235-.208.234-7.069-2.282-14.226-7.585-19.712-5.524-5.726-12.953-8.503-20.333-8.28z" fill="#c55733"/><path d="m268.397 426.001c-.058.149-.104.293-.135.443-.349 1.441.261 2.964 1.553 3.769 7.243 4.542 15.099 8.384 23.499 11.373.821.299 1.641.579 2.471.854 4.748 1.58 9.527 2.848 14.306 3.81 9.691 1.957 19.41 2.672 28.954 2.231 6.151-.283 12.234-1.042 18.195-2.254 18.647-3.799 36.133-12.054 50.939-24.008 4.422-3.571 8.611-7.474 12.518-11.693 9.81-10.604 17.85-23.179 23.47-37.417.256-.64.507-1.29.75-1.944 1.502-3.986 2.774-8.006 3.819-12.043 1.246-4.769 2.172-9.572 2.807-14.369 2.862-21.723-11.807-40.693-31.629-44.911-4.855-1.045-10.029-1.196-15.324-.285l-.134.02c-19.371 3.34-33.198 20.084-33.526 39.579-.014.598-.013 1.202.006 1.803.113 4.492-.141 9.023-.772 13.552-.869 6.103-2.433 12.208-4.746 18.204-1.488 3.856-3.231 7.533-5.215 11.018-2.375 4.217-5.09 8.149-8.097 11.788-6.077 7.371-13.338 13.538-21.376 18.315-4.114 2.447-8.421 4.531-12.889 6.237-4.622 1.756-9.41 3.105-14.298 4.01-4.69.883-9.472 1.352-14.304 1.387-5.614.058-11.289-.475-16.935-1.618-1.654-.331-3.303.582-3.907 2.149z" fill="#f9d19a"/><path d="m268.397 426.001c-.058.149-.104.293-.135.443 6.424 3.352 13.344 5.906 20.691 7.543 12.611 2.813 25.326 2.695 37.65.022 5.322-1.143 10.56-2.769 15.688-4.833 16.026-6.458 30.905-17.268 43.348-31.43 3.713-4.231 7.219-8.767 10.462-13.576 8.164-12.104 14.729-25.941 19.146-41.121.199-.68.397-1.378.583-2.071 1.176-4.238 2.156-8.479 2.932-12.709.927-4.991 1.574-9.982 1.974-14.916.385-4.777.072-9.31-.82-13.509-4.855-1.045-10.029-1.196-15.324-.285l-.134.02c-19.371 3.34-33.198 20.084-33.526 39.579-.014.598-.013 1.202.006 1.803.113 4.492-.141 9.023-.772 13.552-.869 6.103-2.433 12.208-4.746 18.204-1.488 3.856-3.231 7.533-5.215 11.018-2.375 4.217-5.09 8.149-8.097 11.788-6.077 7.371-13.338 13.538-21.376 18.315-4.114 2.447-8.421 4.531-12.889 6.237-14.217 5.41-29.976 6.929-45.537 3.779-1.656-.333-3.305.58-3.909 2.147z" fill="#f79f63"/><path d="m370.93 339.158c-.014.598-.013 1.202.006 1.803.113 4.492-.141 9.023-.772 13.552 3.296 1.47 6.62 2.843 9.983 4.14 20.488 7.906 42.124 12.789 64.02 14.457.256-.64.507-1.29.75-1.944 1.502-3.986 2.774-8.006 3.819-12.043-26.893-1.597-53.46-8.382-77.806-19.965z" fill="#ec781b"/><path d="m352.107 395.522c11.922 8.59 25.07 15.726 39.014 21.106l1.121.432c5.235 1.975 10.556 3.704 15.938 5.16 4.422-3.571 8.611-7.474 12.518-11.693-21.709-4.649-42.536-13.821-60.493-26.792-2.376 4.217-5.091 8.149-8.098 11.787z" fill="#ec781b"/><path d="m317.842 420.075c2.734 4.792 5.744 9.43 9.016 13.88 3.741 5.1 7.818 9.96 12.188 14.528 6.151-.283 12.234-1.042 18.195-2.254-5.736-5.086-11.036-10.697-15.809-16.717-3.939-4.96-7.52-10.196-10.701-15.674-4.115 2.447-8.422 4.531-12.889 6.237z" fill="#ec781b"/><path d="m289.24 425.472c.583 3.016 1.262 6.016 2.03 8.996.617 2.391 1.305 4.763 2.044 7.119.821.299 1.641.579 2.471.854 4.748 1.58 9.527 2.848 14.306 3.81-1.325-3.357-2.504-6.765-3.54-10.218-1.192-3.936-2.192-7.924-3.007-11.948-.515.098-1.027.189-1.547.276-1.646.274-3.311.506-4.986.67-.478.049-.957.099-1.432.141-2.108.186-4.216.282-6.339.3z" fill="#ec781b"/><path d="m366.422 347.738c-1.09 2.569-3.741 3.977-4.732 6.522-1.009 2.591.378 5.414 1.018 8.119 1.853 7.847-7.874 8.272-10.959 13.349-2.019 3.318-.307 7.797-2.339 11.173-1.228 2.039-3.523 3.134-5.309 4.705-6.022 5.267 3.327 9.091.926 15.288-4.797 12.385 8.565 6.718 10.824 15.028.58 2.115.442 4.385.981 6.511.02.134.056.274.096.406 1.062 3.688 3.087 5.955 6.922 5.841 8.47-.252 7.302 14.227 17.696 11.331 3.737-1.042 4.137-4.779 7.146-6.843 1.788-1.227 4.134-1.195 6.299-.971 2.157.22 4.413.559 6.45-.194 3.58-1.32 1.784-3.805 3.146-5.981 1.17-1.889 3.697-2.697 5.64-3.415 3.664-1.351 8.243-1.619 10.095-5.649 1.471-3.206.922-7.875 5.312-8.819 3.468-.751 7.358-1.798 9.048-4.919 2.738-5.067-.355-12.942 6.617-15.141 2.07-.651 4.43-1.073 5.768-2.79 1.653-2.136.92-5.183.306-7.815-2.14-9.11 5.066-8.743 8.969-14.422 1.74-2.525.79-5.945-.241-8.827-2.092-5.85-.984-9.024 3.716-12.92 1.441-1.191 2.9-2.474 3.602-4.202 1.671-4.119-1.528-6.542-2.906-10.018-1.554-3.931.779-7.083-.072-11.248-.457-2.247-1.7-4.438-3.733-5.493-1.732-.902-3.813-.877-5.61-1.633-2.768-1.158-4.446-3.949-5.714-6.662-1.278-2.708-2.422-5.626-4.692-7.583-2.591-2.224-5.545-1.311-8.513-.926-.701.09-1.401.153-2.097.136-5.114-.119-4.573-3.178-7.411-6.651-1.595-1.957-4.085-3.368-6.586-3.001-6.762 1.002-9.199 10.398-16.489 4.857-2.466-1.87-5.287-4.337-8.234-3.375-5.653 1.862-3.956 10.765-9.902 13.036-3.041 1.159-6.947.642-9.078 3.106-3.095 3.587.761 9.461-1.164 13.797-1.23 2.767-4.436 4.052-6.287 6.444-5.031 6.508 4.566 12.58 1.491 19.849z" fill="#f79f63"/><path d="m366.422 347.738c-1.09 2.569-3.741 3.977-4.732 6.522-1.009 2.591.378 5.414 1.018 8.119 1.853 7.847-7.874 8.272-10.959 13.349-2.019 3.318-.307 7.797-2.339 11.173-1.228 2.039-3.523 3.134-5.309 4.705-6.022 5.267 3.327 9.091.926 15.288-4.797 12.385 8.565 6.718 10.824 15.028.58 2.115.442 4.385.981 6.511.925-.624 1.841-1.271 2.738-1.915 7.158-5.108 14.319-10.224 21.48-15.34 3.928-2.806 8.009-5.797 10.079-10.158 2.909-6.162 1.369-14.213 5.853-19.344 4.203-4.825 12.466-5.374 15.283-11.113 3.688-7.527-5.294-17.153-1.089-24.409 3.381-5.845 13.568-6.318 14.789-12.96.932-5.052-4.458-9.239-4.85-14.361-.255-3.538 1.922-6.777 4.284-9.422 2.37-2.642 5.095-5.13 6.375-8.445.175-.455.31-.943.407-1.428-.701.09-1.401.153-2.097.136-5.114-.119-4.573-3.178-7.411-6.651-1.595-1.957-4.085-3.368-6.586-3.001-6.762 1.002-9.199 10.398-16.489 4.857-2.466-1.87-5.287-4.337-8.234-3.375-5.653 1.862-3.956 10.765-9.902 13.036-3.041 1.159-6.947.642-9.078 3.106-3.095 3.587.761 9.461-1.164 13.797-1.23 2.767-4.436 4.052-6.287 6.444-5.033 6.51 4.564 12.582 1.489 19.851z" fill="#f4873d"/><path d="m317.842 420.075c2.734 4.792 5.744 9.43 9.016 13.88 4.936-1.076 9.805-2.565 14.574-4.443-3.939-4.96-7.52-10.196-10.701-15.674-4.115 2.447-8.422 4.531-12.889 6.237z" fill="#f4873d"/><path d="m289.24 425.472c.583 3.016 1.262 6.016 2.03 8.996 5.084.989 10.188 1.509 15.281 1.565-1.192-3.936-2.192-7.924-3.007-11.948-.515.098-1.027.189-1.547.276-1.646.274-3.311.506-4.986.67-.478.049-.957.099-1.432.141-2.108.186-4.216.282-6.339.3z" fill="#f4873d"/><path d="m272.03 245.945c-.761-8.097-7.655-12.588-15.224-12.588-7.547 0-13.246 8.223-12.588 15.224.761 8.097 7.655 12.588 15.224 12.588 7.547 0 13.246-8.223 12.588-15.224z" fill="#f79f63"/><path d="m96.395 260.964c-.519-5.518-5.217-8.58-10.376-8.58-5.144 0-9.028 5.604-8.58 10.376.518 5.518 5.217 8.579 10.376 8.579 5.144 0 9.028-5.604 8.58-10.375z" fill="#f79f63"/><path d="m442.246 246.365c-.518-5.518-5.217-8.579-10.376-8.579-5.144 0-9.028 5.604-8.579 10.376.518 5.518 5.217 8.579 10.375 8.579 5.144-.001 9.028-5.605 8.58-10.376z" fill="#f79f63"/><path d="m66.747 311.439c-.494-5.257-4.97-8.173-9.884-8.173-4.9 0-8.6 5.339-8.173 9.884.494 5.257 4.97 8.173 9.884 8.173 4.9 0 8.6-5.339 8.173-9.884z" fill="#f79f63"/><path d="m283.952 364.466c-9.744 0-8.278 15.104 1.431 15.104 9.745 0 8.278-15.104-1.431-15.104z" fill="#f79f63"/><path d="m391.01 172.616c-9.744 0-8.278 15.104 1.431 15.104 9.744 0 8.278-15.104-1.431-15.104z" fill="#f79f63"/><g fill="#ec781b"><path d="m208.24 118.669c-.242-1.057-.483-2.114-.725-3.171-.771-2.05-1.988-3.789-3.651-5.214-.911-.589-1.822-1.177-2.732-1.766-2.086-.975-4.276-1.361-6.57-1.159-1.675.099-3.206.589-4.592 1.471-1.499.634-2.763 1.603-3.794 2.906-1.153 1.259-1.912 2.704-2.276 4.336-.657 1.577-.873 3.233-.648 4.966.242 1.057.483 2.114.725 3.171.771 2.05 1.988 3.789 3.651 5.215.911.589 1.821 1.177 2.732 1.766 2.086.975 4.276 1.361 6.57 1.158 1.675-.099 3.206-.589 4.592-1.471 1.499-.634 2.763-1.603 3.794-2.906 1.153-1.259 1.912-2.704 2.276-4.336.658-1.577.874-3.233.648-4.966z"/><path d="m291.255 116.197c-.084-1.417-.498-2.712-1.244-3.884-.536-1.268-1.356-2.338-2.458-3.209-.77-.498-1.541-.996-2.311-1.494-1.313-.681-2.691-.988-4.135-.922-1.402-.182-2.77.003-4.105.555-1.334.442-2.47 1.167-3.407 2.175-1.102.846-1.934 1.921-2.498 3.224-.288.904-.576 1.809-.863 2.713-.308 1.429-.245 2.825.19 4.186.193 1.37.716 2.618 1.568 3.745.609.669 1.218 1.338 1.827 2.007 1.464 1.233 3.138 2.019 5.024 2.357.948.039 1.896.078 2.844.116 1.152-.109 2.229-.414 3.247-.871.409-.134.799-.321 1.164-.575 1.06-.448 1.954-1.133 2.683-2.055.416-.644.832-1.288 1.249-1.932.076-.24.153-.479.229-.718l.016.138c.144-.452.288-.904.432-1.356.556-1.334.739-2.734.548-4.2z"/><path d="m271.455 169.4c-.511-5.444-5.146-8.463-10.235-8.463-5.074 0-8.906 5.529-8.463 10.235.511 5.444 5.146 8.463 10.235 8.463 5.074 0 8.905-5.528 8.463-10.235z"/><path d="m134.799 318.878c-.223-1.583-.827-3.026-1.812-4.327-.021-.029-.042-.059-.064-.088-.713-.783-1.425-1.566-2.138-2.349-1.246-1.141-2.676-1.892-4.291-2.253-1.032-.482-2.116-.673-3.251-.573-1.104-.191-2.182-.094-3.233.291-1.603.226-3.064.837-4.382 1.835-.783.713-1.566 1.425-2.349 2.138-.583.901-1.165 1.803-1.748 2.704-.796 1.536-1.156 3.148-1.078 4.838-.191 1.104-.094 2.182.291 3.233.108 1.087.473 2.079 1.097 2.975.627 1.483 1.586 2.735 2.876 3.755.901.583 1.803 1.165 2.704 1.748 1.058.337 2.116.673 3.174 1.01 1.109.045 2.219.091 3.328.136 1.658-.098 3.173-.583 4.545-1.456 1.483-.628 2.735-1.586 3.755-2.876.024-.033.048-.066.073-.099.576-.89 1.151-1.78 1.726-2.671.786-1.517 1.142-3.109 1.065-4.778.188-1.09.092-2.155-.288-3.193z"/><path d="m206.1 293.809c-.252-1.101-.503-2.201-.755-3.302-.803-2.135-2.07-3.944-3.801-5.429-.948-.613-1.896-1.226-2.844-1.839-2.172-1.015-4.452-1.417-6.839-1.206-1.744.103-3.338.613-4.781 1.531-1.561.66-2.877 1.669-3.95 3.025-1.201 1.311-1.99 2.815-2.37 4.514-.684 1.642-.909 3.366-.675 5.17.252 1.101.503 2.201.755 3.302.803 2.135 2.07 3.944 3.801 5.429l2.844 1.839c2.172 1.015 4.452 1.417 6.839 1.206 1.744-.103 3.338-.613 4.781-1.531 1.561-.66 2.877-1.668 3.95-3.025 1.201-1.311 1.99-2.815 2.37-4.514.684-1.642.909-3.366.675-5.17z"/><path d="m165.922 371.072c-.547-5.817-5.5-9.044-10.938-9.044-5.422 0-9.517 5.908-9.044 10.938.546 5.817 5.5 9.044 10.938 9.044 5.422-.001 9.516-5.909 9.044-10.938z"/><path d="m384.351 382.943c-.589-6.266-5.924-9.742-11.781-9.742-5.84 0-10.25 6.363-9.742 11.781.589 6.266 5.924 9.742 11.781 9.742 5.84 0 10.25-6.363 9.742-11.781z"/><path d="m452.402 344.546c-.536-5.705-5.394-8.87-10.727-8.87-5.318 0-9.333 5.794-8.87 10.727.536 5.705 5.394 8.87 10.727 8.87 5.317 0 9.333-5.794 8.87-10.727z"/><path d="m416.096 411.032c-.176-1.245-.65-2.38-1.425-3.404-1.487-1.942-3.699-3.721-6.227-3.967l-1.305-.127c-1.739-.301-3.436-.148-5.091.458-.738.387-1.476.775-2.214 1.162-1.405.991-2.48 2.261-3.225 3.811-.627 1.209-.91 2.478-.849 3.809-.168 1.291.003 2.552.511 3.781.407 1.229 1.075 2.275 2.003 3.138.78 1.015 1.77 1.782 2.97 2.3 1.625.759 3.331 1.06 5.118.902.438-.043.877-.086 1.315-.128 1.288-.076 2.465-.453 3.53-1.131 1.152-.488 2.125-1.232 2.917-2.234.453-.7.905-1.4 1.358-2.1.619-1.193.898-2.446.838-3.758.15-.858.075-1.696-.224-2.512z"/></g></svg>