<svg id="Capa_1" enable-background="new 0 0 512 512" height="512" viewBox="0 0 512 512" width="512" xmlns="http://www.w3.org/2000/svg"><path d="m512 256c0 101.82-59.45 189.76-145.54 231h-220.92c-86.09-41.24-145.54-129.18-145.54-231 0-141.38 114.62-256 256-256s256 114.62 256 256z" fill="#b6e337"/><path d="m512 256c0 87.11-43.52 164.07-110 210.31-11.22 7.81-23.1 14.74-35.54 20.69h-220.92c-12.44-5.95-24.32-12.88-35.54-20.69-66.48-46.24-110-123.2-110-210.31 0-46.22 12.25-89.57 33.68-127 44.12 77.07 127.16 129 222.32 129s178.21-51.93 222.32-129c21.43 37.43 33.68 80.78 33.68 127z" fill="#6cdc2d"/><path d="m392.335 155.421h-272.67c-18.757 0-36.493 8.566-48.137 23.271-21.586 27.261-34.478 61.722-34.478 99.203h437.9c0-37.481-12.892-71.943-34.478-99.203-11.643-14.705-29.38-23.271-48.137-23.271z" fill="#fff"/><path d="m392.335 155.421h-214.144c-26.302 29.337-42.924 73.308-42.924 122.474h339.683c0-37.481-12.892-71.943-34.478-99.203-11.643-14.705-29.38-23.271-48.137-23.271z" fill="#d1f6ff"/><path d="m392.335 155.421h-136.335v122.474h218.95c0-37.481-12.892-71.943-34.478-99.203-11.643-14.705-29.38-23.271-48.137-23.271z" fill="#8fc8f5"/><path d="m366.46 395.6v91.4c-9.79 4.7-19.93 8.79-30.37 12.21l-34.01 8.64.01.01c-14.94 2.72-30.35 4.14-46.09 4.14-16.33 0-32.31-1.53-47.78-4.45l-.05-.01-33.9-8.87-.05-.01c-9.84-3.32-19.41-7.22-28.68-11.66v-91.4z" fill="#234177"/><path d="m366.46 395.6v91.4c-9.79 4.7-19.93 8.79-30.37 12.21l-34.01 8.64.01.01c-14.94 2.72-30.35 4.14-46.09 4.14v-116.4z" fill="#22283a"/><path d="m467.845 290.06c0 41.12-11.728 79.492-32.012 111.972-20.063 32.129-55.589 51.309-93.468 51.309h-172.73c-37.879 0-73.404-19.181-93.468-51.309-20.283-32.48-32.012-70.852-32.012-111.972z" fill="#374c81"/><path d="m467.845 290.06c0 41.12-11.728 79.492-32.012 111.972-20.063 32.129-55.589 51.309-93.468 51.309h-86.365v-163.281z" fill="#234177"/><path d="m511.99 258.2c-.14 16.87-1.92 33.35-5.17 49.29h-501.64c-3.25-15.94-5.03-32.42-5.17-49.29 7.72-11.07 20.56-18.31 35.08-18.31h441.82c14.52 0 27.36 7.24 35.08 18.31z" fill="#4e689b"/><path d="m511.99 258.2c-.14 16.87-1.92 33.35-5.17 49.29h-250.82v-67.6h220.91c14.52 0 27.36 7.24 35.08 18.31z" fill="#374c81"/><path d="m340.39 389.98h-4.3v109.23c-5.59 1.85-11.26 3.5-17.01 4.95-5.59 1.42-11.26 2.66-17 3.69v-117.87h-4.3c-18.96 0-33.78-16.34-31.95-35.21l8.63-89.06c.22-2.28 1.29-4.3 2.88-5.74s3.69-2.31 5.99-2.31c5.13 0 9.19 4.31 8.9 9.43l-3.42 58.85c-.3 5.11 3.77 9.43 8.9 9.43h2.35c4.86 0 8.82-3.89 8.92-8.74l1.17-60.23c.09-4.86 4.05-8.74 8.91-8.74h.05c4.86 0 8.82 3.88 8.91 8.74l1.17 60.23c.1 4.85 4.06 8.74 8.91 8.74h2.36c5.13 0 9.2-4.32 8.9-9.43l-3.42-58.85c-.01-.18-.02-.35-.02-.52 0-4.89 3.96-8.91 8.92-8.91 4.59 0 8.43 3.48 8.87 8.05l8.63 89.06c1.83 18.87-13 35.21-31.95 35.21z" fill="#fed110"/><path d="m340.39 389.98h-4.3v109.23c-5.59 1.85-11.26 3.5-17.01 4.95v-246.5h.03c4.86 0 8.82 3.88 8.91 8.74l1.17 60.23c.1 4.85 4.06 8.74 8.91 8.74h2.36c5.13 0 9.2-4.32 8.9-9.43l-3.42-58.85c-.01-.18-.02-.35-.02-.52 0-4.89 3.96-8.91 8.92-8.91 4.59 0 8.43 3.48 8.87 8.05l8.63 89.06c1.83 18.87-13 35.21-31.95 35.21z" fill="#ff9f00"/><path d="m243.64 326.73c0 4.82-.38 12.35-1.11 20.62-1.64 18.81-15.56 34.27-34.31 40.11v120.09c-11.63-2.2-22.98-5.18-34-8.89v-111.43c-18.39-6.01-31.98-21.3-33.61-39.88-.72-8.27-1.1-15.8-1.1-20.62 0-37.76 23.31-69.07 52.06-69.07 28.76 0 52.07 31.31 52.07 69.07z" fill="#fed110"/><path d="m243.64 326.73c0 4.82-.38 12.35-1.11 20.62-1.64 18.81-15.56 34.27-34.31 40.11v120.09c-5.62-1.06-11.17-2.31-16.65-3.73v-246.16c28.76 0 52.07 31.31 52.07 69.07z" fill="#ff9f00"/></svg>