<svg id="Capa_1" enable-background="new 0 0 512 512" height="512" viewBox="0 0 512 512" width="512" xmlns="http://www.w3.org/2000/svg"><path d="m512 256c0 141.38-114.62 256-256 256s-256-114.62-256-256 114.62-256 256-256c92.58 0 173.68 49.15 218.64 122.77l.01.01 20.64 42.07c10.8 28.32 16.71 59.04 16.71 91.15z" fill="#65b2fe"/><path d="m512 256c0 87.11-43.52 164.07-110 210.31-41.41 28.8-91.73 45.69-146 45.69s-104.59-16.89-146-45.69c-66.48-46.24-110-123.2-110-210.31 0-46.22 12.25-89.57 33.68-127 44.12 77.07 127.16 129 222.32 129 94.92 0 177.79-51.67 221.98-128.42l17.31 35.27c10.8 28.32 16.71 59.04 16.71 91.15z" fill="#0e9ce7"/><path d="m425.07 230v.83c0 12.02-5.93 22.66-15.02 29.15-12.41 8.86-19.42 23.44-18.19 38.62l13.32 165.46c-42 30.17-93.52 47.94-149.18 47.94s-107.18-17.77-149.18-47.94l13.32-165.46c1.22-15.18-5.79-29.76-18.19-38.62-9.1-6.49-15.03-17.13-15.03-29.15v-.83c0-19.77 16.03-35.79 35.79-35.79h266.57c19.77 0 35.79 16.02 35.79 35.79z" fill="#f4873d"/><path d="m425.07 230v.83c0 12.02-5.93 22.66-15.02 29.15-12.41 8.86-19.42 23.44-18.19 38.62l13.32 165.46c-42 30.17-93.52 47.94-149.18 47.94v-317.79h133.28c19.77 0 35.79 16.02 35.79 35.79z" fill="#c55733"/><path d="m425.07 210.38v.82c0 12.03-5.93 22.67-15.02 29.16-12.41 8.85-19.42 23.43-18.19 38.62l14.59 181.19c.08.97.13 1.92.15 2.87-42.26 30.79-94.31 48.96-150.6 48.96s-108.34-18.17-150.6-48.96c.02-.95.07-1.9.15-2.87l14.59-181.19c1.22-15.19-5.79-29.77-18.19-38.62-9.1-6.49-15.03-17.13-15.03-29.16v-.82c0-19.77 16.03-35.8 35.79-35.8h266.57c19.77 0 35.79 16.03 35.79 35.8z" fill="#fdf7bd"/><path d="m425.07 210.38v.82c0 12.03-5.93 22.67-15.02 29.16-12.41 8.85-19.42 23.43-18.19 38.62l14.59 181.19c.08.97.13 1.92.15 2.87-42.26 30.79-94.31 48.96-150.6 48.96v-337.42h133.28c19.77 0 35.79 16.03 35.79 35.8z" fill="#f9d19a"/><path d="m389.28 174.58h-266.57c-19.77 0-35.79 16.03-35.79 35.8v.82c0 12.03 5.93 22.67 15.03 29.16 12.4 8.85 19.41 23.43 18.19 38.62l-14.59 181.19c-.08.97-.13 1.92-.15 2.87 42.26 30.79 94.31 48.96 150.6 48.96s108.34-18.17 150.6-48.96c-.02-.95-.07-1.9-.15-2.87l-14.59-181.19c-1.23-15.19 5.78-29.77 18.19-38.62 9.09-6.49 15.02-17.13 15.02-29.16v-.82c0-19.77-16.02-35.8-35.79-35.8zm-16.1 45.17c-2.88 4.12-5.42 8.48-7.58 13.04-6.7 14.14-9.58 29.85-8.33 45.41l15.57 193.3c.21 2.66-.94 4.52-1.94 5.6-.99 1.08-2.74 2.37-5.42 2.37h-218.97c-2.67 0-4.42-1.29-5.42-2.37s-2.15-2.94-1.93-5.6l15.56-193.3c1.25-15.56-1.62-31.27-8.32-45.41-2.16-4.56-4.7-8.92-7.58-13.04-3.73-5.32.1-12.64 6.61-12.64h221.14c6.5 0 10.33 7.32 6.61 12.64z" fill="#f79f63"/><path d="m425.07 210.38v.82c0 12.03-5.93 22.67-15.02 29.16-12.41 8.85-19.42 23.43-18.19 38.62l14.59 181.19c.08.97.13 1.92.15 2.87-42.26 30.79-94.31 48.96-150.6 48.96v-32.53h109.48c2.68 0 4.43-1.29 5.42-2.37 1-1.08 2.15-2.94 1.94-5.6l-15.57-193.3c-1.25-15.56 1.63-31.27 8.33-45.41 2.16-4.56 4.7-8.92 7.58-13.04 3.72-5.32-.11-12.64-6.61-12.64h-110.57v-32.53h133.28c19.77 0 35.79 16.03 35.79 35.8z" fill="#f4873d"/><path d="m355.099 447.725c-.809 4.838-3.85 6.32-7.278 8.391-3.767 1.113-8.016 1.006-11.949.327-12.116-2.077-22.262-5.778-34.11-.327-5.76 2.654-11.497 6.004-17.835 6.225-6.909.238-11.925-4.255-18.067-6.504-.03-.012-.066-.024-.095-.036-3.362-1.214-6.522-2.303-9.765-2.809-2.916-.464-5.903-.446-9.17.381-4.451 1.125-9.408 2.803-13.503 4.921-4.493 2.321-7.891 4.237-13.205 3.118-5.159-1.089-9.646-4.16-13.937-7.224-4.291-3.065-8.664-6.248-13.758-7.617-6.385-1.714-13.139-.387-19.626.899-3.505.69-7.224 1.351-10.569.101-8.837-3.321-7.075-14.788-2.714-20.917 2.642-3.725 5.981-7.099 7.444-11.426 2.315-6.82-.559-14.24-3.779-20.685s-6.939-13.175-6.344-20.358c.595-7.212 5.403-13.246 9.462-19.245 4.749-7.022 8.153-16.097 5.29-24.517-2.708-7.974-8.206-14.865-7.147-23.756.798-6.718 5.344-11.271 8.087-17.144 3.939-8.45-.756-15.246-4.154-23.077-.042-.095-.083-.19-.125-.286-1.702-3.928-3.398-7.921-3.963-12.158-.577-4.344.173-9.057 2.987-12.413 3.338-3.987 8.944-5.356 14.145-5.231 5.207.125 10.301 1.494 15.484 1.94 7.445.649 15.43-2.041 19.846-8.028 4.308-5.838 12.104-8.932 19.203-6.939 7.534 2.113 12.628 8.652 19.667 11.741.125.054.25.107.375.155 7.569 3.094 16.984 0 22.994-5.064 4.029-3.392 7.837-8.295 13.092-8.01 3.231.178 5.981 2.386 8.206 4.737 2.22 2.357 4.243 5.017 7.07 6.594 3.874 2.172 8.635 1.952 13.003 1.166 4.374-.786 8.73-2.071 13.163-1.839 4.439.238 9.146 2.44 10.747 6.588 1.505 3.904-.113 8.284-2.023 12.009-1.91 3.731-4.195 7.546-4.059 11.735.202 6.1 4.927 9.92 6.552 15.383 1.69 5.671 1.416 11.931-.887 17.388-1.369 3.231-3.404 6.207-4.255 9.616-1.286 5.159.327 10.592 2.452 15.466 2.124 4.874 4.796 9.599 5.784 14.823 1.22 6.451-1.72 10.039-3.939 15.526-2.398 5.945-5.742 12.878-5.159 19.436.797 8.956 8.962 15.68 10.836 24.476 1.648 7.718-1.785 15.49-3.207 23.256-1.196 6.54.137 10.545 2.874 14.782.018.03.036.059.054.089.083.125.161.25.25.381.899 1.387 1.904 2.779 2.815 4.213 1.877 2.951 3.353 6.075 2.74 9.747z" fill="#fd7db9"/><path d="m355.1 447.73c-.81 4.83-3.85 6.31-7.28 8.39-.51.31-1.03.63-1.56.98-3.56 2.37-5.72 6.5-5.72 10.78v29.83c-8.13 2.84-16.45 5.29-24.94 7.31v-40.86c0-8.09-10.86-10.89-14.66-3.75-.03.06-.06.12-.09.17-2.55 4.97-1.71 11.14-1.71 16.51v6.03c0 6.71-5.45 12.16-12.16 12.16-3.36 0-6.4-1.36-8.6-3.56s-3.56-5.24-3.56-8.6v-14.26c0-5.78-3.53-11.04-8.96-13.02-.03-.02-.06-.03-.09-.04-3.37-1.21-6.53-2.3-9.77-2.81v-217.76c7.57 3.09 16.98 0 22.99-5.07 4.03-3.39 7.84-8.29 13.1-8.01 3.23.18 5.98 2.39 8.2 4.74 2.22 2.36 4.25 5.02 7.07 6.59 3.88 2.18 8.64 1.96 13 1.17 4.38-.79 8.73-2.07 13.17-1.84 4.44.24 9.14 2.44 10.74 6.59 1.51 3.9-.11 8.28-2.02 12.01s-4.19 7.54-4.06 11.73c.21 6.1 4.93 9.92 6.55 15.39 1.69 5.67 1.42 11.93-.88 17.38-1.37 3.23-3.41 6.21-4.26 9.62-1.28 5.16.33 10.59 2.46 15.47 2.12 4.87 4.79 9.59 5.78 14.82 1.22 6.45-1.72 10.04-3.94 15.53-2.4 5.94-5.74 12.87-5.16 19.43.8 8.96 8.96 15.68 10.84 24.48 1.65 7.71-1.79 15.49-3.21 23.25-.99 5.41-.04 10.17 2.87 14.78.02.03.04.06.06.09.08.13.16.25.25.38.9 1.39 1.9 2.78 2.81 4.22 1.88 2.95 3.35 6.07 2.74 9.75z" fill="#fc5e98"/><path d="m495.29 164.85h-164.76v-42.08h144.11c8.11 13.28 15.04 27.35 20.65 42.08z" fill="#fefefe"/><path d="m330.531 122.775h118.092v42.071h-118.092z" fill="#d1f6ff"/><path d="m405.621 122.775v32.821c0 18.946-15.365 34.31-34.31 34.31h-115.311c-37.311 0-71.418-19.38-90.714-50.295-4.58-7.332.665-16.836 9.307-16.836z" fill="#d1f6ff"/><path d="m405.621 122.775v32.821c0 18.946-15.365 34.31-34.31 34.31h-86.703v-67.131z" fill="#8fc8f5"/><path d="m375.259 122.775v24.586c0 14.197-11.506 25.703-25.703 25.703h-86.376c-27.954 0-53.499-14.518-67.955-37.677-3.429-5.494.496-12.612 6.971-12.612z" fill="#fefefe"/><path d="m375.259 122.775v24.586c0 14.197-11.506 25.703-25.703 25.703h-64.949v-50.289z" fill="#d1f6ff"/><path d="m338.535 189.906c0 9.498-7.699 17.203-17.203 17.203h-65.332c-25.415 0-49.889-7.665-70.781-22.161-7.806-5.415-9.741-16.131-4.326-23.938.434-.626.902-1.213 1.399-1.766 5.719-6.306 15.364-7.541 22.544-2.561 15.099 10.48 32.793 16.019 51.164 16.019h65.332c9.504.001 17.203 7.706 17.203 17.204z" fill="#fd7db9"/><path d="m338.535 189.906c0 9.498-7.699 17.203-17.203 17.203h-65.332c-25.415 0-49.889-7.665-70.781-22.161-7.806-5.415-9.741-16.131-4.326-23.938.434-.626.902-1.213 1.399-1.766l12.736 11.568c17.53 12.166 38.676 19.093 60.972 19.093h82.535z" fill="#fc5e98"/></svg>