<svg id="Capa_1" enable-background="new 0 0 512 512" height="512" viewBox="0 0 512 512" width="512" xmlns="http://www.w3.org/2000/svg"><path d="m511.996 257.445c-.64 115.728-78.077 213.284-183.946 244.275h-.01l-.012.001c-62.236 6.083-125.007-3.443-182.636-27.717l-55.872-23.534c-54.8-46.95-89.52-116.66-89.52-194.47 0-141.38 114.619-255.999 255.999-256 141.601-.001 256.78 115.846 255.997 257.445z" fill="#65b2fe"/><path d="m512 256c0 87.11-43.52 164.07-110 210.31-22.32 15.52-47.23 27.59-73.95 35.41h-.02c-62.237 6.084-125.01-3.442-182.64-27.717l-55.87-23.533c-54.8-46.95-89.52-116.66-89.52-194.47 0-46.22 12.25-89.57 33.68-127 44.12 77.07 127.16 129 222.32 129s178.21-51.93 222.32-129c21.43 37.43 33.68 80.78 33.68 127z" fill="#0e9ce7"/><path d="m488.16 148-61.57-1.9-194.47-6c-3.47-.11-6.2-2.97-6.15-6.43l.04-2.99c.05-3.46 2.86-6.25 6.33-6.26l194.57-.49 48.35-.12c2.38 3.93 4.65 7.91 6.82 11.98v.01c2.13 4 4.16 8.07 6.08 12.2z" fill="#ec781b"/><path d="m482.08 135.79-256.09-3.62.02-1.49c.05-3.46 2.86-6.25 6.33-6.26l194.57-.49 48.35-.12c2.38 3.93 4.65 7.91 6.82 11.98z" fill="#a63917"/><path d="m488.16 148-61.57-1.9.32-22.17 48.35-.12c2.38 3.93 4.65 7.92 6.82 11.99 2.13 4 4.16 8.07 6.08 12.2z" fill="#a63917"/><path d="m482.08 135.8-55.33-.78.16-11.09 48.35-.12c2.38 3.93 4.65 7.92 6.82 11.99z" fill="#83250d"/><path d="m234.566 98.18h17.721v240.829h-17.721z" fill="#ffe853"/><path d="m252.294 98.18h17.721v240.829h-17.721z" fill="#fed110"/><path d="m270.021 98.18h17.721v240.829h-17.721z" fill="#ffe853"/><path d="m287.748 98.18h17.721v240.829h-17.721z" fill="#fed110"/><g fill="#ffe853"><path d="m305.476 98.18h17.721v240.829h-17.721z"/><path d="m235.651 315.132c-12.596 0-25.406-6.294-33.302-15.688-6.116-7.276-13.438-19.171-15.793-46.795-.21-2.47-.391-4.952-.572-7.438-.843-11.604-1.64-22.565-5.538-32.143-6.754-16.597-24.663-28.753-42.581-28.904-17.889-.146-36.028 11.702-43.061 28.184-2.368 5.549-8.786 8.125-14.335 5.759-5.548-2.368-8.127-8.786-5.759-14.334 10.443-24.47 36.22-41.457 62.814-41.457.177 0 .349.001.525.002 26.781.225 52.536 17.708 62.632 42.514 5.201 12.781 6.162 26.006 7.091 38.795.174 2.395.347 4.786.55 7.165 1.023 12 3.101 25.495 10.749 34.595 5.646 6.716 17.207 10.663 23.65 5.688 4.775-3.686 11.634-2.803 15.322 1.973 3.686 4.775 2.803 11.635-1.972 15.321-6.095 4.707-13.223 6.763-20.42 6.763z"/><path d="m124.879 307.524c-1.019 0-2.054-.143-3.081-.445-5.788-1.699-9.104-7.768-7.406-13.557 11.668-39.764 50.183-69.986 91.581-71.862 41.4-1.878 82.489 24.739 97.706 63.285 2.215 5.611-.538 11.956-6.149 14.171-5.611 2.216-11.956-.538-14.171-6.149-11.897-30.138-44.023-50.945-76.396-49.482-32.369 1.467-62.484 25.098-71.607 56.189-1.398 4.761-5.753 7.849-10.477 7.85z"/><circle cx="148.475" cy="355.682" r="85.507"/></g><circle cx="148.475" cy="355.682" fill="#fed110" r="69.27"/><ellipse cx="148.475" cy="355.682" fill="#ffe853" rx="51.263" ry="51.263" transform="matrix(.707 -.707 .707 .707 -208.018 209.165)"/><ellipse cx="148.475" cy="355.682" fill="#fed110" rx="34.993" ry="34.993" transform="matrix(.707 -.707 .707 .707 -208.018 209.165)"/><ellipse cx="148.475" cy="355.682" fill="#ffe853" rx="19.59" ry="19.59" transform="matrix(.707 -.707 .707 .707 -208.018 209.165)"/><ellipse cx="148.475" cy="355.682" fill="#fed110" rx="7.859" ry="7.859" transform="matrix(.707 -.707 .707 .707 -208.018 209.165)"/><circle cx="233.205" cy="355.682" fill="#ffe853" r="85.507"/><circle cx="233.205" cy="355.682" fill="#fed110" r="69.27"/><ellipse cx="233.205" cy="355.682" fill="#ffe853" rx="51.263" ry="51.263" transform="matrix(.707 -.707 .707 .707 -183.201 269.078)"/><ellipse cx="233.205" cy="355.682" fill="#fed110" rx="34.993" ry="34.993" transform="matrix(.707 -.707 .707 .707 -183.201 269.078)"/><ellipse cx="233.205" cy="355.682" fill="#ffe853" rx="19.59" ry="19.59" transform="matrix(.707 -.707 .707 .707 -183.201 269.078)"/><ellipse cx="233.205" cy="355.682" fill="#fed110" rx="7.859" ry="7.859" transform="matrix(.707 -.707 .707 .707 -183.201 269.078)"/><circle cx="313.334" cy="355.682" fill="#ffe853" r="85.507"/><circle cx="313.334" cy="355.682" fill="#fed110" r="69.27"/><ellipse cx="313.334" cy="355.682" fill="#ffe853" rx="51.263" ry="51.263" transform="matrix(.707 -.707 .707 .707 -159.732 325.738)"/><ellipse cx="313.334" cy="355.682" fill="#fed110" rx="34.993" ry="34.993" transform="matrix(.707 -.707 .707 .707 -159.732 325.738)"/><ellipse cx="313.334" cy="355.682" fill="#ffe853" rx="19.59" ry="19.59" transform="matrix(.707 -.707 .707 .707 -159.732 325.738)"/><ellipse cx="313.334" cy="355.682" fill="#fed110" rx="7.859" ry="7.859" transform="matrix(.707 -.707 .707 .707 -159.732 325.738)"/><path d="m400.94 375.04c-1.2 17.05-4.94 33.4-10.85 48.68-5.08 13.15-11.78 25.51-19.84 36.82-10.18 14.3-22.56 26.94-36.62 37.43-1.8 1.35-3.67 2.6-5.58 3.75-22.85 6.69-47.03 10.28-72.05 10.28-57.79 0-111.11-19.16-153.96-51.46-4.28-3.22-8.46-6.58-12.52-10.07-5.16-8.45-9.59-17.4-13.2-26.75-5.91-15.28-9.65-31.63-10.85-48.68-.44-6.45 4.67-11.94 11.13-11.94h313.21c6.46 0 11.57 5.49 11.13 11.94z" fill="#d1f6ff"/><path d="m400.94 375.04c-1.2 17.05-4.94 33.4-10.85 48.68-5.08 13.15-11.78 25.51-19.84 36.82-10.18 14.3-22.56 26.94-36.62 37.43-1.8 1.35-3.67 2.6-5.58 3.75h-.01c-22.85 6.69-47.02 10.28-72.04 10.28-7.69 0-15.29-.34-22.8-1.01-8-.71-15.89-1.78-23.66-3.21-6.68-2.52-12.77-6.14-18.04-10.78-11.7-10.3-21.43-22.6-28.84-36.46-6.04-11.31-10.53-23.67-13.27-36.82-3.18-15.28-4.01-31.63-2.17-48.68.71-6.45 6.8-11.94 13.27-11.94h229.32c6.46 0 11.57 5.49 11.13 11.94z" fill="#8fc8f5"/><path d="m400.94 375.04c-1.2 17.05-4.94 33.4-10.85 48.68-5.08 13.15-11.78 25.51-19.84 36.82-10.18 14.3-22.56 26.94-36.62 37.43-1.8 1.35-3.67 2.6-5.58 3.75h-.01c-22.85 6.69-47.02 10.28-72.04 10.28-7.69 0-15.29-.34-22.8-1.01v-147.89h156.61c6.46 0 11.57 5.49 11.13 11.94z" fill="#65b2fe"/><path d="m408.858 368.143c0 6.169-2.502 11.752-6.541 15.799-4.047 4.039-9.63 6.541-15.799 6.541h-314.258c-12.338 0-22.34-10.001-22.34-22.34 0-6.169 2.502-11.752 6.541-15.799 4.047-4.038 9.63-6.541 15.799-6.541h314.258c12.339 0 22.34 10.001 22.34 22.34z" fill="#fff"/><path d="m408.858 368.143c0 6.169-2.502 11.752-6.541 15.799-4.047 4.039-9.63 6.541-15.799 6.541h-232.002c-12.338 0-22.34-10.001-22.34-22.34 0-6.169 2.502-11.752 6.541-15.799 4.047-4.038 9.63-6.541 15.799-6.541h232.002c12.339 0 22.34 10.001 22.34 22.34z" fill="#d1f6ff"/><path d="m390.09 423.72c-5.08 13.15-11.78 25.51-19.84 36.82h-268.21c-4.28-3.22-8.46-6.58-12.52-10.07-5.16-8.45-9.59-17.4-13.2-26.75z" fill="#fff"/><path d="m390.086 423.715c-5.079 13.156-11.777 25.511-19.837 36.825h-207.589c-6.037-11.314-10.53-23.669-13.272-36.825z" fill="#d1f6ff"/><path d="m408.858 368.143c0 6.169-2.502 11.752-6.541 15.799-4.047 4.039-9.63 6.541-15.799 6.541h-153.313v-44.679h153.313c12.339-.001 22.34 10 22.34 22.339z" fill="#8fc8f5"/><path d="m390.086 423.715c-5.079 13.156-11.777 25.511-19.837 36.825h-137.044v-36.825z" fill="#8fc8f5"/><path d="m472.71 119.67-44.1-1.36-194.48-6c-3.46-.1-6.2-2.97-6.15-6.43l.04-2.99c.05-3.46 2.87-6.25 6.33-6.26l194.57-.49 26.98-.07c3.05 3.8 5.99 7.69 8.82 11.67 2.77 3.9 5.44 7.87 7.99 11.93z" fill="#ec781b"/><path d="m464.72 107.74-236.72-3.35.02-1.5c.05-3.46 2.87-6.25 6.33-6.26l194.57-.49 26.98-.07c3.05 3.8 5.99 7.69 8.82 11.67z" fill="#a63917"/><path d="m472.71 119.67-44.1-1.36.31-22.17 26.98-.07c3.05 3.8 5.99 7.69 8.82 11.67 2.77 3.9 5.44 7.87 7.99 11.93z" fill="#a63917"/><path d="m464.72 107.74-35.96-.51.16-11.09 26.98-.07c3.05 3.8 5.99 7.69 8.82 11.67z" fill="#83250d"/></svg>