<svg id="Capa_1" enable-background="new 0 0 512 512" height="512" viewBox="0 0 512 512" width="512" xmlns="http://www.w3.org/2000/svg"><circle cx="256" cy="256" fill="#b6e337" r="256"/><path d="m512 256c0 87.11-43.52 164.07-110 210.31-41.41 28.8-91.73 45.69-146 45.69s-104.59-16.89-146-45.69c-66.48-46.24-110-123.2-110-210.31 0-46.22 12.25-89.57 33.68-127 44.12 77.07 127.16 129 222.32 129s178.21-51.93 222.32-129c21.43 37.43 33.68 80.78 33.68 127z" fill="#6cdc2d"/><path d="m493.36 352.05c-20.54 50.74-56.89 93.39-102.93 121.85l-246.24-246.24c-28.2-28.2-15.01-76.28 23.58-86.28.75-.2 1.51-.39 2.27-.58 54.67-13.67 111.86-3.33 158.2 26.68 11.5 7.44 22.33 16.09 32.29 25.89.4.39.8.79 1.19 1.18l84.81 84.81c.39.39.79.79 1.18 1.2 9.8 9.95 18.45 20.78 25.89 32.28 8.02 12.38 14.63 25.54 19.76 39.21z" fill="#f4873d"/><path d="m493.36 352.05c-20.54 50.74-56.89 93.39-102.93 121.85l-173.56-173.56c-28.19-28.19-19.4-79.57 18.15-93.92 87.86-33.59 168.71 30.14 169.1 30.53l42.41 42.41c.39.39.79.79 1.18 1.2 9.8 9.95 18.45 20.78 25.89 32.28 8.02 12.38 14.63 25.54 19.76 39.21z" fill="#ec781b"/><g fill="#c55733"><path d="m493.36 352.05c-20.54 50.74-56.89 93.39-102.93 121.85l-111.63-111.63 125.32-125.32 42.41 42.41c20.93 20.93 36.75 45.81 46.83 72.69z"/><path d="m360.525 193.373-62.651 62.65c-8.033 8.033-21.058 8.033-29.092 0-8.033-8.033-8.033-21.058 0-29.092l59.456-59.456c11.503 7.443 22.33 16.098 32.287 25.898z"/><path d="m418.669 251.498-62.66 62.66c-8.034 8.034-21.058 8.034-29.092 0-4.017-4.017-6.023-9.281-6.023-14.546s2.006-10.529 6.023-14.546l62.66-62.66z"/></g><path d="m473.604 312.842-59.456 59.456c-8.033 8.034-21.058 8.034-29.092 0-8.034-8.033-8.034-21.058 0-29.092l62.65-62.65c9.801 9.956 18.456 20.784 25.898 32.286z" fill="#a63917"/><path d="m418.669 251.498-62.66 62.66c-8.034 8.034-21.058 8.034-29.092 0l77.206-77.206z" fill="#a63917"/><path d="m466.69 401.45c-20.12 29.09-46.11 53.81-76.26 72.45-39.07 24.16-85.12 38.1-134.43 38.1-53.37 0-102.93-16.34-143.94-44.28-26.12-17.79-48.78-40.29-66.75-66.27 28.46-31.57 66.33-53.26 107.9-62.15 13.4-2.87 27.18-4.41 41.15-4.52.56-.01 1.12-.01 1.68-.01h119.93c.56 0 1.12 0 1.68.01 13.97.11 27.75 1.65 41.14 4.52 41.57 8.89 79.45 30.58 107.9 62.15z" fill="#f79f63"/><path d="m466.69 401.45c-20.12 29.09-46.11 53.81-76.26 72.45-39.07 24.16-85.12 38.1-134.43 38.1-53.37 0-102.93-16.34-143.94-44.28-2.94-11.22-2.39-23.38 2.78-34.96 38.37-85.88 140.6-97.99 141.16-97.99h59.97c.56 0 1.12 0 1.68.01 13.97.11 27.75 1.65 41.14 4.52 41.57 8.89 79.45 30.58 107.9 62.15z" fill="#f4873d"/><path d="m466.69 401.45c-20.12 29.09-46.11 53.81-76.26 72.45-39.07 24.16-85.12 38.1-134.43 38.1v-177.23h59.97c57.95 0 112.73 24.53 150.72 66.68z" fill="#ec781b"/><path d="m194.356 334.784v88.601c0 11.361-9.21 20.571-20.571 20.571-11.361 0-20.571-9.21-20.571-20.571v-84.083c13.396-2.871 27.172-4.407 41.142-4.518z" fill="#c55733"/><path d="m276.571 334.77v88.615c0 11.361-9.21 20.571-20.571 20.571-5.681 0-10.822-2.304-14.544-6.027-3.723-3.723-6.027-8.864-6.027-14.544v-88.615z" fill="#c55733"/><path d="m358.792 339.302v84.083c0 11.361-9.21 20.571-20.571 20.571-11.361 0-20.571-9.21-20.571-20.571v-88.601c13.971.111 27.747 1.647 41.142 4.518z" fill="#a63917"/><path d="m276.571 334.77v88.615c0 11.361-9.21 20.571-20.571 20.571v-109.186z" fill="#a63917"/></svg>