<svg id="Capa_1" enable-background="new 0 0 512 512" height="512" viewBox="0 0 512 512" width="512" xmlns="http://www.w3.org/2000/svg"><circle cx="256" cy="256" fill="#ffe853" r="256"/><path d="m512 256c0 87.11-43.52 164.07-110 210.31-41.41 28.8-91.73 45.69-146 45.69s-104.59-16.89-146-45.69c-66.48-46.24-110-123.2-110-210.31 0-46.22 12.25-89.57 33.68-127 44.12 77.07 127.16 129 222.32 129s178.21-51.93 222.32-129c21.43 37.43 33.68 80.78 33.68 127z" fill="#fed110"/><path d="m187.93 422.747c-.148-.323-.282-.654-.399-.987-1.36-3.889-.597-8.509 1.982-11.721 1.514-1.888 3.585-3.315 4.879-5.361 1.351-2.136 1.722-4.866.993-7.287-2.016-6.678-11.261-6.095-13.166-12.87-.756-2.697.211-5.535.508-8.32.356-3.338-1.324-6.056-3.862-7.812-3.29-2.282-8.023-2.941-11.598-1.234-2.102 1.004-3.817 2.689-5.913 3.706-3.989 1.94-6.5-1.236-9.97-2.591-3.576-1.393-8.021-.706-10.792 2.023-2.253 2.22-3.343 5.392-5.502 7.699-5.366 5.723-13.863.767-18.9 7.068-4.732 5.918 1.176 12.074-1.751 18.266-.881 1.866-2.302 3.411-3.701 4.924-2.068 2.235-4.198 3.972-4.794 7.05-.492 2.534-.096 5.054 1.052 7.365 1.74 3.499 5.492 5.109 6.995 9.014 2.742 7.133-3.641 15.472 3.454 21.145.086.068.176.137.263.203 2.239 1.654 5.398 2.353 8.101 1.746 1.719-.388 3.34-1.119 5.04-1.583 10.691-2.927 19.1 8.649 29.57 2.147 2.461-1.53 4.66-3.952 5.845-6.612 1.307-2.927 1.311-5.624 4.331-7.549 2.5-1.593 5.531-2.059 8.447-2.591 4.389-.797 7.906-1.9 9.806-6.19 1.422-3.209.483-6.614-.918-9.648z" fill="#ff9f00"/><path d="m420.938 322.579c.341-.101.687-.188 1.033-.258 4.041-.805 8.509.594 11.331 3.595 1.659 1.762 2.784 4.012 4.629 5.578 1.927 1.635 4.579 2.383 7.078 1.998 6.893-1.066 7.604-10.302 14.578-11.245 2.776-.373 5.452.98 8.168 1.662 3.256.818 6.182-.468 8.274-2.737 2.718-2.941 4.029-7.535 2.837-11.313-.702-2.221-2.132-4.155-2.846-6.372-1.366-4.221 2.13-6.264 3.954-9.512 1.878-3.347 1.816-7.845-.5-10.968-1.884-2.54-4.874-4.062-6.857-6.521-4.92-6.111 1.171-13.834-4.367-19.701-5.202-5.51-12.12-.517-17.844-4.278-1.726-1.132-3.057-2.755-4.36-4.351-1.925-2.359-3.349-4.71-6.314-5.729-2.441-.84-4.991-.799-7.44.016-3.707 1.236-5.824 4.727-9.9 5.671-7.445 1.722-14.814-5.76-21.42.476-.08.075-.16.155-.238.232-1.95 1.987-3.082 5.018-2.857 7.779.145 1.756.643 3.464.865 5.211 1.41 10.994-11.225 17.709-6.244 28.983 1.172 2.65 3.265 5.165 5.734 6.709 2.716 1.702 5.387 2.081 6.872 5.34 1.229 2.698 1.269 5.764 1.389 8.726.178 4.457.78 8.094 4.764 10.573 2.979 1.856 6.481 1.401 9.681.436z" fill="#ff9f00"/><path d="m215.217 214.01c1.181 7.939 6.697 10.41 11.491 15.759 4.36 4.855 7.309 11.568 8.191 18.001 3.742 27.365-27.629 33.997-31.405 58.548-.604 3.902-.589 7.888-1.366 11.759-1.227 6.086-5.543 11.911-10.973 14.982-.215.119-.437.24-.655.353-18.09 9.336-29.324-11.343-46.424-12.248-9.364-.493-16.086 5.714-24.835 6.078-5.779.237-11.297-1.253-16.033-4.575-5.753-4.031-7.363-9.977-10.047-16.25-1.817-4.245-3.679-8.565-6.694-12.072-9.997-11.646-27.99-5.18-35.778-20.27-8.291-16.065 9.612-28.924 2.803-45.132-2.747-6.525-8.243-11.654-10.727-18.293-3.053-8.162-.398-17.887 5.719-23.931 5.942-5.863 14.735-8.098 14.409-18.034-.165-5.218-2.046-10.268-2.181-15.486-.226-8.873 5.445-17.956 13.12-22.605 5.911-3.589 13.009-4.545 19.514-.767 5.427 3.153 10.351 7.724 16.561 8.641 15.602 2.292 22.856-17.159 38.363-15.184 5.621.719 10.868 3.972 14.005 8.688 3.003 4.515 4.031 10.058 6.513 14.88 4.216 8.213 12.973 13.992 22.174 14.764.788.064 1.589.093 2.385.085 7.49-.096 15.314 1.094 20.578 6.933 7.044 7.808 6.087 16.013 3.709 25.722-1.578 6.454-3.392 13.082-2.417 19.654z" fill="#f4873d"/><path d="m215.217 214.01c1.181 7.939 6.697 10.41 11.491 15.759 4.36 4.855 7.309 11.568 8.191 18.001 3.742 27.365-27.629 33.997-31.405 58.548-.604 3.902-.589 7.888-1.366 11.759-1.227 6.086-5.543 11.911-10.973 14.982-5.645-3.302-10.569-7.828-14.132-13.312-3.642-5.607-5.935-11.993-9.491-17.652-10.262-16.319-44.419-12.071-45.306-33.311-.209-4.956 1.757-9.71 3.108-14.483 1.348-4.779 2.025-10.207-.512-14.47-2.181-3.661-6.283-5.695-10.285-7.16s-8.241-2.62-11.586-5.262c-18.627-14.717 6.928-42.878-8.86-60.354-7.149-7.911-14.254-10.474-17.809-20.755-1.753-5.078-2.612-10.409-2.451-15.705 5.911-3.589 13.009-4.545 19.514-.767 5.427 3.153 10.351 7.724 16.561 8.641 15.602 2.292 22.856-17.159 38.363-15.184 5.621.719 10.868 3.972 14.005 8.688 3.003 4.515 4.031 10.058 6.513 14.88 4.216 8.213 12.973 13.992 22.174 14.764.788.064 1.589.093 2.385.085 7.49-.096 15.314 1.094 20.578 6.933 7.044 7.808 6.087 16.013 3.709 25.722-1.577 6.453-3.391 13.081-2.416 19.653z" fill="#ec781b"/><g fill="#f4873d"><path d="m111.148 167.058c-5.057-7.161-13.258-8.392-20.757-4.522-6.999 3.612-8.895 14.564-4.522 20.757 5.058 7.161 13.258 8.392 20.757 4.522 6.999-3.612 8.896-14.564 4.522-20.757z"/><path d="m187.647 253.742c-.717-.849-1.434-1.699-2.152-2.548-1.667-1.506-3.593-2.517-5.778-3.034-1.107-.108-2.213-.216-3.32-.325-2.359.093-4.536.771-6.53 2.034-1.48.878-2.644 2.044-3.492 3.499-1.067 1.282-1.764 2.759-2.09 4.431-.458 1.689-.47 3.363-.035 5.02.143 1.746.724 3.356 1.745 4.829.717.849 1.435 1.699 2.152 2.548 1.667 1.506 3.593 2.517 5.778 3.034 1.107.108 2.213.216 3.32.324 2.359-.093 4.536-.771 6.53-2.034 1.48-.878 2.644-2.044 3.492-3.499 1.067-1.282 1.764-2.759 2.09-4.431.459-1.689.47-3.363.035-5.02-.144-1.745-.725-3.355-1.745-4.828z"/><path d="m176.28 176.076c-5.299-7.503-13.891-8.792-21.747-4.738-7.333 3.784-9.319 15.259-4.737 21.747 5.299 7.503 13.891 8.792 21.747 4.737 7.333-3.784 9.319-15.258 4.737-21.746z"/></g><path d="m102.225 253.418c-1.103-1.701-2.551-3.026-4.342-3.974-.058-.037-.117-.074-.175-.11-1.778-.926-3.669-1.36-5.673-1.303-2.09.082-4.018.683-5.785 1.802-1.682 1.091-2.992 2.522-3.93 4.294-.926 1.778-1.36 3.669-1.303 5.673l-.013.228c.083 2.113.691 4.064 1.822 5.85 1.103 1.701 2.551 3.026 4.342 3.974 3.638 1.91 8.125 1.718 11.587-.504 3.382-2.171 5.425-6.063 5.292-10.079-.083-2.114-.69-4.064-1.822-5.851z" fill="#ec781b"/><path d="m147.294 227.221c-3.869-5.478-10.142-6.419-15.879-3.459-5.354 2.763-6.804 11.141-3.459 15.879 3.869 5.478 10.142 6.419 15.878 3.459 5.354-2.764 6.805-11.142 3.46-15.879z" fill="#f4873d"/><path d="m152.44 294.005c-4.007-5.673-10.503-6.648-16.444-3.582-5.544 2.861-7.047 11.538-3.582 16.444 4.007 5.673 10.503 6.648 16.444 3.582 5.544-2.861 7.046-11.538 3.582-16.444z" fill="#ec781b"/><path d="m385.081 202.73c-3.882 5.188-2.165 9.756-2.507 15.544-.306 5.259-2.48 10.764-5.668 14.926-13.566 17.695-35.195 3.474-51.42 15.259-2.581 1.871-4.858 4.144-7.519 5.899-4.187 2.754-9.98 3.589-14.827 2.221-.191-.056-.386-.114-.575-.175-15.633-5.069-10.158-23.261-19.356-33.581-5.038-5.65-12.417-5.978-17.598-10.788-3.42-3.179-5.701-7.19-6.487-11.794-.957-5.59 1.538-9.891 3.61-14.995 1.402-3.454 2.821-6.977 3.119-10.698.998-12.351-12.934-18.994-8.706-32.035 4.501-13.883 22.048-10.924 27.474-24.038 2.181-5.283 1.999-11.349 4.394-16.546 2.946-6.389 10.031-10.392 16.973-10.318 6.738.075 13.017 3.848 18.529-1.985 2.898-3.059 4.726-7.007 7.641-10.05 4.96-5.172 13.391-7.08 20.418-5.321 5.417 1.35 9.999 4.878 11.528 10.755 1.276 4.903 1.453 10.325 4.456 14.406 7.552 10.249 22.827 3.357 30.506 13.371 2.782 3.632 3.898 8.489 2.976 12.968-.883 4.288-3.477 8.027-4.832 12.19-2.314 7.085-.652 15.39 4.134 21.105.411.489.85.964 1.306 1.416 4.311 4.24 8.074 9.403 7.717 15.74-.475 8.476-5.723 12.59-12.643 16.743-4.597 2.761-9.429 5.487-12.643 9.781z" fill="#f4873d"/><path d="m385.081 202.73c-3.882 5.188-2.165 9.756-2.507 15.544-.306 5.259-2.48 10.764-5.668 14.926-13.566 17.695-35.195 3.474-51.42 15.259-2.581 1.871-4.858 4.144-7.519 5.899-4.187 2.754-9.98 3.589-14.827 2.221-1.315-5.113-1.517-10.509-.397-15.668 1.146-5.274 3.505-10.218 4.729-15.473 3.527-15.158-18.318-32.331-6.642-44.909 2.723-2.936 6.567-4.51 10.072-6.447 3.507-1.943 7.004-4.639 8.007-8.516.86-3.331-.304-6.839-1.738-9.966s-3.18-6.215-3.566-9.634c-2.145-19.044 28.525-20.392 29.576-39.376.474-8.595-2.093-14.126 1.782-22.007 1.916-3.891 4.485-7.413 7.613-10.33 5.417 1.35 9.999 4.878 11.528 10.755 1.276 4.903 1.453 10.325 4.456 14.406 7.552 10.249 22.827 3.357 30.506 13.371 2.782 3.632 3.898 8.489 2.976 12.968-.883 4.288-3.477 8.027-4.832 12.19-2.314 7.085-.652 15.39 4.134 21.105.411.489.85.964 1.306 1.416 4.311 4.24 8.074 9.403 7.717 15.74-.475 8.476-5.723 12.59-12.643 16.743-4.597 2.763-9.429 5.489-12.643 9.783z" fill="#ec781b"/><path d="m352.87 116.372c1.233-6.969-2.721-12.371-9.202-14.472-6.048-1.961-13.406 3.175-14.472 9.202-1.233 6.97 2.721 12.371 9.202 14.472 6.048 1.961 13.406-3.175 14.472-9.202z" fill="#f4873d"/><path d="m346.63 209.496c.079-.894.159-1.788.239-2.682-.084-1.811-.598-3.491-1.544-5.038-.567-.696-1.133-1.392-1.7-2.088-1.394-1.3-3.019-2.163-4.877-2.589-1.344-.35-2.675-.355-3.991-.014-1.342.117-2.585.556-3.729 1.319-1.229.697-2.196 1.641-2.899 2.832-.92 1.074-1.513 2.322-1.778 3.745-.08.894-.159 1.788-.239 2.682.084 1.811.598 3.491 1.543 5.038.567.696 1.134 1.392 1.7 2.088 1.394 1.3 3.019 2.163 4.877 2.589 1.344.35 2.675.355 3.991.014 1.342-.117 2.585-.556 3.729-1.319 1.229-.697 2.196-1.641 2.899-2.832.922-1.075 1.514-2.323 1.779-3.745z" fill="#f4873d"/><path d="m384.709 158.846c1.292-7.302-2.851-12.962-9.641-15.163-6.337-2.054-14.046 3.326-15.163 9.641-1.292 7.302 2.851 12.962 9.641 15.163 6.337 2.054 14.046-3.327 15.163-9.641z" fill="#f4873d"/><path d="m298.277 160.327c.349-1.599.286-3.182-.188-4.748-.012-.054-.024-.109-.036-.163-.479-1.545-1.305-2.877-2.476-3.993-1.235-1.152-2.675-1.916-4.32-2.294-1.582-.345-3.147-.283-4.695.186-1.545.479-2.877 1.305-3.994 2.476l-.138.122c-1.165 1.249-1.938 2.705-2.32 4.369-.349 1.599-.286 3.182.188 4.748.972 3.172 3.632 5.635 6.873 6.358 3.166.706 6.559-.334 8.787-2.692 1.164-1.249 1.937-2.705 2.319-4.369z" fill="#ec781b"/><path d="m338.909 171.285c.943-5.331-2.082-9.464-7.039-11.071-4.627-1.5-10.255 2.429-11.071 7.039-.943 5.332 2.082 9.464 7.039 11.071 4.627 1.501 10.256-2.428 11.071-7.039z" fill="#f4873d"/><path d="m303.536 212.186c.977-5.521-2.156-9.801-7.29-11.465-4.791-1.553-10.621 2.515-11.465 7.29-.977 5.521 2.156 9.801 7.29 11.465 4.791 1.553 10.62-2.516 11.465-7.29z" fill="#ec781b"/><path d="m416.67 439.98c-.99 8.43-6.48 12.22-13.64 15.94-4.76 2.48-9.75 4.9-13.22 8.99-3.16 3.73-3.12 7.3-3.21 11.31-25.06 14.9-52.87 25.63-82.5 31.27-2.22.42-4.46.82-6.7 1.18-6.52-7.98-3.63-21.19-10.5-29.91-4.68-5.95-12.03-6.73-16.9-11.84-3.22-3.38-5.26-7.53-5.76-12.17-.61-5.64 2.14-9.78 4.52-14.75 1.61-3.36 3.24-6.79 3.76-10.49 1.75-12.26-11.75-19.74-6.73-32.5 5.33-13.58 22.67-9.56 28.88-22.32 2.5-5.14 2.69-11.21 5.4-16.25 3.33-6.2 10.64-9.76 17.57-9.26 6.72.48 12.76 4.63 18.62-.85 3.07-2.88 5.14-6.71 8.24-9.57 5.26-4.86 13.79-6.25 20.7-4.06 5.32 1.67 9.68 5.47 10.85 11.43.97 4.97.82 10.4 3.57 14.65 6.91 10.69 22.58 4.75 29.63 15.21 2.56 3.79 3.38 8.71 2.18 13.13-1.14 4.22-3.96 7.8-5.56 11.87-2.75 6.93-1.59 15.32 2.84 21.32.38.51.78 1.01 1.21 1.49 4.05 4.49 7.49 9.88 6.75 16.18z" fill="#f4873d"/><path d="m416.67 439.98c-.99 8.43-6.48 12.22-13.64 15.94-4.76 2.48-9.75 4.9-13.22 8.99-3.16 3.73-3.12 7.3-3.21 11.31-25.06 14.9-52.87 25.63-82.5 31.27-.06-3.2.33-6.41 1.2-9.49 1.46-5.19 4.12-9.98 5.66-15.15 4.45-14.92-16.31-33.39-3.89-45.23 2.9-2.77 6.83-4.1 10.45-5.82 3.61-1.73 7.27-4.21 8.51-8.02 1.06-3.27.11-6.84-1.13-10.05s-2.79-6.4-2.97-9.83c-.98-19.14 29.71-18.62 31.92-37.5 1-8.55-1.23-14.23 3.12-21.86 2.15-3.77 4.93-7.12 8.23-9.84 5.32 1.67 9.68 5.47 10.85 11.43.97 4.97.82 10.4 3.57 14.65 6.91 10.69 22.58 4.75 29.63 15.21 2.56 3.79 3.38 8.71 2.18 13.13-1.14 4.22-3.96 7.8-5.56 11.87-2.75 6.93-1.59 15.32 2.84 21.32.38.51.78 1.01 1.21 1.49 4.05 4.49 7.49 9.88 6.75 16.18z" fill="#ec781b"/><path d="m362.926 376.753c1.656-6.881-1.962-12.514-8.302-15.007-5.917-2.326-13.575 2.352-15.007 8.302-1.655 6.881 1.962 12.514 8.302 15.006 5.917 2.328 13.575-2.35 15.007-8.301z" fill="#f4873d"/><path d="m351.02 469.324c.134-.888.268-1.775.402-2.663.027-1.813-.384-3.52-1.233-5.122-.523-.729-1.047-1.458-1.57-2.188-1.312-1.383-2.882-2.343-4.71-2.882-1.32-.431-2.648-.517-3.983-.258-1.347.035-2.614.398-3.802 1.09-1.269.621-2.292 1.504-3.066 2.65-.984 1.016-1.652 2.226-2.003 3.629-.134.887-.268 1.775-.402 2.662-.027 1.813.384 3.521 1.234 5.122.523.729 1.047 1.458 1.57 2.188 1.312 1.382 2.882 2.343 4.71 2.882 1.32.431 2.648.517 3.983.258 1.346-.035 2.614-.398 3.802-1.089 1.27-.621 2.292-1.504 3.066-2.65.983-1.016 1.65-2.226 2.002-3.629z" fill="#f4873d"/><path d="m392.116 421.089c1.734-7.21-2.056-13.111-8.698-15.722-6.2-2.437-14.223 2.464-15.723 8.698-1.735 7.21 2.056 13.111 8.698 15.723 6.2 2.437 14.223-2.464 15.723-8.699z" fill="#f4873d"/><path d="m305.754 417.298c.445-1.575.479-3.159.102-4.751-.009-.055-.018-.11-.026-.165-.384-1.572-1.127-2.951-2.228-4.137-1.162-1.225-2.553-2.076-4.173-2.553-1.558-.44-3.124-.474-4.698-.1-1.572.384-2.951 1.127-4.137 2.228l-.145.114c-1.238 1.175-2.099 2.582-2.582 4.22-.445 1.575-.479 3.159-.102 4.751.777 3.225 3.282 5.846 6.473 6.765 3.117.898 6.568.067 8.934-2.152 1.239-1.176 2.1-2.582 2.582-4.22z" fill="#ec781b"/><path d="m345.642 430.714c1.267-5.264-1.501-9.573-6.351-11.48-4.526-1.779-10.384 1.799-11.48 6.351-1.267 5.264 1.501 9.573 6.351 11.48 4.527 1.779 10.385-1.799 11.48-6.351z" fill="#f4873d"/><path d="m307.841 469.381c1.311-5.452-1.554-9.914-6.577-11.888-4.688-1.843-10.754 1.863-11.888 6.577-1.311 5.451 1.554 9.914 6.577 11.888 4.688 1.843 10.754-1.863 11.888-6.577z" fill="#ec781b"/><path d="m365.8 260.53c-9.19 3.18-21.42-1.42-27.79 5.92-4.43 5.1-2.94 12.9-4.84 19.38-2.3 7.83-10.42 13.35-18.49 13.18-1.2-.02-2.4-.17-3.58-.46-6.66-1.62-11.89-7.43-13.5-14-.68-2.76-1.09-6.21-.29-8.96 1.22-4.19 3.99-7.17 3.12-11.89-1.07-5.88-6.99-9.68-9.13-15.26-1.34-3.49-1.04-7.55.77-10.81 3.75-6.71 10.07-6.91 16.37-5.45 1.34.31 2.69.69 4.01 1.11 5.68 1.79 11.37 3.84 17.57 2.92 14.15-2.1 39.19-22.05 46.29 4.53 2.12 7.94-2.75 17.1-10.51 19.79z" fill="#fe3345"/><path d="m367.77 310.37c-.51 2.29-1.58 4.33-3.21 6.1-1.45 1.84-3.23 3.2-5.34 4.1-.16.1-.33.21-.5.3-1.82 1.05-3.81 1.64-5.97 1.77-3.23.28-6.32-.26-9.26-1.63-1.28-.83-2.56-1.66-3.84-2.49-2.35-2.01-4.06-4.46-5.15-7.35-.34-1.49-.68-2.98-1.02-4.46-.32-2.45-.01-4.78.91-7 .4-1.76 1.12-3.37 2.17-4.82.31-.44.66-.87 1.04-1.29 1.45-1.83 3.23-3.2 5.35-4.09 1.95-1.24 4.1-1.93 6.46-2.07 3.24-.29 6.32.25 9.26 1.63 1.28.83 2.57 1.66 3.85 2.49 2.34 2 4.06 4.45 5.14 7.34.34 1.49.68 2.98 1.02 4.47.32 2.44.02 4.77-.91 7z" fill="#fe3345"/><path d="m365.8 260.53c-9.19 3.18-21.42-1.42-27.79 5.92-4.43 5.1-2.94 12.9-4.84 19.38-2.3 7.83-10.42 13.35-18.49 13.18-2.76-4.35-4.07-9.45-3.07-14.51.9-4.52 3.44-8.53 6-12.37 2.55-3.84 5.22-7.73 6.4-12.19 1.19-4.45.62-9.68-2.64-12.94-2.02-2.03-4.82-3.07-7.12-4.78-3.2-2.37-5.25-6.1-5.81-10.04 1.34.31 2.69.69 4.01 1.11 5.68 1.79 11.37 3.84 17.57 2.92 14.15-2.1 39.19-22.05 46.29 4.53 2.12 7.94-2.75 17.1-10.51 19.79z" fill="#de1263"/><path d="m367.77 310.37c-.51 2.29-1.58 4.33-3.21 6.1-1.45 1.84-3.23 3.2-5.34 4.1-.16.1-.33.21-.5.3-.77-1.15-1.42-2.38-1.98-3.62-1.87-4.2-2.97-8.77-5.39-12.68-3.21-5.17-8.81-8.65-14.79-9.68.31-.44.66-.87 1.04-1.29 1.45-1.83 3.23-3.2 5.35-4.09 1.95-1.24 4.1-1.93 6.46-2.07 3.24-.29 6.32.25 9.26 1.63 1.28.83 2.57 1.66 3.85 2.49 2.34 2 4.06 4.45 5.14 7.34.34 1.49.68 2.98 1.02 4.47.32 2.44.02 4.77-.91 7z" fill="#de1263"/></svg>