<svg id="Capa_1" enable-background="new 0 0 512 512" height="512" viewBox="0 0 512 512" width="512" xmlns="http://www.w3.org/2000/svg"><circle cx="256" cy="256" fill="#4e689b" r="256"/><path d="m512 256c0 87.11-43.52 164.07-110 210.31-41.41 28.8-91.73 45.69-146 45.69s-104.59-16.89-146-45.69c-66.48-46.24-110-123.2-110-210.31 0-46.22 12.25-89.57 33.68-127 44.12 77.07 127.16 129 222.32 129s178.21-51.93 222.32-129c21.43 37.43 33.68 80.78 33.68 127z" fill="#374c81"/><path d="m427.33 387.9c7.82 15.51 10.71 32.87 8.69 49.73-.02.14-.03.29-.06.43-23.24 22.98-50.85 41.54-81.48 54.31h-.01c-19.1 7.97-39.38 13.69-60.5 16.83-.84-1.95-1.58-3.92-2.2-5.9-3.31-10.63-3.42-21.72-.44-32.18-4.4-1.05-8.65-2.67-12.67-4.9-4.01-2.21-7.77-5.01-11.15-8.4-12.11-12.11-16.59-28.63-13.91-44.01-16.47 2.01-33.51-3.41-45.91-15.81-12.53-12.53-17.8-29.57-15.81-45.91-7.69 1.35-15.67.89-23.23-1.41-7.57-2.3-14.72-6.44-20.78-12.5-6.76-6.76-11.22-15.04-13.3-23.82-10.46 2.98-21.55 2.87-32.18-.44-9.37-2.93-18.4-8.32-26.34-16.26-9.13-9.13-13.4-21.57-12.39-33.81.53-6.41 2.51-12.76 6-18.55.49-.81.99-1.62 1.51-2.41 3.28-5.05 7.13-9.84 11.56-14.28l34-33.99c14.39-14.4 32.57-22.71 51.33-24.95 16.86-2.02 34.22.87 49.73 8.69 9.65-7.28 21.49-10.67 33.19-9.97 11.71.7 23.27 5.49 32.36 14.57 7.03 7.04 11.57 15.72 13.54 24.9 12.2-7.44 26.5-10.51 40.46-9.01 13.96 1.51 27.6 7.58 38.47 18.46l12.58 12.57c21.74 21.74 24.31 54.53 9.44 78.93 4.59.99 9.05 2.62 13.25 4.87 4.2 2.27 8.13 5.15 11.65 8.67 9.08 9.09 13.88 20.66 14.57 32.36.7 11.71-2.69 23.54-9.97 33.19z" fill="#ec781b"/><path d="m427.33 387.9c7.82 15.51 10.71 32.87 8.69 49.73-.02.14-.03.29-.06.43-23.24 22.98-50.85 41.54-81.48 54.31h-.01c-19.1 7.97-39.38 13.69-60.5 16.83-.84-1.95-1.58-3.92-2.2-5.9-3.31-10.63-3.42-21.72-.44-32.18-4.4-1.05-8.65-2.67-12.67-4.9-4.01-2.21-7.77-5.01-11.15-8.4-12.11-12.11-16.59-28.63-13.91-44.01-16.47 2.01-33.51-3.41-45.91-15.81l174.41-174.41 6.29 6.29c21.74 21.74 24.31 54.53 9.44 78.93 4.59.99 9.05 2.62 13.25 4.87 4.2 2.27 8.13 5.15 11.65 8.67 9.08 9.09 13.88 20.66 14.57 32.36.7 11.71-2.69 23.54-9.97 33.19z" fill="#c55733"/><path d="m421.7 397c-7.89 15.75-20.28 17.86-12.12 37.3 2.54 6.06 6.62 13.51 7.52 20.66-18.84 15.28-39.9 27.94-62.62 37.41h-.01c-4.55 1.9-9.17 3.67-13.85 5.31-3.74-2.9-8.17-4.29-13.16-5.63-5.46-1.45-11.22-3.27-14.8-7.64-6.82-8.36 3.97-20.33.8-30.26-3-9.39-14.79-5.98-21.08-11.31-4.31-3.65-3.92-10.28-3.16-15.87.6-4.43-.56-9.89-1.61-14.23-1-4.16-5.51-6.37-9.64-7.51-4.13-1.13-8.7-1.93-11.56-5.11-4.22-4.71-2.82-12.55-6.76-17.49-2.66-3.33-7.15-4.56-11.39-4.98-4.24-.43-8.6-.27-12.63-1.65-1.58-.53-2.93-1.16-4.08-1.86-13.11-7.96-.2-25.46-8.62-35.85-5.15-6.34-12.6-3.37-19.18-4.99-5.22-1.29-8.32-4.98-11.13-9.27-5.68-8.69-8.47-19.06-21.19-17.46-5.61.69-11.68 1.67-16.62-1.09-6.39-3.56-7.82-11.56-13.13-15.89-4.57-3.72-11.75-2.95-17.17-2.46-6.69.61-14.76.28-18.26-5.44-3.29-5.37-.54-12.41-1.87-18.56-1.91-8.74-11.72-14.44-12.62-23.34-.63-6.36 3.65-12.24 8.74-16.13 5.08-3.86 11.09-6.38 16.18-10.24 1.21-.92 2.33-1.95 3.34-3.06 9.68-10.45 11.79-28 27.65-31.15 12.81-2.53 28.77 2.77 38.85 10.75 8.41 6.67 15.14 16.89 25.76 18.54 7.47 1.16 14.87-2.39 22.44-2.61 11.08-.33 21.18 6.5 28.78 14.57 7.61 8.07 13.6 17.62 21.65 25.24 7.91 7.49 12.09 13.61 23.01 13.81 10.37.19 21.39.72 29.38 8.29.06.06.12.11.17.18 7.82 7.57 9.59 19.38 10.14 30.27.55 10.98.48 22.57 6.01 32.06 5.86 10.06 16.9 15.81 27.7 20.13 10.81 4.31 22.25 7.89 31.07 15.48 8.82 7.58 14.27 20.67 9.07 31.08z" fill="#b6e337"/><path d="m421.7 397c-7.89 15.75-20.28 17.86-12.12 37.3 2.54 6.06 6.62 13.51 7.52 20.66-18.84 15.28-39.9 27.94-62.62 37.41h-.01c-4.55 1.9-9.17 3.67-13.85 5.31-3.74-2.9-8.17-4.29-13.16-5.63-5.46-1.45-11.22-3.27-14.8-7.64-6.82-8.36 3.97-20.33.8-30.26-3-9.39-14.79-5.98-21.08-11.31-4.31-3.65-3.92-10.28-3.16-15.87.6-4.43-.56-9.89-1.61-14.23-1-4.16-5.51-6.37-9.64-7.51-4.13-1.13-8.7-1.93-11.56-5.11-4.22-4.71-2.82-12.55-6.76-17.49-2.66-3.33-7.15-4.56-11.39-4.98-4.24-.43-8.6-.27-12.63-1.65-1.58-.53-2.93-1.16-4.08-1.86l106.16-106.16c7.82 7.57 9.59 19.38 10.14 30.27.55 10.98.48 22.57 6.01 32.06 5.86 10.06 16.9 15.81 27.7 20.13 10.81 4.31 22.25 7.89 31.07 15.48 8.82 7.58 14.27 20.67 9.07 31.08z" fill="#6cdc2d"/><path d="m468.84 346.39c5.86 11.61 8.95 24.25 9.28 36.95-27.94 48.65-71.41 87.25-123.64 109.03h-.01c-1.73-1.27-3.38-2.69-4.93-4.24-16.96-16.96-22.31-38.85-16.7-58.52-4.39-1.05-8.65-2.68-12.67-4.9-4-2.21-7.76-5.02-11.14-8.4-12.12-12.12-16.6-28.63-13.92-44.01-16.47 2.01-33.51-3.42-45.91-15.81-12.53-12.53-17.8-29.58-15.81-45.91-7.68 1.34-15.66.89-23.23-1.41-7.56-2.3-14.72-6.45-20.78-12.51-6.76-6.75-11.21-15.04-13.3-23.81-19.67 5.61-41.56.26-58.52-16.7-13.91-13.91-16.55-35.52-6.39-52.37 3.59-5.95 7.94-11.55 13.07-16.68l34-34c27.35-27.34 68.31-32.76 101.06-16.25 9.64-7.28 21.49-10.67 33.19-9.97 11.71.7 23.28 5.48 32.36 14.57 7.04 7.04 11.58 15.72 13.54 24.89 12.21-7.43 26.5-10.5 40.47-9 13.96 1.51 27.59 7.58 38.46 18.45l12.58 12.58c21.74 21.74 24.31 54.53 9.45 78.93 4.58.98 9.04 2.61 13.24 4.87s8.13 5.15 11.65 8.67c18.18 18.18 19.16 46.26 4.6 65.55z" fill="#f79f63"/><path d="m468.84 346.39c5.86 11.61 8.95 24.25 9.28 36.95-27.94 48.65-71.41 87.25-123.64 109.03h-.01c-1.73-1.27-3.38-2.69-4.93-4.24-16.96-16.96-22.31-38.85-16.7-58.52-4.39-1.05-8.65-2.68-12.67-4.9-4-2.21-7.76-5.02-11.14-8.4-12.12-12.12-16.6-28.63-13.92-44.01-16.47 2.01-33.51-3.42-45.91-15.81l174.41-174.41 6.29 6.29c21.74 21.74 24.31 54.53 9.45 78.93 4.58.98 9.04 2.61 13.24 4.87s8.13 5.15 11.65 8.67c18.18 18.18 19.16 46.26 4.6 65.55z" fill="#f4873d"/><path d="m439.346 267.299-144.236 104.999c-16.466 2.009-33.51-3.414-45.906-15.811-12.53-12.53-17.801-29.574-15.811-45.906l104.998-144.236c12.206-7.438 26.504-10.509 40.465-9.008 13.961 1.513 27.597 7.584 38.469 18.455l12.575 12.575c21.741 21.742 24.309 54.533 9.446 78.932z" fill="#f4873d"/><path d="m439.346 267.299-144.236 104.999c-16.466 2.009-33.51-3.414-45.906-15.811l174.408-174.408 6.287 6.287c21.742 21.743 24.31 54.534 9.447 78.933z" fill="#ec781b"/><path d="m176.082 272.851c-19.669 5.61-41.559.257-58.52-16.704-13.912-13.912-16.549-35.519-6.389-52.366 3.584-5.943 7.944-11.549 13.074-16.679l33.998-33.998c27.343-27.343 68.308-32.76 101.056-16.254z" fill="#f4873d"/><path d="m478.12 383.34c-27.94 48.65-71.42 87.25-123.65 109.03-1.72-1.27-3.38-2.69-4.93-4.24-16.96-16.96-22.31-38.85-16.7-58.52l136-83.22c5.86 11.61 8.95 24.25 9.28 36.95z" fill="#ec781b"/></svg>