<svg id="Capa_1" enable-background="new 0 0 512 512" height="512" viewBox="0 0 512 512" width="512" xmlns="http://www.w3.org/2000/svg"><path d="m511.988 258.457c-.323 34.353-7.418 67.083-20.008 96.933l-124.77 73.042c-86.146 50.431-193.097 49.173-278.034-3.269l-47.736-29.473c-26.21-40.17-41.44-88.15-41.44-139.69 0-141.38 114.619-255.999 255.999-256 141.306-.001 257.319 117.158 255.989 258.457z" fill="#65b2fe"/><path d="m512 256c0 35.25-7.13 68.83-20.02 99.39l-124.77 73.042c-86.146 50.431-193.097 49.173-278.034-3.269l-47.736-29.473c-26.21-40.17-41.44-88.15-41.44-139.69 0-46.22 12.25-89.57 33.68-127 44.12 77.07 127.16 129 222.32 129s178.21-51.93 222.32-129c21.43 37.43 33.68 80.78 33.68 127z" fill="#0e9ce7"/><path d="m491.98 355.39c-3.73 8.84-7.94 17.44-12.6 25.74-2.68 4.79-5.52 9.48-8.49 14.06-7.26 11.18-15.37 21.77-24.24 31.65-1.48 1.66-2.98 3.29-4.5 4.9-3.16-.92-6.21-2.28-9.01-4.05l-239.86-123.65c-21.56-11.12-54.84-21.96-67.91-42.65-5.2-8.24-7.49-18.94-3.56-27.86 4.92-11.19 17.2-16.34 26.21-23.61 3.76-3.04 8.7-6.32 10.91-10.79 1.81-3.71 1.41-8.04 2.88-12.01 3.23-8.63 10.92-15.77 20.08-17.45 6.61-1.21 15 .83 21.21-2.11 6.44-3.05 11.29-11.42 17.46-15.56 6.47-4.36 14.35-7.12 22.07-6.03 9.54 1.36 17.47 8.3 26.89 10.36 8.38 1.83 17.04-.34 25.58-1.25 5.9-.64 12.4-.61 17.93 1.86 4.64 2.05 7.88 6.43 11.96 9.41 10.31 7.54 18.78 18.7 31.53 22.31 4.4 1.24 8.91 1.64 13.45 1.79 8.11.27 16.34-.27 24.23 1.77 12.32 3.19 24.68 8.16 31.83 19.21 4.45 6.89 7.83 14.61 13.67 20.36 6.57 6.47 15.74 9.88 22.11 16.56 18.43 19.29-2.89 41.26-.53 62.96 1.15 10.54 10.33 19.31 18.38 27.49 4.85 4.93 9.68 10.63 12.32 16.59z" fill="#b6e337"/><path d="m491.98 355.39c-11.98 28.43-28.96 54.25-49.83 76.35-3.16-.92-6.21-2.28-9.01-4.05l-146.53-75.54 83.36-161.7c8.11.27 16.34-.27 24.23 1.77 12.32 3.19 24.68 8.16 31.83 19.21 4.45 6.89 7.83 14.61 13.67 20.36 6.57 6.47 15.74 9.88 22.11 16.56 18.43 19.29-2.89 41.26-.53 62.96 1.15 10.54 10.33 19.31 18.38 27.49 4.85 4.93 9.68 10.63 12.32 16.59z" fill="#6cdc2d"/><path d="m490.595 306.48-60.481 117.321-285.107-146.977 60.481-117.321c4.18-8.109 14.148-11.301 22.264-7.117l255.725 131.831c8.117 4.183 11.298 14.154 7.118 22.263z" fill="#fed110"/><path d="m490.595 306.48-60.481 117.321-142.554-73.488 68.055-132.012 127.862 65.915c8.117 4.184 11.298 14.155 7.118 22.264z" fill="#ff9f00"/><ellipse cx="204.87" cy="228.099" fill="#6cdc2d" rx="43.463" ry="43.463" transform="matrix(.324 -.946 .946 .324 -77.314 347.988)"/><path d="m243.501 248.015c-10.998 21.333-37.214 29.714-58.547 18.716l39.83-77.263c21.334 10.997 29.718 37.209 18.717 58.547z" fill="#00a042"/><ellipse cx="204.87" cy="228.099" fill="#b6e337" rx="25.247" ry="25.247" transform="matrix(.4 -.917 .917 .4 -86.131 324.637)"/><path d="m227.311 239.668c-6.388 12.392-21.618 17.26-34.01 10.872l23.137-44.882c12.392 6.389 17.263 21.613 10.873 34.01z" fill="#6cdc2d"/><ellipse cx="351.934" cy="211.523" fill="#fe3345" rx="43.463" ry="43.463" transform="matrix(.445 -.896 .896 .445 5.948 432.642)"/><path d="m390.566 231.438c-10.998 21.333-37.214 29.714-58.547 18.716l39.831-77.263c21.332 10.998 29.716 37.209 18.716 58.547z" fill="#de1263"/><ellipse cx="351.934" cy="211.523" fill="#ff6477" rx="25.247" ry="25.247" transform="matrix(.572 -.82 .82 .572 -22.843 379.278)"/><path d="m374.375 223.092c-6.388 12.392-21.618 17.26-34.01 10.872l23.137-44.882c12.392 6.388 17.264 21.613 10.873 34.01z" fill="#fe3345"/><ellipse cx="435.797" cy="343.184" fill="#6cdc2d" rx="43.463" ry="43.463" transform="matrix(.822 -.569 .569 .822 -117.86 309.15)"/><path d="m474.429 363.099c-10.998 21.333-37.214 29.714-58.547 18.716l39.831-77.263c21.333 10.998 29.716 37.209 18.716 58.547z" fill="#00a042"/><ellipse cx="435.797" cy="343.184" fill="#b6e337" rx="25.247" ry="25.247" transform="matrix(.681 -.733 .733 .681 -112.262 428.771)"/><path d="m458.238 354.752c-6.388 12.392-21.618 17.26-34.01 10.872l23.137-44.882c12.393 6.389 17.264 21.614 10.873 34.01z" fill="#6cdc2d"/><path d="m428.822 230.533c-18.028-9.294-40.174-2.219-49.468 15.809-9.291 18.022-2.21 40.171 15.818 49.465 18.022 9.291 40.171 2.21 49.462-15.812 9.294-18.028 2.21-40.171-15.812-49.462zm-26.599 51.598c-10.474-5.4-14.582-18.267-9.186-28.735 5.399-10.474 18.261-14.585 28.734-9.186 10.467 5.396 14.585 18.261 9.186 28.734-5.396 10.468-18.267 14.583-28.734 9.187z" fill="#fff"/><path d="m444.634 279.996c-9.291 18.022-31.44 25.103-49.462 15.812l7.051-13.677c10.467 5.396 23.338 1.282 28.734-9.186 5.399-10.474 1.282-23.338-9.186-28.734l7.051-13.677c18.022 9.29 25.106 31.433 15.812 49.462z" fill="#fdf7bd"/><path d="m166.637 208.389c-18.028-9.294-40.175-2.219-49.468 15.809-9.291 18.022-2.21 40.171 15.818 49.465 18.022 9.291 40.171 2.21 49.462-15.812 9.293-18.028 2.21-40.171-15.812-49.462zm-26.6 51.598c-10.474-5.4-14.582-18.267-9.186-28.735 5.399-10.474 18.261-14.585 28.735-9.186 10.468 5.396 14.585 18.261 9.186 28.734-5.396 10.468-18.267 14.583-28.735 9.187z" fill="#fff"/><path d="m182.449 257.851c-9.291 18.022-31.44 25.103-49.462 15.812l7.051-13.677c10.468 5.396 23.338 1.282 28.734-9.186 5.399-10.474 1.282-23.338-9.186-28.734l7.051-13.677c18.022 9.291 25.105 31.434 15.812 49.462z" fill="#fdf7bd"/><path d="m469.57 373.77c-18.03-9.3-40.18-2.22-49.47 15.8-9.18 17.82-2.37 39.67 15.21 49.14.53-.53 1.06-1.05 1.59-1.58 1.78-1.77 3.53-3.57 5.25-5.39 1.52-1.61 3.02-3.24 4.5-4.9-1.25-.37-2.48-.86-3.68-1.48-10.48-5.4-14.59-18.26-9.19-28.73 5.4-10.48 18.26-14.59 28.74-9.19 3.57 1.84 6.41 4.56 8.37 7.75 2.97-4.58 5.81-9.27 8.49-14.06-2.75-2.91-6.04-5.42-9.81-7.36z" fill="#fff"/><path d="m442.97 425.36c1.2.62 2.43 1.11 3.68 1.48-1.48 1.66-2.98 3.29-4.5 4.9-1.72 1.82-3.47 3.62-5.25 5.39z" fill="#fdf7bd"/><path d="m479.38 381.13c-2.68 4.79-5.52 9.48-8.49 14.06-1.96-3.19-4.8-5.91-8.37-7.75l7.05-13.67c3.77 1.94 7.06 4.45 9.81 7.36z" fill="#fdf7bd"/><path d="m286.71 165.83c-18.028-9.294-40.174-2.219-49.468 15.809-9.291 18.022-2.21 40.171 15.818 49.465 18.022 9.291 40.171 2.21 49.462-15.812 9.294-18.028 2.21-40.172-15.812-49.462zm-26.599 51.597c-10.474-5.399-14.582-18.267-9.186-28.734 5.399-10.474 18.261-14.585 28.734-9.186 10.468 5.396 14.585 18.261 9.186 28.734-5.396 10.468-18.267 14.582-28.734 9.186z" fill="#fff"/><path d="m302.522 215.292c-9.291 18.022-31.44 25.103-49.462 15.812l7.051-13.677c10.467 5.396 23.338 1.282 28.734-9.186 5.399-10.474 1.282-23.338-9.186-28.734l7.051-13.677c18.022 9.29 25.106 31.434 15.812 49.462z" fill="#fdf7bd"/><path d="m454.62 417.5c-2.57 3.18-5.23 6.29-7.97 9.34-1.48 1.66-2.98 3.29-4.5 4.9-1.72 1.82-3.47 3.62-5.25 5.39-.53.53-1.06 1.05-1.59 1.58-.5.49-1 .98-1.5 1.45-4.15 4.02-8.43 7.89-12.85 11.61-2.42 2.05-4.89 4.05-7.39 6.01-1.79-.55-3.57-1.28-5.32-2.18l-138.23-71.26-138.29-71.28c-6.73-3.49-11.54-8.82-14.35-14.94-6.14-13.37-2.76-30.42 10.89-39.8 26.33-18.1 55.73-32.7 87.74-42.93 43.46-13.91 87.68-18.44 130.47-14.73 5.59.47 10.97 2.06 15.87 4.58 4.9 2.53 9.32 6 12.95 10.27 27.83 32.71 49.78 71.35 63.68 114.82 9.25 28.94 14.35 58.2 15.64 87.17z" fill="#fdf7bd"/><path d="m454.62 417.5c-2.57 3.18-5.23 6.29-7.97 9.34-1.48 1.66-2.98 3.29-4.5 4.9-1.72 1.82-3.47 3.62-5.25 5.39-.53.53-1.06 1.05-1.59 1.58-6.88 6.75-14.13 13.12-21.74 19.07-1.79-.55-3.57-1.28-5.32-2.18l-138.23-71.26 92.33-179.1c4.9 2.53 9.32 6 12.95 10.27 27.83 32.71 49.78 71.35 63.68 114.82 9.25 28.94 14.35 58.2 15.64 87.17z" fill="#f9d19a"/><path d="m430.11 443.67c-1.27 1.17-2.55 2.34-3.84 3.49l-.03.03c-1.74 1.56-3.5 3.08-5.28 4.58-2.42 2.05-4.89 4.05-7.39 6.01-1.79-.55-3.57-1.28-5.32-2.18l-138.23-71.26-138.29-71.28c-6.73-3.49-11.54-8.82-14.35-14.94 29.65-26.67 65.28-47.62 105.72-60.55 37.96-12.13 76.56-16.05 113.9-12.74 4.68.41 9.18 1.74 13.27 3.85s7.79 5 10.83 8.57c24.36 28.51 43.56 62.22 55.69 100.18 11.31 35.36 15.48 71.28 13.32 106.24z" fill="#fff"/><path d="m430.11 443.67c-1.27 1.17-2.55 2.34-3.84 3.49l-.03.03c-1.74 1.56-3.5 3.08-5.28 4.58-2.42 2.05-4.89 4.05-7.39 6.01-1.79-.55-3.57-1.28-5.32-2.18l-138.23-71.26 80.25-155.66c4.09 2.11 7.79 5 10.83 8.57 24.36 28.51 43.56 62.22 55.69 100.18 11.31 35.36 15.48 71.28 13.32 106.24z" fill="#fdf7bd"/><path d="m426.24 447.19c-1.74 1.56-3.5 3.08-5.28 4.58-2.42 2.05-4.89 4.05-7.39 6.01-7.15 5.59-14.6 10.81-22.33 15.63-4.7 2.93-9.5 5.72-14.41 8.33h-241.65c-38.01-20.38-70.28-50.08-93.74-86.05-.34-1.12-.63-2.27-.78-3.46-1.09-9.15 2.48-19.01 9.85-24.7 5.32-4.11 13.71-6.14 17.88-11.6 4.33-5.66 4.8-15.32 8.39-21.83 3.76-6.84 9.49-12.9 16.86-15.47 9.1-3.17 19.33-.64 28.64-3.11 8.29-2.22 15-8.12 22.17-12.84 4.95-3.27 10.74-6.22 16.79-6.56 5.06-.3 9.95 2.1 14.94 2.88 12.62 1.98 25.26 8.02 38.24 5.39 4.48-.92 8.68-2.62 12.79-4.57 7.33-3.48 14.4-7.73 22.35-9.54 12.4-2.8 25.67-4.05 37.09 2.49 7.11 4.09 13.65 9.4 21.48 11.84 8.8 2.74 18.52 1.57 27.23 4.59 25.23 8.7 16.34 37.99 28.39 56.2 5.84 8.84 18.02 12.43 28.93 16.01 10.91 3.59 22.78 9.09 25.61 19.01 2.4 8.45-2.71 17.32-1.21 25.93 1.18 6.71 6.2 12.39 8.57 18.85.24.65.43 1.31.59 1.99z" fill="#b6e337"/><path d="m426.27 447.16c-1.75 1.57-3.52 3.1-5.31 4.61-2.42 2.05-4.89 4.05-7.39 6.01-7.15 5.59-14.6 10.81-22.33 15.63-4.7 2.93-9.5 5.72-14.41 8.33h-149.62v-181.92c7.33-3.48 14.4-7.73 22.35-9.54 12.4-2.8 25.67-4.05 37.09 2.49 7.11 4.09 13.65 9.4 21.48 11.84 8.8 2.74 18.52 1.57 27.23 4.59 25.23 8.7 16.34 37.99 28.39 56.2 5.84 8.84 18.02 12.43 28.93 16.01 10.91 3.59 22.78 9.09 25.61 19.01 2.4 8.45-2.71 17.32-1.21 25.93 1.18 6.71 6.2 12.39 8.57 18.85.24.65.45 1.3.62 1.96z" fill="#6cdc2d"/><path d="m387.59 347.68v127.96c-.39.23-.78.47-1.17.7-1.91 1.13-3.84 2.25-5.79 3.33h-249.21c-14.3-7.98-27.76-17.28-40.2-27.76-.1-.08-.2-.17-.3-.25-1.68-1.41-3.33-2.84-4.97-4.3-4.32-3.84-8.51-7.82-12.54-11.94l-.01-.01c-.19-.19-.38-.39-.56-.58-.02 0-.02-.01-.02-.01-1.34-1.36-2.64-2.72-3.93-4.1-.69-.74-1.38-1.49-2.06-2.24v-80.8c0-9.13 7.39-16.53 16.52-16.53h287.71c9.13 0 16.53 7.4 16.53 16.53z" fill="#fed110"/><path d="m387.59 347.68v127.96c-.39.23-.78.47-1.17.7-1.91 1.13-3.84 2.25-5.79 3.33h-153.42v-148.52h143.85c9.13 0 16.53 7.4 16.53 16.53z" fill="#ff9f00"/><path d="m141.17 408.93c0 24-19.46 43.46-43.46 43.46-2.2 0-4.37-.16-6.49-.48-.1-.08-.2-.17-.3-.25-1.68-1.41-3.33-2.84-4.97-4.3-4.32-3.84-8.51-7.82-12.54-11.94l-.01-.01c-.19-.19-.38-.39-.56-.58-.02 0-.02-.01-.02-.01-1.34-1.36-2.64-2.72-3.93-4.1-.96-1.03-1.92-2.08-2.87-3.13 0-.01 0-.01-.01-.02-.8-.88-1.59-1.77-2.37-2.66-.4-.46-.8-.92-1.2-1.38-.49-.55-.97-1.11-1.43-1.67-.78-.91-1.56-1.84-2.32-2.76-.24-.28-.48-.56-.71-.85-.45-.54-.89-1.09-1.33-1.63-.66-.81-1.31-1.63-1.96-2.45-.05-.07-.11-.14-.16-.21-.19-1.65-.29-3.33-.29-5.03 0-24.01 19.47-43.46 43.47-43.46s43.46 19.45 43.46 43.46z" fill="#6cdc2d"/><path d="m141.17 408.931c0 24.001-19.462 43.463-43.463 43.463v-86.926c24.002 0 43.463 19.456 43.463 43.463z" fill="#00a042"/><ellipse cx="97.708" cy="408.931" fill="#b6e337" rx="25.247" ry="25.247" transform="matrix(.099 -.995 .995 .099 -318.861 465.868)"/><path d="m122.955 408.931c0 13.941-11.306 25.247-25.247 25.247v-50.495c13.941 0 25.247 11.301 25.247 25.248z" fill="#6cdc2d"/><ellipse cx="220.829" cy="326.81" fill="#fe3345" rx="43.463" ry="43.463" transform="matrix(.23 -.973 .973 .23 -147.975 466.646)"/><path d="m264.292 326.81c0 24.001-19.462 43.463-43.463 43.463v-86.926c24.001 0 43.463 19.457 43.463 43.463z" fill="#de1263"/><circle cx="220.829" cy="326.81" fill="#ff6477" r="25.247"/><path d="m246.076 326.81c0 13.941-11.306 25.247-25.247 25.247v-50.495c13.941.001 25.247 11.301 25.247 25.248z" fill="#fe3345"/><circle cx="355.699" cy="405.408" fill="#6cdc2d" r="43.463"/><path d="m399.162 405.408c0 24.001-19.462 43.463-43.463 43.463v-86.926c24.001 0 43.463 19.457 43.463 43.463z" fill="#00a042"/><ellipse cx="355.699" cy="405.408" fill="#b6e337" rx="25.247" ry="25.247" transform="matrix(.099 -.995 .995 .099 -82.786 719.428)"/><path d="m380.946 405.408c0 13.941-11.306 25.247-25.247 25.247v-50.495c13.941.001 25.247 11.301 25.247 25.248z" fill="#6cdc2d"/><path d="m297.881 308.476c-20.283 0-36.726 16.436-36.726 36.719 0 20.276 16.443 36.719 36.726 36.719 20.276 0 36.719-16.443 36.719-36.719 0-20.283-16.443-36.719-36.719-36.719zm0 58.05c-11.784 0-21.331-9.555-21.331-21.331 0-11.783 9.548-21.331 21.331-21.331 11.777 0 21.331 9.548 21.331 21.331 0 11.776-9.554 21.331-21.331 21.331z" fill="#fff"/><path d="m334.6 345.194c0 20.276-16.443 36.719-36.719 36.719v-15.387c11.777 0 21.331-9.555 21.331-21.331 0-11.783-9.555-21.331-21.331-21.331v-15.387c20.276-.001 36.719 16.435 36.719 36.717z" fill="#fdf7bd"/><path d="m91.41 445.65c0 2.05-.17 4.06-.49 6.01-1.68-1.41-3.33-2.84-4.97-4.3-4.32-3.84-8.51-7.82-12.54-11.94l-.01-.01c-.13-.23-.32-.42-.56-.58-.02 0-.02-.01-.02-.01-1.34-1.36-2.64-2.72-3.93-4.1-.96-1.03-1.92-2.08-2.87-3.13 0-.01 0-.01-.01-.02-.8-.88-1.59-1.77-2.37-2.66-.4-.46-.8-.92-1.2-1.38-.49-.55-.97-1.11-1.43-1.67-.78-.91-1.56-1.84-2.32-2.76-.24-.28-.48-.56-.71-.85-.45-.54-.89-1.09-1.33-1.63-.66-.81-1.31-1.63-1.96-2.45-1.31-1.66-2.59-3.34-3.86-5.04 1.27-.13 2.56-.2 3.86-.2 20.28 0 36.72 16.44 36.72 36.72z" fill="#fdf7bd"/><path d="m399.73 417.12c-20.29 0-36.73 16.43-36.73 36.72 0 11.34 5.15 21.48 13.24 28.22 5.11-2.71 10.11-5.6 15-8.65-7.56-3.28-12.84-10.81-12.84-19.57 0-11.79 9.54-21.34 21.33-21.34 11.07 0 20.19 8.45 21.23 19.27 4.42-3.72 8.7-7.59 12.85-11.61-5.42-13.51-18.64-23.04-34.08-23.04z" fill="#fff"/><path d="m433.81 440.16c-4.15 4.02-8.43 7.89-12.85 11.61-1.04-10.82-10.16-19.27-21.23-19.27v-15.38c15.44 0 28.66 9.53 34.08 23.04z" fill="#fdf7bd"/><path d="m141.918 316.082c-20.283 0-36.726 16.436-36.726 36.719 0 20.276 16.443 36.719 36.726 36.719 20.276 0 36.719-16.443 36.719-36.719-.001-20.283-16.443-36.719-36.719-36.719zm0 58.05c-11.784 0-21.331-9.555-21.331-21.331 0-11.784 9.548-21.331 21.331-21.331 11.777 0 21.331 9.548 21.331 21.331 0 11.777-9.554 21.331-21.331 21.331z" fill="#fff"/><path d="m178.636 352.801c0 20.276-16.443 36.719-36.719 36.719v-15.387c11.777 0 21.331-9.555 21.331-21.331 0-11.784-9.555-21.331-21.331-21.331v-15.387c20.277-.002 36.719 16.434 36.719 36.717z" fill="#fdf7bd"/><path d="m406.58 463.04c-4.98 3.64-10.09 7.1-15.34 10.37-1.59.99-3.2 1.97-4.82 2.93-3.15 1.87-6.35 3.68-9.59 5.4-.19.11-.39.22-.59.32-35.85 19.12-76.78 29.94-120.24 29.94-9.73 0-19.34-.54-28.79-1.61-32.97-3.68-64.06-13.64-92.03-28.65-24.83-13.31-47.21-30.6-66.29-51.02 9.85-13.34 20.81-26.11 32.89-38.19 32.27-32.28 69.49-56.56 109.22-72.88 5.18-2.14 10.7-3.2 16.21-3.2s11.03 1.06 16.21 3.2c39.73 16.32 76.95 40.6 109.22 72.88 21.54 21.54 39.52 45.28 53.94 70.51z" fill="#fdf7bd"/><path d="m406.58 463.04c-4.98 3.64-10.09 7.1-15.34 10.37-1.59.99-3.2 1.97-4.82 2.93-3.15 1.87-6.35 3.68-9.59 5.4-.19.11-.39.22-.59.32-35.85 19.12-76.78 29.94-120.24 29.94-9.73 0-19.34-.54-28.79-1.61v-193.94c5.51 0 11.03 1.06 16.21 3.2 39.73 16.32 76.95 40.6 109.22 72.88 21.54 21.54 39.52 45.28 53.94 70.51z" fill="#f9d19a"/><path d="m386.42 476.34c-3.15 1.87-6.35 3.68-9.59 5.4-.19.11-.39.22-.59.32-35.85 19.12-76.78 29.94-120.24 29.94-9.73 0-19.34-.54-28.79-1.61-32.97-3.68-64.06-13.64-92.03-28.65-17.77-9.53-34.29-21.09-49.23-34.38 9.48-13.47 20.25-26.31 32.3-38.36 28.18-28.18 60.7-49.35 95.4-63.52 4.35-1.78 8.95-2.66 13.56-2.66s9.22.88 13.56 2.66c34.71 14.17 67.23 35.34 95.4 63.52 20.44 20.43 37.19 43.15 50.25 67.34z" fill="#fff"/><path d="m386.42 476.34c-3.15 1.87-6.35 3.68-9.59 5.4-.19.11-.39.22-.59.32-35.85 19.12-76.78 29.94-120.24 29.94-9.73 0-19.34-.54-28.79-1.61v-167.57c4.61 0 9.22.88 13.56 2.66 34.71 14.17 67.23 35.34 95.4 63.52 20.44 20.43 37.19 43.15 50.25 67.34z" fill="#fdf7bd"/></svg>