<svg id="Capa_1" enable-background="new 0 0 512.039 512.039" height="512" viewBox="0 0 512.039 512.039" width="512" xmlns="http://www.w3.org/2000/svg"><circle cx="256.019" cy="256" fill="#ffe853" r="256"/><path d="m512.019 256c0 87.11-43.52 164.07-110 210.31-41.41 28.8-91.73 45.69-146 45.69s-104.59-16.89-146-45.69c-66.48-46.24-110-123.2-110-210.31 0-46.22 12.25-89.57 33.68-127 44.12 77.07 127.16 129 222.32 129s178.21-51.93 222.32-129c21.43 37.43 33.68 80.78 33.68 127z" fill="#fed110"/><path d="m260.839 512c-9.84.17-19.78-.22-29.77-1.21-6.36-.63-12.75-1.5-19.15-2.62-2.3-.4-4.6-.84-6.87-1.3-6.22-1.26-12.35-2.74-18.37-4.43l-1.78-10.96c-6.28-38.29-28.6-70.02-51.57-101.3-5.76-7.84-12.47-12.18-21.78-15.08-12.44-3.88-27.16-8.52-31.45-22.33-1.25-4.01-1.45-8.09-.75-11.95 1.68-9.29-.47-18.84-6.29-26.27-.25-.33-.51-.66-.77-.99-4.74-6.08-9.31-12.53-13.42-19.37-6.05-10.08-13.43-19.35-22.21-27.16-2.77-2.47-4.92-5.69-6.11-9.49-1.89-6.08-.89-12.36 2.21-17.38 5.47-8.85 9.58-18.45 12.3-28.5.68-2.51 1.46-5 2.34-7.45 2.31-6.43 2.54-13.39.81-20-.02-.07-.03-.14-.05-.2-2.21-8.81 1.27-18.06 8.96-22.89 3.45-2.17 7.13-3.24 10.72-3.39 4.45-.18 8.85-.85 13.11-1.99 4.33-1.15 8.53-2.8 12.53-4.92.49-.26.98-.51 1.48-.77 5.77-2.94 10.83-7.03 15.19-11.82.61-.66 1.2-1.33 1.78-2.02 3-3.58 7.04-6.37 11.83-7.86 8.72-2.71 17.8-.46 24.19 5.16 4.73 4.16 10.3 7.21 16.4 8.79 12.91 3.34 25.02 9.29 35.54 17.44 4.56 3.53 10.08 5.7 15.84 5.93 10.38.41 19.86 7.25 23.12 17.74 1.82 5.86 1.4 11.87-.78 17.13-2.52 6.1-3.36 12.77-2.35 19.3 1.4 8.98 2.89 23.02 2.89 42.02 0 .42-.05.84-.08 1.25-.68 11.39 4.02 22.32 12.36 30.1 3.55 3.31 6.2 7.69 7.38 12.86 2.72 11.81-3.53 24.06-14.68 28.81-.09.03-.18.07-.27.11-6.57 2.71-11 8.95-11.27 16.06-.1 2.71-.2 5.55-.29 8.53-1.19 38.79-1.58 77.58 14.96 112.69l5.06 10.74c3.14 4.81 5.69 10.13 7.48 15.89l.09.3c1.3 4.26 1.77 8.59 1.49 12.8z" fill="#f79f63"/><path d="m260.839 512c-9.84.17-19.78-.22-29.77-1.21-6.36-.63-12.75-1.5-19.15-2.62-2.3-.4-4.6-.84-6.87-1.3.64-8.16.89-16.21-2.25-23.65-2.69-6.37-7.62-11.59-10.2-18-2.57-6.39-2.61-13.47-3.77-20.26-1.97-11.49-7.52-21.12-14.16-30.46-5.77-8.1-16.07-11.87-21.39-20.47-5.11-8.25-2.28-19.27-5.95-28.24-2.6-6.34-8.16-10.96-13.88-14.72-5.72-3.77-11.88-7.01-16.74-11.83-7.09-7.04-6.49-15.07-8.4-23.97-1.68-7.83-1.08-15.98-2.63-23.85-1.65-8.42-6.23-15.93-10.73-23.23-7.38-11.96-21.14-27.18-23.91-41-2.65-13.22 5.18-24.31 9.62-35.94 4.31-11.3 4.26-24.1.29-35.51 4.33-1.15 8.53-2.8 12.53-4.92.49-.26.98-.51 1.48-.77 5.77-2.94 10.83-7.03 15.19-11.82.61-.66 1.2-1.33 1.78-2.02 3-3.58 7.04-6.37 11.83-7.86 8.72-2.71 17.8-.46 24.19 5.16 4.73 4.16 10.3 7.21 16.4 8.79 12.91 3.34 25.02 9.29 35.54 17.44 4.56 3.53 10.08 5.7 15.84 5.93 10.38.41 19.86 7.25 23.12 17.74 1.82 5.86 1.4 11.87-.78 17.13-2.52 6.1-3.36 12.77-2.35 19.3 1.4 8.98 2.89 23.02 2.89 42.02 0 .42-.05.84-.08 1.25-.68 11.39 4.02 22.32 12.36 30.1 3.55 3.31 6.2 7.69 7.38 12.86 2.72 11.81-3.53 24.06-14.68 28.81-.09.03-.18.07-.27.11-6.57 2.71-11 8.95-11.27 16.06-.1 2.71-.2 5.55-.29 8.53-1.19 38.79-1.58 77.58 14.96 112.69l5.06 10.74c3.14 4.81 5.69 10.13 7.48 15.89l.09.3c1.3 4.26 1.77 8.59 1.49 12.8z" fill="#f4873d"/><path d="m260.839 512c-9.84.17-19.78-.22-29.77-1.21-1.12-15.58-9.66-29.97-17.37-43.79-17.98-32.17-7.59-70.95-27.44-101.77-7.85-12.19-20.64-22-23.16-36.27-3.11-17.6 10.87-35.19 6.83-52.6-2.71-11.71-12.78-19.96-20.59-29.09-20.1-23.52 3.36-49.33-8.5-75.82-6.25-13.96-18.09-24.19-30.69-33.22.61-.66 1.2-1.33 1.78-2.02 3-3.58 7.04-6.37 11.83-7.86 8.72-2.71 17.8-.46 24.19 5.16 4.73 4.16 10.3 7.21 16.4 8.79 12.91 3.34 25.02 9.29 35.54 17.44 4.56 3.53 10.08 5.7 15.84 5.93 10.38.41 19.86 7.25 23.12 17.74 1.82 5.86 1.4 11.87-.78 17.13-2.52 6.1-3.36 12.77-2.35 19.3 1.4 8.98 2.89 23.02 2.89 42.02 0 .42-.05.84-.08 1.25-.68 11.39 4.02 22.32 12.36 30.1 3.55 3.31 6.2 7.69 7.38 12.86 2.72 11.81-3.53 24.06-14.68 28.81-.09.03-.18.07-.27.11-6.57 2.71-11 8.95-11.27 16.06-.1 2.71-.2 5.55-.29 8.53-1.2 38.8-1.58 77.58 14.96 112.69l5.06 10.74c3.14 4.81 5.69 10.13 7.48 15.89l.09.3c1.3 4.26 1.77 8.59 1.49 12.8z" fill="#ec781b"/><path d="m137.456 297.286c-2.275-4.835-7.066-6.444-11.977-4.917-4.584 1.425-6.884 7.796-4.917 11.977 2.275 4.835 7.066 6.444 11.977 4.917 4.584-1.425 6.884-7.796 4.917-11.977z" fill="#f79f63"/><path d="m123.434 195.638c-1.744-2.243-3.921-3.927-6.53-5.053-2.704-1.139-5.514-1.528-8.429-1.165-2.913.381-5.535 1.462-7.867 3.243-.214.202-.427.403-.641.605-.957.955-1.914 1.911-2.871 2.866-.685 1.166-1.369 2.332-2.054 3.498-.369 1.32-.738 2.641-1.107 3.961-.389 2.175-.216 4.278.519 6.31.186 1.42.712 2.697 1.58 3.834.544 1.285 1.366 2.356 2.466 3.213.85 1.093 1.911 1.914 3.182 2.462 1.697 1.197 3.6 1.908 5.71 2.134.278.044.556.087.834.131 5.715.899 11.664-1.615 15.177-6.154 1.744-2.269 2.825-4.82 3.243-7.653.399-2.232.222-4.39-.533-6.474-.369-2.136-1.263-4.055-2.679-5.758z" fill="#f79f63"/><path d="m183.029 380.64c-1.362-3.263-4.387-5.553-7.88-6.094-1.369-.245-2.693-.136-3.972.327-1.311.228-2.488.776-3.533 1.645l-1.807 1.805c-1.07 1.392-1.733 2.958-1.99 4.696-.282 1.701-.001 3.678.66 5.262.325.78.76 1.531 1.274 2.197.058.076.112.136.169.207.749.992 1.669 1.761 2.775 2.292.696.535 1.479.867 2.348.995 1.26.47 2.568.592 3.925.366.077-.019.143-.034.217-.052.335-.057.667-.136.997-.24.259-.063.506-.126.737-.192 1.103-.261 2.112-.752 3.013-1.501 1.345-1.046 2.354-2.351 3.029-3.915.431-.761.593-1.673.716-2.541.249-1.771.011-3.608-.678-5.257z" fill="#f79f63"/><path d="m220.293 241.077c-.583-1.377-1.463-2.525-2.642-3.443-.911-1.171-2.048-2.05-3.41-2.638-1.185-.911-2.517-1.475-3.996-1.694-2.144-.799-4.371-1.007-6.68-.624-.086.02-.172.039-.258.059-3.004.393-5.709 1.508-8.114 3.345-1.807 1.294-3.182 2.922-4.125 4.884-1.267 1.796-2.019 3.81-2.258 6.042-.417 3.052-.04 6.003 1.129 8.852.03.077.061.154.091.231.738 1.27 1.475 2.54 2.213 3.81 1.024 1.025 2.047 2.051 3.071 3.076 1.249.734 2.499 1.467 3.748 2.201 1.415.395 2.829.79 4.244 1.186 1.519.01 3.039.02 4.558.031 1.468-.391 2.937-.783 4.405-1.174 1.27-.738 2.54-1.475 3.811-2.213 1.829-1.31 3.222-2.958 4.176-4.945.911-1.185 1.475-2.517 1.693-3.996.595-1.412.798-2.879.608-4.401.211-1.545.02-3.039-.572-4.482-.197-1.52-.762-2.89-1.692-4.107z" fill="#f4873d"/><path d="m197.885 187.044c-2.29-4.867-7.113-6.486-12.056-4.949l-.449.139c-4.614 1.434-6.93 7.848-4.95 12.056 2.29 4.867 7.113 6.486 12.056 4.949l.449-.139c4.614-1.434 6.93-7.848 4.95-12.056z" fill="#f4873d"/><path d="m207.397 332.332-1.813-3.121c-1.492-1.918-3.354-3.359-5.585-4.322-1.159-.324-2.318-.647-3.476-.971-2.531-.346-4.978-.034-7.342.936-1.742.656-3.203 1.68-4.381 3.07-1.379 1.165-2.4 2.608-3.062 4.328-.807 1.714-1.135 3.495-.984 5.343-.177 1.888.139 3.713.949 5.475l1.813 3.121c1.492 1.918 3.354 3.359 5.586 4.322 1.159.324 2.317.648 3.476.971 2.531.345 4.978.033 7.342-.936 1.742-.656 3.203-1.68 4.381-3.07 1.379-1.165 2.4-2.608 3.062-4.328.807-1.714 1.135-3.495.984-5.343.176-1.889-.14-3.713-.95-5.475z" fill="#f4873d"/><path d="m223.05 382.644c-.277-.653-.695-1.198-1.254-1.634-.432-.556-.972-.973-1.618-1.252-.863-.609-1.831-.97-2.904-1.085-.258-.044-.516-.089-.774-.133-.361-.101-.722-.202-1.082-.302-.817-.005-1.634-.011-2.451-.017-.789.21-1.579.421-2.368.631-.683.397-1.366.793-2.048 1.19-.551.55-1.102 1.101-1.654 1.651-.395.672-.789 1.343-1.183 2.015-.213.76-.425 1.521-.637 2.281-.224 1.253-.125 2.464.299 3.635.107.818.41 1.554.91 2.208.313.74.787 1.357 1.421 1.851.49.629 1.101 1.102 1.833 1.418.637.49 1.353.793 2.148.91.759.32 1.548.429 2.366.327.831.113 1.634.011 2.409-.307.818-.107 1.554-.41 2.208-.91 1.077-.509 1.97-1.258 2.678-2.246.084-.117.161-.238.239-.358.307-.307.615-.614.922-.921.348-.593.697-1.186 1.045-1.779.188-.671.375-1.343.563-2.014.198-1.106.11-2.176-.264-3.209-.095-.723-.362-1.373-.804-1.95z" fill="#f4873d"/><path d="m380.733 77.802c1.921 2.239 3.622 4.624 5.095 7.12 8.35 14.137 9.449 31.904 1.942 47.374l-27.304 56.299 20.14 11.844c6.436.039 12.907 2.143 18.339 6.451.35.278.692.566 1.027.855 3.594 3.118 7.961 5.149 12.632 6.065 2.861.563 5.636 1.798 8.081 3.736 1.951 1.548 3.517 3.406 4.677 5.444 1.54 2.712 3.552 5.116 5.971 7.035.801.635 1.644 1.216 2.529 1.737.568.311 1.125.63 1.673.96 3.413 2.054 7.296 3.155 11.278 3.279 4.045.134 8.082 1.554 11.45 4.347 7.73 6.403 9.077 17.933 3.037 25.945-.03.046-.064.089-.099.132-1.29 1.678-1.931 3.749-1.811 5.858.072 1.245.096 2.492.078 3.741-.031 1.838.543 3.632 1.608 5.13 4.752 6.685 4.748 15.956-.606 22.707-.666.84-1.389 1.612-2.162 2.308-2.377 2.138-3.954 5.015-4.539 8.16-.863 4.619-2.826 9.099-5.95 13.038-5.192 6.548-12.578 10.325-20.284 11.13-1.617.167-3.169.648-4.565 1.404-1.403.756-2.651 1.786-3.66 3.059-2.562 3.231-3.215 7.533-1.891 11.436 1.997 5.88 1.061 12.625-3.085 17.853-3.583 4.518-8.807 6.958-14.152 7.15-5.937.211-11.674 2.351-16.336 6.035-.077.061-.155.122-.232.183-3.571 2.792-6.392 6.394-8.421 10.449-.755 1.503-1.723 2.936-2.915 4.255-6.287 6.966-16.927 8.227-24.672 2.929-1.353-.922-2.537-1.983-3.565-3.147-2.426-2.762-5.488-4.87-8.977-6.019-.351-.115-.699-.234-1.044-.357-3.344-1.179-6.932-1.382-10.432-.815-2.611.421-5.303.3-7.896-.387-2.436-.651-4.779-1.799-6.877-3.463-2.205-1.749-3.913-3.889-5.11-6.241-2.135-4.208-5.431-7.73-9.421-10.254-.816-.519-1.612-1.109-2.364-1.776-.13-.108-.26-.223-.387-.342-6.926-6.389-8.042-17.095-2.601-24.785.98-1.383 2.103-2.594 3.335-3.625 4.255-3.553 7.535-8.165 9.201-13.452.249-.798.521-1.589.813-2.383 1.969-5.331 2.088-11.134.746-16.658-1.326-5.47-.211-11.473 3.559-16.226 4.305-5.429 10.996-7.86 17.399-6.986 3.642.502 7.287-.864 9.571-3.744l.295-.372c3.54-4.464 2.744-10.963-1.774-14.442l-39.005-30.018c-18.52-14.687-24.613-40.127-14.751-61.607l10.465-22.806c1.062-2.308 4.486-1.752 4.761.772l3.088 26.219 30.936-43.767 41.115-58.166c2.872-4.059 8.812-4.377 12.047-.601z" fill="#f79f63"/><path d="m380.733 77.802c1.921 2.239 3.622 4.624 5.095 7.12 8.35 14.137 9.449 31.904 1.942 47.374l-27.304 56.299 20.14 11.844c6.436.039 12.907 2.143 18.339 6.451.35.278.692.566 1.027.855 3.594 3.118 7.961 5.149 12.632 6.065 2.861.563 5.636 1.798 8.081 3.736 1.951 1.548 3.517 3.406 4.677 5.444 1.54 2.712 3.552 5.116 5.971 7.035.801.635 1.644 1.216 2.529 1.737.568.311 1.125.63 1.673.96 3.413 2.054 7.296 3.155 11.278 3.279 4.045.134 8.082 1.554 11.45 4.347 7.73 6.403 9.077 17.933 3.037 25.945-.03.046-.064.089-.099.132-1.29 1.678-1.931 3.749-1.811 5.858.072 1.245.096 2.492.078 3.741-.031 1.838.543 3.632 1.608 5.13 4.752 6.685 4.748 15.956-.606 22.707-.666.84-1.389 1.612-2.162 2.308-2.377 2.138-3.954 5.015-4.539 8.16-.863 4.619-2.826 9.099-5.95 13.038-5.192 6.548-12.578 10.325-20.284 11.13-1.617.167-3.169.648-4.565 1.404-1.403.756-2.651 1.786-3.66 3.059-2.562 3.231-3.215 7.533-1.891 11.436 1.997 5.88 1.061 12.625-3.085 17.853-3.583 4.518-8.807 6.958-14.152 7.15-5.937.211-11.674 2.351-16.336 6.035-.077.061-.155.122-.232.183-3.571 2.792-6.392 6.394-8.421 10.449-.755 1.503-1.723 2.936-2.915 4.255-6.287 6.966-16.927 8.227-24.672 2.929-1.353-.922-2.537-1.983-3.565-3.147-2.426-2.762-5.488-4.87-8.977-6.019-.351-.115-.699-.234-1.044-.357-3.344-1.179-6.932-1.382-10.432-.815-2.61.421-5.302.301-7.894-.387-9.852-2.613-12.633-12.659-17.05-20.864-3.582-6.655-6.154-15.913 1.216-21.388 6.036-4.484 15.117-.737 21.509-4.931 4.769-3.128 6.666-9.646 11.736-12.274 3.165-1.635 6.926-1.407 10.436-2.023 3.511-.61 7.345-2.75 7.679-6.299 2.552-2.028 2.672-4.815 2.234-8.044-.434-3.226-1.485-6.452-1.029-9.677.662-4.703 4.306-8.315 7.242-12.054 3.966-5.052 6.143-11.725.246-15.873-5.767-4.055-11.671-4.208-12.756-13.33-.401-3.363.26-6.774.026-10.156-.613-8.968-8.296-16.936-17.235-17.871-6.977-.73-12.072-3.938-17.965-7.738-5.9-3.8-10.942-9.422-12.542-16.251-1.6-6.828.936-14.842 7.02-18.337 3.572-2.052 4.125-5.502 4.059-9.618-.07-4.119-1.127-8.217-.754-12.322.54-5.841 3.901-11.012 7.439-15.693 6.338-8.386 9.733-19.329 15.457-28.415 4.359-6.919 9.51-13.454 14.23-20.132 7.265-10.277 14.529-20.555 21.794-30.832 2.872-4.059 8.812-4.377 12.047-.601z" fill="#f4873d"/><path d="m385.828 84.922c8.35 14.137 9.449 31.904 1.942 47.374l-27.304 56.299 20.14 11.844c6.436.039 12.907 2.143 18.339 6.451.35.278.692.566 1.027.855 3.594 3.118 7.961 5.149 12.632 6.065 2.861.563 5.636 1.798 8.081 3.736 1.951 1.548 3.517 3.406 4.677 5.444 1.54 2.712 3.552 5.116 5.971 7.035.801.635 1.644 1.216 2.529 1.737.568.311 1.125.63 1.673.96 3.413 2.054 7.296 3.155 11.278 3.279 4.045.134 8.082 1.554 11.45 4.347 7.73 6.403 9.077 17.933 3.037 25.945-.03.046-.064.089-.099.132-1.29 1.678-1.931 3.749-1.811 5.858.072 1.245.096 2.492.078 3.741-.031 1.838.543 3.632 1.608 5.13 4.752 6.685 4.748 15.956-.606 22.707-.666.84-1.389 1.612-2.162 2.308-2.377 2.138-3.954 5.015-4.539 8.16-.863 4.619-2.826 9.099-5.95 13.038-5.192 6.548-12.578 10.325-20.284 11.13-1.617.167-3.169.648-4.565 1.404-1.403.756-2.651 1.786-3.66 3.059-2.562 3.231-3.215 7.533-1.891 11.436 1.997 5.88 1.061 12.625-3.085 17.853-3.583 4.518-8.807 6.958-14.152 7.15-5.937.211-11.674 2.351-16.336 6.035-.077.061-.155.122-.232.183-3.571 2.792-6.392 6.394-8.421 10.449-.755 1.503-1.723 2.936-2.915 4.255-6.287 6.966-16.927 8.227-24.672 2.929-1.353-.922-2.537-1.983-3.565-3.147-2.426-2.762-5.488-4.87-8.977-6.019-.351-.115-.699-.234-1.044-.357-3.344-1.179-6.932-1.382-10.432-.815-2.611.421-5.303.3-7.896-.387 1.377-2.052 2.621-4.215 3.777-6.319 3.976-7.238 8.714-15.224 16.706-17.315 5.138-1.34 10.538.102 15.841.249 24.462.683 11.568-29.57 25.299-39.103 5.485-3.812 11.972-6.067 17.25-10.16 16.97-13.177-5.365-25.021 3.83-40.602 3.085-5.233 8.827-9.772 8.137-15.803-.593-5.169-6.033-8.586-11.215-9.034-5.179-.451-10.269 1.247-15.365 2.293-5.094 1.043-10.786 1.326-15.101-1.578-5.594-3.767-6.833-11.27-8.67-17.756-5.565-19.637-31.786-12.994-38.452-30.406-2.631-6.872-.961-15.188 4.12-20.508 2.636-2.759 6.041-4.71 8.618-7.527 5.478-5.983 5.523-14.511 8.886-21.299 4.431-8.927 11.106-17.367 16.472-25.785 9.984-15.659 20.011-31.297 30.003-46.95z" fill="#ec781b"/><path d="m385.574 297.991c-.673-.321-1.346-.643-2.018-.964-1.434-.461-2.89-.548-4.369-.261-.706.239-1.412.478-2.118.717-1.416.707-2.56 1.722-3.431 3.044-.663.945-1.052 1.979-1.169 3.102-.299 1.078-.317 2.173-.056 3.285.186 1.159.64 2.185 1.363 3.078.569 1.028 1.368 1.852 2.398 2.471.673.321 1.345.643 2.018.964 1.434.461 2.89.547 4.369.261l2.118-.717c1.416-.707 2.56-1.722 3.431-3.044.662-.945 1.052-1.979 1.169-3.102.299-1.078.317-2.173.055-3.285-.186-1.159-.64-2.185-1.363-3.078-.567-1.028-1.367-1.852-2.397-2.471z" fill="#f79f63"/><path d="m353.487 343.435c-.546-.471-1.092-.942-1.639-1.413-.883-.62-1.85-.984-2.901-1.094-.67-.215-1.351-.256-2.043-.122-.708-.04-1.381.095-2.02.405-.713.145-1.342.458-1.888.939-.145.08-.284.167-.42.257-.787.377-1.519.855-2.123 1.508-.596.691-1.191 1.382-1.786 2.073-.38.796-.76 1.591-1.14 2.387-.162.854-.324 1.709-.486 2.563l.177 2.603c.283.835.565 1.67.848 2.505.509.757 1.018 1.513 1.527 2.27.691.595 1.382 1.191 2.073 1.787 1.117.783 2.34 1.244 3.668 1.383.848.272 1.709.324 2.583.154.896.05 1.747-.121 2.554-.513.901-.183 1.697-.579 2.388-1.188.837-.418 1.514-1.018 2.028-1.8.687-.613 1.174-1.356 1.463-2.229.485-.755.756-1.58.813-2.475.272-.848.324-1.709.154-2.583.02-1.335-.292-2.604-.937-3.807-.029-.044-.058-.089-.087-.133-.575-1.282-1.42-2.324-2.535-3.128-.037-.041-.079-.075-.117-.115-.049-.078-.101-.156-.154-.234z" fill="#f79f63"/><path d="m381.428 268.2c-2.787-1.813-5.977-.746-7.899 1.679-1.917 2.417-.731 6.332 1.679 7.899 2.787 1.813 5.977.746 7.899-1.679 1.917-2.417.731-6.331-1.679-7.899z" fill="#f79f63"/><g fill="#f4873d"><path d="m437.472 275.995c-1.34-.786-2.803-1.197-4.389-1.233-1.014.069-2.027.138-3.041.207-.505.081-.99.203-1.458.358-.235.016-.47.032-.705.048-2.03.412-3.822 1.304-5.378 2.675-.081.07-.15.144-.226.218-.675.784-1.351 1.567-2.026 2.35-.036.04-.07.083-.102.127-.049.072-.096.145-.141.219-.242.482-.475.968-.699 1.459-.253.479-.484.967-.695 1.465-.588 1.826-.985 4.605-.463 6.575.084.643.26 1.268.553 1.869.389 1.576 1.158 2.965 2.307 4.165 1.562 1.78 2.442 2.236 4.289 3.118 1.886.901 2.097 1.091 4.647 1.316.1.009.2.021.301.029 3.46.275 7.126-1.118 9.689-3.4.948-.845 1.814-1.852 2.47-2.949.45-.942.9-1.884 1.35-2.826.032-.063.059-.127.083-.194.297-.806.609-3.22.638-3.339.101-1.144.061-2.325-.202-3.447-.012-.067-.03-.132-.054-.195-.331-.979-.663-1.957-.994-2.936-.464-1.074-1.274-1.965-1.938-2.926-1.044-1.268-2.315-2.186-3.816-2.753z"/><path d="m444.474 288.251c-.003.038-.003.077-.007.114.01-.1.012-.132.007-.114z"/><path d="m410.279 227.087c-.847-.404-1.693-.809-2.54-1.214-1.805-.58-3.637-.689-5.498-.328-.889.301-1.777.602-2.666.903-1.782.89-3.221 2.167-4.318 3.831-.834 1.189-1.324 2.49-1.472 3.904-.376 1.357-.399 2.735-.07 4.134.234 1.459.806 2.75 1.716 3.874.716 1.294 1.722 2.33 3.018 3.109.847.404 1.693.809 2.54 1.213 1.805.58 3.637.689 5.498.328.889-.301 1.777-.602 2.666-.903 1.782-.89 3.221-2.167 4.317-3.831.834-1.189 1.324-2.49 1.472-3.904.376-1.357.399-2.735.07-4.134-.234-1.459-.806-2.75-1.715-3.874-.716-1.292-1.722-2.329-3.018-3.108z"/><path d="m370.199 206.604c-.794-.379-1.588-.759-2.382-1.138-1.693-.544-3.412-.646-5.157-.308-.834.282-1.667.564-2.501.847-1.672.835-3.022 2.033-4.05 3.594-.782 1.115-1.242 2.336-1.38 3.662-.353 1.273-.374 2.566-.065 3.878.219 1.368.755 2.579 1.609 3.634.672 1.214 1.615 2.186 2.831 2.917.794.379 1.588.759 2.382 1.138 1.693.544 3.412.646 5.157.308.834-.282 1.667-.564 2.501-.847 1.672-.835 3.022-2.033 4.05-3.593.782-1.115 1.242-2.336 1.38-3.662.353-1.273.374-2.565.065-3.878-.219-1.368-.755-2.579-1.609-3.634-.672-1.215-1.616-2.187-2.831-2.918z"/><path d="m369.063 380.926c-3.985-2.346-8.195-1.158-10.961 2.329-2.581 3.255-1.117 8.933 2.329 10.961 3.985 2.346 8.195 1.159 10.961-2.329 2.581-3.255 1.117-8.932-2.329-10.961z"/><path d="m317.039 431.08-.291-5.335c-.677-3.534-2.164-6.686-4.459-9.457-1.31-1.206-2.62-2.413-3.931-3.619-3.105-2.158-6.543-3.393-10.312-3.704-2.739-.306-5.354.061-7.843 1.102-2.603.609-4.919 1.825-6.95 3.647-2.217 1.717-3.848 3.845-4.892 6.384-1.503 2.371-2.314 4.99-2.432 7.858.097 1.779.194 3.557.291 5.335.677 3.534 2.164 6.686 4.458 9.457 1.31 1.206 2.621 2.413 3.931 3.619 3.105 2.159 6.543 3.393 10.312 3.704 2.74.306 5.354-.061 7.843-1.102 2.603-.609 4.919-1.825 6.95-3.647 2.217-1.717 3.848-3.845 4.892-6.384 1.505-2.37 2.315-4.99 2.433-7.858z"/><path d="m243.708 108.311c.6-7.819-5.217-13.213-12.409-14.45-7.172-1.233-13.931 5.649-14.45 12.409-.601 7.818 5.217 13.213 12.409 14.45 7.171 1.233 13.931-5.65 14.45-12.409z"/><path d="m112.213 403.126c.325-10.195-6.426-17.087-16.103-18.751-9.031-1.553-18.47 7.286-18.751 16.102-.325 10.195 6.427 17.087 16.103 18.751 9.03 1.554 18.47-7.286 18.751-16.102z"/></g></svg>