<svg id="Capa_1" enable-background="new 0 0 512 512" height="512" viewBox="0 0 512 512" width="512" xmlns="http://www.w3.org/2000/svg"><path d="m512 256c0 71.88-29.63 136.84-77.33 183.34l-20.4 17.86.01.01c-43.56 34.31-98.53 54.79-158.28 54.79-141.38 0-256-114.62-256-256s114.62-256 256-256 256 114.62 256 256z" fill="#65b2fe"/><path d="m512 256c0 71.92-29.67 136.92-77.43 183.42l-20.3 17.78.01.02c-4 3.14-8.09 6.18-12.28 9.09-41.41 28.8-91.73 45.69-146 45.69s-104.59-16.89-146-45.69c-66.48-46.24-110-123.2-110-210.31 0-46.22 12.25-89.57 33.68-127 44.12 77.07 127.16 129 222.32 129s178.21-51.93 222.32-129c21.43 37.43 33.68 80.78 33.68 127z" fill="#0e9ce7"/><path d="m434.67 439.34c-3.24 3.16-6.56 6.23-9.96 9.19-3.4 2.98-6.88 5.88-10.44 8.67l-19.89-20.16c-11.93-12.1-28.93-17.78-45.73-15.19-20.16 3.1-41.53-4.27-55.34-21.62l-73.76-92.66c-2.87-3.6-2.58-8.78.68-12.03l.14-.14c3.66-3.66 9.64-3.51 13.11.33l78.81 87.81c.14.15.28.3.43.45 4.33 4.33 11.41 4.37 15.8-.01 4.31-4.32 4.37-11.28.14-15.67l-82.79-85.83c-1.72-1.78-2.57-4.08-2.55-6.37s.91-4.57 2.65-6.32c3.5-3.49 9.14-3.54 12.69-.11l85.83 82.79c2.2 2.12 5.03 3.16 7.86 3.14 2.83-.03 5.65-1.12 7.81-3.28 4.53-4.53 4.33-11.94-.44-16.22l-87.81-78.81c-3.84-3.48-3.99-9.46-.33-13.12l.14-.14c3.26-3.25 8.44-3.55 12.04-.68l92.66 73.77c17.34 13.81 24.71 35.17 21.61 55.33-2.58 16.8 3.1 33.81 15.2 45.74z" fill="#fefefe"/><path d="m434.67 439.34c-3.24 3.16-6.56 6.23-9.96 9.19l-178.74-178.74c3.5-3.49 9.14-3.54 12.69-.11l85.83 82.79c2.2 2.12 5.03 3.16 7.86 3.14 2.83-.03 5.65-1.12 7.81-3.28 4.53-4.53 4.33-11.94-.44-16.22l-87.81-78.81c-3.84-3.48-3.99-9.46-.33-13.12l.14-.14c3.26-3.25 8.44-3.55 12.04-.68l92.66 73.77c17.34 13.81 24.71 35.17 21.61 55.33-2.58 16.8 3.1 33.81 15.2 45.74z" fill="#d1f6ff"/><path d="m343.711 73.4c-4.531 1.786-9.459 2.766-14.625 2.766-5.165 0-10.105-.979-14.636-2.766-7.512-2.97-5.284-14.194 2.798-14.194h23.676c8.071 0 10.299 11.224 2.787 14.194z" fill="#fe3345"/><path d="m59.39 345.991c0 5.165-.99 10.105-2.776 14.636-2.97 7.512-14.184 5.284-14.184-2.798v-23.675c0-8.071 11.214-10.299 14.184-2.787 1.679 4.261 2.658 8.867 2.766 13.689.01.31.01.623.01.935z" fill="#fe3345"/><path d="m383.97 127.24c0 72.845-28.367 141.321-79.872 192.826s-119.981 79.872-192.826 79.872c-30.305 0-54.884-24.579-54.884-54.884 0-30.315 24.579-54.884 54.884-54.884 6.048 0 12.021-.334 17.907-.979 16.454-1.808 32.177-6.07 46.802-12.43 9.05-3.928 17.671-8.652 25.774-14.087 13.517-9.05 25.591-20.081 35.836-32.651 6.156-7.555 11.655-15.669 16.401-24.257 7.759-14.033 13.506-29.336 16.842-45.5 2.206-10.665 3.368-21.717 3.368-33.027 0-30.304 24.569-54.884 54.884-54.884 30.305.001 54.884 24.581 54.884 54.885z" fill="#ff6477"/><path d="m343.711 73.4c-4.531 1.786-9.459 2.766-14.625 2.766v-16.96h11.838c8.071 0 10.299 11.224 2.787 14.194z" fill="#de1263"/><path d="m59.39 345.991c0 5.165-.99 10.105-2.776 14.636-2.97 7.512-14.184 5.284-14.184-2.798v-12.774h16.95c.01.311.01.624.01.936z" fill="#de1263"/><path d="m383.97 127.24c0 72.845-28.367 141.321-79.872 192.826s-119.981 79.872-192.826 79.872c-30.305 0-54.884-24.579-54.884-54.884h54.884c120.293 0 217.814-97.521 217.814-217.814v-54.884c30.305 0 54.884 24.58 54.884 54.884z" fill="#fe3345"/><g fill="#de1263"><path d="m275.149 301.825c-4.724 4.735-10.923 7.092-17.122 7.092-6.08 0-12.16-2.271-16.842-6.834-.097-.075-.183-.161-.28-.258l-39.151-39.151c13.517-9.05 25.591-20.081 35.836-32.651l37.558 37.569c.495.495.958 1.001 1.388 1.517 8.051 9.503 7.578 23.763-1.387 32.716z"/><path d="m333.617 214.398c-4.003 9.061-12.871 14.453-22.18 14.453-2.303 0-4.628-.334-6.92-1.022-.947-.28-1.894-.635-2.83-1.044l-47.695-21.017c7.759-14.033 13.506-29.336 16.842-45.5l50.386 22.201c.237.108.474.215.71.334 11.741 5.628 16.971 19.596 11.687 31.595z"/><path d="m173.85 358.076c-2.206.624-4.423.926-6.608.926-10.17 0-19.532-6.446-22.911-16.433-.14-.398-.258-.796-.377-1.195l-14.776-52.183c16.454-1.808 32.177-6.07 46.802-12.43l14.571 51.419c.172.603.323 1.216.441 1.819 2.488 12.29-4.873 24.601-17.142 28.077z"/></g><path d="m190.994 329.999c2.486 12.29-4.875 24.601-17.143 28.077-2.206.624-4.423.926-6.608.926-10.17 0-19.532-6.446-22.911-16.433 16.217-2.476 31.832-6.727 46.662-12.57z" fill="#bc0e5c"/><path d="m276.537 269.11c8.05 9.503 7.576 23.762-1.388 32.715-4.724 4.735-10.923 7.092-17.122 7.092-6.08 0-12.16-2.271-16.842-6.834 12.979-9.653 24.838-20.726 35.352-32.973z" fill="#bc0e5c"/><path d="m333.617 214.398c-4.003 9.061-12.871 14.453-22.18 14.453-2.303 0-4.628-.334-6.92-1.022 7.382-14.162 13.269-29.239 17.412-45.027 11.742 5.629 16.972 19.597 11.688 31.596z" fill="#bc0e5c"/></svg>