<svg id="Capa_1" enable-background="new 0 0 512 512" height="512" viewBox="0 0 512 512" width="512" xmlns="http://www.w3.org/2000/svg"><path d="m512 256c0 119.89-82.43 220.54-193.7 248.36h-124.6c-111.27-27.82-193.7-128.47-193.7-248.36 0-141.38 114.62-256 256-256s256 114.62 256 256z" fill="#b6e337"/><path d="m512 256c0 87.11-43.52 164.07-110 210.31-25.01 17.4-53.27 30.45-83.7 38.05h-124.6c-30.43-7.6-58.69-20.65-83.7-38.05-66.48-46.24-110-123.2-110-210.31 0-46.22 12.25-89.57 33.68-127 44.12 77.07 127.16 129 222.32 129s178.21-51.93 222.32-129c21.43 37.43 33.68 80.78 33.68 127z" fill="#6cdc2d"/><path d="m318.3 504.36c-19.94 4.99-40.81 7.64-62.3 7.64s-42.36-2.65-62.3-7.64c6.12-9.06 16.49-15.03 28.25-15.03.97 0 1.94.05 2.89.14v-369.33c-.95.08-1.92.13-2.89.13-18.81 0-34.05-15.25-34.05-34.05 0-18.81 15.24-34.05 34.05-34.05s34.05 15.24 34.05 34.05c0-18.81 15.24-34.05 34.05-34.05s34.05 15.24 34.05 34.05c0 18.8-15.24 34.05-34.05 34.05-.97 0-1.94-.05-2.89-.13v369.33c.95-.09 1.92-.14 2.89-.14 11.76 0 22.13 5.97 28.25 15.03z" fill="#fff"/><path d="m318.3 504.36c-19.94 4.99-40.81 7.64-62.3 7.64v-425.78c0-18.81 15.24-34.05 34.05-34.05s34.05 15.24 34.05 34.05c0 18.8-15.24 34.05-34.05 34.05-.97 0-1.94-.05-2.89-.13v369.33c.95-.09 1.92-.14 2.89-.14 11.76 0 22.13 5.97 28.25 15.03z" fill="#fdf7bd"/><path d="m409.697 304.816c0 9.83-.519 19.559-1.507 29.161-1.305 12.554-3.433 24.892-6.334 36.99-5.548 23.03-13.922 45.198-24.828 66.239-7.385 14.251-24.309 23.359-42.829 23.359h-156.384c-18.52 0-35.469-9.108-42.855-23.372-10.907-21.028-19.28-43.197-24.816-66.227-2.901-12.11-5.029-24.449-6.334-36.99-.988-9.602-1.507-19.331-1.507-29.161 0-28.832 4.37-56.814 12.592-83.48 3.889-12.642 8.639-24.981 14.213-36.99 1.85-4.016 3.813-7.981 5.852-11.92 7.385-14.264 24.335-23.372 42.855-23.372l78.185-.011h78.172c18.533 0 35.469 9.108 42.855 23.372 2.052 3.94 4.003 7.917 5.852 11.933 5.561 12.009 10.337 24.347 14.226 36.99 8.221 26.665 12.592 54.648 12.592 83.479z" fill="#ec781b"/><path d="m409.697 304.816c0 9.83-.519 19.559-1.507 29.161-1.305 12.554-3.433 24.892-6.334 36.99-5.548 23.03-13.922 45.198-24.828 66.239-7.385 14.251-24.309 23.359-42.829 23.359h-98.326c-16.721 0-32.024-9.108-38.687-23.372-9.843-21.028-17.405-43.197-22.396-66.227-2.622-12.11-4.548-24.449-5.726-36.99-.887-9.602-1.355-19.331-1.355-29.161 0-28.832 3.94-56.814 11.363-83.48 3.509-12.642 7.803-24.981 12.832-36.99 1.672-4.016 3.446-7.981 5.282-11.92 6.663-14.264 21.966-23.372 38.687-23.372l70.572-.013h27.729c18.533 0 35.469 9.108 42.855 23.372 2.052 3.94 4.003 7.917 5.852 11.933 5.561 12.009 10.337 24.347 14.226 36.99 8.219 26.667 12.59 54.65 12.59 83.481z" fill="#c55733"/><g fill="#a63917"><path d="m409.697 304.816c0 9.83-.519 19.559-1.507 29.161-1.305 12.554-3.433 24.892-6.334 36.99-5.548 23.03-13.922 45.198-24.828 66.239-7.385 14.264-24.335 23.372-42.867 23.359h-78.161v-311.523h78.172c18.533 0 35.469 9.108 42.855 23.372 2.052 3.94 4.003 7.917 5.852 11.933 5.561 12.009 10.337 24.347 14.226 36.99 8.221 26.665 12.592 54.648 12.592 83.479z"/><path d="m202.726 202.842c0 5.105-2.077 9.742-5.422 13.086-3.344 3.344-7.968 5.409-13.073 5.409h-69.33c3.889-12.642 8.639-24.981 14.2-36.99h55.13c10.211 0 18.495 8.285 18.495 18.495z"/><path d="m306.443 273.464c0 5.105-2.077 9.729-5.422 13.073-3.344 3.344-7.968 5.409-13.073 5.409h-79.654c-10.21 0-18.495-8.272-18.495-18.482 0-5.118 2.078-9.729 5.422-13.086 3.344-3.344 7.968-5.409 13.073-5.409h79.654c10.21 0 18.495 8.272 18.495 18.495z"/><path d="m314.322 411.313c0 5.118-2.078 9.729-5.422 13.086-3.344 3.344-7.968 5.409-13.073 5.409h-79.654c-10.21 0-18.495-8.272-18.495-18.495 0-5.105 2.077-9.729 5.422-13.073 3.344-3.344 7.968-5.409 13.073-5.409h79.654c10.21 0 18.495 8.272 18.495 18.482z"/></g><path d="m397.099 221.336h-66.91c-10.223 0-18.495-8.272-18.495-18.495 0-5.105 2.065-9.729 5.409-13.073 3.357-3.357 7.968-5.422 13.086-5.422h52.697c5.561 12.01 10.324 24.348 14.213 36.99z" fill="#83250d"/><path d="m408.183 333.977c-1.292 12.554-3.42 24.892-6.334 36.99h-53.166c-10.223 0-18.495-8.272-18.495-18.495 0-5.105 2.065-9.729 5.409-13.073 3.357-3.357 7.968-5.422 13.086-5.422z" fill="#83250d"/><path d="m156.806 352.472c0 5.105-2.065 9.741-5.422 13.086-3.344 3.344-7.968 5.409-13.073 5.409h-28.16c-2.914-12.11-5.042-24.449-6.334-36.99h34.494c10.21 0 18.495 8.285 18.495 18.495z" fill="#a63917"/><path d="m287.948 291.946h-31.948v-36.977h31.948c10.21 0 18.495 8.272 18.495 18.495 0 5.105-2.077 9.729-5.422 13.073-3.344 3.344-7.968 5.409-13.073 5.409z" fill="#83250d"/><path d="m314.322 411.313c0 5.118-2.078 9.729-5.422 13.086-3.344 3.344-7.968 5.409-13.073 5.409h-39.827v-36.977h39.827c10.21 0 18.495 8.272 18.495 18.482z" fill="#83250d"/></svg>