<svg id="Capa_1" enable-background="new 0 0 512.02 512.02" height="512" viewBox="0 0 512.02 512.02" width="512" xmlns="http://www.w3.org/2000/svg"><path d="m407.745 462.248-.01-.02-161.38 49.61s.01.01.03.02c-128.54-4.69-235.76-105.35-245.65-236.61-10.62-140.99 95.06-263.89 236.05-274.51s263.89 95.06 274.5 236.05c6.87 91.24-34.96 174.9-103.54 225.46z" fill="#4e689b"/><path d="m512.015 256.018c0 84.59-41.03 159.6-104.28 206.21l-161.38 49.61c-50.58-1.88-97.4-18.43-136.34-45.51-66.48-46.24-110-123.2-110-210.31 0-46.22 12.25-89.57 33.68-127 44.12 77.07 127.16 129 222.32 129s178.21-51.93 222.32-129c21.43 37.43 33.68 80.78 33.68 127z" fill="#374c81"/><path d="m407.735 462.228c-1.89 1.39-3.79 2.76-5.72 4.1-41.41 28.8-91.73 45.69-146 45.69-3.23 0-6.45-.06-9.66-.18-5.82-5.48-9.55-13.2-9.76-21.85-1.09-43.98 8.4-87.03 26.81-125.81 3.75-7.9 10.39-13.49 18.06-16.1s16.34-2.25 24.13 1.72c38.26 19.47 72.06 47.77 98.06 83.26 6.42 8.76 7.55 19.74 4.08 29.17z" fill="#ffe853"/><path d="m333.285 500.148c-24.38 7.71-50.34 11.87-77.27 11.87-3.23 0-6.45-.06-9.66-.18-5.82-5.48-9.55-13.2-9.76-21.85-1.09-43.98 8.4-87.03 26.81-125.81 3.75-7.9 10.39-13.49 18.06-16.1z" fill="#fed110"/><g fill="#ff9f00"><path d="m372.506 457.754c1.885 4.198 6.398 5.345 10.452 3.964 4.042-1.378 5.594-6.822 3.964-10.452-1.885-4.198-6.398-5.345-10.452-3.964-4.043 1.378-5.594 6.822-3.964 10.452z"/><path d="m329.446 411.703 1.443 2.337c1.174 1.428 2.62 2.486 4.337 3.172.888.222 1.776.445 2.664.667 1.932.211 3.787-.077 5.565-.863 1.312-.535 2.401-1.344 3.269-2.426 1.025-.915 1.772-2.033 2.24-3.355.579-1.32.791-2.681.638-4.084.096-1.44-.182-2.821-.834-4.145-.481-.779-.962-1.558-1.443-2.337-1.174-1.428-2.62-2.486-4.337-3.172-.888-.222-1.776-.445-2.664-.667-1.932-.211-3.787.077-5.565.863-1.312.535-2.401 1.344-3.269 2.426-1.025.915-1.772 2.033-2.24 3.355-.578 1.32-.791 2.681-.638 4.084-.096 1.44.182 2.822.834 4.145z"/><path d="m268.791 424.443c.962 1.908 2.507 3.653 4.584 4.369.704.177 1.409.353 2.113.529 1.533.167 3.004-.061 4.413-.685 1.04-.424 1.905-1.066 2.592-1.924.813-.725 1.405-1.612 1.777-2.661.459-1.047.628-2.127.506-3.239.076-1.142-.145-2.237-.662-3.287-.962-1.908-2.507-3.653-4.585-4.369-.704-.176-1.408-.353-2.113-.529-1.532-.167-3.004.061-4.414.685-1.04.424-1.905 1.066-2.592 1.924-.813.725-1.405 1.612-1.777 2.661-.459 1.047-.628 2.127-.506 3.239-.074 1.142.147 2.237.664 3.287z"/><path d="m273.27 489.672 1.355 2.194c1.103 1.341 2.46 2.334 4.072 2.978.834.209 1.667.418 2.501.626 1.814.198 3.556-.072 5.225-.81 1.232-.502 2.255-1.262 3.069-2.277.962-.859 1.663-1.909 2.103-3.15.543-1.239.743-2.518.599-3.835.09-1.352-.171-2.649-.783-3.891l-1.355-2.194c-1.103-1.341-2.46-2.334-4.072-2.978-.834-.209-1.667-.418-2.501-.626-1.814-.198-3.556.072-5.225.81-1.232.502-2.255 1.262-3.069 2.277-.962.859-1.663 1.909-2.103 3.15-.543 1.239-.743 2.518-.599 3.835-.09 1.351.171 2.648.783 3.891z"/><path d="m313.876 475.596c.471.763.942 1.525 1.413 2.288 1.15 1.398 2.565 2.434 4.246 3.106.869.218 1.739.436 2.608.653 1.892.206 3.708-.075 5.448-.845 1.284-.524 2.351-1.315 3.2-2.375 1.004-.896 1.735-1.99 2.193-3.284.566-1.292.775-2.625.625-3.999.094-1.409-.179-2.762-.817-4.058-.471-.762-.942-1.525-1.413-2.288-1.15-1.398-2.565-2.434-4.247-3.106-.869-.218-1.739-.435-2.608-.653-1.892-.206-3.708.076-5.448.845-1.284.524-2.351 1.316-3.2 2.375-1.004.896-1.735 1.99-2.193 3.284-.566 1.292-.775 2.625-.625 3.999-.093 1.41.179 2.763.818 4.058z"/></g><path d="m93.907 254.372c38.922-.298 76.864 8.745 110.892 25.609 6.934 3.437 11.772 9.399 13.968 16.221s1.745 14.486-1.882 21.323c-17.8 33.548-43.341 63.027-75.128 85.491-12.94 9.147-30.999 5.48-39.29-8.033-10.079-16.413-18.373-34.294-24.537-53.445-6.165-19.151-9.86-38.512-11.248-57.723-1.15-15.81 11.379-29.324 27.225-29.443z" fill="#fed110"/><path d="m93.907 254.372c38.922-.298 76.864 8.745 110.892 25.609 6.934 3.437 11.772 9.399 13.968 16.221l-140.838 45.337c-6.165-19.151-9.86-38.512-11.248-57.723-1.149-15.811 11.38-29.325 27.226-29.444z" fill="#ffe853"/><path d="m120.378 375.088c-3.742 1.605-4.825 5.579-3.664 9.186 1.158 3.597 5.951 5.051 9.186 3.664 3.742-1.605 4.825-5.579 3.664-9.186-1.158-3.597-5.951-5.052-9.186-3.664z" fill="#ff9f00"/><path d="m161.762 337.689-2.089 1.241c-1.281 1.018-2.238 2.281-2.872 3.789-.21.782-.42 1.564-.63 2.346-.215 1.706.011 3.351.68 4.936.454 1.168 1.153 2.145 2.097 2.928.794.92 1.772 1.598 2.934 2.032 1.159.532 2.36.74 3.603.626 1.272.106 2.498-.119 3.679-.676.696-.414 1.392-.828 2.089-1.241 1.281-1.017 2.239-2.281 2.872-3.789.21-.782.42-1.564.63-2.347.215-1.706-.011-3.351-.68-4.936-.454-1.168-1.152-2.145-2.096-2.928-.794-.92-1.772-1.598-2.934-2.032-1.159-.532-2.36-.74-3.603-.626-1.273-.105-2.499.121-3.68.677z" fill="#ff9f00"/><path d="m151.405 283.841c-1.702.822-3.269 2.163-3.934 3.99-.167.62-.333 1.241-.5 1.861-.171 1.353.009 2.658.539 3.915.36.927.914 1.701 1.663 2.322.63.73 1.405 1.267 2.327 1.612.919.422 1.872.587 2.858.497 1.009.084 1.981-.094 2.918-.536 1.702-.822 3.269-2.163 3.934-3.99.167-.62.333-1.241.5-1.861.171-1.353-.009-2.658-.539-3.915-.36-.927-.914-1.701-1.663-2.322-.63-.73-1.405-1.267-2.327-1.612-.919-.422-1.872-.587-2.858-.497-1.009-.084-1.982.095-2.918.536z" fill="#ff9f00"/><path d="m93.636 286.823-1.961 1.165c-1.203.955-2.102 2.141-2.696 3.558-.197.734-.395 1.469-.592 2.203-.202 1.602.01 3.147.638 4.634.426 1.097 1.082 2.013 1.968 2.749.745.864 1.664 1.5 2.755 1.908 1.088.499 2.216.695 3.383.588 1.194.1 2.346-.112 3.454-.634l1.961-1.165c1.203-.955 2.102-2.141 2.696-3.557.197-.734.395-1.469.592-2.203.202-1.602-.01-3.147-.638-4.634-.426-1.097-1.082-2.013-1.968-2.749-.745-.864-1.664-1.5-2.755-1.908-1.088-.499-2.216-.695-3.383-.588-1.194-.101-2.346.11-3.454.633z" fill="#ff9f00"/><path d="m105.476 322.955c-.682.405-1.363.81-2.045 1.215-1.254.996-2.191 2.233-2.811 3.71-.206.766-.411 1.532-.617 2.297-.211 1.671.011 3.281.666 4.832.444 1.144 1.128 2.1 2.053 2.867.777.901 1.735 1.564 2.872 1.99 1.135.52 2.311.725 3.528.613 1.245.104 2.446-.116 3.602-.662.682-.405 1.363-.81 2.045-1.215 1.254-.996 2.192-2.233 2.811-3.71.206-.766.411-1.531.617-2.297.211-1.67-.011-3.281-.666-4.832-.444-1.144-1.128-2.1-2.053-2.867-.777-.901-1.735-1.564-2.873-1.99-1.135-.521-2.311-.725-3.528-.613-1.244-.104-2.445.116-3.601.662z" fill="#ff9f00"/><path d="m267.467 88.671c1.338 38.971-6.704 77.209-22.684 111.737-3.257 7.036-9.099 12.04-15.871 14.421-6.773 2.381-14.461 2.134-21.404-1.315-34.072-16.929-64.276-41.721-87.622-72.953-9.506-12.714-6.316-30.897 6.995-39.561 16.168-10.533 33.852-19.315 52.867-26.001 19.014-6.685 38.304-10.903 57.506-12.806 15.803-1.574 29.67 10.612 30.213 26.478z" fill="#ffe853"/><path d="m267.467 88.671c1.338 38.971-6.704 77.209-22.684 111.737-3.257 7.036-9.099 12.04-15.871 14.421l-49.165-139.83c19.014-6.685 38.304-10.903 57.506-12.806 15.804-1.574 29.671 10.612 30.214 26.478z" fill="#fed110"/><path d="m147.283 118.405c-1.707-3.705-5.716-4.683-9.298-3.424-3.571 1.256-4.899 6.094-3.424 9.298 1.707 3.705 5.716 4.683 9.298 3.424 3.571-1.256 4.9-6.095 3.424-9.298z" fill="#ff9f00"/><path d="m185.841 158.851-1.299-2.059c-1.053-1.256-2.344-2.181-3.871-2.775-.789-.189-1.578-.379-2.367-.568-1.714-.17-3.356.101-4.925.813-1.158.486-2.117 1.211-2.876 2.178-.901.819-1.553 1.817-1.957 2.992-.501 1.175-.678 2.383-.531 3.625-.072 1.277.186 2.499.775 3.666.433.686.866 1.372 1.299 2.059 1.053 1.256 2.344 2.181 3.871 2.774.789.189 1.578.379 2.367.569 1.714.17 3.356-.101 4.925-.813 1.158-.485 2.117-1.211 2.876-2.178.901-.82 1.553-1.817 1.957-2.992.501-1.175.678-2.383.531-3.625.073-1.277-.186-2.499-.775-3.666z" fill="#ff9f00"/><path d="m239.491 147.04c-.869-1.683-2.253-3.216-4.101-3.833-.626-.15-1.251-.301-1.877-.451-1.36-.135-2.662.08-3.906.645-.919.385-1.679.961-2.281 1.727-.714.65-1.232 1.441-1.552 2.373-.398.932-.538 1.89-.421 2.875-.057 1.013.147 1.982.615 2.908.869 1.683 2.253 3.216 4.101 3.833.626.15 1.251.301 1.877.451 1.36.135 2.662-.08 3.906-.645.918-.385 1.679-.961 2.281-1.727.714-.65 1.231-1.441 1.552-2.373.398-.932.538-1.89.421-2.875.057-1.013-.148-1.982-.615-2.908z" fill="#ff9f00"/><path d="m234.962 89.266-1.22-1.933c-.989-1.179-2.2-2.048-3.635-2.605-.741-.178-1.481-.356-2.222-.534-1.61-.16-3.151.094-4.624.763-1.087.456-1.987 1.137-2.701 2.045-.845.77-1.458 1.706-1.837 2.81-.471 1.103-.637 2.238-.498 3.404-.068 1.199.174 2.346.728 3.442l1.219 1.933c.989 1.179 2.2 2.048 3.635 2.605.741.178 1.481.356 2.222.534 1.61.16 3.151-.095 4.624-.763 1.087-.456 1.988-1.137 2.701-2.045.846-.769 1.458-1.706 1.837-2.81.471-1.103.637-2.238.498-3.404.068-1.198-.174-2.346-.727-3.442z" fill="#ff9f00"/><path d="m199.094 102.089c-.424-.672-.848-1.344-1.272-2.015-1.031-1.23-2.294-2.135-3.79-2.716-.773-.186-1.545-.371-2.317-.557-1.678-.167-3.286.099-4.822.796-1.134.475-2.072 1.186-2.816 2.132-.882.802-1.52 1.779-1.916 2.93-.491 1.15-.664 2.333-.52 3.549-.071 1.25.182 2.446.759 3.589.424.672.848 1.344 1.272 2.015 1.031 1.23 2.294 2.135 3.79 2.716.772.186 1.545.371 2.317.557 1.678.167 3.286-.099 4.822-.796 1.134-.475 2.072-1.186 2.816-2.132.882-.802 1.52-1.779 1.916-2.93.491-1.15.664-2.333.52-3.549.071-1.249-.182-2.446-.759-3.589z" fill="#ff9f00"/><path d="m440.388 296.22c-2.062 20.59-9.006 40.129-19.861 57.153-2.212 3.469-5.64 5.686-9.37 6.458-3.731.772-7.756.096-11.163-2.211-16.717-11.322-30.842-26.503-40.902-44.586-4.097-7.361-1.129-16.697 6.487-20.309 9.25-4.391 19.174-7.755 29.648-9.921s20.918-3.015 31.151-2.653c8.423.294 14.851 7.686 14.01 16.069z" fill="#ffe853"/><path d="m440.388 296.22c-2.062 20.59-9.006 40.129-19.861 57.153-2.212 3.469-5.64 5.686-9.37 6.458l-15.931-77.027c10.474-2.166 20.918-3.015 31.151-2.653 8.424.294 14.852 7.686 14.011 16.069z" fill="#fed110"/><path d="m375.073 303.327c-.635-2.069-2.674-2.868-4.647-2.46-1.967.407-3.009 2.857-2.46 4.646.635 2.069 2.674 2.868 4.647 2.461 1.967-.408 3.009-2.858 2.46-4.647z" fill="#ff9f00"/><path d="m392.48 327.334-.537-1.175c-.465-.735-1.078-1.313-1.839-1.734-.401-.156-.803-.311-1.204-.467-.889-.211-1.772-.185-2.648.078-.643.173-1.199.487-1.667.941-.532.367-.946.845-1.241 1.435-.347.582-.526 1.205-.536 1.869-.129.666-.08 1.327.147 1.983.179.392.358.783.537 1.175.465.735 1.078 1.313 1.839 1.734.401.156.803.311 1.204.467.89.211 1.772.185 2.648-.078.643-.173 1.199-.487 1.667-.941.532-.367.946-.845 1.241-1.435.347-.582.526-1.205.536-1.869.129-.666.08-1.327-.147-1.983z" fill="#ff9f00"/><path d="m421.533 324.931c-.337-.947-.957-1.851-1.884-2.307-.318-.124-.637-.247-.955-.37-.705-.168-1.405-.147-2.1.062-.51.137-.951.386-1.322.746-.422.291-.75.671-.985 1.138-.275.462-.417.956-.425 1.482-.102.528-.063 1.053.117 1.573.337.947.957 1.851 1.884 2.307.318.123.637.247.955.37.706.168 1.406.147 2.1-.062.51-.137.951-.386 1.322-.746.422-.291.75-.671.985-1.138.275-.462.417-.956.425-1.482.102-.529.063-1.053-.117-1.573z" fill="#ff9f00"/><path d="m423.252 294.226-.504-1.103c-.436-.69-1.012-1.233-1.727-1.628-.377-.146-.754-.292-1.131-.438-.835-.198-1.664-.174-2.486.073-.604.163-1.126.457-1.565.884-.499.345-.888.794-1.166 1.347-.326.547-.494 1.132-.504 1.755-.121.626-.075 1.246.138 1.862l.504 1.103c.436.69 1.012 1.233 1.727 1.628.377.146.754.292 1.131.439.835.198 1.664.174 2.486-.073.604-.162 1.126-.457 1.565-.884.499-.345.888-.794 1.165-1.347.326-.547.494-1.132.504-1.755.122-.627.076-1.248-.137-1.863z" fill="#ff9f00"/><path d="m403.478 298.424c-.175-.383-.35-.767-.526-1.15-.455-.72-1.055-1.286-1.801-1.698-.393-.152-.786-.305-1.179-.457-.871-.207-1.735-.181-2.592.076-.63.169-1.174.477-1.632.922-.521.359-.926.828-1.216 1.405-.34.57-.515 1.18-.525 1.83-.126.652-.078 1.299.144 1.942.175.383.35.767.526 1.15.455.72 1.055 1.286 1.801 1.698.393.152.786.305 1.179.457.871.207 1.735.181 2.592-.076.63-.169 1.174-.477 1.632-.921.521-.359.926-.828 1.215-1.405.34-.57.515-1.18.525-1.83.128-.654.08-1.301-.143-1.943z" fill="#ff9f00"/><path d="m433.665 205.041c-26.338 6.223-53.456 5.963-79.131-.205-5.232-1.257-9.434-4.55-11.978-8.835-2.544-4.284-3.424-9.55-2.023-14.745 6.876-25.495 19.629-49.428 37.701-69.573 7.356-8.202 20.165-8.51 27.875-.633 9.372 9.567 17.759 20.404 24.901 32.432s12.641 24.58 16.554 37.388c3.226 10.54-3.176 21.639-13.899 24.171z" fill="#ffe853"/><path d="m433.665 205.041c-26.338 6.223-53.456 5.963-79.131-.205-5.232-1.257-9.434-4.55-11.978-8.835l88.454-52.52c7.142 12.028 12.641 24.58 16.554 37.388 3.226 10.541-3.176 21.64-13.899 24.172z" fill="#fed110"/><path d="m397.047 127.307c2.288-1.667 2.408-4.528 1.062-6.794-1.341-2.259-4.815-2.503-6.794-1.062-2.288 1.667-2.408 4.528-1.062 6.794 1.341 2.259 4.815 2.503 6.794 1.062z" fill="#ff9f00"/><path d="m374.779 159.061 1.224-1.165c.711-.888 1.164-1.892 1.36-3.013.021-.563.043-1.125.064-1.688-.118-1.19-.526-2.27-1.224-3.241-.488-.722-1.113-1.275-1.874-1.66-.681-.501-1.448-.809-2.303-.924-.868-.181-1.714-.137-2.539.133-.879.125-1.675.467-2.389 1.027-.408.388-.816.776-1.224 1.165-.711.888-1.165 1.892-1.36 3.013-.021.563-.043 1.126-.064 1.688.118 1.19.526 2.27 1.225 3.241.488.722 1.113 1.275 1.874 1.66.681.501 1.448.809 2.303.924.868.181 1.714.137 2.539-.133.878-.125 1.674-.467 2.388-1.027z" fill="#ff9f00"/><path d="m390.131 193.96c1.027-.82 1.881-1.972 2.049-3.313.017-.446.034-.893.051-1.339-.093-.944-.417-1.8-.971-2.57-.387-.572-.883-1.011-1.486-1.317-.54-.397-1.149-.642-1.827-.732-.688-.144-1.36-.108-2.014.105-.697.099-1.329.37-1.895.815-1.027.821-1.881 1.972-2.049 3.313-.017.446-.034.893-.051 1.339.093.944.417 1.8.971 2.57.387.573.883 1.012 1.486 1.317.54.397 1.149.642 1.827.733.688.144 1.36.108 2.014-.105.697-.101 1.328-.372 1.895-.816z" fill="#ff9f00"/><path d="m428.829 183.002 1.149-1.093c.668-.834 1.093-1.777 1.277-2.829.02-.528.04-1.057.06-1.585-.111-1.117-.494-2.131-1.15-3.043-.458-.678-1.045-1.197-1.76-1.559-.639-.471-1.36-.76-2.162-.867-.815-.17-1.61-.128-2.384.125-.825.117-1.573.439-2.243.964l-1.149 1.093c-.668.834-1.093 1.777-1.277 2.829-.02.528-.04 1.057-.06 1.585.111 1.117.494 2.131 1.15 3.043.458.678 1.045 1.197 1.76 1.559.639.471 1.36.76 2.162.867.815.17 1.61.128 2.384-.125.825-.117 1.572-.439 2.243-.964z" fill="#ff9f00"/><path d="m415.213 160.341c.399-.38.799-.76 1.198-1.14.696-.869 1.14-1.852 1.332-2.95.021-.551.042-1.102.063-1.653-.115-1.165-.515-2.223-1.199-3.173-.478-.707-1.09-1.249-1.835-1.626-.666-.491-1.418-.792-2.255-.904-.85-.177-1.678-.134-2.486.13-.86.122-1.64.457-2.339 1.006-.399.38-.799.76-1.198 1.14-.696.869-1.14 1.852-1.332 2.95-.021.551-.042 1.102-.063 1.653.115 1.165.515 2.223 1.199 3.173.478.707 1.09 1.249 1.835 1.626.666.491 1.418.792 2.255.904.85.177 1.678.134 2.486-.13.86-.122 1.64-.458 2.339-1.006z" fill="#ff9f00"/></svg>