<svg id="Capa_1" enable-background="new 0 0 512 512" height="512" viewBox="0 0 512 512" width="512" xmlns="http://www.w3.org/2000/svg"><circle cx="256" cy="256" fill="#b6e337" r="256"/><path d="m512 256c0 87.11-43.52 164.07-110 210.31-35.89 24.96-78.48 40.98-124.53 44.8-3.52.29-7.07.52-10.63.67-3.59.14-7.21.22-10.84.22-.01 0-.01 0-.02 0-54.26 0-104.58-16.89-145.98-45.69-66.48-46.24-110-123.2-110-210.31 0-46.22 12.25-89.57 33.68-127 18.86 32.94 44.82 61.28 75.8 82.93 5.2 3.64 10.54 7.09 16.01 10.34 4.89 2.91 9.89 5.65 14.99 8.23 34.7 17.59 73.96 27.5 115.52 27.5 95.16 0 178.21-51.93 222.32-129 21.43 37.43 33.68 80.78 33.68 127z" fill="#6cdc2d"/><path d="m277.47 511.11c-7.08.59-14.24.89-21.47.89-.01 0-.01 0-.02 0l-146.5-300.07-39.51-80.92c-2.38-4.89-.35-10.79 4.53-13.18 4.89-2.39 10.79-.35 13.18 4.53l52.8 108.14 136.81 280.22z" fill="#374c81"/><path d="m266.84 511.78c-3.59.14-7.21.22-10.84.22-.01 0-.01 0-.02 0l-146.5-300.07-39.51-80.92c-2.38-4.89-.35-10.79 4.53-13.18l50.99 104.44z" fill="#4e689b"/><path d="m60.594 195.706 15.471 31.688c7.19 14.727 24.951 20.835 39.678 13.645l30.542-14.911c14.727-7.19 20.835-24.951 13.645-39.679l-15.471-31.688c-7.19-14.727-24.954-20.84-39.681-13.649l-30.542 14.911c-14.727 7.19-20.832 24.956-13.642 39.683z" fill="#83250d"/><path d="m60.594 195.706 15.471 31.688c7.19 14.727 24.951 20.835 39.678 13.645l15.273-7.457-41.506-85.016-15.273 7.457c-14.728 7.19-20.833 24.956-13.643 39.683z" fill="#a63917"/><path d="m129.148 166.741c1.188 2.433 1.279 5.121.458 7.495-.813 2.377-2.537 4.44-4.971 5.628l-32.055 15.65c-4.867 2.376-10.747.354-13.123-4.513-1.188-2.433-1.279-5.121-.458-7.495.813-2.377 2.537-4.44 4.97-5.628l32.055-15.65c4.868-2.376 10.748-.354 13.124 4.513z" fill="#531d10"/><path d="m99.998 170.053 8.61 17.636-16.027 7.825c-4.867 2.376-10.747.354-13.123-4.513-1.188-2.433-1.279-5.121-.458-7.495.813-2.377 2.537-4.44 4.97-5.628z" fill="#83250d"/><path d="m142.633 194.361c1.188 2.433 1.278 5.121.46 7.5-.816 2.372-2.54 4.435-4.973 5.623l-32.054 15.65c-4.867 2.376-10.745.359-13.123-4.513-1.188-2.434-1.279-5.121-.458-7.495.815-2.372 2.54-4.435 4.973-5.623l32.055-15.65c4.866-2.376 10.744-.359 13.12 4.508z" fill="#531d10"/><path d="m97.458 205.503 16.027-7.825 8.608 17.631-16.027 7.825c-4.867 2.376-10.745.359-13.123-4.513-1.188-2.434-1.279-5.121-.458-7.495.816-2.371 2.54-4.435 4.973-5.623z" fill="#83250d"/><path d="m184.048 448.565 15.471 31.688c7.19 14.727 24.951 20.835 39.678 13.645l30.542-14.911c14.727-7.19 20.835-24.951 13.645-39.678l-15.471-31.688c-7.19-14.727-24.954-20.84-39.681-13.649l-30.542 14.911c-14.727 7.189-20.832 24.955-13.642 39.682z" fill="#83250d"/><path d="m184.048 448.565 15.471 31.688c7.19 14.727 24.951 20.835 39.678 13.645l15.273-7.457-41.508-85.016-15.273 7.457c-14.726 7.19-20.831 24.956-13.641 39.683z" fill="#a63917"/><path d="m252.602 419.599c1.188 2.433 1.279 5.121.458 7.495-.813 2.377-2.537 4.44-4.971 5.628l-32.055 15.65c-4.867 2.376-10.747.354-13.123-4.513-1.188-2.433-1.278-5.121-.458-7.495.813-2.377 2.537-4.44 4.971-5.628l32.055-15.65c4.867-2.376 10.747-.354 13.123 4.513z" fill="#531d10"/><path d="m223.452 422.911 8.611 17.636-16.027 7.825c-4.867 2.376-10.747.354-13.123-4.513-1.188-2.433-1.278-5.121-.458-7.495.813-2.377 2.537-4.44 4.971-5.628z" fill="#83250d"/><path d="m266.087 447.22c1.188 2.433 1.279 5.121.46 7.5-.816 2.372-2.54 4.435-4.973 5.623l-32.055 15.65c-4.867 2.376-10.745.359-13.123-4.513-1.188-2.434-1.279-5.121-.458-7.495.816-2.372 2.54-4.435 4.973-5.623l32.055-15.65c4.868-2.376 10.745-.359 13.121 4.508z" fill="#531d10"/><path d="m220.912 458.362 16.027-7.825 8.608 17.631-16.027 7.825c-4.867 2.376-10.745.359-13.123-4.513-1.188-2.434-1.279-5.121-.458-7.495.816-2.372 2.54-4.435 4.973-5.623z" fill="#83250d"/><path d="m179.266 217.922c7.715 23.668-2.988 50.007-25.997 61.241s-50.355 3.472-64.278-17.165c-2.116-3.14-.965-7.429 2.44-9.092l79.17-38.653c3.405-1.663 7.495.067 8.665 3.669z" fill="#de1263"/><path d="m131.014 233.58 22.255 45.583c-23.009 11.234-50.355 3.472-64.278-17.165-2.116-3.14-.965-7.429 2.44-9.092z" fill="#fe3345"/><path d="m238.959 340.185c7.715 23.668-2.988 50.007-25.997 61.241s-50.355 3.472-64.278-17.165c-2.116-3.14-.965-7.429 2.44-9.092l79.17-38.653c3.405-1.663 7.495.067 8.665 3.669z" fill="#fed110"/><path d="m190.707 355.843 22.255 45.583c-23.009 11.234-50.355 3.472-64.278-17.165-2.116-3.14-.965-7.429 2.44-9.092z" fill="#ffe853"/><path d="m215.712 300.535.022.045c2.85 5.838.419 12.89-5.427 15.744-5.89 2.876-8.184 9.945-5.4 15.648.256.525.553 1.038.899 1.538 2.954 4.284 2.642 9.745-.229 13.615-1.073 1.452-2.506 2.68-4.259 3.537l-21.216 10.358c-1.761.86-3.611 1.234-5.419 1.18-4.247-.107-8.26-2.547-10.206-6.534-.256-.525-.479-1.075-.66-1.655-.177-.572-.4-1.123-.656-1.647-2.784-5.703-9.765-8.253-15.67-5.37-5.771 2.817-12.832.539-15.664-5.224l-.051-.105c-11.324-23.194-1.705-51.185 21.493-62.502.285-.139.554-.271.843-.402 21.14-9.811 46.612-2.424 59.077 17.272.933 1.474 1.777 2.974 2.523 4.502z" fill="#fefefe"/><path d="m215.712 300.535.022.045c2.85 5.838.419 12.89-5.427 15.744-5.89 2.876-8.184 9.945-5.4 15.648.256.525.553 1.038.899 1.538 2.954 4.284 2.642 9.745-.229 13.615-1.073 1.452-2.506 2.68-4.259 3.537l-10.612 5.181-37.438-76.68c.285-.139.554-.271.843-.402 21.14-9.811 46.612-2.424 59.077 17.272.934 1.474 1.778 2.974 2.524 4.502z" fill="#fdf7bd"/><path d="m208.401 304.207c1.518 3.11.226 6.85-2.876 8.365-3.103 1.515-6.846.234-8.365-2.876-.406-.832-.879-1.668-1.408-2.505-6.942-10.968-21.087-15.096-32.907-9.613-.158.077-.318.146-.476.223-6.149 3.011-10.816 8.204-13.115 14.691-2.36 6.647-1.958 13.8 1.137 20.141 1.518 3.11.244 6.887-2.858 8.402-3.103 1.515-6.832.264-8.347-2.839l-.036-.075c-4.581-9.383-5.182-19.966-1.684-29.813 3.407-9.598 10.286-17.291 19.414-21.747.225-.11.457-.223.693-.329 17.503-8.118 38.462-1.99 48.748 14.269.772 1.217 1.472 2.462 2.08 3.706z" fill="#fdf7bd"/><path d="m190.767 316.789 14.811 30.336c-1.073 1.452-2.506 2.68-4.259 3.537l-6.408 3.128-15.386-31.513c-1.515-3.103-.234-6.846 2.876-8.365 3.104-1.514 6.851-.226 8.366 2.877z" fill="#f9d19a"/><path d="m171.117 326.383 15.386 31.513-6.4 3.125c-1.761.86-3.611 1.234-5.419 1.18l-14.808-30.329c-1.515-3.103-.226-6.85 2.877-8.365 3.109-1.519 6.849-.227 8.364 2.876z" fill="#fdf7bd"/><path d="m208.401 304.207c1.518 3.11.226 6.85-2.876 8.365-3.103 1.515-6.846.234-8.365-2.876-.406-.832-.879-1.668-1.408-2.505-6.942-10.968-21.087-15.096-32.907-9.613-.158.077-.318.146-.476.223l-5.488-11.241c.225-.11.457-.223.693-.329 17.503-8.118 38.462-1.99 48.748 14.269.771 1.218 1.471 2.463 2.079 3.707z" fill="#f9d19a"/><path d="m377.47 481.39c-6.05 3.28-12.26 6.31-18.6 9.1-.08-.32-.14-.66-.19-1l-57.78-428.29c-.72-5.39 3.06-10.36 8.45-11.08 5.4-.73 10.36 3.05 11.08 8.44z" fill="#374c81"/><path d="m368.17 486.17c-3.07 1.5-6.17 2.94-9.3 4.32-.08-.32-.14-.66-.19-1l-57.78-428.29c-.72-5.39 3.06-10.36 8.45-11.08z" fill="#4e689b"/><path d="m271.646 119.659 4.714 34.946c2.191 16.242 17.128 27.628 33.37 25.437l33.682-4.544c16.242-2.191 27.628-17.128 25.437-33.37l-4.714-34.946c-2.191-16.242-17.129-27.633-33.37-25.442l-33.682 4.544c-16.243 2.191-27.628 17.133-25.437 33.375z" fill="#83250d"/><path d="m271.646 119.659 4.714 34.946c2.191 16.242 17.128 27.628 33.37 25.437l16.844-2.272-12.648-93.758-16.844 2.272c-16.242 2.191-27.627 17.133-25.436 33.375z" fill="#a63917"/><path d="m345.832 113.736c.362 2.684-.398 5.263-1.924 7.258-1.52 2-3.805 3.416-6.489 3.778l-35.351 4.769c-5.367.724-10.313-3.046-11.037-8.413-.362-2.684.398-5.263 1.924-7.258 1.52-2 3.806-3.416 6.489-3.778l35.351-4.769c5.368-.724 10.313 3.045 11.037 8.413z" fill="#531d10"/><path d="m317.12 107.707 2.624 19.45-17.675 2.384c-5.367.724-10.313-3.046-11.037-8.413-.362-2.684.398-5.263 1.924-7.258 1.52-2 3.806-3.416 6.489-3.778z" fill="#83250d"/><path d="m349.941 144.196c.362 2.684-.398 5.263-1.923 7.264-1.52 1.995-3.806 3.411-6.49 3.773l-35.351 4.769c-5.367.724-10.312-3.04-11.037-8.413-.362-2.684.398-5.263 1.924-7.258 1.52-1.995 3.806-3.411 6.49-3.773l35.351-4.769c5.367-.724 10.312 3.04 11.036 8.407z" fill="#531d10"/><path d="m303.555 140.558 17.676-2.385 2.623 19.444-17.676 2.384c-5.367.724-10.312-3.04-11.037-8.413-.362-2.684.398-5.263 1.924-7.258 1.52-1.994 3.806-3.41 6.49-3.772z" fill="#83250d"/><path d="m309.264 398.52 4.714 34.946c2.191 16.241 17.128 27.628 33.37 25.437l33.682-4.544c16.241-2.191 27.628-17.128 25.437-33.37l-4.714-34.946c-2.191-16.241-17.129-27.633-33.371-25.442l-33.682 4.544c-16.241 2.19-27.627 17.133-25.436 33.375z" fill="#83250d"/><path d="m309.264 398.52 4.714 34.946c2.191 16.241 17.128 27.628 33.37 25.437l16.844-2.272-12.648-93.758-16.844 2.272c-16.241 2.19-27.627 17.133-25.436 33.375z" fill="#a63917"/><path d="m383.45 392.596c.362 2.684-.398 5.263-1.924 7.258-1.52 2-3.806 3.416-6.489 3.778l-35.351 4.769c-5.367.724-10.313-3.046-11.037-8.413-.362-2.684.398-5.263 1.924-7.258 1.52-2 3.805-3.416 6.489-3.778l35.351-4.769c5.368-.724 10.313 3.046 11.037 8.413z" fill="#531d10"/><path d="m354.738 386.568 2.624 19.449-17.676 2.384c-5.367.724-10.313-3.046-11.037-8.413-.362-2.684.398-5.263 1.924-7.258 1.52-2 3.805-3.416 6.489-3.778z" fill="#83250d"/><path d="m387.56 423.057c.362 2.684-.398 5.263-1.923 7.264-1.521 1.995-3.806 3.411-6.49 3.773l-35.351 4.769c-5.367.724-10.312-3.04-11.037-8.413-.362-2.684.398-5.263 1.924-7.258 1.52-1.995 3.806-3.411 6.49-3.773l35.351-4.769c5.367-.725 10.311 3.04 11.036 8.407z" fill="#531d10"/><path d="m341.173 419.418 17.676-2.384 2.623 19.444-17.676 2.384c-5.367.724-10.312-3.04-11.037-8.413-.362-2.684.398-5.263 1.924-7.258 1.52-1.994 3.806-3.411 6.49-3.773z" fill="#83250d"/><path d="m377.299 178.087c-.124 24.893-18.572 46.526-43.947 49.95-25.375 3.423-48.89-12.549-55.611-36.519-1.02-3.646 1.422-7.355 5.177-7.862l87.311-11.778c3.755-.507 7.093 2.423 7.07 6.209z" fill="#de1263"/><path d="m326.571 177.767 6.781 50.27c-25.375 3.423-48.89-12.549-55.611-36.519-1.02-3.646 1.422-7.355 5.177-7.862z" fill="#fe3345"/><path d="m395.488 312.923c-.124 24.893-18.572 46.526-43.947 49.949s-48.89-12.549-55.611-36.519c-1.02-3.646 1.422-7.355 5.177-7.862l87.311-11.778c3.756-.506 7.094 2.423 7.07 6.21z" fill="#fed110"/><path d="m344.76 312.603 6.781 50.27c-25.375 3.423-48.89-12.549-55.611-36.519-1.02-3.646 1.422-7.355 5.177-7.862z" fill="#ffe853"/><path d="m385.899 267.973.007.05c.869 6.438-3.659 12.368-10.105 13.237-6.496.876-10.897 6.864-10.049 13.154.078.579.199 1.16.37 1.743 1.456 4.996-.559 10.081-4.502 12.852-1.475 1.041-3.222 1.756-5.156 2.017l-23.398 3.156c-1.942.262-3.816.035-5.515-.586-3.998-1.438-7.039-5.017-7.632-9.414-.078-.578-.116-1.171-.105-1.778.012-.599-.026-1.191-.104-1.77-.848-6.289-6.672-10.906-13.184-10.028-6.364.858-12.35-3.526-13.225-9.888l-.016-.116c-3.451-25.58 14.487-49.122 40.068-52.564.314-.042.612-.083.927-.117 23.153-2.661 45.007 12.366 50.641 34.984.422 1.693.751 3.382.978 5.068z" fill="#fefefe"/><path d="m385.899 267.973.007.05c.869 6.438-3.659 12.368-10.105 13.237-6.496.876-10.897 6.864-10.049 13.154.078.579.199 1.16.37 1.743 1.456 4.996-.559 10.081-4.502 12.852-1.475 1.041-3.222 1.756-5.156 2.017l-11.703 1.579-11.408-84.566c.314-.042.612-.083.927-.117 23.153-2.661 45.007 12.366 50.641 34.984.422 1.692.751 3.381.978 5.067z" fill="#fdf7bd"/><path d="m377.803 269.157c.463 3.43-1.941 6.573-5.363 7.035-3.421.462-6.572-1.932-7.035-5.362-.124-.917-.31-1.86-.549-2.821-3.138-12.595-15.266-20.965-28.21-19.48-.174.023-.348.039-.522.062-6.784.923-12.848 4.384-17.071 9.818-4.332 5.566-6.201 12.483-5.258 19.475.463 3.43-1.935 6.615-5.357 7.076-3.422.462-6.568-1.9-7.029-5.321l-.011-.083c-1.396-10.348 1.364-20.582 7.783-28.829 6.254-8.039 15.205-13.176 25.271-14.534.248-.033.504-.068.761-.094 19.168-2.199 37.134 10.214 41.782 28.883.35 1.401.623 2.803.808 4.175z" fill="#fdf7bd"/><path d="m357.106 275.551 4.513 33.456c-1.475 1.041-3.222 1.756-5.156 2.017l-7.066.953-4.688-34.754c-.462-3.422 1.932-6.572 5.362-7.035 3.422-.461 6.574 1.941 7.035 5.363z" fill="#f9d19a"/><path d="m335.436 278.474 4.688 34.754-7.058.952c-1.942.262-3.816.035-5.515-.586l-4.512-33.448c-.462-3.422 1.941-6.573 5.362-7.035 3.43-.462 6.573 1.942 7.035 5.363z" fill="#fdf7bd"/><path d="m377.803 269.157c.463 3.43-1.941 6.573-5.363 7.035-3.421.462-6.572-1.932-7.035-5.362-.124-.917-.31-1.86-.549-2.821-3.138-12.595-15.266-20.965-28.21-19.48-.174.023-.348.039-.522.062l-1.672-12.397c.248-.033.504-.068.761-.094 19.168-2.199 37.134 10.214 41.782 28.883.35 1.4.623 2.802.808 4.174z" fill="#f9d19a"/></svg>