<svg id="Capa_1" enable-background="new 0 0 512 512" height="512" viewBox="0 0 512 512" width="512" xmlns="http://www.w3.org/2000/svg"><path d="m511.976 252.476c1.137 84.544-38.71 159.834-100.946 207.254l-63.751 21.494c-59.215 19.965-123.343 19.964-182.557-.003l-63.762-21.501c-61.36-46.76-100.96-120.62-100.96-203.72 0-141.299 114.489-255.869 255.758-256 139.704-.129 254.34 112.785 256.218 252.476z" fill="#4e689b"/><path d="m512 256c0 83.1-39.61 156.97-100.97 203.73l-63.751 21.494c-59.215 19.965-123.343 19.964-182.557-.003l-63.762-21.501v.01c-61.36-46.77-100.96-120.63-100.96-203.73 0-46.22 12.25-89.57 33.68-127 44.12 77.07 127.16 129 222.32 129s178.21-51.93 222.32-129c21.43 37.43 33.68 80.78 33.68 127z" fill="#374c81"/><path d="m457.92 315.95c-.84-12.61-12.3-22.02-24.82-20.25-3.72.52-7.51.84-11.35.92-.77.02-1.53.03-2.29.03-53.51 0-96.87-43.38-96.87-96.88 0-10.85 1.79-21.29 5.08-31.03.41-1.22.84-2.43 1.3-3.63 4.62-12.07-1.91-25.48-14.29-29.22-18.57-5.62-38.26-8.64-58.67-8.64h-.01c-111.8.01-202.38 90.59-202.38 202.39 0 49.53 17.79 94.91 47.34 130.08 43.03 32.8 96.76 52.28 155.04 52.28 58.27 0 111.99-19.48 155.02-52.26l.01-.01c29.55-35.17 47.35-80.56 47.35-130.09 0-4.6-.16-9.17-.46-13.69zm-201.91 82.87h-.01c-38.22-.01-69.2-30.99-69.2-69.18 0-38.22 30.98-69.2 69.2-69.21h.01c38.2 0 69.17 30.99 69.17 69.21 0 38.19-30.97 69.18-69.17 69.18z" fill="#f79f63"/><path d="m458.38 329.64c0 49.53-17.8 94.92-47.35 130.09-43.03 32.79-96.76 52.27-155.03 52.27v-113.18h.01c38.2 0 69.17-30.99 69.17-69.18 0-38.22-30.97-69.21-69.17-69.21h-.01v-133.18h.01c20.41 0 40.1 3.02 58.67 8.64 12.38 3.74 18.91 17.15 14.29 29.22-.46 1.2-.89 2.41-1.3 3.63-3.29 9.74-5.08 20.18-5.08 31.03 0 53.5 43.36 96.88 96.87 96.88.76 0 1.52-.01 2.29-.03 3.84-.08 7.63-.4 11.35-.92 12.52-1.77 23.98 7.64 24.82 20.25.3 4.52.46 9.09.46 13.69z" fill="#f4873d"/><path d="m432.427 329.636c0-11.456-8.51-22.004-10.68-33v-.013c-.763.013-1.526.026-2.288.026-53.504 0-96.868-43.377-96.868-96.881 0-10.851 1.789-21.294 5.077-31.027-1.302-.855-2.67-1.605-4.117-2.196-10.417-4.314-23.411-.474-34.565-2.67-10.982-2.17-21.531-10.68-32.973-10.68h-.013c-11.456 0-21.991 8.51-32.986 10.68-11.14 2.196-24.135-1.644-34.565 2.67-10.417 4.314-16.888 16.217-26.331 22.556-9.286 6.234-22.78 7.681-30.869 15.77s-9.536 21.583-15.77 30.869c-6.339 9.444-18.242 15.915-22.556 26.331-4.314 10.43-.474 23.424-2.67 34.565-2.17 10.996-10.68 21.544-10.68 33 0 11.443 8.51 21.991 10.68 32.973 2.196 11.153-1.644 24.148 2.67 34.565s16.217 16.901 22.556 26.331c6.234 9.299 7.681 22.78 15.77 30.869 8.102 8.089 21.583 9.535 30.882 15.77 9.43 6.339 15.901 18.242 26.318 22.556 10.43 4.327 23.424.473 34.565 2.67 10.995 2.17 21.531 10.68 32.986 10.68h.013c11.443 0 21.991-8.51 32.973-10.68 11.153-2.197 24.148 1.644 34.565-2.67s16.901-16.217 26.331-22.556c9.286-6.234 22.78-7.681 30.869-15.77s9.536-21.583 15.77-30.869c6.339-9.43 18.242-15.914 22.556-26.331s.473-23.411 2.67-34.565c2.17-10.982 10.68-21.53 10.68-32.973zm-176.414 69.182h-.013c-38.221-.013-69.195-30.987-69.195-69.182 0-38.221 30.974-69.195 69.195-69.208h.013c38.195 0 69.169 30.987 69.169 69.208 0 38.195-30.974 69.182-69.169 69.182z" fill="#fd7db9"/><path d="m421.747 362.61c-2.197 11.153 1.644 24.148-2.67 34.565s-16.217 16.901-22.556 26.331c-6.234 9.286-7.681 22.78-15.77 30.869s-21.583 9.535-30.869 15.77c-9.43 6.339-15.914 18.242-26.331 22.556s-23.411.473-34.565 2.67c-10.982 2.17-21.531 10.68-32.973 10.68h-.013v-107.233h.013c38.195 0 69.169-30.987 69.169-69.182 0-38.221-30.974-69.208-69.169-69.208h-.013v-107.232h.013c11.443 0 21.991 8.51 32.973 10.68 11.153 2.196 24.148-1.644 34.565 2.67 1.447.592 2.815 1.341 4.117 2.196-3.288 9.733-5.077 20.176-5.077 31.027 0 53.504 43.364 96.881 96.868 96.881.763 0 1.526-.013 2.288-.026v.013c2.17 10.996 10.68 21.544 10.68 33 0 11.442-8.51 21.99-10.68 32.973z" fill="#fc5e98"/><ellipse cx="153.295" cy="314.433" fill="#fff" rx="11.346" ry="11.346" transform="matrix(.707 -.707 .707 .707 -177.438 200.491)"/><ellipse cx="118.742" cy="357.384" fill="#fff" rx="11.346" ry="11.346" transform="matrix(.78 -.625 .625 .78 -197.41 152.761)"/><circle cx="179.21" cy="395.639" fill="#fed110" r="11.346"/><g fill="#fff"><ellipse cx="171.805" cy="446.234" rx="11.346" ry="11.346" transform="matrix(.16 -.987 .987 .16 -296.13 544.61)"/><ellipse cx="256.954" cy="477.084" rx="11.346" ry="11.346" transform="matrix(.707 -.707 .707 .707 -262.09 321.428)"/><ellipse cx="343.336" cy="375.894" rx="11.346" ry="11.346" transform="matrix(.229 -.974 .974 .229 -101.102 624.19)"/></g><circle cx="330.995" cy="449.936" fill="#fed110" r="11.346"/><circle cx="396.399" cy="349.979" fill="#fff" r="11.346"/><ellipse cx="351.974" cy="312.959" fill="#fed110" rx="11.346" ry="11.346" transform="matrix(.229 -.974 .974 .229 -33.17 584.054)"/><ellipse cx="265.592" cy="427.723" fill="#fff" rx="11.346" ry="11.346" transform="matrix(.67 -.742 .742 .67 -229.845 338.12)"/><ellipse cx="289.038" cy="226.576" fill="#fff" rx="11.346" ry="11.346" transform="matrix(.229 -.974 .974 .229 2.378 456.154)"/><circle cx="234.741" cy="187.088" fill="#fff" r="11.346"/><ellipse cx="202.656" cy="242.619" fill="#fed110" rx="11.346" ry="11.346" transform="matrix(.205 -.979 .979 .205 -76.303 391.331)"/><ellipse cx="115.04" cy="278.406" fill="#fed110" rx="11.346" ry="11.346" transform="matrix(.707 -.707 .707 .707 -163.168 162.889)"/><ellipse cx="144.657" cy="225.342" fill="#fff" rx="11.346" ry="11.346" transform="matrix(.229 -.974 .974 .229 -107.791 314.645)"/></svg>