<svg id="Capa_1" enable-background="new 0 0 512 512" height="512" viewBox="0 0 512 512" width="512" xmlns="http://www.w3.org/2000/svg"><circle cx="256" cy="256" fill="#4e689b" r="256"/><path d="m512 256c0 87.11-43.52 164.07-110 210.31-41.41 28.8-91.73 45.69-146 45.69s-104.59-16.89-146-45.69c-66.48-46.24-110-123.2-110-210.31 0-46.22 12.25-89.57 33.68-127 44.12 77.07 127.16 129 222.32 129s178.21-51.93 222.32-129c21.43 37.43 33.68 80.78 33.68 127z" fill="#374c81"/><path d="m442.57 431.29c-46.69 49.68-113.01 80.71-186.57 80.71s-139.88-31.03-186.57-80.71c28.05-35.41 101-60.63 186.57-60.63s158.52 25.22 186.57 60.63z" fill="#f4873d"/><path d="m442.57 431.29c-46.69 49.68-113.01 80.71-186.57 80.71v-141.34c85.57 0 158.52 25.22 186.57 60.63z" fill="#c55733"/><path d="m442.57 431.29c-46.69 49.68-113.01 80.71-186.57 80.71s-139.88-31.03-186.57-80.71c28.05-35.41 101-60.63 186.57-60.63s158.52 25.22 186.57 60.63z" fill="#f79f63"/><path d="m442.57 431.29c-46.69 49.68-113.01 80.71-186.57 80.71v-141.34c85.57 0 158.52 25.22 186.57 60.63z" fill="#f4873d"/><path d="m454.87 399.014c0 51.3-89.04 92.87-198.87 92.87s-198.87-41.57-198.87-92.87c0-6.82 1.58-13.5 4.58-19.9 19.51-41.73 99.09-72.95 194.29-72.95s174.78 31.22 194.29 72.95c3 6.4 4.58 13.08 4.58 19.9z" fill="#f4873d"/><path d="m454.87 399.014c0 51.3-89.04 92.87-198.87 92.87v-185.72c95.2 0 174.78 31.22 194.29 72.95 3 6.4 4.58 13.08 4.58 19.9z" fill="#c55733"/><ellipse cx="256" cy="379.114" fill="#f79f63" rx="194.29" ry="72.95"/><path d="m450.29 379.114c-19.51 41.73-99.09 72.95-194.29 72.95v-145.9c95.2 0 174.78 31.22 194.29 72.95z" fill="#f4873d"/><path d="m454.87 334.514c0 51.3-89.04 92.87-198.87 92.87s-198.87-41.57-198.87-92.87c0-6.82 1.58-13.5 4.58-19.9 19.51-41.73 99.09-72.95 194.29-72.95s174.78 31.22 194.29 72.95c3 6.4 4.58 13.08 4.58 19.9z" fill="#f4873d"/><path d="m454.87 334.514c0 51.3-89.04 92.87-198.87 92.87v-185.72c95.2 0 174.78 31.22 194.29 72.95 3 6.4 4.58 13.08 4.58 19.9z" fill="#c55733"/><ellipse cx="256" cy="314.614" fill="#f79f63" rx="194.29" ry="72.95"/><path d="m450.29 314.614c-19.51 41.73-99.09 72.95-194.29 72.95v-145.9c95.2 0 174.78 31.22 194.29 72.95z" fill="#f4873d"/><path d="m454.87 270.014c0 51.3-89.04 92.87-198.87 92.87s-198.87-41.57-198.87-92.87c0-6.82 1.58-13.5 4.58-19.9 19.51-41.73 99.09-72.95 194.29-72.95s174.78 31.22 194.29 72.95c3 6.4 4.58 13.08 4.58 19.9z" fill="#f4873d"/><path d="m454.87 270.014c0 51.3-89.04 92.87-198.87 92.87v-185.72c95.2 0 174.78 31.22 194.29 72.95 3 6.4 4.58 13.08 4.58 19.9z" fill="#c55733"/><ellipse cx="256" cy="250.114" fill="#f79f63" rx="194.29" ry="72.95"/><path d="m450.29 250.114c-19.51 41.73-99.09 72.95-194.29 72.95v-145.9c95.2 0 174.78 31.22 194.29 72.95z" fill="#f4873d"/><path d="m384.42 258.884c-1.42 4.54-12.02 3.28-16.16 6.46-1.92 1.47-3.77 3.28-5.62 5.27v125.12c0 3.85-1.56 7.33-4.08 9.86-2.52 2.52-6.01 4.08-9.86 4.08-7.69 0-13.93-6.24-13.93-13.94v-90.99c0-5.99-4.67-10.91-10.65-11.31-.08 0-.15-.01-.23-.01-6.51-.45-12.01 4.78-12.01 11.31v51.99c0 3.85-1.56 7.34-4.08 9.86s-6.01 4.08-9.86 4.08c-7.7 0-13.94-6.24-13.94-13.94v-40.13c0-9.45-9.1-16.35-18.14-13.61-3.23.98-6.51 1.6-9.86 1.6-14.01 0-26.8-10.94-39.51-12.79-14.24-2.08-29.8 4.46-41.57.44-14.36-4.89-21.91-19.78-31.18-26.89-4.14-3.18-14.74-1.92-16.16-6.46-1.47-4.73 8.07-9.83 9.55-14.56 1.42-4.54-3.62-14.19.53-17.37 9.27-7.12 26.13-4.6 40.49-9.5 11.77-4.01 22.66-16.84 36.9-18.91 12.71-1.86 26.94 7.1 40.95 7.1s28.25-8.96 40.95-7.1c14.24 2.07 25.13 14.9 36.91 18.91 14.35 4.9 31.21 2.38 40.48 9.5 4.15 3.18-.89 12.83.53 17.37 1.48 4.73 11.02 9.83 9.55 14.56z" fill="#ffe853"/><path d="m384.42 258.884c-1.42 4.54-12.02 3.28-16.16 6.46-1.92 1.47-3.77 3.28-5.62 5.27v125.12c0 3.85-1.56 7.33-4.08 9.86-2.52 2.52-6.01 4.08-9.86 4.08-7.69 0-13.93-6.24-13.93-13.94v-90.99c0-5.99-4.67-10.91-10.65-11.31-.08 0-.15-.01-.23-.01-6.51-.45-12.01 4.78-12.01 11.31v51.99c0 3.85-1.56 7.34-4.08 9.86s-6.01 4.08-9.86 4.08c-7.7 0-13.94-6.24-13.94-13.94v-40.13c0-9.45-9.1-16.35-18.14-13.61-3.23.98-6.51 1.6-9.86 1.6v-98.94c14.01 0 28.25-8.96 40.95-7.1 14.24 2.07 25.13 14.9 36.91 18.91 14.35 4.9 31.21 2.38 40.48 9.5 4.15 3.18-.89 12.83.53 17.37 1.48 4.73 11.02 9.83 9.55 14.56z" fill="#fed110"/><path d="m226.092 219.369c12.601 16.671 31.035 26.339 50.308 28.298 3.386-19.087-.887-39.459-13.488-56.13-12.611-16.684-31.045-26.352-50.332-28.301-3.363 19.091.91 39.463 13.512 56.133z" fill="#6cdc2d"/><path d="m212.579 163.236 63.82 84.431c-19.273-1.959-37.707-11.627-50.308-28.298-12.601-16.67-16.874-37.042-13.512-56.133z" fill="#00a042"/><path d="m223.231 270.134c20.896.237 39.824-8.423 53.169-22.466-13.023-14.36-31.749-23.449-52.645-23.686-20.913-.238-39.841 8.423-53.186 22.483 13.04 14.343 31.766 23.431 52.662 23.669z" fill="#6cdc2d"/><path d="m170.569 246.465 105.831 1.202c-13.345 14.043-32.273 22.704-53.169 22.466-20.896-.237-39.622-9.325-52.662-23.668z" fill="#00a042"/><path d="m294.76 164.719-28.374 10.419c-15.913 5.844-24.467 23.27-19.09 39.347.042.124.083.248.126.372.232.683.469 1.355.718 2.032 9.186 25.014 27.952 43.72 50.623 53.498 6.247 2.697 12.981 2.719 18.901.545 5.919-2.174 11.039-6.549 14.056-12.647 10.952-22.134 13.153-48.54 3.97-73.546-.249-.677-.503-1.343-.768-2.014-.048-.122-.096-.244-.145-.365-6.304-15.735-24.104-23.484-40.017-17.641z" fill="#fe3345"/><path d="m294.76 164.719-14.187 5.21 37.09 101.005c5.919-2.174 11.039-6.549 14.056-12.647 10.952-22.134 13.153-48.54 3.97-73.546-.249-.677-.503-1.343-.768-2.014-.048-.122-.096-.244-.145-.365-6.303-15.737-24.103-23.486-40.016-17.643z" fill="#de1263"/><g fill="#374c81"><path d="m328.485 228.726c.805 2.194-.32 4.625-2.513 5.431-2.194.805-4.625-.32-5.431-2.514s.32-4.625 2.513-5.43c2.194-.806 4.626.32 5.431 2.513z"/><path d="m318.749 208.797c.806 2.194-.32 4.625-2.513 5.431-2.194.806-4.625-.32-5.431-2.513-.806-2.194.32-4.625 2.513-5.431 2.194-.806 4.625.319 5.431 2.513z"/><path d="m284.17 241.222c.806 2.194-.32 4.625-2.513 5.431-2.194.805-4.625-.32-5.431-2.513-.805-2.194.32-4.625 2.513-5.431 2.194-.806 4.626.319 5.431 2.513z"/><path d="m315.647 253.168c.806 2.194-.32 4.625-2.513 5.431-2.194.806-4.625-.32-5.431-2.513-.806-2.194.32-4.625 2.513-5.431 2.194-.806 4.625.32 5.431 2.513z"/><path d="m266.167 196.468c.806 2.194-.32 4.625-2.513 5.431-2.194.806-4.625-.32-5.431-2.513-.805-2.194.32-4.625 2.513-5.431 2.194-.806 4.625.32 5.431 2.513z"/><path d="m288.061 211.251c.806 2.194-.32 4.625-2.513 5.431-2.194.805-4.625-.32-5.431-2.513-.806-2.194.32-4.625 2.513-5.431 2.194-.806 4.625.32 5.431 2.513z"/><path d="m296.865 183.921c.806 2.194-.32 4.625-2.513 5.431-2.194.805-4.625-.32-5.431-2.513-.806-2.194.32-4.625 2.513-5.431 2.194-.806 4.625.319 5.431 2.513z"/><path d="m328.49 187.591c.806 2.194-.32 4.625-2.513 5.431-2.194.805-4.625-.32-5.431-2.514s.32-4.625 2.513-5.43c2.194-.806 4.625.319 5.431 2.513z"/></g></svg>