<svg id="Capa_1" enable-background="new 0 0 512 512" height="512" viewBox="0 0 512 512" width="512" xmlns="http://www.w3.org/2000/svg"><path d="m512 256c0 133.55-102.28 243.23-232.78 254.96h-46.44c-130.5-11.73-232.78-121.41-232.78-254.96 0-141.38 114.62-256 256-256s256 114.62 256 256z" fill="#65b2fe"/><path d="m512 256c0 87.11-43.52 164.07-110 210.31-35.44 24.65-77.4 40.57-122.78 44.65h-46.44c-45.38-4.08-87.34-20-122.78-44.65-66.48-46.24-110-123.2-110-210.31 0-46.22 12.25-89.57 33.68-127 44.12 77.07 127.16 129 222.32 129s178.21-51.93 222.32-129c21.43 37.43 33.68 80.78 33.68 127z" fill="#0e9ce7"/><path d="m428.753 147.669-108.961 189.756-30.859-17.72 108.961-189.755c4.894-8.523 15.766-11.464 24.289-6.57 4.257 2.445 7.125 6.386 8.314 10.781s.703 9.247-1.744 13.508z" fill="#f4873d"/><path d="m428.753 147.669-108.961 189.756-15.43-8.86 117.821-205.185c4.257 2.445 7.125 6.386 8.314 10.781s.703 9.247-1.744 13.508z" fill="#ec781b"/><path d="m261.33 254.233h140.695v17.792h-140.695z" fill="#a63917" transform="matrix(.498 -.867 .867 .498 -61.67 419.732)"/><path d="m276.76 263.093h140.695v17.793h-140.695z" fill="#83250d" transform="matrix(.498 -.867 .867 .498 -61.608 437.56)"/><path d="m487.823 221.783-178.251 126.91-20.639-28.988 178.251-126.91c8.007-5.7 19.113-3.832 24.814 4.175 2.847 3.999 3.807 8.778 3.052 13.268-.756 4.49-3.224 8.695-7.227 11.545z" fill="#f4873d"/><path d="m487.823 221.783-178.251 126.91-10.319-14.494 192.745-137.229c2.847 3.999 3.807 8.778 3.052 13.268-.756 4.49-3.224 8.695-7.227 11.545z" fill="#ec781b"/><path d="m281.052 277.255h140.695v17.792h-140.695z" fill="#a63917" transform="matrix(.815 -.58 .58 .815 -100.824 256.853)"/><path d="m291.371 291.749h140.695v17.792h-140.695z" fill="#83250d" transform="matrix(.815 -.58 .58 .815 -107.317 265.525)"/><path d="m261.325 129.334h-9.999v-28.502c0-14.311 11.643-25.954 25.954-25.954v9.998c-8.797 0-15.955 7.158-15.955 15.955z" fill="#de1263"/><path d="m274.145 329.601c0 48.058-38.96 87.018-87.018 87.018-.935 0-1.865-.015-2.79-.045-46.773-1.47-84.228-39.849-84.228-86.973s37.455-85.503 84.228-86.973c.925-.03 1.855-.045 2.79-.045 48.058 0 87.018 38.959 87.018 87.018z" fill="#ffe853"/><path d="m187.127 416.618c-.935 0-44.554-26.223-44.554-87.018 0-65.27 43.619-87.018 44.554-87.018" fill="#fed110"/><path d="m187.125 242.583v174.036c48.059 0 87.018-38.959 87.018-87.018s-38.96-87.018-87.018-87.018z" fill="#ff9f00"/><path d="m343.343 216.352c0 48.058-38.96 87.018-87.018 87.018-.935 0-1.865-.015-2.79-.045-46.773-1.47-84.228-39.849-84.228-86.973 0-10.479 1.85-20.522 5.249-29.826 11.868-32.54 42.604-56.002 78.979-57.147.925-.03 1.855-.045 2.79-.045 37.919 0 70.175 24.257 82.098 58.102 3.185 9.043 4.92 18.777 4.92 28.916z" fill="#fff"/><path d="m256.328 303.37c-.935 0-44.554-26.223-44.554-87.018 0-65.27 43.619-87.018 44.554-87.018" fill="#fdf7bd"/><path d="m256.325 129.334v174.036c48.059 0 87.018-38.959 87.018-87.018s-38.959-87.018-87.018-87.018z" fill="#f9d19a"/><path d="m338.423 187.436c-1.91.325-4.064.51-6.564.51-18.357 0-18.357-9.999-36.715-9.999-18.357 0-18.357 9.999-36.715 9.999-.73 0-1.43-.015-2.105-.05-16.283-.73-16.983-9.949-34.605-9.949-18.357 0-18.357 9.999-36.715 9.999-4.349 0-7.669-.56-10.449-1.42 11.868-32.54 42.604-56.002 78.979-57.147.925-.03 1.855-.045 2.79-.045 37.921 0 70.176 24.256 82.099 58.102z" fill="#a63917"/><path d="m338.423 187.436c-1.91.325-4.064.51-6.564.51-18.357 0-18.357-9.999-36.715-9.999-18.357 0-18.357 9.999-36.715 9.999-.73 0-1.43-.015-2.105-.05v-58.562c37.921 0 70.176 24.256 82.099 58.102z" fill="#83250d"/><path d="m405.714 329.601c0 48.058-38.96 87.018-87.018 87.018-.935 0-1.865-.015-2.79-.045-46.773-1.47-84.228-39.849-84.228-86.973s37.455-85.503 84.228-86.973c.925-.03 1.855-.045 2.79-.045 48.058 0 87.018 38.959 87.018 87.018z" fill="#f4b3d1"/><path d="m274.143 329.601c0 60.795 43.619 87.018 44.554 87.018v-174.036c-.936 0-44.554 21.748-44.554 87.018z" fill="#fd7db9"/><path d="m318.694 242.583v174.036c48.059 0 87.018-38.959 87.018-87.018s-38.959-87.018-87.018-87.018z" fill="#fc5e98"/><path d="m282.201 132.296c0 14.288-11.583 25.876-25.876 25.876-.615 0-1.23-.02-1.835-.065-13.438-.94-24.042-12.138-24.042-25.811s10.604-24.871 24.042-25.811c.605-.045 1.22-.065 1.835-.065 14.293 0 25.876 11.583 25.876 25.876z" fill="#fe3345"/><path d="m282.201 132.296c0 14.288-11.583 25.876-25.876 25.876-.615 0-13.823-5.216-13.823-25.655 0-22.411 13.208-26.097 13.823-26.097 14.293 0 25.876 11.583 25.876 25.876z" fill="#de1263"/><path d="m256.325 106.418v51.753c14.291 0 25.877-11.585 25.877-25.876s-11.586-25.877-25.877-25.877z" fill="#bc0e5c"/><path d="m279.22 368.11v142.85c-7.65.69-15.39 1.04-23.22 1.04s-15.57-.35-23.22-1.04v-142.85z" fill="#fff"/><path d="m279.22 368.11v142.85c-7.65.69-15.39 1.04-23.22 1.04v-143.89z" fill="#d1f6ff"/><path d="m439.367 312.199h-366.084c-7.558 0-13.534 6.41-13.012 13.949 1.4 19.934 5.773 39.037 12.675 56.895 5.946 15.377 13.775 29.818 23.196 43.043.07.099.141.197.211.296 11.277 15.76 29.545 25.02 48.924 25.02h222.096c19.39 0 37.67-9.268 48.942-25.045.065-.09.129-.181.193-.271 9.422-13.225 17.25-27.666 23.187-43.043 6.912-17.849 11.285-36.962 12.684-56.895.522-7.54-5.453-13.949-13.012-13.949z" fill="#fff"/><path d="m439.367 312.199h-268.037c-7.558 0-14.682 6.41-15.503 13.949-2.153 19.934-1.187 39.037 2.529 56.895 3.205 15.377 8.456 29.818 15.513 43.043.048.09.097.181.145.271 8.314 15.479 24.558 25.046 42.128 25.046h151.232c19.39 0 37.67-9.268 48.942-25.045.065-.09.129-.181.193-.271 9.422-13.225 17.25-27.666 23.187-43.043 6.912-17.849 11.285-36.962 12.684-56.895.521-7.541-5.454-13.95-13.013-13.95z" fill="#d1f6ff"/><path d="m439.367 312.199h-183.042v139.203h111.048c19.39 0 37.67-9.268 48.942-25.045.065-.09.129-.181.193-.271 9.422-13.225 17.25-27.666 23.187-43.043 6.912-17.849 11.285-36.962 12.684-56.895.522-7.54-5.453-13.949-13.012-13.949z" fill="#8fc8f5"/></svg>