<svg id="Capa_1" enable-background="new 0 0 512 512" height="512" viewBox="0 0 512 512" width="512" xmlns="http://www.w3.org/2000/svg"><circle cx="256" cy="256" fill="#ffe853" r="256"/><path d="m512 256c0 87.11-43.52 164.07-110 210.31-41.41 28.8-91.73 45.69-146 45.69s-104.59-16.89-146-45.69c-66.48-46.24-110-123.2-110-210.31 0-46.22 12.25-89.57 33.68-127 44.12 77.07 127.16 129 222.32 129s178.21-51.93 222.32-129c21.43 37.43 33.68 80.78 33.68 127z" fill="#fed110"/><path d="m441.68 367.03c0 5.41-.17 10.77-.52 16.09-1.38 21.33-5.48 41.91-11.97 61.41-45.58 41.89-106.4 67.47-173.19 67.47s-127.61-25.58-173.19-67.47c-6.49-19.5-10.59-40.08-11.97-61.41-.35-5.32-.52-10.68-.52-16.09 0-2.39.03-4.78.1-7.16.03-1.01.06-2.03.11-3.05 3.39-81.9 48.4-135.23 105.98-159.98 18.17-7.8 38.38-7.64 56.05-.42 8.45 3.44 16.32 8.51 23.11 15.09.11.11.22.21.33.32.11-.11.22-.21.33-.32 20.99-20.33 52.3-26.21 79.16-14.67 57.58 24.75 102.59 78.08 105.98 159.98.05 1.02.08 2.04.11 3.05.07 2.38.1 4.77.1 7.16z" fill="#fe3345"/><path d="m441.68 367.03c0 5.41-.17 10.77-.52 16.09-1.38 21.33-5.48 41.91-11.97 61.41-45.58 41.89-106.4 67.47-173.19 67.47-20.69 0-40.8-2.46-60.07-7.09-19.49-36.11-31.62-76.78-34.42-119.98-.41-6.37-.62-12.79-.62-19.27 0-2.86.04-5.72.12-8.57.04-1.21.08-2.43.13-3.65 2.1-50.55 17.44-91.99 41.25-124.36 10.33-14.03 27.41-21.42 44.69-19.21 4.61.59 8.11 1.18 8.59 1.64.11.11.22.21.33.32.11-.11.22-.21.33-.32 20.99-20.33 52.3-26.21 79.16-14.67 57.58 24.75 102.59 78.08 105.98 159.98.05 1.02.08 2.04.11 3.05.07 2.38.1 4.77.1 7.16z" fill="#de1263"/><path d="m441.68 367.03c0 5.41-.17 10.77-.52 16.09-1.38 21.33-5.48 41.91-11.97 61.41-45.58 41.89-106.4 67.47-173.19 67.47v-300.17c.11-.11.22-.21.33-.32 20.99-20.33 52.3-26.21 79.16-14.67 57.58 24.75 102.59 78.08 105.98 159.98.05 1.02.08 2.04.11 3.05.07 2.38.1 4.77.1 7.16z" fill="#bc0e5c"/><path d="m289.311 129.769c-22.929 22.414-34.068 52.347-33.311 82.062 29.709 1.451 59.887-9.006 82.816-31.419 22.948-22.432 34.087-52.365 33.312-82.099-29.71-1.414-59.888 9.042-82.817 31.456z" fill="#6cdc2d"/><path d="m372.128 98.312-116.128 113.519c-.757-29.715 10.382-59.648 33.311-82.062s53.107-32.87 82.817-31.457z" fill="#00a042"/><g fill="#ff6477"><path d="m370.09 254.081c-.402-2.852-1.49-5.45-3.264-7.795-1.596-2.469-3.666-4.38-6.208-5.733-2.353-1.819-5.036-2.937-8.052-3.352-3.929-.68-7.764-.335-11.505 1.034-.61.224-1.225.44-1.832.673-4.122 1.579-6.63 3.529-9.601 6.751-9.333 10.123-5.056 27.64 7.142 33.207 4.314 1.969 7.381 2.36 12.079 2.182.655-.025 1.31-.061 1.964-.092 5.765-.27 10.957-3.595 14.765-7.706 2.566-3.046 4.202-6.532 4.906-10.457.643-2.975.511-5.879-.394-8.712z"/><path d="m406.168 300.164c-1.324-9.505-8.684-14.819-17.921-14.819-8.621 0-15.964 9.702-14.819 17.921 1.324 9.505 8.684 14.819 17.921 14.819 8.621 0 15.964-9.701 14.819-17.921z"/></g></svg>