<svg id="Capa_1" enable-background="new 0 0 512 512" height="512" viewBox="0 0 512 512" width="512" xmlns="http://www.w3.org/2000/svg"><circle cx="256" cy="256" fill="#b6e337" r="256"/><path d="m512 256c0 87.11-43.52 164.07-110 210.31-41.41 28.8-91.73 45.69-146 45.69s-104.59-16.89-146-45.69c-66.48-46.24-110-123.2-110-210.31 0-46.22 12.25-89.57 33.68-127 44.12 77.07 127.16 129 222.32 129s178.21-51.93 222.32-129c21.43 37.43 33.68 80.78 33.68 127z" fill="#6cdc2d"/><path d="m414.883 165.675c0 2.31-.074 4.596-.221 6.857-.897 14.919-4.768 29.038-11.023 41.769-1.917 3.908-4.043 7.693-6.39 11.318-.16.246-.319.492-.479.725-.27.393-.553.774-.823 1.143-10.962 18.814-25.979 34.998-43.846 47.312-4.411 3.06-9.02 5.874-13.763 8.43-.811.43-1.622.86-2.433 1.278-12.141 6.255-25.266 10.875-39.078 13.567-8.049 1.573-13.641-7.754-8.565-14.193 8.541-10.851 21.8-17.806 36.67-17.806 1.352 0 2.691.061 4.018.172-.479-2.74-.713-5.555-.713-8.43 0-13.1 5.001-25.02 13.21-33.966-10.47-16.897-16.516-36.829-16.516-58.175v-30.943l.012.012c.074-9.131 1.438-18.212 4.068-26.937.701-2.359 3.846-2.814 5.198-.75 1.966 2.986 5.26.823 7.226 3.81 1.966 2.986-1.327 5.161.651 8.147 1.966 2.986 5.26.823 7.226 3.81 1.966 2.986-1.315 5.174.651 8.16s5.26.823 7.226 3.809-1.315 5.161.651 8.148c1.966 2.998 5.272.823 7.238 3.822 1.966 2.986-1.327 5.161.639 8.147.049.074.098.123.135.172-.037-.233-.061-.467-.061-.737 0-3.588 3.945-3.588 3.945-7.177 0-3.576-3.945-3.576-3.945-7.164s3.945-3.588 3.945-7.164-3.945-3.576-3.945-7.164 3.945-3.588 3.945-7.164-3.945-3.576-3.945-7.164c0-3.576 3.945-3.576 3.945-7.152s-3.945-3.576-3.945-7.164c0-3.576 3.945-3.576 3.945-7.164h.172c0-5.419 6.488-8.209 10.433-4.461 21.27 20.15 34.542 48.66 34.542 80.267z" fill="#bc0e5c"/><path d="m395.946 227.487c-10.962 18.814-25.979 34.998-43.846 47.312-4.411 3.06-9.02 5.874-13.763 8.43l-9.389-16.983c-.479-2.74-.713-5.555-.713-8.43 0-13.1 5.001-25.02 13.21-33.966 0-.001 54.771 3.268 54.501 3.637z" fill="#fe3345"/><path d="m97.117 165.675c0 2.31.074 4.596.221 6.857.897 14.919 4.768 29.038 11.023 41.769 1.917 3.908 4.043 7.693 6.39 11.318.16.246.319.492.479.725.27.393.553.774.823 1.143 10.962 18.814 25.979 34.998 43.846 47.312 4.411 3.06 9.02 5.874 13.763 8.43.811.43 1.622.86 2.433 1.278 12.141 6.255 25.266 10.875 39.078 13.567 8.049 1.573 13.641-7.754 8.565-14.193-8.541-10.851-21.8-17.806-36.67-17.806-1.352 0-2.691.061-4.018.172.479-2.74.713-5.555.713-8.43 0-13.1-5.001-25.02-13.21-33.966 10.47-16.897 16.516-36.829 16.516-58.175v-30.943l-.012.012c-.074-9.131-1.438-18.212-4.068-26.937-.701-2.359-3.846-2.814-5.198-.75-1.966 2.986-5.26.823-7.226 3.81-1.966 2.986 1.327 5.161-.651 8.147-1.966 2.986-5.26.823-7.226 3.81-1.966 2.986 1.315 5.174-.651 8.16s-5.26.823-7.226 3.809 1.315 5.161-.651 8.148c-1.966 2.998-5.272.823-7.238 3.822-1.966 2.986 1.327 5.161-.639 8.147-.049.074-.098.123-.135.172.037-.233.061-.467.061-.737 0-3.588-3.945-3.588-3.945-7.177 0-3.576 3.945-3.576 3.945-7.164s-3.945-3.588-3.945-7.164 3.945-3.576 3.945-7.164-3.945-3.588-3.945-7.164 3.945-3.576 3.945-7.164c0-3.576-3.945-3.576-3.945-7.152s3.945-3.576 3.945-7.164c0-3.576-3.945-3.576-3.945-7.164h-.172c0-5.419-6.488-8.209-10.433-4.461-21.27 20.15-34.542 48.66-34.542 80.267z" fill="#de1263"/><path d="m116.054 227.487c10.962 18.814 25.979 34.998 43.846 47.312 4.411 3.06 9.02 5.874 13.763 8.43l9.389-16.983c.479-2.74.713-5.555.713-8.43 0-13.1-5.001-25.02-13.21-33.966 0-.001-54.771 3.268-54.501 3.637z" fill="#fe3345"/><path d="m256 470.64v41.36c-11.71 0-23.24-.79-34.53-2.31-12.33-1.66-24.39-4.2-36.1-7.56l27.66-31.49z" fill="#de1263"/><path d="m326.55 502.15c-22.41 6.42-46.08 9.85-70.55 9.85v-41.36h42.14z" fill="#bc0e5c"/><path d="m298.14 470.63-7.61 39.06c-11.29 1.52-22.82 2.31-34.53 2.31s-23.24-.79-34.53-2.31l-7.61-39.06z" fill="#fe3345"/><path d="m298.14 470.63-7.61 39.06c-11.29 1.52-22.82 2.31-34.53 2.31v-41.37z" fill="#de1263"/><path d="m270.725 253.17c-5.091 0-9.217-4.127-9.217-9.217v-67.124c0-47.78 17.088-94.12 48.116-130.484 3.304-3.871 9.119-4.333 12.993-1.029 3.873 3.304 4.332 9.122 1.029 12.994-28.183 33.03-43.704 75.121-43.704 118.519v67.124c-.001 5.09-4.126 9.217-9.217 9.217z" fill="#de1263"/><path d="m241.275 253.17c-5.091 0-9.217-4.127-9.217-9.217v-67.124c0-43.396-15.522-85.488-43.704-118.519-3.304-3.873-2.844-9.69 1.029-12.994 3.873-3.305 9.692-2.842 12.993 1.029 31.028 36.365 48.116 82.705 48.116 130.484v67.124c0 5.09-4.126 9.217-9.217 9.217z" fill="#fe3345"/><path d="m298.378 470.631c0 8.709-3.529 16.588-9.234 22.303-5.715 5.704-13.594 9.234-22.303 9.234h-22.292c-17.407 0-31.525-14.118-31.525-31.536 0-8.698 3.53-16.588 9.234-22.292s13.593-9.234 22.292-9.234h22.292c17.418 0 31.536 14.118 31.536 31.525z" fill="#de1263"/><path d="m298.378 470.631c0 8.709-3.529 16.588-9.234 22.303-5.715 5.704-13.594 9.234-22.303 9.234h-10.599v-63.061h10.599c17.419-.001 31.537 14.117 31.537 31.524z" fill="#bc0e5c"/><path d="m298.378 439.106c0 8.709-3.529 16.588-9.234 22.292-5.715 5.704-13.594 9.234-22.303 9.234h-22.292c-17.407 0-31.525-14.107-31.525-31.525 0-8.709 3.53-16.598 9.234-22.302s13.593-9.234 22.292-9.234h22.292c17.418-.001 31.536 14.117 31.536 31.535z" fill="#fe3345"/><path d="m298.378 439.106c0 8.709-3.529 16.588-9.234 22.292-5.715 5.704-13.594 9.234-22.303 9.234h-10.599v-63.062h10.599c17.419 0 31.537 14.118 31.537 31.536z" fill="#de1263"/><path d="m298.378 407.57c0 8.709-3.529 16.598-9.234 22.303-5.715 5.704-13.594 9.233-22.303 9.233h-22.292c-17.407 0-31.525-14.118-31.525-31.536 0-8.709 3.53-16.587 9.234-22.291s13.593-9.234 22.292-9.234h22.292c17.418 0 31.536 14.118 31.536 31.525z" fill="#de1263"/><path d="m298.378 407.57c0 8.709-3.529 16.598-9.234 22.303-5.715 5.704-13.594 9.233-22.303 9.233h-10.599v-63.061h10.599c17.419 0 31.537 14.118 31.537 31.525z" fill="#bc0e5c"/><path d="m298.378 380.929c0 8.709-3.529 16.599-9.234 22.303-5.715 5.704-13.594 9.233-22.303 9.233h-22.292c-17.407 0-31.525-14.118-31.525-31.536 0-8.709 3.53-16.588 9.234-22.291 5.704-5.704 13.593-9.234 22.292-9.234h22.292c17.418 0 31.536 14.118 31.536 31.525z" fill="#fe3345"/><path d="m298.378 380.929c0 8.709-3.529 16.599-9.234 22.303-5.715 5.704-13.594 9.233-22.303 9.233h-10.599v-63.061h10.599c17.419 0 31.537 14.118 31.537 31.525z" fill="#de1263"/><path d="m310.737 328.205v29.82c0 9.944-8.064 18.019-18.019 18.019h-74.043c-9.955 0-18.019-8.075-18.019-18.019v-29.82c0-41.513 12.61-80.097 34.213-112.092l8.195 11.506 9.594-28.455c.557-1.661 2.142-2.371 3.584-2.131 1.082.175 2.076.885 2.502 2.131l9.594 28.455 8.185-11.495c21.604 31.996 34.214 70.569 34.214 112.081z" fill="#de1263"/><path d="m310.737 328.205v29.82c0 9.944-8.064 18.019-18.019 18.019h-36.475v-179.01c1.082.175 2.076.885 2.502 2.131l9.594 28.455 8.185-11.495c21.603 31.995 34.213 70.568 34.213 112.08z" fill="#bc0e5c"/><path d="m116.353 363.986-2.289 3.088c-2.73 3.683-7.929 4.456-11.612 1.726-3.683-2.73-4.456-7.928-1.726-11.612l2.289-3.089c17.04-22.988 46.155-32.839 74.168-25.1 1.78.492 3.566.928 5.358 1.321-2.595-1.855-5.126-3.819-7.586-5.896-16.917-14.292-40.146-16.791-59.176-6.37l-3.371 1.846c-4.021 2.202-9.065.728-11.268-3.293v-.001c-2.202-4.021-.728-9.066 3.293-11.268l3.371-1.846c25.097-13.745 55.661-10.507 77.865 8.248 10.201 8.617 21.802 14.99 34.483 19.026v18.667c-13.035 7.541-27.202 12.449-42.18 14.587-21.924 3.129-39.24 18.812-44.113 39.953l-.864 3.747c-1.03 4.467-5.486 7.253-9.953 6.224-4.468-1.03-7.255-5.486-6.224-9.954l.864-3.745c6.428-27.883 29.173-48.554 57.947-52.66 1.552-.221 3.09-.491 4.622-.781-2.505-.521-5.002-1.114-7.487-1.801-21.351-5.899-43.491 1.553-56.411 18.983z" fill="#de1263"/><path d="m395.647 363.986 2.289 3.088c2.73 3.683 7.929 4.456 11.612 1.726 3.683-2.73 4.456-7.928 1.726-11.612l-2.289-3.089c-17.04-22.988-46.155-32.839-74.168-25.1-1.78.492-3.566.928-5.358 1.321 2.595-1.855 5.126-3.819 7.586-5.896 16.917-14.292 40.146-16.791 59.176-6.37l3.371 1.846c4.021 2.202 9.065.728 11.268-3.293v-.001c2.202-4.021.728-9.066-3.293-11.268l-3.371-1.846c-25.097-13.745-55.66-10.507-77.865 8.248-10.201 8.617-21.802 14.99-34.483 19.026v18.667c13.035 7.541 27.202 12.449 42.18 14.587 21.924 3.129 39.24 18.812 44.113 39.953l.864 3.747c1.03 4.467 5.486 7.253 9.953 6.224 4.468-1.03 7.255-5.486 6.225-9.954l-.864-3.745c-6.428-27.883-29.173-48.554-57.947-52.66-1.552-.221-3.09-.491-4.622-.781 2.505-.521 5.002-1.114 7.487-1.801 21.349-5.899 43.49 1.553 56.41 18.983z" fill="#bc0e5c"/></svg>