<svg id="Capa_1" enable-background="new 0 0 512 512" height="512" viewBox="0 0 512 512" width="512" xmlns="http://www.w3.org/2000/svg"><path d="m511.997 257.135c-.205 47.204-13.188 91.399-35.677 129.295l-64.194 36.587c-96.776 55.157-215.475 55.155-312.249-.005l-64.197-36.592c-22.67-38.2-35.68-82.79-35.68-130.42 0-141.38 114.619-255.999 255.999-256 141.489-.001 256.613 115.647 255.998 257.135z" fill="#4e689b"/><path d="m512 256c0 47.63-13.01 92.23-35.68 130.43l-64.194 36.587c-96.776 55.157-215.475 55.155-312.249-.005l-64.197-36.592-.01.01c-22.66-38.2-35.67-82.8-35.67-130.43 0-46.22 12.25-89.57 33.68-127 44.12 77.07 127.16 129 222.32 129s178.21-51.93 222.32-129c21.43 37.43 33.68 80.78 33.68 127z" fill="#374c81"/><path d="m476.32 386.43c-44.59 75.17-126.57 125.57-220.32 125.57s-175.73-50.4-220.32-125.58c7.69-17.79 25.39-30.25 46.01-30.25 0-27.66 22.42-50.08 50.08-50.08.47 0 .93.02 1.39.03 3.12-24.66 24.16-43.74 49.67-43.74 11.02 0 21.19 3.57 29.46 9.59 9.14-9.82 22.18-15.97 36.65-15.97 2.4 0 4.75.17 7.06.5 14.68 2.07 27.3 10.5 35.01 22.42 9.16-10.15 22.42-16.54 37.18-16.54 25.19 0 46.03 18.61 49.55 42.82 2.43-.36 4.91-.55 7.44-.55 27.66 0 50.08 22.42 50.08 50.09 0 .56-.02 1.12-.04 1.68 18.49 1.79 34.04 13.64 41.1 30.01z" fill="#ffe853"/><path d="m476.32 386.43c-44.59 75.17-126.57 125.57-220.32 125.57v-255.5c14.68 2.07 27.3 10.5 35.01 22.42 9.16-10.15 22.42-16.54 37.18-16.54 25.19 0 46.03 18.61 49.55 42.82 2.43-.36 4.91-.55 7.44-.55 27.66 0 50.08 22.42 50.08 50.09 0 .56-.02 1.12-.04 1.68 18.49 1.79 34.04 13.64 41.1 30.01z" fill="#fed110"/><path d="m191.922 316.624c7.01 16.702-.402 36.254-16.722 44.123-6.425 3.092-13.305 4.008-19.835 3.052-2.788-.409-5.561.011-8.028 1.123s-4.618 2.911-6.158 5.272c-3.608 5.526-8.85 10.075-15.422 12.841-16.704 7.017-36.263-.377-44.136-16.69-5.906-12.234-3.9-26.131 3.877-36.073 3.381-4.324 4.075-10.101 1.804-15.095l-.043-.095c-7.78-17.258-.094-37.562 17.17-45.344.404-.182.81-.358 1.221-.523 16.012-6.503 34.609.104 42.919 15.262.492.898.938 1.81 1.338 2.729 2.177 4.949 7.021 8.108 12.417 8.435 12.6.756 24.342 8.457 29.598 20.983z" fill="#fff"/><path d="m191.922 316.624c7.01 16.702-.402 36.254-16.722 44.123-6.425 3.092-13.305 4.008-19.835 3.052-2.788-.409-5.561.011-8.028 1.123l-42.907-95.184c.404-.182.81-.358 1.221-.523 16.012-6.503 34.609.104 42.919 15.262.492.898.938 1.81 1.338 2.729 2.177 4.949 7.021 8.108 12.417 8.435 12.599.756 24.341 8.457 29.597 20.983z" fill="#d1f6ff"/><path d="m154.787 322.725c2.796 6.667-.157 14.467-6.669 17.605-2.56 1.235-5.311 1.598-7.911 1.218-1.114-.166-2.219.002-3.206.447s-1.844 1.162-2.457 2.106c-1.437 2.199-3.531 4.02-6.152 5.121-6.664 2.802-14.465-.152-17.609-6.661-2.356-4.882-1.555-10.424 1.547-14.392 1.349-1.721 1.626-4.025.721-6.019l-.018-.039c-3.106-6.891-.037-14.987 6.846-18.097.163-.073.322-.138.487-.206 6.394-2.592 13.811.048 17.122 6.091.203.36.381.725.54 1.092.868 1.97 2.799 3.231 4.949 3.362 5.03.304 9.713 3.374 11.81 8.372z" fill="#ffe853"/><path d="m154.787 322.725c2.796 6.667-.157 14.467-6.669 17.605-2.56 1.235-5.311 1.598-7.911 1.218-1.114-.166-2.219.002-3.206.447l-17.121-37.982c.163-.073.322-.138.487-.206 6.394-2.592 13.811.048 17.122 6.091.203.36.381.725.54 1.092.868 1.97 2.799 3.231 4.949 3.362 5.029.305 9.712 3.375 11.809 8.373z" fill="#fed110"/><path d="m267.779 473.701c-4.391 14.596-19.672 23.323-34.481 19.694-5.827-1.433-10.784-4.522-14.512-8.639-1.591-1.759-3.616-2.97-5.813-3.569s-4.557-.582-6.821.126c-5.301 1.656-11.14 1.803-16.888.08-14.603-4.388-23.342-19.661-19.719-34.467 2.716-11.105 11.459-19.054 21.831-21.345 4.51-.997 8.054-4.376 9.253-8.835l.023-.085c4.189-15.371 20.051-24.438 35.426-20.247.359.098.718.201 1.073.314 13.878 4.351 22.414 18.598 19.694 32.888-.161.847-.361 1.677-.592 2.489-1.236 4.379.217 9.023 3.546 12.125 7.774 7.238 11.275 18.524 7.98 29.471z" fill="#fff"/><path d="m267.779 473.701c-4.391 14.596-19.672 23.323-34.481 19.694-5.827-1.433-10.784-4.522-14.512-8.639-1.591-1.759-3.616-2.97-5.813-3.569l23.105-84.772c.359.098.718.201 1.073.314 13.878 4.351 22.414 18.598 19.694 32.888-.161.847-.361 1.677-.592 2.489-1.236 4.379.217 9.023 3.546 12.125 7.774 7.237 11.275 18.523 7.98 29.47z" fill="#d1f6ff"/><path d="m240.403 457.78c-1.754 5.825-7.848 9.309-13.757 7.86-2.324-.569-4.304-1.806-5.788-3.445-.634-.704-1.441-1.187-2.32-1.426-.879-.24-1.82-.233-2.723.052-2.111.659-4.445.72-6.736.031-5.827-1.749-9.31-7.843-7.866-13.753 1.084-4.431 4.571-7.6 8.71-8.516 1.798-.395 3.211-1.743 3.69-3.522l.01-.035c1.673-6.137 8.001-9.75 14.134-8.084.145.04.283.083.427.127 5.539 1.74 8.941 7.426 7.855 13.122-.061.343-.141.675-.235.998-.491 1.744.087 3.597 1.414 4.832 3.102 2.89 4.499 7.39 3.185 11.759z" fill="#ffe853"/><path d="m240.403 457.78c-1.754 5.825-7.848 9.309-13.757 7.86-2.324-.569-4.304-1.806-5.788-3.445-.634-.704-1.441-1.187-2.32-1.426l9.22-33.827c.145.04.283.083.427.127 5.539 1.74 8.941 7.426 7.855 13.122-.061.343-.141.675-.235.998-.491 1.744.087 3.597 1.414 4.832 3.101 2.89 4.498 7.39 3.184 11.759z" fill="#fed110"/><path d="m415.573 327.298c-3.748 12.458-16.789 19.905-29.429 16.808-4.973-1.223-9.204-3.859-12.385-7.373-1.358-1.501-3.086-2.535-4.962-3.046-1.875-.511-3.889-.497-5.821.108-4.524 1.413-9.508 1.538-14.413.068-12.463-3.745-19.922-16.78-16.83-29.416 2.318-9.478 9.78-16.262 18.632-18.217 3.849-.851 6.874-3.735 7.897-7.54l.02-.073c3.576-13.118 17.113-20.857 30.235-17.28.307.084.613.172.916.268 11.844 3.714 19.13 15.873 16.808 28.069-.138.723-.308 1.432-.506 2.124-1.055 3.737.186 7.701 3.026 10.348 6.636 6.177 9.624 15.809 6.812 25.152z" fill="#fff"/><path d="m415.573 327.298c-3.748 12.458-16.789 19.905-29.429 16.808-4.973-1.223-9.204-3.859-12.385-7.373-1.358-1.501-3.086-2.535-4.962-3.046l19.72-72.35c.307.084.613.172.916.268 11.844 3.714 19.13 15.873 16.808 28.069-.138.723-.308 1.432-.506 2.124-1.055 3.737.186 7.701 3.026 10.348 6.636 6.177 9.624 15.809 6.812 25.152z" fill="#d1f6ff"/><path d="m392.208 313.71c-1.497 4.972-6.698 7.945-11.741 6.708-1.983-.486-3.673-1.541-4.94-2.94-.541-.601-1.23-1.013-1.98-1.217s-1.553-.199-2.324.044c-1.801.562-3.794.614-5.749.026-4.973-1.493-7.946-6.694-6.713-11.738.925-3.781 3.901-6.486 7.434-7.268 1.534-.337 2.741-1.487 3.15-3.006l.008-.03c1.428-5.238 6.828-8.322 12.063-6.899.124.034.242.07.364.108 4.728 1.485 7.631 6.338 6.704 11.2-.052.292-.12.576-.2.852-.419 1.488.074 3.07 1.206 4.124 2.648 2.467 3.839 6.308 2.718 10.036z" fill="#ffe853"/><path d="m392.208 313.71c-1.497 4.972-6.698 7.945-11.741 6.708-1.983-.486-3.673-1.541-4.94-2.94-.541-.601-1.23-1.013-1.98-1.217l7.869-28.87c.124.034.242.07.364.108 4.728 1.485 7.631 6.338 6.704 11.2-.052.292-.12.576-.2.852-.419 1.488.074 3.07 1.206 4.124 2.648 2.466 3.839 6.307 2.718 10.035z" fill="#fed110"/><path d="m419.314 425.083c3.39 12.56-3.757 25.768-16.128 29.807-4.87 1.586-9.855 1.579-14.411.273-1.946-.558-3.959-.525-5.822.031-1.863.555-3.566 1.63-4.888 3.163-3.097 3.588-7.264 6.324-12.207 7.664-12.563 3.396-25.777-3.741-29.819-16.106-3.033-9.274-.274-18.974 6.213-25.306 2.82-2.754 3.868-6.8 2.729-10.572l-.021-.072c-3.885-13.03 3.53-26.746 16.564-30.633.305-.091.611-.177.919-.256 12.021-3.096 24.625 3.388 29.089 14.973.264.686.494 1.379.691 2.071 1.076 3.731 4.222 6.444 8.031 7.193 8.897 1.745 16.518 8.35 19.06 17.77z" fill="#fff"/><path d="m419.314 425.083c3.39 12.56-3.757 25.768-16.128 29.807-4.87 1.586-9.855 1.579-14.411.273-1.946-.558-3.959-.525-5.822.031l-21.429-71.862c.305-.091.611-.177.919-.256 12.021-3.096 24.625 3.388 29.089 14.973.264.686.494 1.379.691 2.071 1.076 3.731 4.222 6.444 8.031 7.193 8.897 1.745 16.518 8.35 19.06 17.77z" fill="#d1f6ff"/><path d="m392.297 425.87c1.352 5.013-1.497 10.283-6.433 11.893-1.941.634-3.933.629-5.748.11-.777-.225-1.58-.211-2.325.011s-1.424.651-1.951 1.264c-1.234 1.428-2.898 2.524-4.869 3.056-5.012 1.356-10.282-1.493-11.896-6.428-1.209-3.7-.109-7.569 2.479-10.097 1.125-1.096 1.543-2.71 1.089-4.215l-.009-.03c-1.551-5.203 1.409-10.672 6.606-12.226.123-.037.243-.068.367-.1 4.8-1.233 9.827 1.357 11.605 5.975.11.276.202.553.28.829.429 1.485 1.683 2.568 3.201 2.867 3.549.699 6.589 3.333 7.604 7.091z" fill="#ffe853"/><path d="m392.297 425.87c1.352 5.013-1.497 10.283-6.433 11.893-1.941.634-3.933.629-5.748.11-.777-.225-1.58-.211-2.325.011l-8.551-28.675c.123-.037.243-.068.367-.1 4.8-1.233 9.827 1.357 11.605 5.975.11.276.202.553.28.829.429 1.485 1.683 2.568 3.201 2.867 3.549.698 6.589 3.332 7.604 7.09z" fill="#fed110"/><path d="m310.997 345.975c2.718 10.07-3.012 20.659-12.93 23.898-3.904 1.271-7.901 1.266-11.554.219-1.56-.448-3.174-.421-4.668.024-1.493.445-2.859 1.307-3.919 2.536-2.483 2.877-5.824 5.07-9.787 6.145-10.072 2.723-20.667-2.999-23.907-12.913-2.432-7.435-.22-15.213 4.982-20.289 2.261-2.208 3.101-5.452 2.188-8.476l-.017-.058c-3.115-10.447 2.83-21.444 13.28-24.56.244-.073.49-.142.737-.205 9.638-2.482 19.743 2.716 23.322 12.004.212.55.396 1.105.554 1.66.862 2.991 3.385 5.166 6.439 5.767 7.132 1.399 13.242 6.695 15.28 14.248z" fill="#fff"/><path d="m310.997 345.975c2.718 10.07-3.012 20.659-12.93 23.898-3.904 1.271-7.901 1.266-11.554.219-1.56-.448-3.174-.421-4.668.024l-17.181-57.615c.244-.073.49-.142.737-.205 9.638-2.482 19.743 2.716 23.322 12.004.212.55.396 1.105.554 1.66.862 2.991 3.385 5.166 6.439 5.767 7.133 1.399 13.243 6.695 15.281 14.248z" fill="#d1f6ff"/><path d="m289.336 346.606c1.084 4.019-1.2 8.245-5.158 9.536-1.556.508-3.154.504-4.608.088-.623-.18-1.266-.169-1.864.009-.597.178-1.142.521-1.564 1.013-.989 1.145-2.324 2.023-3.904 2.45-4.018 1.087-8.244-1.197-9.538-5.153-.97-2.967-.087-6.068 1.988-8.095.902-.879 1.237-2.172.873-3.38l-.007-.024c-1.244-4.171 1.13-8.556 5.296-9.802.099-.029.195-.054.294-.08 3.848-.989 7.878 1.088 9.304 4.791.088.221.162.443.224.665.344 1.191 1.349 2.059 2.567 2.298 2.847.559 5.283 2.67 6.097 5.684z" fill="#ffe853"/><path d="m289.336 346.606c1.084 4.019-1.2 8.245-5.158 9.536-1.556.508-3.154.504-4.608.088-.623-.18-1.266-.169-1.864.009l-6.856-22.991c.099-.029.195-.054.294-.08 3.848-.989 7.878 1.088 9.304 4.791.088.221.162.443.224.665.344 1.191 1.349 2.059 2.567 2.298 2.847.559 5.283 2.67 6.097 5.684z" fill="#fed110"/><path d="m301.734 267.516c-3.748 12.458-16.789 19.905-29.429 16.808-4.973-1.223-9.204-3.859-12.385-7.373-1.358-1.501-3.086-2.535-4.962-3.046-1.875-.511-3.889-.497-5.821.108-4.524 1.413-9.508 1.538-14.413.068-12.463-3.745-19.921-16.78-16.83-29.416 2.318-9.478 9.78-16.262 18.632-18.217 3.849-.851 6.874-3.735 7.897-7.54l.02-.072c3.576-13.118 17.113-20.857 30.235-17.28.307.084.612.171.916.268 11.844 3.714 19.13 15.873 16.808 28.069-.137.723-.308 1.432-.506 2.124-1.055 3.737.186 7.701 3.026 10.348 6.636 6.175 9.624 15.808 6.812 25.151z" fill="#fff"/><path d="m301.734 267.516c-3.748 12.458-16.789 19.905-29.429 16.808-4.973-1.223-9.204-3.859-12.385-7.373-1.358-1.501-3.086-2.535-4.962-3.046l19.719-72.35c.307.084.612.171.916.268 11.844 3.714 19.13 15.873 16.808 28.069-.137.723-.308 1.432-.506 2.124-1.055 3.737.186 7.701 3.026 10.348 6.637 6.176 9.625 15.809 6.813 25.152z" fill="#d1f6ff"/><path d="m278.369 253.928c-1.497 4.972-6.698 7.945-11.741 6.708-1.983-.486-3.673-1.541-4.94-2.94-.541-.601-1.23-1.013-1.98-1.217s-1.553-.199-2.324.044c-1.801.562-3.794.614-5.749.026-4.973-1.493-7.946-6.694-6.713-11.738.925-3.781 3.901-6.487 7.434-7.268 1.534-.337 2.74-1.487 3.15-3.006l.008-.03c1.428-5.238 6.828-8.322 12.063-6.899.124.034.242.071.364.108 4.728 1.485 7.631 6.338 6.704 11.199-.052.292-.12.576-.2.852-.419 1.488.074 3.07 1.206 4.124 2.648 2.467 3.84 6.308 2.718 10.037z" fill="#ffe853"/><path d="m278.369 253.928c-1.497 4.972-6.698 7.945-11.741 6.708-1.983-.486-3.673-1.541-4.94-2.94-.541-.601-1.23-1.013-1.98-1.217l7.869-28.87c.124.034.242.071.364.108 4.728 1.485 7.631 6.338 6.704 11.199-.052.292-.12.576-.2.852-.419 1.488.074 3.07 1.206 4.124 2.648 2.466 3.84 6.307 2.718 10.036z" fill="#fed110"/><path d="m185.612 163.096c-8.87 1.622-17.585-4.072-19.666-12.849-.816-3.455-.526-6.898.637-9.971.497-1.312.589-2.705.313-4.023s-.922-2.557-1.905-3.558c-2.301-2.345-3.952-5.38-4.595-8.872-1.626-8.873 4.061-17.592 12.835-19.675 6.58-1.563 13.123.898 17.125 5.742 1.741 2.106 4.476 3.062 7.147 2.491l.051-.011c9.223-1.937 18.273 3.971 20.211 13.197.045.216.088.432.124.65 1.45 8.481-3.752 16.816-12.01 19.236-.489.143-.981.262-1.47.359-2.639.529-4.693 2.547-5.429 5.136-1.716 6.046-6.715 10.932-13.368 12.148z" fill="#fff"/><path d="m185.612 163.096c-8.87 1.622-17.585-4.072-19.666-12.849-.816-3.455-.526-6.898.637-9.971.497-1.312.589-2.705.313-4.023l50.869-10.684c.045.216.088.432.124.65 1.45 8.481-3.752 16.816-12.01 19.236-.489.143-.981.262-1.47.359-2.639.529-4.693 2.547-5.429 5.136-1.716 6.044-6.715 10.93-13.368 12.146z" fill="#d1f6ff"/><path d="m186.616 144.388c-3.54.647-7.018-1.623-7.847-5.125-.327-1.377-.209-2.753.254-3.977.2-.524.236-1.079.126-1.606-.111-.527-.368-1.021-.761-1.42-.916-.934-1.577-2.147-1.832-3.539-.65-3.54 1.62-7.017 5.122-7.849 2.625-.623 5.235.358 6.833 2.291.693.84 1.783 1.221 2.849.994l.021-.004c3.683-.773 7.291 1.585 8.067 5.264.018.087.033.172.048.259.577 3.386-1.5 6.71-4.793 7.674-.197.06-.393.108-.589.146-1.051.211-1.87 1.015-2.164 2.047-.686 2.411-2.679 4.36-5.334 4.845z" fill="#ffe853"/><path d="m186.616 144.388c-3.54.647-7.018-1.623-7.847-5.125-.327-1.377-.209-2.753.254-3.977.2-.524.236-1.079.126-1.606l20.299-4.263c.018.087.033.172.048.259.577 3.386-1.5 6.71-4.793 7.674-.197.06-.393.108-.589.146-1.051.211-1.87 1.015-2.164 2.047-.686 2.411-2.679 4.36-5.334 4.845z" fill="#fed110"/><path d="m365.213 129.824c4.975 10.595.715 23.419-9.611 28.939-4.065 2.169-8.483 2.945-12.725 2.504-1.811-.189-3.59.156-5.153.941-1.563.784-2.903 2.004-3.834 3.57-2.181 3.665-5.443 6.743-9.612 8.706-10.597 4.98-23.424.731-28.946-9.589-4.142-7.74-3.221-16.767 1.533-23.395 2.066-2.882 2.36-6.632.759-9.795l-.03-.06c-5.487-10.934-1.07-24.25 9.867-29.739.256-.128.513-.253.774-.371 10.164-4.629 22.349-.863 28.122 8.7.342.566.654 1.144.937 1.726 1.539 3.137 4.752 5.046 8.244 5.112 8.156.148 15.945 4.804 19.675 12.751z" fill="#fff"/><path d="m365.213 129.824c4.975 10.595.715 23.419-9.611 28.939-4.065 2.169-8.483 2.945-12.725 2.504-1.811-.189-3.59.156-5.153.941l-30.263-60.303c.256-.128.513-.253.774-.371 10.164-4.629 22.349-.863 28.122 8.7.342.566.654 1.144.937 1.726 1.539 3.137 4.752 5.046 8.244 5.112 8.156.149 15.945 4.805 19.675 12.752z" fill="#d1f6ff"/><path d="m341.4 134.761c1.985 4.229.288 9.345-3.833 11.547-1.62.866-3.386 1.174-5.075.999-.724-.077-1.433.061-2.058.375s-1.16.8-1.53 1.426c-.869 1.459-2.172 2.691-3.834 3.472-4.227 1.988-9.344.291-11.548-3.828-1.652-3.089-1.284-6.688.612-9.334.825-1.148.942-2.643.303-3.906l-.012-.025c-2.191-4.366-.427-9.676 3.934-11.868.103-.052.204-.098.309-.146 4.059-1.846 8.919-.34 11.219 3.473.141.227.266.458.378.691.613 1.249 1.894 2.011 3.286 2.037 3.255.06 6.361 1.916 7.849 5.087z" fill="#ffe853"/><path d="m341.4 134.761c1.985 4.229.288 9.345-3.833 11.547-1.62.866-3.386 1.174-5.075.999-.724-.077-1.433.061-2.058.375l-12.076-24.063c.103-.052.204-.098.309-.146 4.059-1.846 8.919-.34 11.219 3.473.141.227.266.458.378.691.613 1.249 1.894 2.011 3.286 2.037 3.256.06 6.362 1.916 7.85 5.087z" fill="#fed110"/><path d="m291.218 38.302c4.975 10.595.715 23.419-9.611 28.939-4.065 2.169-8.483 2.945-12.725 2.504-1.812-.189-3.59.156-5.153.941-1.563.784-2.903 2.004-3.834 3.57-2.181 3.665-5.443 6.743-9.612 8.706-10.597 4.98-23.424.731-28.946-9.589-4.142-7.74-3.221-16.767 1.533-23.395 2.066-2.883 2.359-6.632.759-9.795l-.03-.06c-5.487-10.934-1.07-24.25 9.867-29.739.256-.128.513-.253.774-.371 10.164-4.629 22.348-.863 28.121 8.7.342.566.654 1.144.937 1.726 1.539 3.137 4.751 5.046 8.244 5.112 8.157.148 15.946 4.804 19.676 12.751z" fill="#fff"/><path d="m291.218 38.302c4.975 10.595.715 23.419-9.611 28.939-4.065 2.169-8.483 2.945-12.725 2.504-1.812-.189-3.59.156-5.153.941l-30.263-60.303c.256-.128.513-.253.774-.371 10.164-4.629 22.348-.863 28.121 8.7.342.566.654 1.144.937 1.726 1.539 3.137 4.751 5.046 8.244 5.112 8.157.149 15.946 4.805 19.676 12.752z" fill="#d1f6ff"/><path d="m267.406 43.239c1.984 4.229.288 9.345-3.833 11.547-1.62.866-3.386 1.175-5.075.999-.724-.077-1.433.061-2.058.375s-1.16.8-1.53 1.426c-.869 1.459-2.172 2.691-3.834 3.472-4.227 1.988-9.344.291-11.548-3.828-1.652-3.088-1.284-6.688.612-9.334.825-1.148.942-2.643.303-3.906l-.012-.025c-2.191-4.366-.427-9.676 3.934-11.868.103-.052.204-.098.309-.146 4.059-1.846 8.919-.34 11.219 3.473.141.227.266.458.378.691.613 1.249 1.894 2.011 3.286 2.037 3.254.06 6.36 1.917 7.849 5.087z" fill="#ffe853"/><path d="m267.406 43.239c1.984 4.229.288 9.345-3.833 11.547-1.62.866-3.386 1.175-5.075.999-.724-.077-1.433.061-2.058.375l-12.076-24.063c.103-.052.204-.098.309-.146 4.059-1.846 8.919-.34 11.219 3.473.141.227.266.458.378.691.613 1.249 1.894 2.011 3.286 2.037 3.255.06 6.361 1.917 7.85 5.087z" fill="#fed110"/></svg>