<svg id="Capa_1" enable-background="new 0 0 512 512" height="512" viewBox="0 0 512 512" width="512" xmlns="http://www.w3.org/2000/svg"><circle cx="256" cy="256" fill="#b6e337" r="256"/><path d="m512 256c0 87.11-43.52 164.07-110 210.31-41.41 28.8-91.73 45.69-146 45.69s-104.59-16.89-146-45.69c-66.48-46.24-110-123.2-110-210.31 0-46.22 12.25-89.57 33.68-127 44.12 77.07 127.16 129 222.32 129s178.21-51.93 222.32-129c21.43 37.43 33.68 80.78 33.68 127z" fill="#6cdc2d"/><path d="m466.87 401.19c-29.53 42.8-71.75 76.17-121.22 94.68-.09.03-.18.06-.28.1-27.82 10.36-57.93 16.03-89.37 16.03-87.47 0-164.69-43.87-210.87-110.81l12.09-71.12 4.46-21.21c8.6-40.95 44.71-70.26 86.56-70.26h215.52c41.85 0 77.96 29.31 86.56 70.26l4.46 21.21z" fill="#f4873d"/><path d="m466.87 401.19c-29.53 42.8-71.75 76.17-121.22 94.68-.09.03-.18.06-.28.1-29 10.26-59.48 16.03-89.37 16.03v-273.4h107.76c41.85 0 77.96 29.31 86.56 70.26l4.46 21.21z" fill="#a63917"/><path d="m360.28 489.86c-31.85 14.23-67.14 22.14-104.28 22.14-37.15 0-72.44-7.91-104.29-22.14l16.51-251.26h175.55z" fill="#ec781b"/><path d="m360.28 489.86c-31.85 14.23-67.14 22.14-104.28 22.14v-273.4h87.77z" fill="#c55733"/><path d="m256 238.6v166.22h-.01c-49.46 0-52.07-29.11-96.58-32.18-2.49-.18-5.11-.27-7.87-.27-52.03 0-52.22 32.21-103.86 32.45-.86-1.2-1.71-2.41-2.55-3.63l12.09-71.12 4.46-21.21c8.6-40.95 44.71-70.26 86.56-70.26z" fill="#ec781b"/><path d="m256 238.6v166.22h-.01c-49.46 0-52.07-29.11-96.58-32.18l8.81-134.04z" fill="#c55733"/><path d="m466.87 401.19-12.09-71.12-4.46-21.21c-8.6-40.95-44.71-70.26-86.56-70.26h-107.76v166.22c49.46 0 52.07-29.11 96.58-32.18 2.48-.18 5.1-.27 7.86-.27 52.03 0 52.23 32.21 103.87 32.45z" fill="#83250d"/><path d="m352.58 372.64c-44.51 3.07-47.12 32.18-96.58 32.18v-166.22h87.77z" fill="#a63917"/><path d="m454.78 330.07c-8.11 4.35-17.72 7.76-32.82 7.76-41.49 0-41.49-25.78-82.99-25.78-41.49 0-41.49 25.78-82.97 25.78h-.01c-41.48 0-41.48-25.78-82.97-25.78-3.5 0-6.7.18-9.66.53-32.13 3.63-35.33 25.25-73.32 25.25-15.1 0-24.71-3.41-32.82-7.76l4.46-21.21c8.6-40.95 44.71-70.26 86.56-70.26h215.52c41.85 0 77.96 29.31 86.56 70.26z" fill="#c55733"/><path d="m454.78 330.07c-8.11 4.35-17.72 7.76-32.82 7.76-41.49 0-41.49-25.78-82.99-25.78-41.49 0-41.49 25.78-82.97 25.78h-.01c-41.48 0-41.48-25.78-82.97-25.78-3.5 0-6.7.18-9.66.53l4.86-73.98h195.54c41.85 0 77.96 29.31 86.56 70.26z" fill="#a63917"/><path d="m454.78 330.07c-8.11 4.35-17.72 7.76-32.82 7.76-37.99 0-41.2-21.62-73.33-25.25-2.96-.35-6.16-.53-9.66-.53-41.49 0-41.49 25.78-82.97 25.78v-99.23h107.76c41.85 0 77.96 29.31 86.56 70.26z" fill="#83250d"/><path d="m454.78 330.07c-8.11 4.35-17.72 7.76-32.82 7.76-37.99 0-41.2-21.62-73.33-25.25l-4.86-73.98h19.99c41.85 0 77.96 29.31 86.56 70.26z" fill="#531d10"/><path d="m264.846 230.76h-17.042v-48.579c0-21.343 15.193-39.204 35.333-43.336 4.614-.947 8.904 2.703 8.904 7.413v2.023c0 3.508-2.414 6.585-5.841 7.337-12.197 2.68-21.354 13.572-21.354 26.563z" fill="#de1263"/><path d="m300.43 235.808c0 24.353-19.743 44.105-44.105 44.105-1.048 0-2.096-.034-3.127-.111-22.904-1.602-40.977-20.689-40.977-43.994s18.073-42.392 40.977-43.994c1.031-.077 2.079-.111 3.127-.111 24.361 0 44.105 19.744 44.105 44.105z" fill="#fe3345"/><path d="m300.43 235.808c0 24.353-19.743 44.105-44.105 44.105-1.048 0-23.56-8.891-23.56-43.728 0-38.198 22.512-44.482 23.56-44.482 24.361 0 44.105 19.744 44.105 44.105z" fill="#de1263"/><path d="m256.325 191.701v88.21c24.358 0 44.105-19.746 44.105-44.105s-19.746-44.105-44.105-44.105z" fill="#bc0e5c"/><circle cx="399.275" cy="299.83" fill="#83250d" r="16.142"/><path d="m435.83 438.18c-8.35 8.26-17.27 15.93-26.69 22.97-2.07-2.32-3.5-5.27-3.95-8.59l-12.25-90.66c-1.2-8.83 5-16.96 13.83-18.16s16.97 4.99 18.16 13.83z" fill="#c55733"/></svg>