<svg id="Capa_1" enable-background="new 0 0 512 512" height="512" viewBox="0 0 512 512" width="512" xmlns="http://www.w3.org/2000/svg"><circle cx="256" cy="256" fill="#ffe853" r="256"/><path d="m512 256c0 87.11-43.52 164.07-110 210.31-41.41 28.8-91.73 45.69-146 45.69s-104.59-16.89-146-45.69c-66.48-46.24-110-123.2-110-210.31 0-46.22 12.25-89.57 33.68-127 44.12 77.07 127.16 129 222.32 129s178.21-51.93 222.32-129c21.43 37.43 33.68 80.78 33.68 127z" fill="#fed110"/><path d="m277.6 359.44c-14.54 6.71-26.96 7.53-46.08 26.93-29.02 29.44-15.45 42.81-44.47 72.25-18.75 19.03-31.05 20.17-45.24 26.56-17.61-8.79-34.06-19.54-49.06-31.98-13.83-11.46-26.44-24.36-37.59-38.45 18.87-12.04 32.16-8.58 55.08-31.84 29.02-29.44 15.45-42.81 44.47-72.25 23.82-24.18 37.23-19.49 57.33-33.33 9.11-6.27 21.41-5.16 29.28 2.61l42.72 42.09c11.46 11.31 8.17 30.65-6.44 37.41z" fill="#c55733"/><path d="m277.6 359.44c-14.54 6.71-26.96 7.53-46.08 26.93-29.02 29.44-15.45 42.81-44.47 72.25-18.75 19.03-31.05 20.17-45.24 26.56-17.61-8.79-34.06-19.54-49.06-31.98 19.33-12.7 32.67-8.79 55.94-32.4 29.01-29.44 15.45-42.81 44.46-72.25 29.03-29.45 42.59-16.07 71.61-45.51l19.28 18.99c11.46 11.31 8.17 30.65-6.44 37.41z" fill="#a63917"/><path d="m277.39 315.49c-29.02 29.44-42.58 16.07-71.6 45.51s-15.45 42.81-44.47 72.25c-22.48 22.82-35.69 19.93-54 31.17-5-3.56-9.85-7.31-14.57-11.22-4.63-3.84-9.14-7.85-13.49-12.01 19.75-13.33 33.13-8.99 56.71-32.92 29.02-29.44 15.46-42.81 44.47-72.25 29.03-29.44 42.59-16.07 71.61-45.51l12.71 12.53z" fill="#f4873d"/><path d="m277.39 315.49c-29.02 29.44-42.58 16.07-71.6 45.51s-15.45 42.81-44.47 72.25c-22.48 22.82-35.69 19.93-54 31.17-5-3.56-9.85-7.31-14.57-11.22 19.33-12.7 32.67-8.79 55.94-32.4 29.01-29.44 15.45-42.81 44.46-72.25 29.03-29.45 42.59-16.07 71.61-45.51z" fill="#ec781b"/><path d="m126.633 262.793c-8.936 11.376-26.517 10.233-34.015-2.133l-27.92-46.047c-5.152-8.497-3.572-19.47 3.799-26.13 16.263-14.688 14.949-27.378 41.008-43.179 31.747-19.249 40.617-4.619 72.364-23.868 31.743-19.247 22.873-33.876 54.616-53.123 26.063-15.802 36.705-8.773 57.247-16.396 9.314-3.456 19.774.217 24.923 8.711l27.922 46.051c7.498 12.366.376 28.482-13.837 31.147-14.138 2.647-25.123.624-46.04 13.307-31.743 19.247-22.875 33.873-54.618 53.12-31.746 19.249-40.615 4.622-72.361 23.871-20.918 12.681-24.2 23.355-33.088 34.669z" fill="#c55733"/><path d="m126.633 262.793c-8.936 11.376-26.517 10.233-34.015-2.133l-12.599-20.78c15.875-9.625 21.592-18.093 27.31-26.565 5.717-8.467 11.437-16.937 27.309-26.56 31.747-19.249 40.617-4.619 72.364-23.868 31.743-19.247 22.873-33.876 54.616-53.123 31.747-19.249 40.617-4.619 72.36-23.865l12.6 20.78c7.498 12.366.376 28.482-13.837 31.147-14.138 2.647-25.123.624-46.04 13.307-31.743 19.247-22.875 33.873-54.618 53.12-31.746 19.249-40.615 4.622-72.361 23.871-20.919 12.681-24.201 23.355-33.089 34.669z" fill="#a63917"/><path d="m215.258 176.505c-31.747 19.249-40.615 4.622-72.361 23.871-31.743 19.247-22.875 33.873-54.622 53.122l-16.568-27.325c31.747-19.249 22.878-33.875 54.622-53.122 31.747-19.249 40.615-4.622 72.362-23.871 31.743-19.247 22.875-33.873 54.618-53.12 31.747-19.249 40.615-4.622 72.358-23.869l16.568 27.325c-31.743 19.247-40.612 4.62-72.358 23.869-31.744 19.246-22.876 33.873-54.619 53.12z" fill="#f4873d"/><path d="m215.258 176.505c-31.747 19.249-40.615 4.622-72.361 23.871-31.743 19.247-22.875 33.873-54.622 53.122l-8.257-13.618c15.875-9.625 21.592-18.093 27.31-26.565 5.717-8.467 11.437-16.937 27.309-26.56 31.747-19.249 40.617-4.619 72.364-23.868 31.743-19.247 22.873-33.876 54.616-53.123 31.747-19.249 40.617-4.619 72.36-23.865l8.257 13.618c-31.743 19.247-40.612 4.62-72.358 23.869-31.743 19.245-22.875 33.872-54.618 53.119z" fill="#ec781b"/><path d="m485.85 368.83c-18.49 37.61-45.95 70.02-79.58 94.44-16.94-21.12-33.53-22.41-50.73-58.07-21.82-45.22-.98-55.27-22.79-100.48-14.38-29.8-28.33-35.6-42.41-49.02-14.15-13.5-10.35-37.02 7.27-45.52l65.59-31.64c12.1-5.84 26.67-2.3 34.69 8.49 17.67 23.78 34.92 23.65 52.83 60.78 21.81 45.21.97 55.27 22.79 100.49 4.14 8.58 8.25 15.17 12.34 20.53z" fill="#c55733"/><path d="m451.64 421.11c-4.29 5.09-8.79 10-13.47 14.74-9.85 9.98-20.53 19.16-31.9 27.42-16.94-21.12-33.53-22.41-50.73-58.07-21.82-45.22-.98-55.27-22.79-100.48-14.38-29.8-28.33-35.6-42.41-49.02-14.15-13.5-10.35-37.02 7.27-45.52l29.6-14.28c21.81 45.22 42.65 35.17 64.46 80.39 21.82 45.22.98 55.27 22.79 100.49 12.59 26.11 24.86 33.79 37.18 44.33z" fill="#a63917"/><path d="m463.8 405.55c-7.76 10.76-16.33 20.89-25.63 30.3-14.32-13.93-28.49-19.42-43.11-49.71-21.81-45.22-.98-55.27-22.79-100.49s-42.65-35.17-64.46-80.39l38.92-18.78c21.81 45.22 42.65 35.17 64.47 80.39 21.81 45.22.97 55.27 22.79 100.49 10.08 20.9 19.96 29.99 29.81 38.19z" fill="#f4873d"/><path d="m451.64 421.11c-4.29 5.09-8.79 10-13.47 14.74-14.32-13.93-28.49-19.42-43.11-49.71-21.81-45.22-.98-55.27-22.79-100.49s-42.65-35.17-64.46-80.39l19.4-9.36c21.81 45.22 42.65 35.17 64.46 80.39 21.82 45.22.98 55.27 22.79 100.49 12.59 26.11 24.86 33.79 37.18 44.33z" fill="#ec781b"/></svg>