<svg id="Capa_1" enable-background="new 0 0 512 512" height="512" viewBox="0 0 512 512" width="512" xmlns="http://www.w3.org/2000/svg"><circle cx="256" cy="256" fill="#ffe853" r="256"/><path d="m512 256c0 87.11-43.52 164.07-110 210.31-41.41 28.8-91.73 45.69-146 45.69s-104.59-16.89-146-45.69c-66.48-46.24-110-123.2-110-210.31 0-46.22 12.25-89.57 33.68-127 44.12 77.07 127.16 129 222.32 129s178.21-51.93 222.32-129c21.43 37.43 33.68 80.78 33.68 127z" fill="#fed110"/><path d="m254.236 150.292c.868-.076 1.656-.362 2.369-.862 2.639-1.842 4.97-3.049 8.209-2.046 3.991 1.24 7.772 2.56 11.968 3.054 5.157.613 9.469 1.475 13.31 5.305.318.317.677.536 1.079.666.182.079 2.175.697 2.376.729.546.097 1.941.1 2.492.118 1.694-.147 3.228-.704 4.622-1.672 1.086-.706 1.925-1.622 2.497-2.747.736-.981 1.191-2.092 1.362-3.329.365-2.655-.637-5.118.577-7.69.168-.364.358-.714.563-1.051.042-.08.084-.15.13-.224 1.345-2.19 3.242-4.082 4.335-6.496.563-1.247 1.387-2.372 2.384-3.316.951-.907 2.084-1.398 3.109-2.174 2.219-1.683 4.465-3.599 5.632-6.19 1.051-2.335 1.094-5.097.125-7.461-.992-2.397-2.73-3.552-4.729-5.005-1.752-1.271-3.951-2.524-5.129-4.398-.973-1.538-1.386-3.516-2.112-5.19-.96-2.206-2.068-4.355-3.308-6.42-.688-1.152-1.557-2.214-2.03-3.478-.572-1.502-.092-2.263.345-3.663.218-1.022.174-2.025-.121-3-.066-.709-.296-1.348-.703-1.931-.248-.676-.65-1.245-1.197-1.706-.411-.578-.939-1.021-1.579-1.314-.822-.615-1.751-.991-2.783-1.135-1.461-.199-3.033.135-4.531.048-.7-.036-1.615-.119-2.25-.435-.663-.335-1.191-1.011-1.794-1.444-1.205-.866-2.438-1.686-3.694-2.454-2.498-1.532-4.824-2.76-6.689-5.105-.813-1.025-1.277-2.392-2.281-3.226-.421-.597-.958-1.048-1.616-1.351-.551-.447-1.172-.731-1.868-.856-.611-.246-1.242-.381-1.885-.417-.985-.171-1.951-.118-2.897.167-.984.127-1.88.483-2.705 1.04-1.394.94-3.161 1.479-4.771 1.915-1.367.37-2.981.158-4.409.291-3.154.284-6.284.975-9.24 2.127-2.15.838-4.206 1.91-6.103 3.214-1.119.767-2.083 1.659-3.039 2.561-.121.112-.238.229-.359.341-.564.537-1.123 1.07-1.72 1.584-3.533 3.047-8.697 3.507-11.856 7.067-.806.911-1.337 1.947-1.592 3.11-.442 1.097-.594 2.241-.452 3.435.159 3.513 3.303 5.977 4.996 8.802 1.73 2.891 1.633 6.717 2.431 9.935 1.159 4.669 3.008 9.16 5.38 13.342 1.253 2.219 2.661 4.35 4.199 6.387 1.463 1.934 3.449 3.896 3.956 6.35.367 1.819-.481 3.211-.777 4.928-.301 1.713-.14 3.402.572 5.006.173.406.548 1.068.627 1.231-.009.009.407.909.65 1.226.589.634 1.168 1.267 1.757 1.901.705.442 1.41.885 2.116 1.327l2.357.729c1.263.268 2.49.215 3.694-.15zm24.685-55.182c-.085 2.618-.637 5.059.015 7.666.657 2.631 2.382 4.947 4.633 6.437.957.629 2.391 1.49 3.558 1.423 1.292-.072 2.327-.68 3.588.018 1.527.842 1.531 3.67 1.678 5.233.35 3.77-.433 7.779-3.186 10.54-.55.551-1.137 1.028-1.748 1.435-5.99 3.932-14.687 1.103-20.328-2.267-1.658-.992-3.516-1.95-3.151-4.195.236-1.451.607-2.861.866-4.308.036-.859.077-1.713.113-2.571-.156-1.806-.751-3.452-1.794-4.939-.748-1.165-1.729-2.06-2.934-2.674-1.051-.787-2.237-1.271-3.562-1.455-1.059-.143-2.202.106-3.22-.042-1.083-.157-2.069-1.299-2.611-2.166-1.38-2.196-1.658-4.449-1.251-6.979.282-1.713.891-3.37 1.855-4.794.359-.528.764-1.028 1.22-1.486 2.456-2.462 5.944-3.382 9.346-3.288 4.321.125 8.532 1.705 12.244 3.842 1.724.991 4.745 2.223 4.669 4.57z" fill="#fed110"/><path d="m467.212 390.596 2.168-1.178c.605-.572 1.209-1.144 1.814-1.716.453-.737.896-1.472 1.349-2.209.176-.359.408-1.323.397-1.33.046-.176.283-.898.373-1.33.382-1.713.208-3.4-.423-5.021-.628-1.626-1.732-2.824-1.73-4.68.016-2.505 1.577-4.819 2.632-7.003 1.108-2.299 2.069-4.665 2.863-7.087 1.504-4.566 2.435-9.333 2.654-14.139.15-3.312-.697-7.045.432-10.219 1.105-3.103 3.703-6.136 3.169-9.612-.096-1.199-.47-2.29-1.118-3.279-.478-1.089-1.202-2.002-2.171-2.737-3.796-2.87-8.951-2.306-13.013-4.6-.686-.387-1.339-.799-1.997-1.216-.141-.086-.278-.178-.419-.264-1.114-.697-2.235-1.382-3.483-1.914-2.116-.906-4.343-1.553-6.616-1.953-3.125-.549-6.33-.611-9.478-.27-1.426.15-2.967.676-4.38.581-1.663-.112-3.503-.293-5.054-.941-.918-.383-1.866-.556-2.856-.488-.984-.094-1.942.044-2.874.405-.624.162-1.216.418-1.767.78-.657.259-1.21.659-1.663 1.206-.586.426-1.024.974-1.319 1.642-.821 1.015-1.007 2.446-1.603 3.611-1.368 2.665-3.407 4.327-5.556 6.319-1.081 1-2.129 2.046-3.14 3.132-.506.543-.891 1.31-1.475 1.768-.561.435-1.441.696-2.12.869-1.452.379-3.059.361-4.452.843-.983.343-1.82.895-2.505 1.659-.57.413-1 .951-1.29 1.598-.445.559-.728 1.196-.838 1.908-.284.651-.384 1.323-.31 2.031-.098 1.014.056 2.006.471 2.965.703 1.287 1.323 1.939 1.058 3.524-.215 1.332-.859 2.545-1.307 3.809-.809 2.268-1.474 4.594-1.982 6.945-.383 1.784-.399 3.805-1.051 5.504-.787 2.069-2.698 3.729-4.166 5.319-1.674 1.817-3.151 3.291-3.654 5.836-.486 2.509.099 5.209 1.588 7.291 1.654 2.311 4.233 3.749 6.739 4.963 1.158.559 2.365.819 3.476 1.521 1.163.73 2.193 1.671 2.989 2.783 1.546 2.152 3.777 3.635 5.527 5.518.06.064.115.125.172.194.267.29.523.595.759.92 1.696 2.284 1.197 4.895 2.077 7.427.41 1.179 1.076 2.179 1.99 2.996.782.991 1.784 1.724 2.988 2.203 1.557.675 3.171.92 4.86.732.536-.126 1.904-.402 2.42-.605.19-.071 2.023-1.068 2.186-1.182.368-.206.678-.492.927-.865 3.014-4.51 7.073-6.202 12.009-7.816 4.017-1.308 7.465-3.345 11.135-5.345 2.979-1.62 5.502-.894 8.451.393.798.35 1.626.476 2.492.38 1.249.124 2.462-.065 3.645-.576zm-35.013-54.078c3.22-2.824 7.039-5.201 11.251-6.172 3.317-.76 6.918-.543 9.81 1.389.538.359 1.033.77 1.488 1.217 1.225 1.207 2.148 2.713 2.761 4.337.896 2.4 1.066 4.664.144 7.088-.362.957-1.104 2.27-2.135 2.637-.969.345-2.138.325-3.148.674-1.263.442-2.331 1.149-3.207 2.127-1.061.839-1.847 1.909-2.352 3.198-.73 1.663-.99 3.394-.789 5.195.204.835.412 1.664.616 2.499.538 1.368 1.179 2.677 1.696 4.054.799 2.129-.835 3.434-2.265 4.732-4.869 4.413-12.841 8.896-19.487 6.216-.678-.279-1.348-.631-1.995-1.064-3.242-2.167-4.798-5.944-5.195-9.709-.163-1.561-.715-4.335.617-5.461 1.099-.932 2.233-.539 3.515-.723 1.157-.163 2.393-1.29 3.209-2.094 1.914-1.903 3.151-4.514 3.278-7.222.127-2.685-.893-4.97-1.491-7.52-.536-2.286 2.184-4.087 3.679-5.398z" fill="#ff9f00"/><path d="m41.153 374.33c.844.216 1.682.207 2.521-.029 3.099-.865 5.699-1.232 8.424.787 3.356 2.492 6.487 4.989 10.282 6.843 4.663 2.286 8.447 4.527 10.804 9.412.195.404.462.73.797.985.146.135 1.822 1.378 2.001 1.475.483.273 1.799.737 2.312.936 1.647.422 3.279.404 4.915-.048 1.259-.307 2.353-.893 3.266-1.766 1.019-.682 1.817-1.58 2.388-2.69 1.223-2.385 1.093-5.04 3.09-7.066.279-.288.575-.556.879-.805.066-.061.128-.113.197-.168 1.995-1.621 4.41-2.779 6.241-4.695.944-.99 2.094-1.779 3.348-2.34 1.197-.541 2.429-.629 3.654-1.022 2.651-.854 5.405-1.918 7.364-3.977 1.765-1.855 2.72-4.447 2.588-6.999-.143-2.59-1.4-4.255-2.806-6.288-1.232-1.78-2.893-3.689-3.384-5.848-.409-1.774-.144-3.777-.275-5.597-.175-2.399-.51-4.794-.996-7.153-.268-1.314-.736-2.605-.764-3.954-.042-1.606.662-2.166 1.538-3.343.544-.892.835-1.853.879-2.871.172-.691.167-1.37-.024-2.054-.01-.72-.201-1.39-.565-2.006-.197-.682-.549-1.274-1.055-1.762-.572-.852-1.324-1.515-2.25-1.992-1.313-.671-2.906-.877-4.291-1.454-.648-.266-1.484-.647-1.979-1.155-.515-.536-.79-1.348-1.215-1.956-.85-1.216-1.743-2.398-2.674-3.538-1.851-2.272-3.638-4.201-4.622-7.031-.428-1.237-.413-2.68-1.085-3.799-.2-.702-.557-1.306-1.078-1.81-.372-.604-.864-1.078-1.479-1.426-.495-.435-1.045-.77-1.641-1.018-.873-.488-1.801-.757-2.789-.801-.971-.206-1.934-.166-2.896.086-1.626.425-3.473.349-5.136.228-1.412-.103-2.866-.838-4.257-1.185-3.07-.776-6.252-1.16-9.423-1.052-2.306.079-4.601.41-6.823 1.012-1.309.353-2.515.876-3.715 1.411-.151.066-.3.137-.451.203-.71.321-1.414.638-2.147.926-4.342 1.706-9.368.43-13.527 2.744-1.062.593-1.906 1.395-2.531 2.408-.78.889-1.302 1.917-1.564 3.091-1.013 3.368 1.138 6.733 1.8 9.96.676 3.3-.682 6.879-.995 10.18-.452 4.789-.193 9.639.66 14.371.448 2.509 1.071 4.985 1.848 7.416.74 2.31 1.965 4.818 1.631 7.301-.256 1.838-1.516 2.871-2.365 4.394-.851 1.517-1.258 3.164-1.118 4.913.029.44.163 1.189.184 1.369-.012.006.083.993.208 1.372.346.793.683 1.583 1.029 2.376.519.651 1.038 1.302 1.557 1.952l1.983 1.469c1.1.668 2.275 1.025 3.532 1.078zm41.559-43.9c-.947 2.442-2.276 4.563-2.523 7.239-.251 2.7.61 5.457 2.241 7.608.695.91 1.763 2.197 2.886 2.52 1.243.36 2.421.129 3.38 1.205 1.162 1.3.23 3.97-.149 5.493-.917 3.673-2.983 7.197-6.496 8.891-.701.338-1.413.594-2.124.776-6.954 1.728-14.224-3.821-18.432-8.868-1.236-1.484-2.672-3.004-1.584-5.001.703-1.292 1.52-2.499 2.244-3.778.318-.798.639-1.591.958-2.389.45-1.756.433-3.506-.058-5.254-.32-1.348-.95-2.516-1.883-3.495-.731-1.091-1.69-1.939-2.879-2.552-.952-.486-2.113-.629-3.024-1.106-.97-.507-1.522-1.911-1.747-2.908-.575-2.529-.092-4.747 1.13-6.999.833-1.523 1.956-2.885 3.338-3.91.513-.379 1.061-.717 1.643-.998 3.132-1.511 6.729-1.223 9.908-.009 4.036 1.548 7.486 4.433 10.282 7.678 1.296 1.505 3.738 3.668 2.889 5.857z" fill="#ff9f00"/><path d="m367.67 395.73c-.24-2.48-1.05-4.76-2.37-6.88-2.24-3.59-3.43-8.07-4.39-12.15-.81-3.46-.13-7.49-.34-11.09-.43-7.94-1.89-15.86-4.52-23.38-1.91-5.47-4.42-10.73-7.52-15.6-1.83-2.88-3.98-5.38-6.16-7.86-.27-.31-.56-.62-.83-.93-1.3-1.46-2.58-2.91-3.82-4.46-7.34-9.13-8.03-22.14-16.69-30.38-2.21-2.1-4.77-3.53-7.66-4.27-2.72-1.21-5.57-1.69-8.58-1.44-8.84.09-15.3 7.76-22.54 11.76-7.41 4.09-17 3.5-25.15 5.22-11.82 2.5-23.26 6.74-33.97 12.32-5.68 2.95-11.15 6.3-16.4 9.98-4.98 3.5-10.08 8.31-16.29 9.37-4.6.75-8.01-1.5-12.3-2.39-4.27-.91-8.52-.65-12.61.99-1.04.4-2.73 1.28-3.15 1.46-.07 0-2.33.96-3.13 1.53-1.65 1.42-3.29 2.82-4.93 4.24-1.17 1.73-2.35 3.46-3.52 5.19l-2.04 5.85c-.79 3.14-.76 6.23.05 9.28.11 2.19.76 4.19 1.95 6.02 4.39 6.79 7.22 12.75 4.41 20.79-3.46 9.91-7.11 19.28-8.72 29.77-2 12.89-4.54 23.64-14.5 32.94-.82.77-1.4 1.65-1.76 2.65-.22.45-1.95 5.39-2.05 5.9-.29 1.36-.42 4.86-.51 6.24.22 4.26 1.48 8.16 3.79 11.75 1.67 2.79 3.9 4.97 6.67 6.51 2.4 1.93 5.15 3.18 8.24 3.71 6.63 1.15 12.9-1.14 19.25 2.13.9.46 1.76.97 2.58 1.51.2.11.37.22.55.35 5.38 3.57 9.96 8.5 15.93 11.45 3.08 1.53 5.83 3.69 8.11 6.28 1.33 1.5 2.27 3.16 3.22 4.83h.01c4.34 1.04 8.71 1.97 13.13 2.79 6.03 1.12 12.14 2.03 18.32 2.71 5.83.65 11.72 1.1 17.66 1.36 3.2-4.19 6.46-9.27 11.07-11.94 3.95-2.31 8.95-3.17 13.21-4.84 5.62-2.22 11.12-4.81 16.41-7.74 2.95-1.62 5.7-3.71 8.91-4.78 3.82-1.31 5.69-.04 9.16 1.19 2.55.63 5.07.61 7.55-.04 1.78-.11 3.41-.63 4.9-1.6 1.72-.56 3.19-1.52 4.39-2.85 1.49-.98 2.65-2.27 3.44-3.85 1.61-2 2.64-4.3 3.09-6.88.63-3.65-.07-7.62.28-11.37.16-1.76.44-4.05 1.3-5.61.9-1.64 2.64-2.9 3.78-4.38 2.28-2.94 4.45-5.97 6.48-9.05 4.07-6.14 7.36-11.87 13.41-16.34 2.65-1.95 6.12-2.99 8.3-5.44 1.53-1 2.71-2.31 3.53-3.94 1.17-1.34 1.94-2.87 2.32-4.61.67-1.51 1.06-3.08 1.21-4.7.52-2.45.47-4.88-.16-7.28zm-59.93-18.5c-.69 10.84-5.03 21.27-10.72 30.4-2.65 4.23-6.01 11.71-11.89 11.31-6.56-.45-12.64-2.05-19.24-.64-6.67 1.41-12.63 5.54-16.57 11.06-1.66 2.34-3.95 5.87-3.89 8.8.07 3.25 1.5 5.9-.36 9-2.25 3.76-9.35 3.52-13.29 3.75-9.49.55-19.48-1.77-26.17-8.93-1.33-1.43-2.48-2.94-3.45-4.51-9.34-15.39-1.46-36.96 7.5-50.83 2.63-4.07 5.2-8.65 10.8-7.53 3.63.72 7.13 1.78 10.74 2.55 2.15.17 4.29.35 6.44.52 4.55-.24 8.73-1.58 12.56-4.07 2.99-1.77 5.32-4.16 6.97-7.13 2.07-2.57 3.39-5.5 3.97-8.81.45-2.65-.07-5.54.39-8.08.49-2.7 3.44-5.07 5.67-6.36 5.63-3.27 11.31-3.77 17.63-2.52 4.27.86 8.38 2.53 11.87 5.08 1.29.95 2.51 2.01 3.62 3.19 5.96 6.39 7.96 15.22 7.42 23.75z" fill="#f79f63"/><path d="m367.67 395.73c-.24-2.48-1.05-4.76-2.37-6.88-2.24-3.59-3.43-8.07-4.39-12.15-.81-3.46-.13-7.49-.34-11.09-.43-7.94-1.89-15.86-4.52-23.38-1.91-5.47-4.42-10.73-7.52-15.6-1.83-2.88-3.98-5.38-6.16-7.86-.27-.31-.56-.62-.83-.93-13.73.16-27.48-2.37-40.25-7.41-5.18-2.06-10.93-4.55-16.13-2.51-4.67 1.83-7.33 6.79-11.62 9.39-6.03 3.66-13.7 2.14-20.38 2.58-7.95.5-15.18 3.18-21.8 7.6-6.48 4.33-12.07 9.85-17.6 15.33-6.9 6.83-13.8 13.67-20.69 20.49-3.73 3.69-7.5 7.44-10.06 12.01-3.71 6.64-4.59 14.5-7.79 21.39-2.57 5.53-6.55 10.27-9.51 15.6-4.2 7.55-6.26 16.08-8.28 24.5-1.46 6.13-2.93 12.51-1.67 18.7 1.37 6.51 5.59 11.98 8.85 17.77 1.52 2.72 2.85 5.69 3.55 8.73.2.11.37.22.55.35 5.38 3.57 9.96 8.5 15.93 11.45 3.08 1.53 5.83 3.69 8.11 6.28 1.33 1.5 2.27 3.16 3.22 4.83h.01c4.34 1.04 8.71 1.97 13.13 2.79 6.03 1.12 12.14 2.03 18.32 2.71 5.83.65 11.72 1.1 17.66 1.36 3.2-4.19 6.46-9.27 11.07-11.94 3.95-2.31 8.95-3.17 13.21-4.84 5.62-2.22 11.12-4.81 16.41-7.74 2.95-1.62 5.7-3.71 8.91-4.78 3.82-1.31 5.69-.04 9.16 1.19 2.55.63 5.07.61 7.55-.04 1.78-.11 3.41-.63 4.9-1.6 1.72-.56 3.19-1.52 4.39-2.85 1.49-.98 2.65-2.27 3.44-3.85 1.61-2 2.64-4.3 3.09-6.88.63-3.65-.07-7.62.28-11.37.16-1.76.44-4.05 1.3-5.61.9-1.64 2.64-2.9 3.78-4.38 2.28-2.94 4.45-5.97 6.48-9.05 4.07-6.14 7.36-11.87 13.41-16.34 2.65-1.95 6.12-2.99 8.3-5.44 1.53-1 2.71-2.31 3.53-3.94 1.17-1.34 1.94-2.87 2.32-4.61.67-1.51 1.06-3.08 1.21-4.7.52-2.45.47-4.88-.16-7.28zm-59.93-18.5c-.69 10.84-5.03 21.27-10.72 30.4-2.65 4.23-6.01 11.71-11.89 11.31-6.56-.45-12.64-2.05-19.24-.64-6.67 1.41-12.63 5.54-16.57 11.06-1.66 2.34-3.95 5.87-3.89 8.8.07 3.25 1.5 5.9-.36 9-2.25 3.76-9.35 3.52-13.29 3.75-9.49.55-19.48-1.77-26.17-8.93-1.33-1.43-2.48-2.94-3.45-4.51-9.34-15.39-1.46-36.96 7.5-50.83 2.63-4.07 5.2-8.65 10.8-7.53 3.63.72 7.13 1.78 10.74 2.55 2.15.17 4.29.35 6.44.52 4.55-.24 8.73-1.58 12.56-4.07 2.99-1.77 5.32-4.16 6.97-7.13 2.07-2.57 3.39-5.5 3.97-8.81.45-2.65-.07-5.54.39-8.08.49-2.7 3.44-5.07 5.67-6.36 5.63-3.27 11.31-3.77 17.63-2.52 4.27.86 8.38 2.53 11.87 5.08 1.29.95 2.51 2.01 3.62 3.19 5.96 6.39 7.96 15.22 7.42 23.75z" fill="#f4873d"/><path d="m367.83 403.01c-.15 1.62-.54 3.19-1.21 4.7-.38 1.74-1.15 3.27-2.32 4.61-.82 1.63-2 2.94-3.53 3.94-2.18 2.45-5.65 3.49-8.3 5.44-6.05 4.47-9.34 10.2-13.41 16.34-2.03 3.08-4.2 6.11-6.48 9.05-1.14 1.48-2.88 2.74-3.78 4.38-.86 1.56-1.14 3.85-1.3 5.61-.35 3.75.35 7.72-.28 11.37-.45 2.58-1.48 4.88-3.09 6.88-.79 1.58-1.95 2.87-3.44 3.85-1.2 1.33-2.67 2.29-4.39 2.85-1.49.97-3.12 1.49-4.9 1.6-2.48.65-5 .67-7.55.04-3.47-1.23-5.34-2.5-9.16-1.19-3.21 1.07-5.96 3.16-8.91 4.78-5.29 2.93-10.79 5.52-16.41 7.74-4.26 1.67-9.26 2.53-13.21 4.84-4.61 2.67-7.87 7.75-11.07 11.94-5.94-.26-11.83-.71-17.66-1.36-6.18-.68-12.29-1.59-18.32-2.71-4.42-.82-8.8-1.75-13.14-2.79-.95-1.67-1.89-3.33-3.22-4.83-2.28-2.59-5.03-4.75-8.11-6.28-5.97-2.95-10.55-7.88-15.93-11.45 4.68-6 10.55-11.27 12.77-18.48 1.3-4.24 1.19-8.8 2.25-13.11 2.22-9.13 10.43-11.33 18.43-13.3.97 1.57 2.12 3.08 3.45 4.51 6.69 7.16 16.68 9.48 26.17 8.93 3.94-.23 11.04.01 13.29-3.75 1.86-3.1.43-5.75.36-9-.06-2.93 2.23-6.46 3.89-8.8 3.94-5.52 9.9-9.65 16.57-11.06 6.6-1.41 12.68.19 19.24.64 5.88.4 9.24-7.08 11.89-11.31 5.69-9.13 10.03-19.56 10.72-30.4.54-8.53-1.46-17.36-7.42-23.75-1.11-1.18-2.33-2.24-3.62-3.19 1.98-2.83 3.93-5.69 5.81-8.59 2.79-4.26 5.67-8.81 10.22-11.09 4.18-2.11 9.09-1.96 13.67-2.86 6.1-1.19 11.73-4.43 15.97-8.98 2.18 2.48 4.33 4.98 6.16 7.86 3.1 4.87 5.61 10.13 7.52 15.6 2.63 7.52 4.09 15.44 4.52 23.38.21 3.6-.47 7.63.34 11.09.96 4.08 2.15 8.56 4.39 12.15 1.32 2.12 2.13 4.4 2.37 6.88.63 2.4.68 4.83.16 7.28z" fill="#ec781b"/><g fill="#f4873d"><path d="m275.93 439.724c1.442-1.78 2.468-4.059 2.254-6.406-.138-.766-.275-1.533-.413-2.299-.512-1.572-1.383-2.91-2.613-4.014-1.458-1.56-4.351-2.351-6.406-2.254-2.235.106-4.881 1.257-6.313 3.025-1.442 1.78-2.468 4.059-2.254 6.406.138.766.275 1.533.413 2.299.511 1.572 1.382 2.91 2.613 4.014 1.458 1.56 4.352 2.351 6.406 2.254 2.235-.105 4.881-1.257 6.313-3.025z"/><path d="m296.945 430.86c-7.012-7.504-17.588 4.494-10.602 11.971 7.013 7.505 17.589-4.494 10.602-11.971z"/><path d="m198.831 488.645c-2.113-2.261-5.299 1.354-3.194 3.607 2.112 2.26 5.299-1.354 3.194-3.607z"/><path d="m227.43 510.42c-6.18-.68-12.29-1.59-18.32-2.71-3.09-5.45-6.05-13.6-12.4-14.99-2.37-.52-2.06-4.05.34-4.19 4.61-.27 8.99 1.52 12.33 4.74 4.97 4.79 6.12 12.6 14.04 13.57 2.33.28 3.61 1.79 4.01 3.58z"/><path d="m239.62 499.852c-.016-.053-.034-.105-.05-.158-.802-2.526-3.662-4.036-6.199-3.207-1.144.374-2.453 1.316-2.915 2.491-.459 1.167-.747 2.473-.292 3.708.436 1.183 1.271 2.432 2.491 2.915.053.021.107.042.16.063 1.856.735 3.743.66 5.319-.696 1.445-1.242 2.073-3.266 1.486-5.116z"/></g><path d="m237.84 368.818c.034-.043.068-.086.102-.13 1.998-2.543 2.564-6.159.662-8.961-.028-.041-.056-.082-.083-.123-1.731-2.55-4.726-3.821-7.728-3.282-3.417.613-5.918 3.381-6.197 6.835-.246 3.032 1.346 6.032 4.118 7.421 1.148.575 2.51.806 3.784.8 1.819-.008 4.213-1.122 5.342-2.56z" fill="#ec781b"/><path d="m250.936 361.848.112-.759c.288-1.955-.917-3.792-2.977-3.959-1.904-.154-3.728 1.439-3.571 3.433.02.258.041.515.061.773.127 1.613 1.344 2.902 2.965 3.033 1.51.121 3.175-.926 3.41-2.521z" fill="#ec781b"/><path d="m120.617 253.313c1.757.585 3.561.701 5.408.359 2.613-.491 5.114-1.956 7.727-2.66 1.219-.336 2.831-.715 4.098-.535 1.326.196 2.614 1.053 3.892 1.451 2.555.797 5.132 1.498 7.718 2.098 5.148 1.2 9.826 1.98 14.352 4.932 1.975 1.292 3.547 3.367 5.74 4.223 1.06.782 2.236 1.249 3.535 1.392 1.198.452 2.422.584 3.684.403 1.187.074 2.341-.055 3.465-.358 1.783-.267 3.406-.907 4.864-1.935 1.612-.778 2.942-1.896 4.038-3.318 1.851-2.401 4.57-4.329 7.075-5.992 2.128-1.411 5.013-1.967 7.381-3.006 5.236-2.281 10.2-5.243 14.605-8.896 3.203-2.658 6.112-5.661 8.618-8.973 1.479-1.949 2.622-4.025 3.744-6.112.144-.261.277-.527.42-.788.659-1.24 1.313-2.47 2.042-3.69 4.313-7.225 12.89-10.95 16.271-18.84.861-2.017 1.18-4.093.955-6.227.132-2.129-.258-4.173-1.18-6.136-2.271-5.923-9.053-8.351-13.557-12.224-4.606-3.963-6.616-10.567-9.812-15.621-4.64-7.332-10.359-13.966-16.798-19.774-3.408-3.085-7.029-5.931-10.82-8.542-3.604-2.478-8.119-4.706-10.383-8.617-1.662-2.905-1.004-5.769-1.474-8.877-.459-3.103-1.696-5.902-3.826-8.242-.527-.596-1.544-1.516-1.773-1.75.011-.021-1.214-1.325-1.811-1.729-1.368-.75-2.721-1.505-4.089-2.254-1.458-.356-2.917-.712-4.375-1.067l-4.45.093c-2.31.257-4.38 1.045-6.231 2.356-1.442.624-2.628 1.561-3.564 2.823-3.468 4.654-6.771 8.046-12.887 8.172-7.537.148-14.759.04-22.22 1.582-9.175 1.884-17.046 2.862-25.799-1.508-.724-.362-1.464-.532-2.225-.526-.357-.032-4.12.045-4.481.104-.99.144-3.379.933-4.332 1.216-2.815 1.215-5.124 3.042-6.959 5.491-1.457 1.826-2.372 3.871-2.711 6.122-.701 2.097-.849 4.258-.438 6.472.886 4.752 4.001 8.396 3.387 13.49-.08.719-.207 1.426-.366 2.118-.027.16-.058.303-.096.458-1.057 4.514-3.226 8.831-3.724 13.585-.254 2.454-1.025 4.849-2.194 7.032-1.111 2.092-2.771 3.578-4.085 5.49-2.84 4.143-5.594 8.7-6.119 13.799-.471 4.594 1.027 9.346 4.031 12.841 3.062 3.538 6.693 4.526 10.94 5.875 3.721 1.18 8.198 2.071 11.281 4.608 2.54 2.08 4.372 5.23 6.567 7.682 2.897 3.229 6.018 6.277 9.314 9.107 1.832 1.58 3.924 2.904 5.453 4.798 1.832 2.245 1.444 3.821 1.494 6.466.209 1.873.854 3.566 1.913 5.066.517 1.176 1.273 2.139 2.301 2.905.81 1.016 1.821 1.761 3.019 2.239 1.03.755 2.185 1.212 3.447 1.349zm28.192-40.369c-1.344-4.529-1.788-9.021-4.387-13.112-2.621-4.129-6.891-7.112-11.591-8.382-1.996-.531-4.94-1.189-6.898-.411-2.171.858-3.597 2.488-6.152 2.01-3.093-.573-4.708-5.41-5.848-8.002-2.744-6.252-3.685-13.559-.543-19.852.627-1.256 1.361-2.407 2.175-3.45 8.016-10.138 24.51-10.243 36.082-7.684 3.401.754 7.127 1.337 7.779 5.387.422 2.618.588 5.242.967 7.866.427 1.49.843 2.975 1.269 4.465 1.295 3.001 3.25 5.48 5.88 7.432 1.943 1.569 4.131 2.542 6.543 2.908 2.246.749 4.551.902 6.924.465 1.895-.358 3.709-1.434 5.534-1.759 1.943-.347 4.28 1.046 5.702 2.222 3.61 2.973 5.369 6.672 6.111 11.232.491 3.092.392 6.275-.448 9.261-.313 1.107-.723 2.193-1.244 3.237-2.802 5.611-8.25 9.17-14.125 10.945-7.466 2.245-15.572 1.935-23.142.39-3.512-.717-9.383-1.108-10.588-5.168z" fill="#f79f63"/><path d="m120.617 253.313c1.757.585 3.561.701 5.408.359 2.613-.491 5.114-1.956 7.727-2.66 1.219-.336 2.831-.715 4.098-.535 1.326.196 2.614 1.053 3.892 1.451 2.555.797 5.132 1.498 7.718 2.098 5.148 1.2 9.826 1.98 14.352 4.932 1.975 1.292 3.547 3.367 5.74 4.223 1.06.782 2.236 1.249 3.535 1.392 1.198.452 2.422.584 3.684.403 1.187.074 2.341-.055 3.465-.358 1.783-.267 3.406-.907 4.864-1.935 1.612-.778 2.942-1.896 4.038-3.318 1.851-2.401 4.57-4.329 7.075-5.992 2.128-1.411 5.013-1.967 7.381-3.006 5.236-2.281 10.2-5.243 14.605-8.896 3.203-2.658 6.112-5.661 8.618-8.973 1.479-1.949 2.622-4.025 3.744-6.112.144-.261.277-.527.42-.788-3.544-9.206-5.285-19.094-5.088-28.946.083-4.003.32-8.5-2.353-11.484-2.397-2.687-6.405-3.238-9.227-5.472-3.978-3.144-4.869-8.684-6.841-13.074-2.329-5.22-5.939-9.417-10.572-12.768-4.536-3.276-9.653-5.658-14.731-8.008-6.319-2.929-12.649-5.864-18.969-8.793-3.412-1.584-6.883-3.184-10.599-3.762-5.398-.833-10.911.538-16.35.11-4.365-.344-8.554-1.837-12.882-2.495-6.132-.933-12.385-.185-18.559.563-4.492.551-9.159 1.16-13.006 3.562-4.038 2.546-6.66 6.758-9.745 10.405-1.447 1.698-3.117 3.339-4.985 4.574-.027.16-.058.303-.096.458-1.057 4.514-3.226 8.831-3.724 13.585-.254 2.454-1.025 4.849-2.194 7.032-1.111 2.092-2.771 3.578-4.085 5.49-2.84 4.143-5.594 8.7-6.119 13.799-.471 4.594 1.027 9.346 4.031 12.841 3.062 3.538 6.693 4.526 10.94 5.875 3.721 1.18 8.198 2.071 11.281 4.608 2.54 2.08 4.372 5.23 6.567 7.682 2.897 3.229 6.018 6.277 9.314 9.107 1.832 1.58 3.924 2.904 5.453 4.798 1.832 2.245 1.444 3.821 1.494 6.466.209 1.873.854 3.566 1.913 5.066.517 1.176 1.273 2.139 2.301 2.905.81 1.016 1.821 1.761 3.019 2.239 1.031.758 2.186 1.215 3.448 1.352zm28.192-40.369c-1.344-4.529-1.788-9.021-4.387-13.112-2.621-4.129-6.891-7.112-11.591-8.382-1.996-.531-4.94-1.189-6.898-.411-2.171.858-3.597 2.488-6.152 2.01-3.093-.573-4.708-5.41-5.848-8.002-2.744-6.252-3.685-13.559-.543-19.852.627-1.256 1.361-2.407 2.175-3.45 8.016-10.138 24.51-10.243 36.082-7.684 3.401.754 7.127 1.337 7.779 5.387.422 2.618.588 5.242.967 7.866.427 1.49.843 2.975 1.269 4.465 1.295 3.001 3.25 5.48 5.88 7.432 1.943 1.569 4.131 2.542 6.543 2.908 2.246.749 4.551.902 6.924.465 1.895-.358 3.709-1.434 5.534-1.759 1.943-.347 4.28 1.046 5.702 2.222 3.61 2.973 5.369 6.672 6.111 11.232.491 3.092.392 6.275-.448 9.261-.313 1.107-.723 2.193-1.244 3.237-2.802 5.611-8.25 9.17-14.125 10.945-7.466 2.245-15.572 1.935-23.142.39-3.512-.717-9.383-1.108-10.588-5.168z" fill="#f4873d"/><path d="m117.167 251.963c-1.198-.478-2.209-1.223-3.019-2.239-1.028-.766-1.784-1.729-2.301-2.905-1.06-1.5-1.705-3.193-1.913-5.066-.049-2.645.339-4.221-1.494-6.466-1.528-1.894-3.621-3.218-5.453-4.798-3.296-2.83-6.417-5.878-9.314-9.107-2.194-2.452-4.027-5.602-6.567-7.682-3.083-2.537-7.56-3.429-11.281-4.608-4.248-1.35-7.878-2.338-10.94-5.875-3.004-3.495-4.502-8.247-4.031-12.841.524-5.099 3.279-9.656 6.119-13.799 1.314-1.911 2.973-3.397 4.085-5.49 1.17-2.183 1.94-4.578 2.194-7.032.498-4.753 2.667-9.071 3.724-13.585 5.206 1.642 10.221 4.279 15.634 3.962 3.177-.183 6.221-1.403 9.382-1.767 6.701-.791 10.243 4.183 13.571 9.078-.813 1.044-1.548 2.194-2.175 3.45-3.142 6.293-2.202 13.6.543 19.852 1.141 2.591 2.756 7.429 5.848 8.002 2.555.478 3.981-1.152 6.152-2.01 1.958-.778 4.902-.12 6.898.411 4.7 1.27 8.97 4.253 11.591 8.382 2.599 4.091 3.043 8.583 4.387 13.112 1.205 4.06 7.076 4.451 10.589 5.168 7.569 1.545 15.675 1.854 23.142-.39 5.875-1.775 11.323-5.334 14.125-10.945.521-1.043.93-2.129 1.244-3.237 2.401.627 4.818 1.221 7.234 1.763 3.572.812 7.351 1.609 10.029 4.104 2.466 2.282 3.59 5.624 5.343 8.481 2.328 3.809 5.922 6.788 10.043 8.5-1.122 2.087-2.265 4.163-3.744 6.112-2.505 3.312-5.415 6.315-8.618 8.973-4.405 3.654-9.369 6.615-14.605 8.896-2.368 1.039-5.252 1.594-7.381 3.006-2.506 1.662-5.224 3.59-7.075 5.992-1.096 1.422-2.426 2.54-4.038 3.318-1.458 1.028-3.081 1.668-4.864 1.935-1.123.304-2.278.432-3.465.358-1.262.182-2.486.049-3.684-.403-1.299-.143-2.475-.611-3.535-1.392-2.193-.856-3.764-2.931-5.74-4.223-4.526-2.952-9.204-3.731-14.352-4.932-2.587-.6-5.163-1.301-7.718-2.098-1.278-.399-2.566-1.255-3.892-1.451-1.267-.18-2.879.199-4.098.535-2.613.704-5.114 2.169-7.727 2.66-1.847.342-3.651.225-5.408-.359-1.257-.137-2.412-.594-3.445-1.35z" fill="#ec781b"/><path d="m132.516 211.957c1.559.525 3.35.644 4.876-.087.481-.285.963-.569 1.444-.853.93-.738 1.612-1.659 2.048-2.764.685-1.372.493-3.518-.087-4.876-.631-1.478-2.068-2.97-3.617-3.491-1.559-.525-3.35-.644-4.876.087-.481.285-.963.569-1.444.853-.93.738-1.613 1.659-2.048 2.764-.685 1.372-.493 3.518.087 4.876.631 1.477 2.068 2.97 3.617 3.491z" fill="#f4873d"/><path d="m143.744 223.881c3.295-6.598-7.429-10.712-10.712-4.138-3.295 6.599 7.429 10.713 10.712 4.138z" fill="#f4873d"/><path d="m80.285 172.315c.993-1.988-2.238-3.228-3.227-1.247-.992 1.988 2.238 3.228 3.227 1.247z" fill="#f4873d"/><path d="m74.197 193.422c-1.333-5.577 3.637-8.303 5.618-12.849 1.331-3.054 1.439-6.448.1-9.485-.695-1.576-3.147-.903-2.901.822.715 5.025-4.963 9.351-7.704 12.994-2.225 2.958-3.274 5.945-2.795 9.662.646 5.024 8.834 3.674 7.682-1.144z" fill="#f4873d"/><path d="m82.956 202.574c.031-.024.062-.049.094-.073 1.5-1.172 1.799-3.475.606-4.975-.538-.676-1.5-1.321-2.406-1.338-.901-.017-1.852.117-2.569.732-.687.589-1.318 1.464-1.338 2.406-.001.041-.002.083-.002.124-.03 1.433.493 2.684 1.8 3.406 1.197.66 2.717.577 3.815-.282z" fill="#f4873d"/><path d="m170.702 168.567c.038.012.075.024.113.036 2.212.708 4.787.183 6.196-1.798.021-.029.041-.058.062-.087 1.283-1.804 1.388-4.138.274-6.023-1.268-2.146-3.757-3.136-6.152-2.46-2.102.594-3.723 2.416-3.963 4.63-.1.917.086 1.891.409 2.747.461 1.222 1.81 2.554 3.061 2.955z" fill="#ec781b"/><path d="m178.672 175.635.539-.115c1.388-.296 2.323-1.567 1.919-2.995-.373-1.32-1.902-2.149-3.204-1.544-.168.078-.337.156-.505.235-1.053.489-1.616 1.631-1.299 2.755.296 1.047 1.418 1.905 2.55 1.664z" fill="#ec781b"/><path d="m346.725 166.262c-.505 1.346-.649 2.743-.438 4.187.304 2.043 1.368 4.027 1.837 6.076.225.956.471 2.219.294 3.197-.191 1.023-.894 1.998-1.241 2.978-.694 1.96-1.314 3.939-1.856 5.929-1.083 3.96-1.826 7.569-4.251 10.995-1.061 1.495-2.718 2.654-3.447 4.331-.638.799-1.036 1.699-1.185 2.703-.386.917-.525 1.863-.421 2.847-.092.919-.027 1.819.176 2.7.155 1.392.603 2.67 1.358 3.832.556 1.274 1.385 2.34 2.456 3.232 1.81 1.507 3.226 3.675 4.442 5.669 1.033 1.693 1.379 3.949 2.116 5.818 1.616 4.131 3.769 8.072 6.475 11.599 1.968 2.564 4.214 4.911 6.711 6.953 1.469 1.205 3.047 2.154 4.634 3.086.198.119.401.23.599.349.943.548 1.879 1.092 2.804 1.694 5.481 3.56 8.119 10.328 14.144 13.185 1.541.728 3.143 1.036 4.806.925 1.649.165 3.246-.077 4.798-.735 4.664-1.588 6.749-6.781 9.888-10.163 3.212-3.459 8.397-4.824 12.414-7.156 5.828-3.385 11.146-7.63 15.844-12.456 2.495-2.554 4.811-5.281 6.949-8.147 2.03-2.725 3.892-6.163 6.994-7.805 2.304-1.205 4.508-.609 6.934-.882 2.422-.265 4.631-1.142 6.51-2.727.478-.392 1.222-1.154 1.411-1.325.016.009 1.064-.903 1.395-1.354.622-1.04 1.248-2.067 1.87-3.107.319-1.122.638-2.243.957-3.365l.059-3.457c-.131-1.8-.682-3.43-1.645-4.906-.441-1.138-1.134-2.086-2.086-2.85-3.51-2.829-6.046-5.493-5.963-10.244.107-5.854.404-11.457-.573-17.294-1.192-7.177-1.719-13.316 1.931-19.981.302-.551.456-1.121.474-1.711.035-.276.087-3.199.052-3.482-.083-.773-.625-2.65-.816-3.398-.86-2.221-2.21-4.067-4.057-5.563-1.375-1.185-2.934-1.955-4.672-2.285-1.607-.606-3.28-.785-5.011-.531-3.715.548-6.635 2.859-10.571 2.231-.556-.083-1.101-.203-1.634-.347-.123-.025-.234-.054-.353-.088-3.473-.953-6.76-2.764-10.435-3.291-1.897-.27-3.734-.938-5.394-1.911-1.591-.924-2.696-2.256-4.141-3.332-3.132-2.326-6.588-4.599-10.531-5.156-3.552-.501-7.284.522-10.086 2.75-2.836 2.273-3.71 5.062-4.883 8.319-1.025 2.854-1.849 6.302-3.909 8.62-1.689 1.91-4.188 3.24-6.156 4.871-2.592 2.154-5.05 4.486-7.343 6.961-1.28 1.375-2.37 2.96-3.885 4.091-1.797 1.356-3.008 1.009-5.063.969-1.46.107-2.793.558-3.989 1.336-.928.367-1.698.925-2.323 1.7-.813.598-1.42 1.362-1.827 2.277-.615.781-1.003 1.664-1.147 2.639zm30.504 23.073c3.555-.91 7.055-1.122 10.307-3.019 3.282-1.913 5.724-5.139 6.848-8.75.471-1.534 1.069-3.799.523-5.342-.602-1.71-1.825-2.865-1.379-4.834.536-2.384 4.338-3.495 6.384-4.304 4.934-1.946 10.633-2.461 15.425.164.957.524 1.828 1.128 2.614 1.79 7.633 6.521 7.228 19.326 4.901 28.234-.685 2.618-1.248 5.493-4.411 5.879-2.045.25-4.086.302-6.134.519-1.169.287-2.334.566-3.503.854-2.368.917-4.35 2.361-5.942 4.345-1.275 1.462-2.095 3.132-2.45 4.993-.648 1.722-.835 3.506-.565 5.361.222 1.481 1.003 2.921 1.202 4.348.212 1.518-.938 3.291-1.893 4.36-2.414 2.715-5.337 3.971-8.899 4.412-2.415.29-4.882.119-7.176-.62-.85-.276-1.681-.626-2.476-1.061-4.273-2.34-6.874-6.674-8.079-11.287-1.522-5.861-1.043-12.144.379-17.974.66-2.707 1.137-7.252 4.324-8.068z" fill="#f79f63"/><path d="m346.725 166.262c-.505 1.346-.649 2.743-.438 4.187.304 2.043 1.368 4.027 1.837 6.076.225.956.471 2.219.294 3.197-.191 1.023-.894 1.998-1.241 2.978-.694 1.96-1.314 3.939-1.856 5.929-1.083 3.96-1.826 7.569-4.251 10.995-1.061 1.495-2.718 2.654-3.447 4.331-.638.799-1.036 1.699-1.185 2.703-.386.917-.525 1.863-.421 2.847-.092.919-.027 1.819.176 2.7.155 1.392.603 2.67 1.358 3.832.556 1.274 1.385 2.34 2.456 3.232 1.81 1.507 3.226 3.675 4.442 5.669 1.033 1.693 1.379 3.949 2.116 5.818 1.616 4.131 3.769 8.072 6.475 11.599 1.968 2.564 4.214 4.911 6.711 6.953 1.469 1.205 3.047 2.154 4.634 3.086.198.119.401.23.599.349 7.25-2.48 14.977-3.539 22.618-3.096 3.104.182 6.588.499 8.984-1.488 2.156-1.781 2.702-4.876 4.519-7.001 2.557-2.995 6.884-3.524 10.349-4.925 4.12-1.654 7.485-4.333 10.222-7.83 2.677-3.425 4.676-7.326 6.65-11.199 2.46-4.819 4.924-9.645 7.384-14.464 1.33-2.602 2.674-5.249 3.233-8.116.805-4.165-.096-8.485.396-12.695.395-3.378 1.678-6.586 2.316-9.925.905-4.732.508-9.608.109-14.422-.295-3.503-.63-7.144-2.382-10.2-1.857-3.209-5.049-5.369-7.789-7.871-1.276-1.173-2.5-2.518-3.404-4.004-.123-.025-.234-.054-.353-.088-3.473-.953-6.76-2.764-10.435-3.291-1.897-.27-3.734-.938-5.394-1.911-1.591-.924-2.696-2.256-4.141-3.332-3.132-2.326-6.588-4.599-10.531-5.156-3.552-.501-7.284.522-10.086 2.75-2.836 2.273-3.71 5.062-4.883 8.319-1.025 2.854-1.849 6.302-3.909 8.62-1.689 1.91-4.188 3.24-6.156 4.871-2.592 2.154-5.05 4.486-7.343 6.961-1.28 1.375-2.37 2.96-3.885 4.091-1.797 1.356-3.008 1.009-5.063.969-1.46.107-2.793.558-3.989 1.336-.928.367-1.698.925-2.323 1.7-.813.598-1.42 1.362-1.827 2.277-.614.781-1.002 1.664-1.146 2.639zm30.504 23.073c3.555-.91 7.055-1.122 10.307-3.019 3.282-1.913 5.724-5.139 6.848-8.75.471-1.534 1.069-3.799.523-5.342-.602-1.71-1.825-2.865-1.379-4.834.536-2.384 4.338-3.495 6.384-4.304 4.934-1.946 10.633-2.461 15.425.164.957.524 1.828 1.128 2.614 1.79 7.633 6.521 7.228 19.326 4.901 28.234-.685 2.618-1.248 5.493-4.411 5.879-2.045.25-4.086.302-6.134.519-1.169.287-2.334.566-3.503.854-2.368.917-4.35 2.361-5.942 4.345-1.275 1.462-2.095 3.132-2.45 4.993-.648 1.722-.835 3.506-.565 5.361.222 1.481 1.003 2.921 1.202 4.348.212 1.518-.938 3.291-1.893 4.36-2.414 2.715-5.337 3.971-8.899 4.412-2.415.29-4.882.119-7.176-.62-.85-.276-1.681-.626-2.476-1.061-4.273-2.34-6.874-6.674-8.079-11.287-1.522-5.861-1.043-12.144.379-17.974.66-2.707 1.137-7.252 4.324-8.068z" fill="#f4873d"/><path d="m347.874 163.624c.407-.916 1.014-1.679 1.827-2.277.625-.775 1.395-1.334 2.323-1.7 1.196-.778 2.528-1.229 3.989-1.336 2.055.04 3.266.387 5.063-.969 1.515-1.13 2.605-2.716 3.885-4.091 2.294-2.475 4.751-4.807 7.343-6.961 1.968-1.631 4.467-2.961 6.156-4.871 2.06-2.318 2.884-5.767 3.909-8.62 1.173-3.257 2.047-6.046 4.883-8.319 2.801-2.229 6.534-3.251 10.086-2.75 3.943.557 7.399 2.83 10.531 5.156 1.445 1.076 2.549 2.408 4.141 3.332 1.66.972 3.497 1.641 5.394 1.911 3.675.526 6.962 2.337 10.435 3.291-1.428 3.993-3.623 7.808-3.536 12.018.048 2.472.906 4.87 1.095 7.335.417 5.224-3.549 7.827-7.446 10.267-.786-.662-1.657-1.266-2.614-1.79-4.792-2.624-10.492-2.11-15.425-.164-2.045.809-5.848 1.92-6.384 4.304-.446 1.969.777 3.124 1.379 4.834.546 1.543-.052 3.808-.523 5.342-1.124 3.611-3.566 6.838-6.848 8.75-3.252 1.897-6.752 2.109-10.307 3.019-3.187.816-3.663 5.361-4.323 8.067-1.422 5.83-1.901 12.113-.379 17.974 1.205 4.613 3.806 8.946 8.079 11.287.794.435 1.625.785 2.476 1.061-.557 1.845-1.09 3.703-1.582 5.563-.736 2.748-1.465 5.658-3.481 7.664-1.844 1.847-4.471 2.621-6.741 3.897-3.026 1.695-5.444 4.397-6.894 7.545-1.587-.932-3.165-1.881-4.634-3.086-2.497-2.042-4.742-4.389-6.711-6.953-2.706-3.527-4.859-7.467-6.475-11.599-.737-1.869-1.083-4.124-2.116-5.818-1.216-1.994-2.633-4.161-4.442-5.669-1.071-.892-1.9-1.958-2.456-3.232-.755-1.162-1.204-2.44-1.358-3.832-.203-.881-.269-1.781-.176-2.7-.104-.985.035-1.931.421-2.847.149-1.004.547-1.903 1.185-2.703.729-1.677 2.386-2.836 3.447-4.331 2.424-3.426 3.168-7.035 4.251-10.995.542-1.99 1.162-3.97 1.856-5.929.347-.98 1.05-1.955 1.241-2.978.177-.978-.069-2.241-.294-3.197-.469-2.049-1.533-4.033-1.837-6.076-.211-1.444-.068-2.84.438-4.187.144-.974.532-1.857 1.149-2.637z" fill="#ec781b"/><path d="m378.475 176.717c-.453 1.195-.599 2.581-.076 3.787.207.382.413.764.62 1.146.545.744 1.24 1.301 2.085 1.671 1.045.572 2.716.486 3.787.076 1.165-.446 2.366-1.518 2.817-2.705.453-1.195.599-2.581.076-3.787-.207-.382-.413-.764-.62-1.146-.545-.744-1.24-1.301-2.085-1.671-1.045-.572-2.716-.486-3.788-.076-1.164.446-2.366 1.518-2.816 2.705z" fill="#f4873d"/><path d="m368.888 185.081c5.025 2.752 8.534-5.451 3.527-8.193-5.024-2.752-8.533 5.451-3.527 8.193z" fill="#f4873d"/><path d="m410.785 137.343c1.514.829 2.571-1.642 1.063-2.468-1.514-.829-2.572 1.642-1.063 2.468z" fill="#f4873d"/><path d="m394.581 131.996c4.368-.871 6.337 3.067 9.808 4.739 2.331 1.123 4.963 1.307 7.36.357 1.244-.493.794-2.416-.552-2.276-3.922.406-7.112-4.128-9.859-6.363-2.23-1.815-4.518-2.717-7.418-2.454-3.92.353-3.113 6.749.661 5.997z" fill="#f4873d"/><path d="m387.219 138.524c.018.025.036.05.054.075.866 1.199 2.645 1.499 3.844.617.541-.398 1.07-1.125 1.11-1.828.04-.699-.036-1.441-.492-2.016-.437-.551-1.098-1.066-1.829-1.11-.032-.002-.064-.004-.096-.006-1.111-.066-2.098.303-2.697 1.297-.548.912-.528 2.094.106 2.971z" fill="#f4873d"/><path d="m411.03 207.636c-.011.029-.021.058-.031.087-.615 1.696-.284 3.711 1.213 4.863l.066.051c1.362 1.049 3.171 1.199 4.667.39 1.703-.921 2.545-2.824 2.09-4.703-.399-1.649-1.766-2.961-3.477-3.213-.709-.104-1.47.011-2.144.236-.963.322-2.036 1.33-2.384 2.289z" fill="#ec781b"/><path d="m405.308 213.614.073.422c.189 1.086 1.148 1.849 2.268 1.578 1.036-.251 1.724-1.413 1.293-2.442-.056-.133-.112-.266-.167-.399-.349-.832-1.219-1.303-2.1-1.089-.821.198-1.521 1.044-1.367 1.93z" fill="#ec781b"/><path d="m292.353 169.464c-.082-.824-.357-1.577-.816-2.261-.185-.407-.372-.813-.553-1.221-.34-.648-.68-1.295-1.019-1.943-.492-.541-.985-1.082-1.477-1.622-.623-.402-1.245-.805-1.868-1.208-1.061-.55-2.175-.798-3.342-.745-.763-.132-1.507-.065-2.234.201-.751.074-1.436.327-2.055.758-.701.264-1.295.68-1.783 1.248-.891.684-1.563 1.553-2.019 2.606-.269.602-.543 1.202-.819 1.801-.076.118-.153.236-.229.355l-.792 2.489c-.283 1.312-.224 2.592.174 3.84.085.853.371 1.63.86 2.333.299.796.772 1.47 1.417 2.024.493.7 1.126 1.235 1.898 1.606.671.566 1.44.926 2.305 1.081 1.224.51 2.509.678 3.854.503.82-.188 1.641-.375 2.461-.563.735-.386 1.47-.772 2.205-1.157.614-.559 1.228-1.118 1.842-1.677.457-.707.914-1.414 1.371-2.12.264-.83.528-1.659.792-2.489.284-1.31.226-2.591-.173-3.839z" fill="#f79f63"/><path d="m315.278 194.827c-.171-1.229-.596-2.383-1.264-3.428-.517-.8-1.187-1.419-2.01-1.857-.762-.589-1.631-.951-2.608-1.086-.875-.251-1.338-.345-2.501-.236-.694.066-1.608.364-2.371.546-.542.285-1.084.569-1.626.853-.802.519-1.424 1.191-1.863 2.018-.417.495-.683 1.062-.797 1.699-.376.903-.5 1.85-.371 2.842.172 1.233.599 2.392 1.268 3.441 1.022 1.602 2.857 2.526 4.635 2.953.863.207 1.442.311 2.505.21.763-.072 1.595-.35 2.362-.57.54-.283 1.08-.567 1.62-.85.8-.517 1.418-1.187 1.857-2.011.416-.493.68-1.058.794-1.693.375-.898.499-1.842.37-2.831z" fill="#f79f63"/><path d="m155.999 300.58c-.116-1.172-.511-2.242-1.183-3.208-.677-1.599-1.71-2.949-3.101-4.049-.972-.628-1.944-1.257-2.916-1.885-1.141-.363-2.282-.726-3.423-1.089-1.196-.049-2.392-.098-3.589-.147-1.128.258-2.256.516-3.384.774l-3.033 1.591c-1.497.968-2.655 2.222-3.475 3.763-.778.923-1.273 1.979-1.487 3.169-.702 1.684-.932 3.45-.692 5.3-.001.08-.002.16-.003.241.103 1.753.616 3.354 1.539 4.804.663 1.568 1.677 2.891 3.04 3.969.953.616 1.906 1.232 2.858 1.848 2.182 1.02 4.473 1.424 6.873 1.212.097-.001.194-.002.29-.003l3.384-.774c1.011-.53 2.022-1.061 3.032-1.591 1.497-.968 2.655-2.222 3.475-3.763.778-.923 1.273-1.979 1.487-3.169.52-1.113.726-2.282.618-3.505.209-1.193.105-2.355-.31-3.488z" fill="#f79f63"/><path d="m393.949 330.478c-.12-1.21-.527-2.315-1.221-3.313-.425-1.13-1.095-2.088-2.012-2.873-1.103-1.435-2.503-2.52-4.201-3.254-.09-.043-.18-.085-.27-.128-.061-.039-.121-.079-.182-.118l-3.604-1.147c-1.259-.052-2.519-.103-3.779-.155-1.188.272-2.376.543-3.564.815-1.064.559-2.129 1.117-3.193 1.676l-2.667 2.427c-.661 1.023-1.323 2.047-1.984 3.07-.904 1.743-1.312 3.575-1.224 5.493-.217 1.254-.107 2.478.33 3.671.123 1.234.538 2.36 1.245 3.378.433 1.152 1.117 2.129 2.051 2.93.715 1.013 1.631 1.788 2.749 2.326.972.819 2.084 1.341 3.337 1.566 1.172.548 2.402.765 3.691.651 1.254.217 2.478.107 3.671-.33 1.82-.256 3.478-.951 4.975-2.083l.036-.026c.126-.066.251-.132.376-.198.872-.793 1.743-1.587 2.615-2.38.649-1.004 1.297-2.007 1.946-3.011.887-1.71 1.287-3.505 1.201-5.387.215-1.23.107-2.43-.322-3.6z" fill="#f79f63"/></svg>