<svg id="Capa_1" enable-background="new 0 0 512 512" height="512" viewBox="0 0 512 512" width="512" xmlns="http://www.w3.org/2000/svg"><path d="m512 255.631c.13 92.443-48.742 173.479-122.08 218.579l-90.875 21.704c-41.601 9.936-85.224 7.183-125.247-7.902l-70.628-26.622c-62.62-46.67-103.17-121.29-103.17-205.39 0-141.228 114.374-255.754 255.544-256 140.967-.245 256.257 114.665 256.456 255.631z" fill="#b6e337"/><path d="m512 256c0 87.11-43.52 164.07-110 210.31-3.95 2.74-7.97 5.38-12.08 7.9l-90.873 21.703c-41.603 9.936-85.228 7.183-125.252-7.904l-70.615-26.619h-.01c-62.61-46.67-103.17-121.3-103.17-205.39 0-46.22 12.25-89.57 33.68-127 44.12 77.07 127.16 129 222.32 129s178.21-51.93 222.32-129c21.43 37.43 33.68 80.78 33.68 127z" fill="#6cdc2d"/><path d="m167.734 234.785-47.58 12.334-21.093-123.665 27.034-7.007z" fill="#ffe853"/><path d="m167.734 234.785-23.79 6.167-31.366-121.001 13.517-3.504z" fill="#fed110"/><path d="m196.281 196.452 20.501 79.087-119.7 31.029-20.502-79.086c-3.025-11.668 3.982-23.577 15.649-26.602l77.45-20.077c11.668-3.024 23.577 3.982 26.602 15.649z" fill="#ff9f00"/><path d="m196.281 196.452 20.501 79.087-59.85 15.515-25.978-100.213 38.725-10.038c11.668-3.024 23.577 3.982 26.602 15.649z" fill="#f4873d"/><path d="m312.77 505.68c-9.3 2.11-18.8 3.71-28.46 4.77-9.3 1.02-18.74 1.55-28.31 1.55-7 0-13.93-.28-20.79-.84-7.4-.59-14.71-1.5-21.92-2.72-8.97-1.5-17.78-3.47-26.4-5.88-9.07-2.54-17.94-5.56-26.57-9.04-20.5-8.27-39.68-19.11-57.15-32.13l-43.38-184.81c-3.09-13.12 4.87-26.3 17.92-29.68l42.86-11.11 20.65-5.35 63.51-16.47c13.04-3.38 26.4 4.27 30.08 17.24z" fill="#ffe853"/><path d="m312.77 505.68c-9.3 2.11-18.8 3.71-28.46 4.77-9.3 1.02-18.74 1.55-28.31 1.55-7 0-13.93-.28-20.79-.84-7.4-.59-14.71-1.5-21.92-2.72-8.97-1.5-17.78-3.47-26.4-5.88-9.07-2.54-17.94-5.56-26.57-9.04l-57.67-228.05c-3.08-13.12 4.87-26.3 17.92-29.68l20.65-5.35 63.51-16.47c13.04-3.38 26.4 4.27 30.08 17.24z" fill="#fed110"/><path d="m312.77 505.68c-9.3 2.11-18.8 3.71-28.46 4.77-9.3 1.02-18.74 1.55-28.31 1.55-7 0-13.93-.28-20.79-.84-7.4-.59-14.71-1.5-21.92-2.72l-72.07-278 63.51-16.47c13.04-3.38 26.4 4.27 30.08 17.24z" fill="#ff9f00"/><path d="m368.686 246.854-47.958-10.769 37.742-119.638 27.249 6.118z" fill="#fe3345"/><path d="m368.686 246.854-23.979-5.384 27.387-121.964 13.625 3.059z" fill="#de1263"/><path d="m411.594 225.801-17.901 79.716-120.652-27.093 17.9-79.716c2.641-11.76 14.315-19.153 26.075-16.512l78.065 17.53c11.761 2.641 19.153 14.314 16.513 26.075z" fill="#de1263"/><path d="m411.594 225.801-17.901 79.716-60.326-13.546 22.682-101.01 39.033 8.765c11.76 2.641 19.152 14.314 16.512 26.075z" fill="#bc0e5c"/><path d="m429.98 274.32-40.06 199.89c-31.37 19.3-67.21 32.02-105.61 36.24-9.3 1.02-18.74 1.55-28.31 1.55-7 0-13.93-.28-20.79-.84-16.6-1.33-32.76-4.25-48.32-8.6l66.68-267.85c3.25-13.08 16.35-21.17 29.5-18.21l43.1 9.68c.04 0 .07.01.11.02l20.81 4.68 64.01 14.37c13.15 2.95 21.54 15.86 18.88 29.07z" fill="#ff6477"/><path d="m429.98 274.32-40.06 199.89c-31.37 19.3-67.21 32.02-105.61 36.24-9.3 1.02-18.74 1.55-28.31 1.55-7 0-13.93-.28-20.79-.84l61.56-266.75c3.25-13.04 16.29-21.12 29.4-18.23.04 0 .07.01.11.02l20.81 4.67 64.01 14.38c13.15 2.95 21.54 15.86 18.88 29.07z" fill="#fe3345"/><path d="m429.98 274.32-40.06 199.89c-31.37 19.3-67.21 32.02-105.61 36.24l62.78-279.57v-.01l64.01 14.38c13.15 2.95 21.54 15.86 18.88 29.07z" fill="#de1263"/></svg>