<svg id="Capa_1" enable-background="new 0 0 512 512" height="512" viewBox="0 0 512 512" width="512" xmlns="http://www.w3.org/2000/svg"><path d="m511.994 254.171c.512 73.218-29.717 139.378-78.544 186.339l-85.617 34.493c-58.922 23.738-124.746 23.741-183.67.01l-85.593-34.473c-48.43-46.58-78.57-112.04-78.57-184.54 0-141.232 114.38-255.76 255.556-256 140.397-.238 255.457 113.778 256.438 254.171z" fill="#65b2fe"/><path d="m512 256c0 72.48-30.13 137.93-78.55 184.51l-85.618 34.493c-58.921 23.738-124.744 23.741-183.668.011l-85.574-34.464c-48.44-46.58-78.59-112.05-78.59-184.55 0-46.22 12.25-89.57 33.68-127 44.12 77.07 127.16 129 222.32 129s178.21-51.93 222.32-129c21.43 37.43 33.68 80.78 33.68 127z" fill="#0e9ce7"/><path d="m469.39 321.96c0 43.86-13.24 84.64-35.94 118.55-1.31 1.27-2.64 2.52-3.98 3.76-4.82 4.44-9.81 8.7-14.96 12.76-43.6 34.42-98.65 54.97-158.51 54.97-60.24 0-115.61-20.81-159.34-55.63-4.96-3.94-9.77-8.07-14.42-12.37-1.23-1.14-2.46-2.3-3.67-3.46-22.71-33.92-35.96-74.7-35.96-118.58 0-117.85 95.54-213.38 213.39-213.38s213.39 95.53 213.39 213.38z" fill="#fff"/><path d="m469.39 321.96c0 43.86-13.24 84.64-35.94 118.55-1.31 1.27-2.64 2.52-3.98 3.76-4.82 4.44-9.81 8.7-14.96 12.76-43.6 34.42-98.65 54.97-158.51 54.97v-403.42c117.85 0 213.39 95.53 213.39 213.38z" fill="#d1f6ff"/><ellipse cx="256" cy="321.962" fill="#d1f6ff" rx="168.047" ry="168.047" transform="matrix(.707 -.707 .707 .707 -152.681 275.32)"/><path d="m424.047 321.962c0 92.81-75.237 168.047-168.047 168.047v-336.094c92.81 0 168.047 75.237 168.047 168.047z" fill="#8fc8f5"/><path d="m300.814 453.093c-14.056 4.803-29.131 7.409-44.814 7.409-5.278 0-10.48-.298-15.606-.866-69.162-7.758-122.934-66.44-122.934-137.674s53.771-129.916 122.934-137.674c5.126-.568 10.328-.866 15.606-.866 14.346 0 28.183 2.181 41.197 6.229 56.395 17.541 58.137 244.814 3.617 263.442z" fill="#a63917"/><path d="m300.814 453.093c-14.056 4.803-29.131 7.409-44.814 7.409-5.278 0-73.493-37.147-73.493-138.54 0-99.243 68.215-138.54 73.493-138.54 14.346 0 28.183 2.181 41.197 6.229 56.395 17.541 58.137 244.814 3.617 263.442z" fill="#83250d"/><path d="m394.543 321.962c0 60.829-39.207 112.505-93.728 131.134-21.969 7.506-44.815-8.766-44.815-31.982v-198.304c0-23.216 22.846-39.488 44.815-31.982 54.521 18.629 93.728 70.305 93.728 131.134z" fill="#fff"/><g fill="#fdf7bd"><path d="m314.454 354.768c-1.634-.008-2.715-1.706-2.031-3.19 2.014-4.368 5.264-8.228 9.624-11.004 4.359-2.775 9.232-4.087 14.041-4.064 1.634.008 2.715 1.705 2.031 3.189-2.014 4.368-5.264 8.228-9.623 11.004s-9.232 4.088-14.042 4.065z"/><path d="m325.981 258.887c-1.634-.008-2.715-1.706-2.031-3.189 2.014-4.368 5.264-8.229 9.624-11.005 4.359-2.775 9.232-4.087 14.041-4.064 1.634.008 2.715 1.705 2.031 3.189-2.014 4.368-5.264 8.228-9.623 11.004s-9.232 4.088-14.042 4.065z"/><path d="m276.296 379.446c-.54-1.542.696-3.13 2.324-2.983 4.79.433 9.517 2.2 13.594 5.377 4.076 3.176 6.946 7.326 8.538 11.866.54 1.542-.696 3.13-2.324 2.983-4.791-.432-9.517-2.2-13.593-5.376-4.078-3.177-6.948-7.328-8.539-11.867z"/><path d="m350.991 353.573c-.541-1.542.696-3.13 2.324-2.983 4.791.432 9.517 2.2 13.595 5.377 4.076 3.176 6.946 7.326 8.537 11.866.541 1.542-.696 3.13-2.324 2.983-4.79-.433-9.517-2.2-13.593-5.376-4.077-3.177-6.948-7.328-8.539-11.867z"/><path d="m348.037 276.187c1.488-.675 3.179.416 3.177 2.051-.007 4.81-1.349 9.675-4.152 14.017-2.802 4.341-6.683 7.568-11.063 9.555-1.488.675-3.179-.416-3.177-2.051.007-4.81 1.349-9.675 4.151-14.016 2.803-4.343 6.683-7.569 11.064-9.556z"/><path d="m294.225 440.69c-1.632.074-2.797-1.567-2.189-3.083 1.792-4.464 4.844-8.483 9.059-11.474 4.214-2.991 9.014-4.546 13.819-4.765 1.632-.074 2.797 1.567 2.189 3.083-1.792 4.464-4.844 8.483-9.058 11.473-4.214 2.992-9.015 4.547-13.82 4.766z"/></g><path d="m276.462 301.886c-.862-1.709.333-3.741 2.246-3.817 5.63-.225 11.389 1.111 16.607 4.181 5.217 3.07 9.181 7.455 11.718 12.486.862 1.709-.333 3.741-2.246 3.817-5.63.225-11.389-1.111-16.605-4.18-5.218-3.071-9.182-7.456-11.72-12.487z" fill="#f9d19a"/><path d="m304.824 211.317c1.253-.122 2.213 1.094 1.805 2.285-1.202 3.504-3.39 6.716-6.513 9.183-3.122 2.467-6.753 3.853-10.44 4.211-1.253.122-2.214-1.094-1.805-2.285 1.202-3.504 3.39-6.716 6.513-9.183s6.754-3.853 10.44-4.211z" fill="#f9d19a"/><path d="m323.534 383.062c-.567-1.124.219-2.46 1.477-2.51 3.701-.148 7.487.73 10.918 2.749 3.43 2.018 6.036 4.901 7.704 8.209.567 1.124-.219 2.46-1.477 2.51-3.701.148-7.487-.73-10.917-2.748-3.43-2.02-6.036-4.903-7.705-8.21z" fill="#f9d19a"/><path d="m303.582 251.335c1.11-.593 2.464.162 2.544 1.418.235 3.697-.554 7.503-2.492 10.979-1.937 3.476-4.758 6.149-8.026 7.894-1.11.593-2.464-.162-2.544-1.418-.235-3.697.554-7.502 2.492-10.978 1.937-3.476 4.758-6.149 8.026-7.895z" fill="#f9d19a"/><path d="m359.717 318.338c-.567-1.124.219-2.46 1.477-2.51 3.701-.148 7.487.73 10.918 2.749 3.43 2.018 6.036 4.901 7.704 8.209.567 1.124-.219 2.459-1.477 2.51-3.701.148-7.487-.73-10.917-2.748-3.431-2.019-6.037-4.902-7.705-8.21z" fill="#f9d19a"/><circle cx="229.689" cy="272.76" fill="#fe3345" r="8.219"/><circle cx="233.392" cy="329.312" fill="#fe3345" r="8.219"/><circle cx="182.125" cy="280.979" fill="#fe3345" r="8.219"/><circle cx="173.906" cy="396.697" fill="#fed110" r="8.219"/><path d="m236.369 236.556c-.126-.275-.252-.551-.379-.826-.424-1.127-1.093-2.082-2.007-2.866-.951-.801-2.039-1.312-3.264-1.532-1.227-.212-2.424-.105-3.591.323-.867.287-1.605.758-2.214 1.413-.716.55-1.257 1.249-1.623 2.095-.536 1.147-.748 2.35-.637 3.611.224 2.367 1.73 4.585 3.907 5.58.285.13.57.26.855.391.558.178 1.116.355 1.674.533l1.755.072c.552-.126 1.103-.252 1.655-.378.823-.273 1.523-.72 2.102-1.342.471-.332.831-.757 1.08-1.277.38-.451.623-.968.727-1.55.254-.544.355-1.116.302-1.714.113-.866-.002-1.71-.342-2.533z" fill="#6cdc2d"/><path d="m246.987 423.351c-.126-.276-.252-.551-.379-.827-.424-1.127-1.093-2.082-2.007-2.866-.951-.801-2.039-1.312-3.264-1.532-1.227-.212-2.424-.105-3.591.323-.867.287-1.605.758-2.214 1.413-.716.55-1.257 1.248-1.623 2.095-.536 1.147-.748 2.35-.637 3.611.224 2.367 1.73 4.585 3.907 5.58.285.13.57.26.855.391.558.177 1.116.355 1.674.533l1.755.072c.552-.126 1.103-.252 1.655-.378.823-.273 1.524-.72 2.102-1.342.471-.332.831-.757 1.08-1.276.38-.451.623-.968.727-1.55.254-.544.355-1.116.302-1.714.113-.865-.001-1.71-.342-2.533z" fill="#6cdc2d"/><path d="m166.962 331.703c-.126-.275-.252-.551-.379-.826-.424-1.127-1.093-2.082-2.007-2.866-.951-.801-2.039-1.312-3.264-1.532-1.227-.212-2.424-.105-3.591.323-.867.287-1.605.758-2.214 1.413-.716.55-1.257 1.249-1.623 2.095-.536 1.147-.748 2.35-.637 3.611.224 2.366 1.73 4.585 3.907 5.58.285.13.57.26.855.391.558.178 1.116.355 1.674.533l1.755.072c.552-.126 1.103-.252 1.655-.378.823-.273 1.524-.72 2.102-1.342.47-.332.83-.757 1.08-1.276.38-.452.623-.968.727-1.55.254-.544.355-1.116.302-1.714.113-.867-.001-1.711-.342-2.534z" fill="#6cdc2d"/><path d="m259.511 184.322c-.689 1.58-1.479 3.815-1.389 5.531.076 1.469.483 2.924.564 4.403.156 2.949-.589 5.888-3.795 6.693-.216.055-.428.096-.639.121-1.938.247-3.784.936-5.41 2.018-.02.01-.04.025-.061.04-1.736 1.147-3.241 2.637-4.252 4.454-1.339 2.4-3.9 4.026-6.844 4.026-.664 0-1.309-.086-1.922-.242-4.066-1.027-9.129-1.142-12.083 2.335-1.047 1.223-1.263 2.687-2.043 4.026-1.55 2.667-5.375 5.022-8.57 4.574-.81-.111-1.57-.428-2.37-.604-1.948-.433-4.066.08-5.646 1.288-1.585 1.213-2.627 2.582-4.836 2.582-3.437 0-4.549-3.135-6.708-5.163-2.038-1.923-4.615-3.216-7.368-3.724-2.551-.473-4.6-2.224-4.625-5.027 0-.131.005-.262.01-.388.111-1.681-.045-3.357-.604-4.942-.317-.906-.579-1.832-.77-2.763-.055-.236-.101-.473-.141-.71-.332-1.852-1.102-3.598-2.194-5.123-1.107-1.55-1.681-3.513-1.439-5.616.045-.403.131-.795.242-1.183.176-.609.428-1.198.74-1.756 1.917-3.442 4.318-3.286 6.864-4.423 2.828-1.263 5.319-3.256 7.232-5.687 1.047-1.323 1.651-2.989 2.823-4.217 1.419-1.49 3.231-1.454 5.148-1.55 3.211-.166 6.336-1.605 8.56-3.92 2.194-2.285 2.526-6.024 6.331-6.326 1.781-.141 3.024.855 4.615 1.404 1.726.599 3.548.594 5.309.136 2.094-.538 4.006-1.615 5.888-2.682 2.033-1.147 4.459-3.216 6.849-3.216 2.124 0 4.011.996 5.234 2.541 1.082 1.374 2.541 2.381 4.111 3.15 1.857.911 3.236 2.355 4.882 3.452.116.081.231.151.352.226 2.395 1.485 5.314 2.335 7.438 3.905 1.706 1.253 2.899 2.969 2.899 5.833-.002 2.372-1.456 4.39-2.382 6.524z" fill="#f79f63"/><path d="m259.511 184.322c-.689 1.58-1.479 3.815-1.389 5.531.076 1.469.483 2.924.564 4.403.156 2.949-.589 5.888-3.795 6.693-.216.055-.428.096-.639.121-1.938.247-3.784.936-5.41 2.018-.02.01-.04.025-.061.04-1.736 1.147-3.241 2.637-4.252 4.454-1.339 2.4-3.9 4.026-6.844 4.026-.664 0-1.309-.086-1.922-.242-4.066-1.027-9.129-1.142-12.083 2.335-1.047 1.223-1.263 2.687-2.043 4.026-1.55 2.667-5.375 5.022-8.57 4.574-.81-.111-1.57-.428-2.37-.604-1.948-.433-4.066.08-5.646 1.288-1.585 1.213-2.627 2.582-4.836 2.582-3.437 0-4.549-3.135-6.708-5.163-2.038-1.923-4.615-3.216-7.368-3.724-2.551-.473-4.6-2.224-4.625-5.027 0-.131.005-.262.01-.388.111-1.681-.045-3.357-.604-4.942-.317-.906-.579-1.832-.77-2.763-.055-.236-.101-.473-.141-.71-.332-1.852-1.102-3.598-2.194-5.123-1.107-1.55-1.681-3.513-1.439-5.616.045-.403.131-.795.242-1.183.161.181.342.347.534.498 1.515 1.183 3.538 1.46 5.46 1.454 1.917 0 3.855-.236 5.742.096 1.892.332 3.684 1.223 5.601 1.258 3.241.07 4.575-2.511 6.965-4.222 1.53-1.097 3.306-1.922 5.183-2.053 2.426-.166 5.078.775 7.171-.463 1.706-1.002 2.109-1.092 3.171-2.763 1.273-1.993 1.897-4.589 3.246-6.426 1.58-2.159 5.017-2.652 7.478-2.743 3.14-.121 6.507.141 9.199-1.485 2.008-1.213 3.125-3.508 5.068-4.7 2.094-1.283 5.053-1.193 7.413-1.278.795-.03 1.575-.126 2.355-.267.116.081.231.151.352.226 2.395 1.485 5.314 2.335 7.438 3.905 1.706 1.253 2.899 2.969 2.899 5.833-.002 2.372-1.456 4.39-2.382 6.524z" fill="#f4873d"/><path d="m259.511 184.322c-.689 1.58-1.479 3.815-1.389 5.531.076 1.469.483 2.924.564 4.403.156 2.949-.589 5.888-3.795 6.693-.216.055-.428.096-.639.121-1.938.247-3.784.936-5.41 2.018-.02.01-.04.025-.061.04-1.736 1.147-3.241 2.637-4.252 4.454-1.339 2.4-3.9 4.026-6.844 4.026-.664 0-1.309-.086-1.922-.242-4.066-1.027-9.129-1.142-12.083 2.335-1.047 1.223-1.263 2.687-2.043 4.026-1.55 2.667-5.375 5.022-8.57 4.574-.81-.111-1.57-.428-2.37-.604-1.948-.433-4.066.08-5.646 1.288-1.585 1.213-2.627 2.582-4.836 2.582-3.437 0-4.549-3.135-6.708-5.163-2.038-1.923-4.615-3.216-7.368-3.724-2.551-.473-4.6-2.224-4.625-5.027 0-.131.005-.262.01-.388.111-1.681-.045-3.357-.604-4.942-.317-.906-.579-1.832-.77-2.763.659-.262 1.389-.372 2.089-.337 1.726.096 3.321.916 4.831 1.761s3.04 1.746 4.746 2.038c3.397.574 6.638-1.364 9.713-2.919 2.873-1.454 5.938-2.375 9.068-1.253 2.868 1.027 4.489 2.904 7.695.745 1.942-1.303 3.165-3.422 4.152-5.546 1.877-4.046 2.954-9.179 8.067-9.874 2.29-.312 4.605.116 6.91.161 2.31.045 4.801-.383 6.416-2.028 2.078-2.114 2.134-5.631 4.177-7.785 2.038-2.144 5.39-2.29 7.986-3.719 1.223-.674 2.245-1.666 2.994-2.838 1.706 1.253 2.899 2.969 2.899 5.833-.002 2.371-1.456 4.389-2.382 6.523z" fill="#ec781b"/><path d="m209.273 210.885c-.134-.964-.544-1.943-1.335-2.558l-.833-.539c-.636-.297-1.304-.415-2.004-.353-.511.03-.978.18-1.401.449-.457.193-.843.489-1.157.886-.352.384-.583.825-.694 1.322-.201.481-.266.986-.198 1.515.134.964.544 1.943 1.335 2.558.278.18.556.359.833.539.636.297 1.304.415 2.004.353.511-.03.978-.18 1.401-.449.457-.193.843-.489 1.157-.886.352-.384.583-.825.694-1.322.201-.481.267-.986.198-1.515z" fill="#f4873d"/><path d="m239.144 200.83c-.091-.463-.208-.81-.528-1.161-.375-.412-.831-.621-1.386-.644-1.188-.049-2.183.968-2.07 2.168.105 1.107 1.097 1.856 2.179 1.802.522-.026.991-.325 1.336-.697.314-.338.562-.989.469-1.468z" fill="#f4873d"/><path d="m254.843 187.335c-.116-.833-.471-1.68-1.154-2.212-.24-.155-.48-.311-.721-.466-.55-.257-1.128-.359-1.733-.306-.442.026-.846.156-1.211.388-.395.167-.729.423-1.001.766-.532.626-.887 1.625-.771 2.453.116.833.471 1.68 1.154 2.212.24.155.48.311.721.466.55.257 1.128.359 1.733.306.442-.026.846-.156 1.211-.388.395-.167.729-.423 1.001-.766.531-.626.886-1.625.771-2.453z" fill="#f4873d"/><path d="m216.61 195.533c-.019-.042-.038-.085-.056-.128-.24-.543-.566-1.074-1.024-1.462-.255-.165-.511-.33-.766-.495-.435-.225-.892-.327-1.37-.305-.313-.054-.618-.027-.916.082-.308.031-.589.134-.843.311-.287.108-.531.279-.731.512-.365.281-.641.637-.828 1.069-.018.041-.036.082-.054.123-.521 1.176-.445 2.522.302 3.588.363.514.828.908 1.395 1.18.442.229.907.333 1.394.311.473.061.934-.001 1.384-.187.585-.22 1.08-.567 1.487-1.041.788-.931 1.135-2.408.626-3.558z" fill="#f79f63"/><path d="m192.345 198.187c-2.774 0-2.357 4.301.407 4.301 2.775-.001 2.358-4.301-.407-4.301z" fill="#f79f63"/><path d="m237.477 176.591c-3.636 0-3.089 5.637.534 5.637 3.636 0 3.089-5.637-.534-5.637z" fill="#f79f63"/><path d="m176.912 223.286c.293 1.699.861 4 1.879 5.384.871 1.186 2.011 2.177 2.891 3.369 1.751 2.378 2.744 5.243.509 7.677-.15.165-.305.315-.468.452-1.483 1.271-2.647 2.862-3.41 4.659-.011.02-.02.043-.029.067-.82 1.913-1.258 3.984-1.104 6.058.201 2.741-1.045 5.507-3.505 7.125-.555.365-1.14.648-1.739.855-3.961 1.377-8.254 4.063-8.811 8.592-.202 1.597.422 2.939.506 4.486.171 3.08-1.729 7.15-4.645 8.532-.738.353-1.547.505-2.312.798-1.865.709-3.353 2.302-4.009 4.18-.658 1.884-.776 3.601-2.621 4.815-2.872 1.889-5.524-.119-8.442-.626-2.759-.486-5.623-.15-8.202.938-2.391 1.007-5.065.67-6.627-1.658-.072-.109-.14-.221-.205-.329-.831-1.465-1.883-2.779-3.221-3.797-.763-.582-1.49-1.212-2.162-1.885-.176-.167-.344-.34-.508-.515-1.295-1.365-2.898-2.4-4.649-3.074-1.777-.686-3.335-2.011-4.289-3.901-.183-.361-.328-.736-.448-1.121-.187-.606-.301-1.236-.347-1.874-.29-3.93 1.801-5.119 3.303-7.468 1.668-2.61 2.654-5.644 2.916-8.726.147-1.681-.264-3.404.041-5.075.367-2.024 1.9-2.991 3.449-4.125 2.591-1.903 4.411-4.823 4.997-7.98.577-3.115-1.2-6.421 1.812-8.764 1.411-1.097 2.997-.948 4.627-1.363 1.771-.449 3.29-1.454 4.51-2.805 1.453-1.601 2.459-3.551 3.445-5.477 1.068-2.076 1.957-5.137 3.954-6.451 1.774-1.167 3.898-1.372 5.769-.754 1.659.553 3.431.592 5.166.372 2.052-.26 3.998.189 5.975.201.141.004.276-.001.419-.005 2.817-.076 5.723-.97 8.36-.826 2.114.109 4.054.887 5.628 3.279 1.304 1.984 1.198 4.469 1.597 6.76z" fill="#f79f63"/><path d="m176.912 223.286c.293 1.699.861 4 1.879 5.384.871 1.186 2.011 2.177 2.891 3.369 1.751 2.378 2.744 5.243.509 7.677-.15.165-.305.315-.468.452-1.483 1.271-2.647 2.862-3.41 4.659-.011.02-.02.043-.029.067-.82 1.913-1.258 3.984-1.104 6.058.201 2.741-1.045 5.507-3.505 7.125-.555.365-1.14.648-1.739.855-3.961 1.377-8.254 4.063-8.811 8.592-.202 1.597.422 2.939.506 4.486.171 3.08-1.729 7.15-4.645 8.532-.738.353-1.547.505-2.312.798-1.865.709-3.353 2.302-4.009 4.18-.658 1.884-.776 3.601-2.621 4.815-2.872 1.889-5.524-.119-8.442-.626-2.759-.486-5.623-.15-8.202.938-2.391 1.007-5.065.67-6.627-1.658-.072-.109-.14-.221-.205-.329-.831-1.465-1.883-2.779-3.221-3.797-.763-.582-1.49-1.212-2.162-1.885-.176-.167-.344-.34-.508-.515-1.295-1.365-2.898-2.4-4.649-3.074-1.777-.686-3.335-2.011-4.289-3.901-.183-.361-.328-.736-.448-1.121.234.063.477.102.72.123 1.915.155 3.758-.725 5.361-1.786 1.602-1.054 3.09-2.316 4.85-3.076 1.763-.763 3.75-1.003 5.371-2.028 2.746-1.723 2.441-4.612 3.498-7.355.675-1.758 1.706-3.423 3.202-4.564 1.935-1.472 4.668-2.143 5.736-4.328.875-1.774 1.161-2.071 1.13-4.051-.032-2.365-.938-4.877-.82-7.153.133-2.672 2.734-4.973 4.74-6.401 2.557-1.827 5.513-3.459 6.869-6.297 1.011-2.117.683-4.648 1.65-6.712 1.043-2.223 3.565-3.774 5.49-5.142.648-.462 1.247-.971 1.821-1.517.141.004.276-.001.419-.005 2.817-.076 5.723-.97 8.36-.826 2.114.109 4.054.887 5.628 3.279 1.303 1.982 1.197 4.467 1.596 6.758z" fill="#f4873d"/><path d="m176.912 223.286c.293 1.699.861 4 1.879 5.384.871 1.186 2.011 2.177 2.891 3.369 1.751 2.378 2.744 5.243.509 7.677-.15.165-.305.315-.468.452-1.483 1.271-2.647 2.862-3.41 4.659-.011.02-.02.043-.029.067-.82 1.913-1.258 3.984-1.104 6.058.201 2.741-1.045 5.507-3.505 7.125-.555.365-1.14.648-1.739.855-3.961 1.377-8.254 4.063-8.811 8.592-.202 1.597.422 2.939.506 4.486.171 3.08-1.729 7.15-4.645 8.532-.738.353-1.547.505-2.312.798-1.865.709-3.353 2.302-4.009 4.18-.658 1.884-.776 3.601-2.621 4.815-2.872 1.889-5.524-.119-8.442-.626-2.759-.486-5.623-.15-8.202.938-2.391 1.007-5.065.67-6.627-1.658-.072-.109-.14-.221-.205-.329-.831-1.465-1.883-2.779-3.221-3.797-.763-.582-1.49-1.212-2.162-1.885.407-.581.956-1.075 1.559-1.43 1.495-.869 3.278-1.061 5.004-1.184 1.726-.124 3.499-.212 5.085-.906 3.153-1.388 4.796-4.788 6.51-7.777 1.601-2.794 3.655-5.248 6.887-6.031 2.961-.719 5.346-.042 6.838-3.607.906-2.156.764-4.599.42-6.915-.656-4.412-2.577-9.292 1.312-12.683 1.741-1.519 3.91-2.434 5.861-3.663 1.955-1.232 3.801-2.958 4.246-5.221.575-2.908-1.313-5.877-.79-8.8.524-2.911 3.244-4.875 4.628-7.497.651-1.236.959-2.625.941-4.017 2.114.109 4.054.887 5.628 3.279 1.305 1.984 1.199 4.469 1.598 6.76z" fill="#ec781b"/><path d="m149.543 273.09c-.642-.732-1.523-1.324-2.521-1.403l-.992.008c-.695.102-1.318.37-1.868.806-.41.306-.718.688-.923 1.145-.276.413-.436.872-.48 1.376-.083.514-.034 1.009.147 1.486.097.512.32.97.667 1.374.642.732 1.523 1.324 2.521 1.403.331-.003.661-.005.992-.008.695-.102 1.318-.37 1.868-.806.41-.306.718-.688.924-1.145.275-.413.435-.871.48-1.376.083-.514.034-1.01-.147-1.486-.097-.512-.32-.97-.668-1.374z" fill="#f4873d"/><path d="m168.971 248.272c-.331-.337-.619-.562-1.079-.68-.539-.138-1.035-.063-1.512.224-1.02.613-1.292 2.009-.538 2.949.696.867 1.937.947 2.811.308.422-.309.649-.816.733-1.317.076-.455-.074-1.135-.415-1.484z" fill="#f4873d"/><path d="m174.668 228.369c-.555-.632-1.317-1.145-2.18-1.213-.286.002-.572.005-.858.007-.601.088-1.139.32-1.616.697-.355.265-.621.595-.799.99-.238.357-.377.754-.415 1.19-.1.816.153 1.845.704 2.474.555.632 1.317 1.145 2.18 1.213.286-.002.572-.005.858-.007.601-.088 1.139-.32 1.616-.697.355-.265.621-.595.799-.99.238-.357.377-.754.415-1.19.1-.816-.152-1.846-.704-2.474z" fill="#f4873d"/><path d="m147.235 256.232c-.039-.025-.078-.05-.117-.076-.499-.322-1.063-.586-1.659-.659-.304.003-.608.005-.912.007-.487.051-.925.217-1.313.498-.291.127-.531.318-.72.572-.24.195-.418.436-.533.723-.181.248-.291.525-.329.829-.151.435-.186.884-.104 1.348.007.044.015.088.022.132.211 1.269 1.015 2.351 2.224 2.832.586.23 1.19.303 1.814.219.496-.052.941-.22 1.335-.507.429-.209.78-.514 1.053-.917.368-.505.591-1.067.67-1.687.148-1.208-.375-2.633-1.431-3.314z" fill="#f79f63"/><path d="m128.422 271.786c-2.318 1.525.395 4.888 2.704 3.369 2.319-1.525-.394-4.889-2.704-3.369z" fill="#f79f63"/><path d="m154.256 228.939c-3.038 1.999.517 6.407 3.544 4.415 3.038-1.999-.518-6.407-3.544-4.415z" fill="#f79f63"/><path d="m474.38 219.79c0 4.16-.33 24.09-.95 31.22-.82 9.32-5.12 17.69-11.7 24.07-11.39 11.05-17.9 26.17-17.9 42.03v112.83c-4.6 4.96-9.39 9.74-14.36 14.33-4.82 4.44-9.81 8.7-14.96 12.76v-140.52c0-15.69-6.39-30.66-17.55-41.69-6.43-6.35-10.64-14.61-11.44-23.81-.62-7.13-.95-27.06-.95-31.22 0-32.56 20.1-59.57 44.9-59.57 24.81 0 44.91 27.01 44.91 59.57z" fill="#4e689b"/><path d="m474.38 219.79c0 4.16-.33 24.09-.95 31.22-.82 9.32-5.12 17.69-11.7 24.07-11.39 11.05-17.9 26.17-17.9 42.03v112.83c-4.6 4.96-9.39 9.74-14.36 14.33v-284.05c24.81 0 44.91 27.01 44.91 59.57z" fill="#374c81"/><path d="m116.34 278.13c-10.67 8.18-19.29 21.01-19.68 34.45v143.79c-4.96-3.94-9.77-8.07-14.42-12.37-4.99-4.62-9.79-9.43-14.41-14.42v-117c-.39-13.44-9.01-26.27-19.68-34.45-7.07-5.42-11.34-14.27-10.4-23.9l7.21-87.28c.18-1.91 1.08-3.59 2.4-4.8 1.33-1.2 3.09-1.93 5.01-1.93 4.29 0 7.68 3.6 7.44 7.88l-2.86 83.65c-.25 4.27 3.15 7.88 7.43 7.88h1.97c4.06 0 7.37-3.25 7.45-7.3l.98-84.81c.07-4.05 3.39-7.3 7.44-7.3h.05c4.05 0 7.37 3.25 7.44 7.3l.98 84.81c.08 4.05 3.39 7.3 7.45 7.3h1.97c4.28 0 7.68-3.61 7.43-7.88l-2.86-83.65c-.01-.15-.01-.29-.01-.44 0-4.08 3.31-7.44 7.45-7.44 3.83 0 7.04 2.91 7.41 6.73l7.21 87.28c.94 9.63-3.33 18.48-10.4 23.9z" fill="#4e689b"/><path d="m116.34 278.13c-10.67 8.18-19.29 21.01-19.68 34.45v143.79c-4.96-3.94-9.77-8.07-14.42-12.37v-249.3l.03-34.48c4.05 0 7.37 3.25 7.44 7.3l.98 84.81c.08 4.05 3.39 7.3 7.45 7.3h1.97c4.28 0 7.68-3.61 7.43-7.88l-2.86-83.65c-.01-.15-.01-.29-.01-.44 0-4.08 3.31-7.44 7.45-7.44 3.83 0 7.04 2.91 7.41 6.73l7.21 87.28c.94 9.63-3.33 18.48-10.4 23.9z" fill="#374c81"/></svg>