<svg id="Capa_1" enable-background="new 0 0 512 512" height="512" viewBox="0 0 512 512" width="512" xmlns="http://www.w3.org/2000/svg"><circle cx="256" cy="256" fill="#ffe853" r="256"/><path d="m512 256c0 87.11-43.52 164.07-110 210.31-41.41 28.8-91.73 45.69-146 45.69s-104.59-16.89-146-45.69c-66.48-46.24-110-123.2-110-210.31 0-46.22 12.25-89.57 33.68-127 44.12 77.07 127.16 129 222.32 129s178.21-51.93 222.32-129c21.43 37.43 33.68 80.78 33.68 127z" fill="#fed110"/><path d="m209.92 507.86c-6.77-1.23-13.45-2.73-20.03-4.48-6.88-1.83-13.66-3.95-20.3-6.34l-47.83-342.39 19.04-2.66 19.04-2.66z" fill="#c55733"/><path d="m143.445 150.47h38.442v316.064h-38.442z" fill="#a63917" transform="matrix(.99 -.138 .138 .99 -41.119 25.473)"/><path d="m209.92 507.86c-6.77-1.23-13.45-2.73-20.03-4.48l-49.09-351.39 19.04-2.66z" fill="#a63917"/><path d="m162.573 149.14h19.221v316.064h-19.221z" fill="#83250d" transform="matrix(.99 -.138 .138 .99 -40.843 26.777)"/><path d="m238.858 252.943c2.007 10.163-1.606 20.288-5.971 29.343-4.193 8.703-4.573 16.141-5.771 25.638-.964 7.626.46 15.307 3.727 22.259.902 1.926 1.539 4.027 1.848 6.241 1.215 8.695-2.88 16.903-9.819 21.344-5.748 3.687-9.602 9.74-10.518 16.505-1.265 9.346-1.917 18.767-1.941 28.208-.012 8.653-3.182 16.648-8.498 22.776-5.307 6.135-12.752 10.402-21.319 11.599-.516.072-1.035.129-1.547.178-9.585.904-18.774-2.237-25.706-8.173-2.746-2.347-5.133-5.126-7.052-8.268-2.561-4.189-5.964-7.742-10.007-10.526-4.846-3.343-8.339-8.63-9.218-14.923-.336-2.402-.261-4.762.163-7.026 1.309-6.957.409-14.163-3.013-20.367-.184-.333-.367-.658-.55-.991-1.789-3.198-2.936-7.035-5.249-9.886-4.127-5.076-10.781-6.184-16.626-8.266-7.572-2.703-13.143-9.546-14.255-17.508-.558-3.996.004-7.889 1.45-11.356 3.063-7.347 3.433-15.508 1.031-23.091-1.491-4.72-2.927-9.539-4.293-14.406-2.027-7.193-5.619-13.9-10.736-19.349-4.132-4.404-6.999-10.076-7.899-16.519-.856-6.128.744-10.944 2.414-16.686 4.985-17.121.008-36.146 1.166-53.74.403-6.068-.584-12.101-2.599-17.839-.478-1.345-.821-2.761-1.027-4.236-1.596-11.426 4.501-16.108 12.487-21.632 2.984-2.065 5.598-5.146 8.089-8.606 6.892-9.591 12.83-22.07 22.928-23.785 4.91-.839 9.922.193 14.833 1.055 3.027.531 6.135.997 9.193.928 1.902-.037 3.782-.284 5.61-.852 4.804-1.487 8.677-5.004 13.157-7.277 22.914-11.654 45.467 31.121 55.921 45.07 9.639 12.858 9.769 25.641 10.874 40.813.936 12.868 14.787 15.419 16.451 27.332 1.252 8.964-7.321 14.762-6.388 23.626l.004.03c.862 8.019 7.134 14.635 8.656 22.363z" fill="#f79f63"/><path d="m238.858 252.943c2.007 10.163-1.606 20.288-5.971 29.343-4.193 8.703-4.573 16.141-5.771 25.638-.964 7.626.46 15.307 3.727 22.259.902 1.926 1.539 4.027 1.848 6.241 1.215 8.695-2.88 16.903-9.819 21.344-5.748 3.687-9.602 9.74-10.518 16.505-1.265 9.346-1.917 18.767-1.941 28.208-.012 8.653-3.182 16.648-8.498 22.776-5.307 6.135-12.752 10.402-21.319 11.599-.516.072-1.035.129-1.547.178-9.585.904-18.774-2.237-25.706-8.173-1.668-8.227-.358-17.198-4.221-24.646-3.485-6.707-10.715-11.113-13.323-18.21-2.732-7.43.311-15.576 2.865-23.065 2.945-8.628 4.428-20.453-1.199-28.349-4.85-6.814-14.275-9.35-17.624-17.487-4.594-11.152 7.011-22.882 6.094-34.906-1.243-16.213-23.885-24.569-24.614-40.816-.495-11.137 9.987-21.07 7.929-32.035-1.677-8.951-11.149-14.661-13.552-23.449-2.253-8.268 2.263-16.672 3.896-25.079 1.563-8.038.401-16.572-3.248-23.905-2.553-5.113-6.106-9.087-8.728-13.275 6.892-9.591 12.83-22.07 22.928-23.785 4.91-.839 9.922.193 14.833 1.055 3.027.531 6.135.997 9.193.928 1.902-.037 3.782-.284 5.61-.852 4.804-1.487 8.677-5.004 13.157-7.277 22.914-11.654 45.467 31.121 55.921 45.07 9.639 12.858 9.769 25.641 10.874 40.813.936 12.868 14.787 15.419 16.451 27.332 1.252 8.964-7.321 14.762-6.388 23.626l.004.03c.863 8.02 7.135 14.636 8.657 22.364z" fill="#f4873d"/><path d="m238.858 252.943c2.007 10.163-1.606 20.288-5.971 29.343-4.193 8.703-4.573 16.141-5.771 25.638-.964 7.626.46 15.307 3.727 22.259.902 1.926 1.539 4.027 1.848 6.241 1.215 8.695-2.88 16.903-9.819 21.344-5.748 3.687-9.602 9.74-10.518 16.505-1.265 9.346-1.917 18.767-1.941 28.208-.012 8.653-3.182 16.648-8.498 22.776-5.307 6.135-12.752 10.402-21.319 11.599-.516.072-1.035.129-1.547.178-.097-.315-.187-.63-.278-.953-4.417-15.785-25.17-29.455-22.532-46.721 1.57-10.274 11.894-17.636 13.146-27.95.951-7.777-3.483-15.045-6.894-22.099-9.773-20.209 7.012-32.814 6.406-52.274-.405-13.004-11.083-21.338-15.799-32.542-4.541-10.771.821-25.579 2.612-36.952 1.079-6.856 2.089-14.206-.927-20.453-5.139-10.626-20.178-14.422-23.55-25.721-3.822-12.808 8.774-23.094 11.197-34.816 2.544-12.304-2.073-24.839 5.04-36.104 5.82-9.217 14.894-10.674 24.277-5.829 17.258 8.909 26.367 29.288 37.513 44.161 9.639 12.858 9.769 25.641 10.874 40.813.936 12.868 14.787 15.419 16.451 27.332 1.252 8.964-7.321 14.762-6.388 23.626l.004.03c.863 8.017 7.135 14.633 8.657 22.361z" fill="#ec781b"/><path d="m171.833 273.32c-5.049 7.158-7.059 10.344-6.086 17.305.973 6.962 3.778 9.474 10.596 14.975 8.116 6.557 19.234 15.533 21.962 35.063 2.729 19.531-5.503 31.215-11.512 39.74-5.049 7.164-7.059 10.344-6.085 17.31 1.2 8.587-4.785 16.52-13.376 17.72-8.587 1.2-16.521-4.789-17.721-13.376-2.728-19.531 5.503-31.215 11.517-39.74 5.048-7.164 7.054-10.343 6.081-17.31-.973-6.962-3.773-9.475-10.591-14.976-8.121-6.556-19.239-15.532-21.967-35.063s5.509-31.21 11.517-39.74c5.049-7.158 7.054-10.343 6.081-17.305s-3.773-9.475-10.591-14.976c-8.115-6.552-19.239-15.532-21.967-35.063-2.728-19.526 5.509-31.21 11.518-39.735 5.049-7.164 7.054-10.343 6.081-17.305-1.2-8.587 4.79-16.521 13.376-17.721 8.592-1.2 16.521 4.79 17.72 13.376 2.728 19.531-5.504 31.209-11.513 39.734-5.049 7.164-7.059 10.344-6.086 17.305.973 6.967 3.778 9.474 10.596 14.975 8.116 6.557 19.234 15.533 21.962 35.063 2.729 19.535-5.503 31.214-11.512 39.744z" fill="#ffe853"/><path d="m171.833 273.32c-5.049 7.158-7.059 10.344-6.086 17.305.973 6.962 3.778 9.474 10.596 14.975 8.116 6.557 19.234 15.533 21.962 35.063 2.729 19.531-5.503 31.215-11.512 39.74-5.049 7.164-7.059 10.344-6.085 17.31 1.2 8.587-4.785 16.52-13.376 17.72l-2.172-15.548c-3.74-26.773 21.338-30.277 17.598-57.05-3.74-26.768-28.818-23.265-32.558-50.038s21.338-30.277 17.598-57.045-28.818-23.265-32.558-50.038c-3.74-26.768 21.339-30.272 17.599-57.04l-2.172-15.548c8.592-1.2 16.521 4.79 17.72 13.376 2.728 19.531-5.504 31.209-11.513 39.734-5.049 7.164-7.059 10.344-6.086 17.305.973 6.967 3.778 9.474 10.596 14.975 8.116 6.557 19.234 15.533 21.962 35.063 2.728 19.532-5.504 31.211-11.513 39.741z" fill="#fed110"/><path d="m387.3 148.55-115.71 362.98c-5.16.31-10.35.47-15.59.47-1.57 0-3.14-.01-4.71-.05-6.67-.11-13.28-.49-19.82-1.11l119.2-373.97 18.32 5.84z" fill="#c55733"/><path d="m162.958 274.058h316.064v38.442h-316.064z" fill="#a63917" transform="matrix(.304 -.953 .953 .304 -55.923 510.037)"/><path d="m387.3 148.55-115.71 362.98c-5.16.31-10.35.47-15.59.47-1.57 0-3.14-.01-4.71-.05l117.7-369.24z" fill="#a63917"/><path d="m172.115 286.587h316.064v19.221h-316.064z" fill="#83250d" transform="matrix(.304 -.953 .953 .304 -52.328 520.794)"/><path d="m413.719 276.15c-2.587 10.031-10.224 17.597-18.077 23.872-7.545 6.032-11.105 12.574-16.294 20.618-4.168 6.458-6.207 14-6.269 21.68-.02 2.127-.354 4.296-1.034 6.427-2.666 8.365-9.909 13.994-18.086 14.995-6.777.837-12.87 4.628-16.623 10.331-5.184 7.879-9.848 16.091-13.953 24.592-3.754 7.796-10.071 13.633-17.514 16.859-7.439 3.235-15.997 3.862-24.239 1.234-.497-.158-.989-.331-1.471-.509-9.033-3.331-15.959-10.138-19.641-18.489-1.461-3.304-2.41-6.842-2.781-10.505-.497-4.885-2.028-9.56-4.469-13.819-2.923-5.111-3.785-11.388-1.855-17.442.737-2.311 1.825-4.406 3.186-6.264 4.19-5.706 6.496-12.592 6.094-19.666-.022-.38-.046-.752-.068-1.132-.23-3.658.397-7.613-.456-11.184-1.525-6.362-7.045-10.239-11.414-14.645-5.657-5.713-7.72-14.292-5.278-21.951 1.225-3.844 3.417-7.11 6.22-9.611 5.939-5.299 9.804-12.497 10.919-20.372.698-4.9 1.488-9.867 2.361-14.846 1.284-7.362.948-14.963-1.309-22.09-1.82-5.758-1.951-12.113.024-18.311 1.879-5.895 5.406-9.545 9.395-13.999 11.901-13.279 15.644-32.585 24.3-47.946 2.989-5.296 4.708-11.163 5.374-17.208.151-1.419.455-2.845.907-4.263 3.504-10.992 11.026-12.575 20.617-14.101 3.584-.571 7.273-2.218 11.016-4.26 10.362-5.666 21.115-14.347 30.961-11.526 4.79 1.368 8.861 4.466 12.916 7.368 2.499 1.788 5.1 3.553 7.886 4.814 1.731.79 3.533 1.38 5.427 1.658 4.975.737 9.987-.757 15.011-.869 25.7-.594 27.529 47.727 30.92 64.826 3.128 15.763-2.285 27.344-7.852 41.5-4.723 12.007 6.661 20.299 3.009 31.759-2.749 8.624-12.987 10.142-15.98 18.537l-.009.029c-2.693 7.605.1 16.282-1.871 23.909z" fill="#f79f63"/><path d="m413.719 276.15c-2.587 10.031-10.224 17.597-18.077 23.872-7.545 6.032-11.105 12.574-16.294 20.618-4.168 6.458-6.207 14-6.269 21.68-.02 2.127-.354 4.296-1.034 6.427-2.666 8.365-9.909 13.994-18.086 14.995-6.777.837-12.87 4.628-16.623 10.331-5.184 7.879-9.848 16.091-13.953 24.592-3.754 7.796-10.071 13.633-17.514 16.859-7.439 3.235-15.997 3.862-24.239 1.234-.497-.158-.989-.331-1.471-.509-9.033-3.331-15.959-10.138-19.641-18.489 2.055-8.139 7.117-15.661 6.856-24.046-.24-7.555-4.852-14.655-4.134-22.182.752-7.881 7.019-13.908 12.562-19.556 6.387-6.504 12.84-16.525 11.183-26.077-1.425-8.242-8.825-14.605-8.325-23.39.682-12.042 16.219-17.597 20.594-28.834 5.893-15.155-10.905-32.484-4.534-47.447 4.371-10.256 18.119-14.676 21.007-25.452 2.36-8.795-3.71-18.041-2.074-27.004 1.545-8.429 9.253-14.052 14.362-20.925 4.886-6.571 7.53-14.768 7.413-22.957-.089-5.715-1.574-10.835-2.126-15.745 10.362-5.666 21.115-14.347 30.961-11.526 4.79 1.368 8.861 4.466 12.916 7.368 2.499 1.788 5.1 3.553 7.886 4.814 1.731.79 3.533 1.38 5.427 1.658 4.975.737 9.987-.757 15.011-.869 25.7-.594 27.529 47.727 30.92 64.826 3.128 15.763-2.285 27.344-7.852 41.5-4.723 12.007 6.661 20.299 3.009 31.759-2.749 8.624-12.987 10.142-15.98 18.537l-.009.029c-2.694 7.605.099 16.282-1.872 23.909z" fill="#f4873d"/><path d="m413.719 276.15c-2.587 10.031-10.224 17.597-18.077 23.872-7.545 6.032-11.105 12.574-16.294 20.618-4.168 6.458-6.207 14-6.269 21.68-.02 2.127-.354 4.296-1.034 6.427-2.666 8.365-9.909 13.994-18.086 14.995-6.777.837-12.87 4.628-16.623 10.331-5.184 7.879-9.848 16.091-13.953 24.592-3.754 7.796-10.071 13.633-17.514 16.859-7.439 3.235-15.997 3.862-24.239 1.234-.497-.158-.989-.331-1.471-.509.048-.326.104-.649.161-.979 2.846-16.142-9.951-37.445-.103-51.871 5.861-8.583 18.353-10.755 23.943-19.512 4.221-6.6 3.369-15.071 3.345-22.906-.069-22.448 20.517-26.551 28.39-44.358 5.26-11.899-.761-24.032-.166-36.174.565-11.675 11.806-22.707 18.34-32.186 3.939-5.715 8.029-11.904 8.012-18.841-.036-11.803-11.954-21.732-10.105-33.378 2.095-13.201 17.901-17.026 25.157-26.546 7.616-9.992 8.876-23.291 20.163-30.37 9.235-5.792 18.046-3.18 24.41 5.247 11.705 15.498 11.102 37.812 14.717 56.043 3.128 15.763-2.285 27.344-7.852 41.5-4.723 12.007 6.661 20.299 3.009 31.759-2.749 8.624-12.987 10.142-15.98 18.537l-.009.029c-2.694 7.603.099 16.28-1.872 23.907z" fill="#ec781b"/><path d="m344.475 265.526c-7.649 4.27-10.839 6.272-12.974 12.969s-.692 10.176 3.075 18.085c4.481 9.423 10.621 22.324 4.632 41.113s-18.465 25.762-27.571 30.848c-7.651 4.275-10.839 6.272-12.975 12.974-2.633 8.261-11.46 12.825-19.726 10.19-8.261-2.633-12.823-11.465-10.19-19.726 5.989-18.789 18.465-25.762 27.575-30.847 7.651-4.275 10.834-6.274 12.97-12.976 2.135-6.697.697-10.175-3.07-18.083-4.485-9.424-10.626-22.326-4.637-41.115s18.468-25.755 27.575-30.847c7.649-4.27 10.834-6.274 12.969-12.971s.697-10.175-3.07-18.083c-4.482-9.418-10.626-22.326-4.637-41.115 5.988-18.784 18.469-25.755 27.574-30.842 7.651-4.274 10.834-6.274 12.969-12.971 2.633-8.261 11.465-12.823 19.726-10.19 8.265 2.635 12.823 11.465 10.19 19.726-5.989 18.789-18.464 25.757-27.569 30.843-7.651 4.275-10.839 6.272-12.974 12.969-2.136 6.702-.692 10.176 3.075 18.085 4.48 9.423 10.621 22.324 4.632 41.113-5.987 18.792-18.462 25.76-27.569 30.851z" fill="#ffe853"/><path d="m344.475 265.526c-7.649 4.27-10.839 6.272-12.974 12.969s-.692 10.176 3.075 18.085c4.481 9.423 10.621 22.324 4.632 41.113s-18.465 25.762-27.571 30.848c-7.651 4.275-10.839 6.272-12.975 12.974-2.633 8.261-11.46 12.825-19.726 10.19l4.768-14.958c8.21-25.756 32.336-18.066 40.546-43.822 8.209-25.751-15.917-33.442-7.707-59.198 8.21-25.757 32.336-18.066 40.544-43.818 8.209-25.752-15.917-33.442-7.707-59.198 8.209-25.751 32.334-18.061 40.543-43.813l4.768-14.958c8.265 2.635 12.823 11.465 10.19 19.726-5.989 18.789-18.464 25.757-27.569 30.843-7.651 4.275-10.839 6.272-12.974 12.969-2.136 6.702-.692 10.176 3.075 18.085 4.48 9.423 10.621 22.324 4.632 41.113-5.988 18.791-18.463 25.759-27.57 30.85z" fill="#fed110"/></svg>