<svg id="Capa_1" enable-background="new 0 0 512 512" height="512" viewBox="0 0 512 512" width="512" xmlns="http://www.w3.org/2000/svg"><path d="m511.99 253.752c.654 76.17-31.966 144.732-84.19 192.048h-.01l-133.378 51.398c-24.722 9.527-52.101 9.525-76.822-.003l-133.39-51.415-.01.01c-51.71-46.85-84.19-114.53-84.19-189.79 0-141.199 114.327-255.707 255.458-255.999 141.185-.293 255.32 112.572 256.532 253.751z" fill="#65b2fe"/><path d="m512 256c0 75.28-32.5 142.97-84.23 189.81l-133.359 51.388c-24.721 9.526-52.101 9.525-76.821-.004l-133.39-51.414c-51.71-46.83-84.2-114.52-84.2-189.78 0-46.22 12.25-89.57 33.68-127 44.12 77.07 127.16 129 222.32 129s178.21-51.93 222.32-129c21.43 37.43 33.68 80.78 33.68 127z" fill="#0e9ce7"/><path d="m378.65 129.22v51.78h-47.57v-40.52h-75.08v-47.57h86.34c20.06 0 36.31 16.25 36.31 36.31z" fill="#ff9f00"/><path d="m255.939 231.116-171.739 29.174v185.49c23.89 21.65 51.89 38.84 82.68 50.27 27.75 10.32 57.78 15.95 89.12 15.95 66.11 0 126.37-25.07 171.8-66.2v-185.51z" fill="#fe3345"/><path d="m166.88 260.29v235.76c27.75 10.32 57.78 15.95 89.12 15.95 66.11 0 126.37-25.07 171.8-66.2v-185.51z" fill="#de1263"/><path d="m427.8 260.29v185.51c-45.43 41.13-105.69 66.2-171.8 66.2v-273.27z" fill="#bc0e5c"/><path d="m378.65 181v-51.78c0-20.06-16.25-36.31-36.31-36.31h-172.68c-20.06 0-36.31 16.25-36.31 36.31v51.78l-49.15 79.29h343.6zm-47.57 0h-150.16v-40.52h150.16z" fill="#ffe853"/><path d="m378.65 181h-179.08l-32.692 79.29h260.922z" fill="#fed110"/><path d="m427.8 260.29h-171.8v-79.29h75.08v-40.52h-75.08v-47.57h86.34c20.06 0 36.31 16.25 36.31 36.31v51.78z" fill="#ff9f00"/><path d="m378.65 129.22v51.78h-47.57v-40.52h-150.16v40.52h-47.57v-51.78c0-20.06 16.25-36.31 36.31-36.31h172.68c20.06 0 36.31 16.25 36.31 36.31z" fill="#fed110"/><path d="m336.72 409.94c0 44.59-36.14 80.73-80.72 80.73s-80.72-36.14-80.72-80.73c0-44.58 36.14-80.72 80.72-80.72s80.72 36.14 80.72 80.72z" fill="#ffe853"/><path d="m336.72 409.94c0 44.59-36.14 80.73-80.72 80.73v-161.45c44.58 0 80.72 36.14 80.72 80.72z" fill="#fed110"/><path d="m315.99 419.58c0 3.62-1.47 6.9-3.84 9.26-2.37 2.38-5.65 3.84-9.26 3.84l-46.89 4-46.91-4c-7.23 0-13.09-5.86-13.09-13.1 0-3.62 1.46-6.89 3.83-9.26 2.37-2.36 5.65-3.83 9.26-3.83l46.91-4 46.89 4c7.23 0 13.1 5.86 13.1 13.09z" fill="#a63917"/><path d="m304.58 406.49h-97.31c-6.66 0-11.13-6.94-8.26-12.95 8.72-18.33 34.82-30.74 56.98-30.74h.01c22.04 0 47.95 12.76 56.83 30.7 2.96 5.98-1.57 12.99-8.25 12.99z" fill="#f79f63"/><path d="m304.58 406.49h-48.58v-43.69c22.04 0 47.95 12.76 56.83 30.7 2.96 5.98-1.57 12.99-8.25 12.99z" fill="#f4873d"/><path d="m314.11 437.76c-4.42 10.71-15.07 17.98-27.08 17.98h-62.05c-12.01 0-22.66-7.27-27.09-17.98-.99-2.38.79-4.99 3.37-4.99h109.48c2.58 0 4.36 2.61 3.37 4.99z" fill="#f79f63"/><path d="m314.11 437.76c-4.42 10.71-15.07 17.98-27.08 17.98h-31.03v-22.97h54.74c2.58 0 4.36 2.61 3.37 4.99z" fill="#f4873d"/><path d="m315.99 419.58c0 3.62-1.47 6.9-3.84 9.26-2.37 2.38-5.65 3.84-9.26 3.84h-46.89v-26.19h46.89c7.23 0 13.1 5.86 13.1 13.09z" fill="#531d10"/></svg>