<svg id="Capa_1" enable-background="new 0 0 512 512" height="512" viewBox="0 0 512 512" width="512" xmlns="http://www.w3.org/2000/svg"><path d="m512 256.388c-.149 100.646-58.388 187.686-142.98 229.372h-.02l-47.698 11.076c-42.76 9.929-87.394 8.272-129.3-4.802l-81.622-25.464h-.01c-66.69-46.22-110.37-123.29-110.37-210.57 0-141.38 114.619-255.999 255.999-256 141.193-.001 256.21 115.195 256.001 256.388z" fill="#4e689b"/><path d="m512 256c0 87.11-43.52 164.07-110 210.31-10.45 7.27-21.47 13.78-32.98 19.45l-47.725 11.08c-42.755 9.927-87.385 8.269-129.286-4.802l-81.64-25.468c-.12-.09-.25-.17-.37-.26-66.479-46.24-109.999-123.2-109.999-210.31 0-46.22 12.25-89.57 33.68-127 44.12 77.07 127.16 129 222.32 129 48.42 0 93.71-13.45 132.32-36.82 21.59-13.05 41.09-29.2 57.87-47.84 12.22-13.54 23.01-28.4 32.13-44.34 21.43 37.43 33.68 80.78 33.68 127z" fill="#374c81"/><path d="m368.356 161.795c-13.631 70.884-75.017 125.311-150.154 127.366s-139.403-48.938-156.887-118.971c-.445-1.785-.685-3.566-.732-5.318-.241-8.821 4.343-16.93 11.562-21.406 3.509-2.176 7.643-3.494 12.144-3.617 6.57-.18 12.96 2.248 17.688 6.812 29.326 28.307 69.57 45.269 113.532 44.067 43.965-1.202 83.222-20.337 110.958-50.205 4.472-4.816 10.72-7.589 17.29-7.768 2.843-.078 5.565.328 8.097 1.136 11.366 3.629 18.914 15.369 16.502 27.904z" fill="#ff9f00"/><path d="m351.855 133.891c-19.795 58.842-60.572 106.254-134.937 108.287-75.331 2.06-121.07-43.639-144.772-98.712 3.031-1.88 6.531-3.119 10.329-3.502.599-.06 1.204-.098 1.815-.115 6.57-.18 12.96 2.248 17.688 6.812 29.326 28.307 69.57 45.269 113.532 44.067 43.965-1.202 83.222-20.337 110.958-50.205 3.902-4.202 9.154-6.847 14.791-7.574.827-.105 1.661-.171 2.499-.194 2.843-.077 5.565.329 8.097 1.136z" fill="#fed110"/><path d="m341.259 132.949c-22.34 46.946-61.384 81.937-125.041 83.677-64.99 1.777-107.954-31.993-133.744-76.662.599-.06 1.204-.098 1.815-.115 6.57-.18 12.96 2.248 17.688 6.812 29.326 28.307 69.57 45.269 113.532 44.067 43.965-1.202 83.222-20.337 110.958-50.205 3.903-4.202 9.155-6.846 14.792-7.574z" fill="#ffe853"/><path d="m64.162 156.762-3.266-6.771c-3.007-6.232-.392-13.722 5.84-16.729 6.232-3.007 13.722-.392 16.729 5.84l3.267 6.771c3.007 6.232.392 13.722-5.84 16.729-6.234 3.007-13.724.392-16.73-5.84z" fill="#531d10"/><path d="m413.692 172.434c9.659 91.575-45.074 180.781-136.022 211.163s-188.305-8.016-235.626-87.009c-1.205-2.013-2.159-4.099-2.867-6.219-3.567-10.677-.98-22.275 6.171-30.417 3.476-3.958 8.032-7.099 13.481-8.92 7.952-2.657 16.652-2.064 24.117 1.753 46.296 23.671 101.708 29.445 154.922 11.668 53.217-17.778 94.033-55.697 116.806-102.442 3.672-7.537 10.269-13.239 18.221-15.896 3.441-1.15 6.915-1.664 10.304-1.618 15.219.213 28.787 11.741 30.493 27.937z" fill="#ff9f00"/><path d="m383.199 144.496c-2.332 79.164-34.514 152.161-124.527 182.231-91.182 30.461-163.964-8.35-213.324-66.776 3.003-3.419 6.814-6.23 11.308-8.106.709-.296 1.433-.567 2.173-.814 7.952-2.657 16.652-2.064 24.117 1.753 46.296 23.671 101.708 29.445 154.922 11.668 53.217-17.778 94.033-55.697 116.806-102.442 3.203-6.577 8.632-11.753 15.244-14.732.971-.434 1.964-.825 2.978-1.164 3.44-1.15 6.914-1.664 10.303-1.618z" fill="#fed110"/><path d="m369.918 147.278c-9.851 65.589-44.526 122.782-121.577 148.522-78.666 26.279-143.634 1-191.684-43.954.709-.296 1.433-.567 2.173-.814 7.952-2.657 16.652-2.064 24.117 1.753 46.296 23.671 101.708 29.445 154.922 11.668 53.217-17.778 94.033-55.697 116.806-102.442 3.202-6.577 8.631-11.754 15.243-14.733z" fill="#ffe853"/><path d="m40.536 279.142-6.499-7.052c-5.982-6.491-5.569-16.603.922-22.585 6.491-5.982 16.603-5.569 22.585.922l6.499 7.052c5.982 6.491 5.569 16.603-.922 22.585-6.492 5.982-16.603 5.569-22.585-.922z" fill="#531d10"/><path d="m396.61 466.75c-8.86 7.1-18.08 13.44-27.59 19.01-34.08 16.8-72.45 26.24-113.02 26.24-54.11 0-104.29-16.79-145.63-45.43-2.03-1.65-3.83-3.46-5.39-5.41-8.02-10.01-9.83-23.42-5.4-34.94 2.16-5.6 5.79-10.75 10.89-14.85 7.45-5.97 16.98-8.77 26.47-7.64 58.81 7.05 120.3-8.63 170.16-48.61 43.73-35.07 71.16-82.94 81.22-133.94 1.42-7.15 2.48-14.36 3.21-21.6.95-9.5 5.75-18.2 13.21-24.17 3.22-2.59 6.73-4.51 10.37-5.79 10.44-3.69 21.97-2.18 31.08 3.72 5.16 3.34 9.55 8.09 12.52 14.11 46.43 94.05 23.12 210.97-62.1 279.3z" fill="#ff9f00"/><path d="m415.109 169.616c28.723 85.52 23.115 176.22-61.223 243.848-85.433 68.507-178.516 55.73-254.305 12.755 1.861-4.837 4.825-9.345 8.889-13.121.641-.595 1.308-1.171 2.001-1.727 7.451-5.975 16.982-8.772 26.464-7.637 58.809 7.042 120.303-8.639 170.162-48.619 49.861-39.983 78.529-96.6 84.433-155.535.83-8.291 4.591-15.964 10.481-21.755.866-.847 1.773-1.656 2.723-2.418 3.226-2.585 6.735-4.504 10.375-5.791z" fill="#fed110"/><path d="m402.012 177.826c15.335 73.978.831 148.771-71.362 206.661-73.706 59.103-153.103 57.706-222.179 28.611.641-.595 1.308-1.171 2.001-1.727 7.451-5.975 16.982-8.772 26.464-7.637 58.809 7.042 120.303-8.639 170.162-48.619 49.861-39.983 78.529-96.6 84.433-155.535.83-8.291 4.591-15.964 10.481-21.754z" fill="#ffe853"/><path d="m102.007 448.625-9.726-4.974c-8.952-4.578-12.498-15.547-7.92-24.5 4.578-8.952 15.547-12.498 24.499-7.92l9.726 4.974c8.952 4.578 12.498 15.547 7.92 24.5-4.578 8.953-15.547 12.498-24.499 7.92z" fill="#531d10"/></svg>