<svg id="Capa_1" enable-background="new 0 0 512 512" height="512" viewBox="0 0 512 512" width="512" xmlns="http://www.w3.org/2000/svg"><circle cx="256" cy="256" fill="#b6e337" r="256"/><path d="m512 256c0 87.11-43.52 164.07-110 210.31-41.41 28.8-91.73 45.69-146 45.69s-104.59-16.89-146-45.69c-66.48-46.24-110-123.2-110-210.31 0-46.22 12.25-89.57 33.68-127 44.12 77.07 127.16 129 222.32 129s178.21-51.93 222.32-129c21.43 37.43 33.68 80.78 33.68 127z" fill="#6cdc2d"/><path d="m225.854 257.86c0 54.877-44.49 99.362-99.367 99.362-.56 0-1.116-.005-1.671-.02-54.108-.888-97.696-45.025-97.696-99.342s43.587-98.459 97.696-99.347c.555-.015 1.111-.02 1.671-.02 54.878 0 99.367 44.49 99.367 99.367z" fill="#f4873d"/><path d="m225.854 257.859c0 54.877-44.49 99.362-99.367 99.362v-198.729c54.878 0 99.367 44.49 99.367 99.367z" fill="#c55733"/><path d="m126.488 192.357v131c-.367 0-.734 0-1.101-.01-14.185-.233-27.275-4.978-37.9-12.862-16.079-11.929-26.501-31.063-26.501-52.626 0-21.305 10.174-40.236 25.931-52.2 10.72-8.136 24.027-13.05 38.47-13.288.367-.01.733-.014 1.101-.014z" fill="#ec781b"/><g fill="#a63917"><path d="m191.99 257.859c0 36.175-29.328 65.498-65.502 65.498v-131c36.174 0 65.502 29.327 65.502 65.502z"/><circle cx="60.595" cy="244.111" r="19.158"/><ellipse cx="95.934" cy="318.175" rx="13.445" ry="13.445" transform="matrix(.707 -.707 .707 .707 -196.886 161.027)"/></g><circle cx="131.178" cy="256.347" fill="#83250d" r="13.445"/><ellipse cx="109.378" cy="192.356" fill="#a63917" rx="13.445" ry="13.445" transform="matrix(.23 -.973 .973 .23 -102.962 254.614)"/><ellipse cx="169.057" cy="192.356" fill="#83250d" rx="13.445" ry="13.445" transform="matrix(.707 -.707 .707 .707 -86.501 175.881)"/><circle cx="195.947" cy="249.824" fill="#83250d" r="13.445"/><ellipse cx="164.775" cy="314.165" fill="#83250d" rx="20.152" ry="20.152" transform="matrix(.924 -.383 .383 .924 -107.683 86.971)"/><path d="m492.02 355.28v.01c-13.39 31.79-33.01 60.32-57.35 84.03-12.86 12.54-27.03 23.74-42.3 33.36-10.08 6.36-20.64 12.04-31.61 16.96-6.17 2.77-12.47 5.31-18.89 7.59-8.09 2.89-16.36 5.37-24.81 7.44-52.16-18.09-89.61-67.66-89.61-125.97 0-72.87 58.48-132.1 131.07-133.29.74-.02 1.49-.02 2.24-.02 65.63 0 120.19 47.43 131.26 109.89z" fill="#f4873d"/><path d="m492.02 355.29c-25.14 59.7-72.27 107.87-131.26 134.35v-244.26c65.64 0 120.2 47.45 131.26 109.91z" fill="#c55733"/><path d="m360.759 290.817v175.749c-.492 0-.984 0-1.477-.013-19.031-.313-36.592-6.678-50.847-17.255-21.572-16.004-35.554-41.674-35.554-70.603 0-28.583 13.65-53.98 34.789-70.031 14.381-10.916 32.235-17.508 51.612-17.827.492-.014.984-.02 1.477-.02z" fill="#ec781b"/><path d="m448.637 378.695c0 48.532-39.346 87.871-87.878 87.871v-175.749c48.532 0 87.878 39.346 87.878 87.878z" fill="#a63917"/><ellipse cx="272.357" cy="360.251" fill="#a63917" rx="25.702" ry="25.702" transform="matrix(.707 -.707 .707 .707 -174.964 298.101)"/><circle cx="319.768" cy="459.615" fill="#a63917" r="18.037"/><circle cx="367.052" cy="376.667" fill="#83250d" r="18.037"/><ellipse cx="337.805" cy="290.817" fill="#a63917" rx="18.037" ry="18.037" transform="matrix(.597 -.802 .802 .597 -97.161 388.238)"/><ellipse cx="417.87" cy="290.817" fill="#83250d" rx="18.037" ry="18.037" transform="matrix(.16 -.987 .987 .16 63.873 656.708)"/><ellipse cx="453.945" cy="367.916" fill="#83250d" rx="18.037" ry="18.037" transform="matrix(.927 -.376 .376 .927 -105.068 197.821)"/><path d="m434.67 439.32c-12.86 12.54-27.03 23.74-42.3 33.36-4.52-4.83-7.28-11.32-7.28-18.45 0-14.93 12.1-27.03 27.04-27.03 9.42 0 17.71 4.81 22.54 12.12z" fill="#83250d"/><path d="m385.101 115.974c0 40.001-32.43 72.427-72.431 72.427-.408 0-.813-.004-1.218-.014-39.441-.647-71.213-32.82-71.213-72.413s31.772-71.77 71.213-72.417c.405-.011.81-.014 1.218-.014 40.002 0 72.431 32.429 72.431 72.431z" fill="#f4873d"/><path d="m385.101 115.973c0 40.001-32.43 72.427-72.431 72.427v-144.858c40.002 0 72.431 32.429 72.431 72.431z" fill="#c55733"/><path d="m312.67 68.226v95.489c-.267 0-.535 0-.802-.007-10.34-.17-19.881-3.629-27.626-9.375-11.721-8.696-19.317-22.643-19.317-38.36 0-15.53 7.416-29.329 18.902-38.05 7.814-5.931 17.514-9.512 28.042-9.686.266-.007.534-.011.801-.011z" fill="#ec781b"/><path d="m360.417 115.973c0 26.369-21.378 47.743-47.746 47.743v-95.49c26.368 0 47.746 21.378 47.746 47.747z" fill="#a63917"/><circle cx="264.64" cy="105.951" fill="#a63917" r="13.965"/><circle cx="290.399" cy="159.938" fill="#a63917" r="9.8"/><circle cx="316.09" cy="114.87" fill="#83250d" r="9.8"/><circle cx="300.199" cy="68.226" fill="#a63917" r="9.8"/><circle cx="343.7" cy="68.226" fill="#83250d" r="9.8"/><ellipse cx="363.301" cy="110.116" fill="#83250d" rx="9.8" ry="9.8" transform="matrix(.16 -.987 .987 .16 196.412 451.087)"/><circle cx="340.579" cy="157.015" fill="#83250d" r="14.689"/></svg>