<svg id="Capa_1" enable-background="new 0 0 512 512" height="512" viewBox="0 0 512 512" width="512" xmlns="http://www.w3.org/2000/svg"><path d="m511.988 258.52c-1.084 112.353-74.556 207.399-176.018 240.74h-.01l-42.749 6.811c-24.652 3.928-49.771 3.926-74.422-.004l-42.759-6.817s0 0-.01.01c-102.21-33.59-176.02-129.81-176.02-243.26 0-141.38 114.619-255.999 255.999-256 141.352-.001 257.352 117.175 255.989 258.52z" fill="#4e689b"/><path d="m512 256c0 87.11-43.52 164.07-110 210.31-20.1 13.98-42.31 25.15-66.04 32.96l.01-.01-42.761 6.812c-24.651 3.927-49.768 3.926-74.418-.005l-42.761-6.818s0 0-.01.01c-23.72-7.8-45.93-18.97-66.02-32.95-66.48-46.239-110-123.199-110-210.309 0-46.22 12.25-89.57 33.68-127 44.12 77.07 127.16 129 222.32 129s178.21-51.93 222.32-129c21.43 37.43 33.68 80.78 33.68 127z" fill="#374c81"/><path d="m414.73 92.76v23h-49.62c-9.97 0-18.4 7.46-19.62 17.35l-46.22 375.24c-3.9.67-7.84 1.25-11.8 1.74-3.88.47-7.8.86-11.73 1.16l46.92-380.95c2.64-21.4 20.88-37.54 42.45-37.54h49.62z" fill="#fed110"/><path d="m414.73 104.26v11.5h-49.62c-9.97 0-18.4 7.46-19.62 17.35l-46.22 375.24c-3.9.67-7.84 1.25-11.8 1.74l46.6-378.39c1.93-15.67 15.25-27.44 31.04-27.44z" fill="#ff9f00"/><path d="m315.52 151.117v32.66h-119.04v-32.66c0-14.1 11.42-25.53 25.52-25.53h68c14.1 0 25.52 11.43 25.52 25.53z" fill="#fff"/><path d="m315.52 151.117v32.66h-59.52v-58.19h34c14.1 0 25.52 11.43 25.52 25.53z" fill="#d1f6ff"/><path d="m337.45 188.285v44.7h-162.9v-44.7c0-19.29 15.63-34.93 34.93-34.93h93.04c19.3 0 34.93 15.64 34.93 34.93z" fill="#fdf7bd"/><path d="m337.45 188.285v44.7h-81.45v-79.63h46.52c19.3 0 34.93 15.64 34.93 34.93z" fill="#ffe853"/><path d="m373.01 228.33c-4.64 62.8-13.77 125.23-26.92 186.91-5.88 27.59-9.28 55.71-10.12 84.02-9.97 3.28-20.2 5.96-30.67 7.99-15.95 3.12-32.43 4.75-49.3 4.75-13.98 0-27.7-1.12-41.07-3.28-2.76-.45-5.5-.94-8.23-1.47-10.47-2.04-20.7-4.72-30.67-8-.84-28.3-4.24-56.42-10.12-84.01-13.15-61.68-22.28-124.11-26.92-186.91-1.3-17.55 12.6-32.5 30.2-32.5h173.62c17.6 0 31.5 14.95 30.2 32.5z" fill="#fff"/><path d="m373.01 228.33c-4.64 62.8-13.77 125.23-26.92 186.91-5.88 27.59-9.28 55.71-10.12 84.02-9.97 3.28-20.2 5.96-30.67 7.99-15.95 3.12-32.43 4.75-49.3 4.75-13.98 0-27.7-1.12-41.07-3.28 1.49-31.5-.2-62.82-5-93.48-11.31-72.31-17.03-145.66-16.47-219.41h149.35c17.6 0 31.5 14.95 30.2 32.5z" fill="#d1f6ff"/><path d="m373.01 228.33c-4.64 62.8-13.77 125.23-26.92 186.91-5.88 27.59-9.28 55.71-10.12 84.02-25.16 8.27-52.04 12.74-79.97 12.74v-316.17h86.81c17.6 0 31.5 14.95 30.2 32.5z" fill="#8fc8f5"/><path d="m337.37 280.7c-4.95 42.56-11.99 85.39-21.11 128.18-6.88 32.3-10.57 65.36-10.96 98.37-15.95 3.12-32.43 4.75-49.3 4.75-16.86 0-33.35-1.63-49.3-4.75-.39-33.01-4.08-66.07-10.96-98.37-9.12-42.79-16.16-85.62-21.11-128.18-.82-7.01 4.65-13.16 11.71-13.16h139.32c7.06 0 12.53 6.15 11.71 13.16z" fill="#fd7db9"/><path d="m337.37 280.7c-4.95 42.56-11.99 85.39-21.11 128.18-6.88 32.3-10.57 65.36-10.96 98.37-15.95 3.12-32.43 4.75-49.3 4.75v-244.46h69.66c7.06 0 12.53 6.15 11.71 13.16z" fill="#fc5e98"/><g fill="#f4b3d1"><path d="m210.334 293.064c-.047-.263-.108-.524-.184-.783-.261-1.285-.784-2.475-1.602-3.555-.103-.113-.206-.227-.309-.34-1.195-1.647-2.707-2.92-4.548-3.805-1.017-.323-2.034-.647-3.051-.971-2.123-.368-4.196-.181-6.217.559-.901.473-1.803.946-2.704 1.419-1.716 1.21-3.029 2.761-3.939 4.655-.765 1.476-1.111 3.027-1.037 4.651-.205 1.577.003 3.116.624 4.617.497 1.501 1.313 2.778 2.446 3.833.952 1.24 2.161 2.176 3.627 2.81 1.476.765 3.027 1.111 4.651 1.037 1.577.205 3.116-.003 4.617-.625 1.255-.416 2.344-1.067 3.287-1.928.703-.492 1.342-1.076 1.898-1.779l.104-.161c.423-.514.785-1.08 1.094-1.691.144-.223.288-.445.432-.668.742-1.432 1.078-2.935 1.005-4.511.165-.943.092-1.863-.194-2.764z"/><path d="m304.16 377.786c-.236-1.035-.473-2.07-.71-3.104-.755-2.007-1.946-3.708-3.574-5.104-.891-.576-1.783-1.152-2.674-1.728-2.042-.954-4.185-1.332-6.431-1.134-1.64.097-3.138.576-4.495 1.44-1.467.621-2.705 1.569-3.713 2.844-1.129 1.233-1.871 2.647-2.228 4.244-.643 1.544-.855 3.164-.634 4.861.237 1.035.473 2.069.71 3.104.755 2.007 1.946 3.708 3.574 5.104.891.576 1.783 1.152 2.674 1.729 2.042.954 4.185 1.332 6.431 1.134 1.64-.097 3.138-.577 4.495-1.44 1.467-.621 2.705-1.569 3.714-2.844 1.128-1.232 1.871-2.647 2.228-4.244.642-1.545.853-3.165.633-4.862z"/><path d="m309.776 317.122c-.165-.721-.33-1.442-.494-2.162-.356-1.075-.941-1.99-1.753-2.746-.433-.615-.989-1.085-1.667-1.411-.59-.497-1.265-.814-2.025-.95-.711-.332-1.458-.464-2.24-.395-.339-.044-.675-.052-1.009-.043-.283-.004-.569.002-.86.03-1.227.072-2.348.431-3.363 1.077-1.097.464-2.023 1.173-2.778 2.128-.431.667-.862 1.333-1.293 2.001-.589 1.136-.855 2.329-.798 3.579-.158 1.214.003 2.398.48 3.553.383 1.155 1.01 2.138 1.883 2.949.733.954 1.663 1.674 2.791 2.162.783.249 1.566.498 2.348.748 1.238.267 2.445.212 3.623-.165 1.186-.167 2.267-.619 3.242-1.357 1.887-1.445 3.461-3.502 3.778-5.931.01-.247.02-.495.03-.742.003-.01.007-.021.01-.031.033-.765.064-1.529.095-2.294z"/><path d="m249.811 353.004c-.165-.721-.33-1.442-.494-2.162-.356-1.075-.941-1.99-1.753-2.746-.433-.615-.989-1.085-1.667-1.411-.59-.497-1.265-.814-2.025-.95-.711-.332-1.458-.464-2.24-.395-.339-.044-.675-.052-1.01-.043-.283-.004-.569.002-.86.03-1.227.072-2.348.431-3.362 1.077-1.097.464-2.024 1.173-2.778 2.128-.431.667-.862 1.334-1.294 2.001-.589 1.136-.855 2.329-.798 3.579-.158 1.214.002 2.398.48 3.553.383 1.155 1.01 2.138 1.883 2.95.733.954 1.663 1.674 2.791 2.162.783.249 1.566.498 2.348.748 1.238.267 2.445.212 3.623-.165 1.186-.167 2.267-.619 3.242-1.357 1.887-1.445 3.461-3.502 3.778-5.931.01-.247.02-.495.03-.742.003-.01.007-.021.01-.031.033-.767.064-1.531.096-2.295z"/><path d="m237.659 430.02c-.688-7.325-6.925-11.388-13.772-11.388-6.827 0-11.982 7.439-11.388 13.771.688 7.325 6.925 11.388 13.772 11.388 6.828 0 11.983-7.438 11.388-13.771z"/><path d="m301.921 469.012c-.787-2.093-2.029-3.867-3.727-5.322-1.766-1.488-3.786-2.436-6.062-2.844-.294-.037-.587-.074-.881-.111-1.116-.046-2.232-.092-3.348-.137-1.668.098-3.192.586-4.572 1.464-1.021.384-1.886.99-2.596 1.818-1.297.997-2.277 2.262-2.94 3.795-.339 1.064-.677 2.129-1.016 3.193-.046 1.116-.091 2.232-.137 3.348.098 1.668.587 3.192 1.464 4.572.631 1.492 1.596 2.751 2.893 3.777l.624.66c1.766 1.487 3.786 2.435 6.062 2.844 2.278.394 4.501.194 6.669-.6.967-.507 1.933-1.015 2.9-1.522 1.841-1.298 3.249-2.962 4.225-4.993.821-1.583 1.192-3.247 1.112-4.989.22-1.692-.004-3.343-.67-4.953z"/></g><path d="m261.743 106.922h-11.487v-32.744c0-14.386 10.241-26.425 23.815-29.21 3.11-.638 6.002 1.822 6.002 4.997v1.363c0 2.365-1.627 4.438-3.937 4.946-8.221 1.806-14.393 9.148-14.393 17.904z" fill="#de1263"/><path d="m285.727 110.324c0 16.415-13.307 29.728-29.728 29.728-.706 0-1.413-.023-2.108-.075-15.438-1.08-27.62-13.945-27.62-29.653s12.182-28.573 27.62-29.653c.695-.052 1.401-.075 2.108-.075 16.421 0 29.728 13.308 29.728 29.728z" fill="#fe3345"/><path d="m285.727 110.324c0 16.415-13.307 29.728-29.728 29.728-.706 0-15.88-5.993-15.88-29.474 0-25.747 15.174-29.982 15.88-29.982 16.421 0 29.728 13.308 29.728 29.728z" fill="#de1263"/><path d="m256 80.594v59.456c16.418 0 29.728-13.31 29.728-29.728s-13.31-29.728-29.728-29.728z" fill="#bc0e5c"/></svg>