<svg id="Capa_1" enable-background="new 0 0 512 512" height="512" viewBox="0 0 512 512" width="512" xmlns="http://www.w3.org/2000/svg"><path d="m512 256c0 33.54-6.45 65.57-18.18 94.92l-163.64 150.16c-.01 0-.01 0-.01 0-23.47 7.1-48.38 10.92-74.17 10.92-141.38 0-256-114.62-256-256 0-28.09 4.52-55.12 12.89-80.4l.45 1.21 37.81-74.37.01-.01c46.71-62.2 121.08-102.43 204.84-102.43 141.38 0 256 114.62 256 256z" fill="#ffe853"/><path d="m512 256c0 33.54-6.45 65.58-18.19 94.93l-163.63 150.15c-.01 0-.01 0-.01 0-23.47 7.11-48.37 10.92-74.17 10.92-54.27 0-104.59-16.89-146-45.69-66.48-46.24-110-123.2-110-210.31 0-28.09 4.52-55.12 12.89-80.4l.45 1.21 22.46-44.18c44.63 75.07 126.54 125.37 220.2 125.37 95.16 0 178.21-51.93 222.32-129 21.43 37.43 33.68 80.78 33.68 127z" fill="#fed110"/><path d="m493.82 350.92v.01c-24.05 60.17-70.25 109.08-128.54 136.63-11.27 5.33-23 9.87-35.11 13.52-32.82-12.69-60.58-33.37-97.05-46.16-20.36-7.15-41.15-10.47-60.61-19.72-21.21-10.13-35.47-22.55-43.08-41.39-9.85-24.37-8.27-58.22 11.13-77.35 19.76-19.5 46.24-29.93 73.19-34.93 23.99-4.46 94.36-7.53 151.53-3.56 27.57 1.91 52.08 5.46 66.85 11.27 30.77 12.11 51.41 34.8 61.69 61.68z" fill="#fff"/><path d="m493.82 350.92c-24.04 60.17-70.25 109.09-128.54 136.64v-209.59c27.57 1.91 52.08 5.46 66.85 11.27 30.77 12.11 51.41 34.8 61.69 61.68z" fill="#d1f6ff"/><path d="m453.935 375.825c0 31.996-39.693 57.932-88.652 57.932-17.464 0-33.746-3.3-47.465-9.001-24.754-10.268-41.177-28.347-41.177-48.931 0-4.529.794-8.945 2.297-13.181 8.255-23.184 37.792-41.017 74.422-44.241 3.895-.341 7.876-.52 11.923-.52 42.019 0 77.22 19.109 86.345 44.761 1.512 4.237 2.307 8.652 2.307 13.181z" fill="#ffe853"/><path d="m453.935 375.825c0 31.996-39.693 57.932-88.652 57.932-.274 0-.558 0-.832-.009-16.178-.35-41.707-10.902-46.501-35.296-.397-2.052-.652-4.198-.747-6.448-2.09-51.455 44.033-74.119 48.08-74.119 42.019 0 77.22 19.109 86.345 44.761.18.501.35 1.002.501 1.503.151.473.293.946.416 1.418.114.388.208.785.303 1.172.038.133.066.265.094.397.066.274.123.558.18.842.066.293.123.596.18.898.028.161.056.322.085.482.076.407.132.813.189 1.22.019.114.029.227.047.35.066.492.114.993.161 1.494v.038c.047.492.085.983.104 1.484.009.085.009.161.009.246.028.538.038 1.087.038 1.635z" fill="#fed110"/><path d="m453.935 375.825c0 31.996-39.693 57.932-88.652 57.932v-115.873c42.019 0 77.22 19.109 86.345 44.761.038.104.076.218.113.322.142.397.265.785.388 1.182.151.473.293.946.416 1.418.114.388.208.785.303 1.172.038.133.066.265.094.397.066.274.123.558.18.842.066.284.114.567.17.861 0 .009.01.028.01.038.028.161.056.322.085.482.076.407.132.813.189 1.22.019.114.029.227.047.35.009.057.009.104.019.161.028.189.047.388.066.586.028.246.057.501.076.747v.038c.019.161.028.322.047.482.019.331.038.662.057 1.002.009.085.009.161.009.246.009.142.009.284.019.425.009.396.019.803.019 1.209z" fill="#ff9f00"/><path d="m364.451 433.748c-17.152-.095-33.131-3.385-46.633-8.992-24.754-10.268-41.177-28.347-41.177-48.931 0-4.529.794-8.945 2.297-13.181 5.342 14.987 19.582 27.742 38.88 35.75.047.019.085.038.132.057 4.794 24.395 30.323 34.947 46.501 35.297z" fill="#fed110"/><path d="m365.283 407.396v26.361c-.274 0-.558 0-.832-.009-16.178-.35-41.707-10.902-46.501-35.296 13.691 5.663 29.926 8.944 47.333 8.944z" fill="#ff9f00"/><path d="m453.935 375.825c0 31.996-39.693 57.932-88.652 57.932v-26.361c42.019 0 77.22-19.109 86.345-44.751.038.104.076.218.113.322.142.397.265.785.388 1.182.151.473.293.946.416 1.418.114.388.208.785.303 1.172.038.133.066.265.094.397.066.274.123.558.18.842.066.284.114.567.17.861 0 .009.01.028.01.038.028.161.056.322.085.482.076.407.132.813.189 1.22.019.114.029.227.047.35.009.057.009.104.019.161.028.189.047.388.066.586.028.246.057.501.076.747v.038c.019.161.028.322.047.482.019.331.038.662.057 1.002.009.085.009.161.009.246.009.142.009.284.019.425.009.396.019.803.019 1.209z" fill="#ec781b"/><path d="m263.88 229.66c-16.9 24.51-48.86 35.08-78.41 31.44-.85-.11-1.7-.22-2.54-.35-36.2-5.35-60.06-27.72-95.04-40-14.63-5.14-29.59-7.52-43.58-14.17-15.25-7.29-25.5-16.22-30.97-29.77-.16-.39-.31-.79-.46-1.19 8.78-26.59 21.81-51.26 38.28-73.19 7.36-2.86 15.06-4.92 22.81-6.36 17.25-3.21 67.85-5.41 108.96-2.55 19.83 1.37 37.45 3.92 48.07 8.1 52.05 20.49 63.85 83.11 32.88 128.04z" fill="#fff"/><path d="m263.879 229.66c-16.896 24.51-48.858 35.083-78.406 31.439-.857-.109-1.7-.218-2.543-.347v-167.235c19.826 1.373 37.449 3.923 48.069 8.104 52.053 20.493 63.849 83.104 32.88 128.039z" fill="#d1f6ff"/><path d="m246.677 163.88c0 23.008-28.542 41.657-63.747 41.657-12.558 0-24.266-2.373-34.131-6.473-17.8-7.384-29.61-20.383-29.61-35.185 0-3.257.571-6.432 1.652-9.478 5.936-16.671 27.176-29.494 53.515-31.812 2.801-.245 5.663-.374 8.573-.374 30.215 0 55.527 13.741 62.088 32.186 1.089 3.047 1.66 6.222 1.66 9.479z" fill="#ffe853"/><path d="m246.677 163.88c0 23.008-28.542 41.657-63.747 41.657-.197 0-.401 0-.598-.007-11.633-.252-29.99-7.839-33.438-25.381-.285-1.475-.469-3.019-.537-4.637-1.503-37 31.663-53.297 34.573-53.297 30.215 0 55.527 13.741 62.088 32.186.129.361.252.721.36 1.081.109.34.211.68.299 1.02.082.279.15.564.218.843.027.095.048.19.068.285.048.197.089.401.129.605.048.211.088.428.129.646.02.116.041.231.061.347.054.292.095.585.136.877.014.082.021.163.034.252.048.354.082.714.116 1.074v.027c.034.354.061.707.075 1.067.007.061.007.116.007.177.021.389.027.783.027 1.178z" fill="#fed110"/><path d="m246.677 163.88c0 23.008-28.542 41.657-63.747 41.657v-83.322c30.215 0 55.527 13.741 62.088 32.186.027.075.054.156.082.231.102.286.19.564.279.85.109.34.211.68.299 1.02.082.279.15.564.218.843.027.095.048.19.068.285.048.197.089.401.129.605.048.204.082.408.122.619 0 .007.007.02.007.027.02.116.041.231.061.347.054.292.095.585.136.877.014.082.021.163.034.252.007.041.007.075.014.115.021.136.034.279.048.422.02.177.041.36.054.537v.027c.014.116.02.231.034.347.014.238.027.476.041.721.007.061.007.116.007.177.007.102.007.204.014.306.006.286.012.578.012.871z" fill="#ff9f00"/><path d="m182.332 205.53c-12.333-.068-23.824-2.434-33.533-6.466-17.8-7.384-29.61-20.383-29.61-35.185 0-3.257.571-6.432 1.652-9.478 3.842 10.777 14.081 19.948 27.958 25.707.034.014.061.027.095.041 3.448 17.542 21.805 25.13 33.438 25.381z" fill="#fed110"/><path d="m182.93 186.582v18.956c-.197 0-.401 0-.598-.007-11.633-.252-29.99-7.839-33.438-25.381 9.845 4.072 21.519 6.432 34.036 6.432z" fill="#ff9f00"/><path d="m246.677 163.88c0 23.008-28.542 41.657-63.747 41.657v-18.956c30.215 0 55.527-13.741 62.088-32.18.027.075.054.156.082.231.102.286.19.564.279.85.109.34.211.68.299 1.02.082.279.15.564.218.843.027.095.048.19.068.285.048.197.089.401.129.605.048.204.082.408.122.619 0 .007.007.02.007.027.02.116.041.231.061.347.054.292.095.585.136.877.014.082.021.163.034.252.007.041.007.075.014.115.021.136.034.279.048.422.02.177.041.36.054.537v.027c.014.116.02.231.034.347.014.238.027.476.041.721.007.061.007.116.007.177.007.102.007.204.014.306.006.286.012.578.012.871z" fill="#ec781b"/></svg>