<svg id="Capa_1" enable-background="new 0 0 512 512" height="512" viewBox="0 0 512 512" width="512" xmlns="http://www.w3.org/2000/svg"><path d="m511.997 254.861c.478 109.94-68.353 203.872-165.308 240.609h-.02l-57.884 10.553c-21.679 3.952-43.893 3.952-65.572 0l-57.883-10.553h-.02c-96.62-36.61-165.31-130.02-165.31-239.47 0-141.249 114.407-255.787 255.606-256 140.66-.212 255.78 114.203 256.391 254.861z" fill="#4e689b"/><path d="m512 256c0 87.11-43.52 164.07-110 210.31-17.04 11.85-35.59 21.69-55.31 29.16h-.01l-57.898 10.554c-21.676 3.951-43.888 3.951-65.565 0l-57.897-10.554h-.01c-19.72-7.47-38.27-17.31-55.31-29.16-66.48-46.24-110-123.2-110-210.31 0-46.22 12.25-89.57 33.68-127 44.12 77.07 127.16 129 222.32 129s178.21-51.93 222.32-129c21.43 37.43 33.68 80.78 33.68 127z" fill="#374c81"/><path d="m328.357 373.798h58.29c9.536 0 16.88-8.379 15.686-17.84-5.86-46.45-34.301-85.86-73.976-106.905z" fill="#65b2fe"/><path d="m183.643 378.172h-58.29c-9.536 0-16.88-8.379-15.686-17.84 5.86-46.45 34.301-85.86 73.976-106.905z" fill="#8fc8f5"/><path d="m346.69 495.47c-12.29 4.66-25.03 8.39-38.15 11.13-16.95 3.54-34.52 5.4-52.53 5.4h-.02c-31.93 0-62.49-5.85-90.68-16.53 13.44-24.66 34.08-44.84 59.1-57.7 9.9-5.09 20.48-9.04 31.59-11.68.56.14 1.12.28 1.69.42 10.48 2.63 20.52 6.42 29.91 11.26 25.01 12.87 45.65 33.04 59.09 57.7z" fill="#8fc8f5"/><path d="m346.69 495.47c-28.19 10.68-58.75 16.53-90.68 16.53h-.01v-85.91c.56.14 1.12.28 1.69.42 10.48 2.63 20.52 6.42 29.91 11.26 25.01 12.87 45.65 33.04 59.09 57.7z" fill="#65b2fe"/><path d="m308.53 506.6c-16.95 3.54-34.51 5.4-52.52 5.4h-.03c-18 0-35.57-1.86-52.52-5.4l52.53-53.2.01.01z" fill="#65b2fe"/><path d="m308.54 506.6c-16.95 3.54-34.52 5.4-52.53 5.4h-.01v-58.59z" fill="#0e9ce7"/><path d="m367.09 272.158c0 87.03-43.234 163.964-109.411 210.484-.562.404-1.125.8-1.678 1.177 0 .009-.009.009-.009.009-67.109-46.406-111.081-123.902-111.081-211.67 0-16.643 1.59-32.917 4.605-48.682 1.749-9.095 3.963-18.014 6.643-26.731 12.136-39.67 33.615-75.254 61.874-104.201 3.843-3.936 10.145-4.017 14.034-.128l23.933 23.933.009.009 1.67-1.67 22.256-22.262c3.889-3.89 10.191-3.81 14.035.126 28.259 28.941 49.737 64.531 61.873 104.193 2.68 8.717 4.903 17.636 6.652 26.731 3.004 15.764 4.595 32.038 4.595 48.682z" fill="#d1f6ff"/><path d="m367.09 272.158c0 87.03-43.234 163.964-109.411 210.484-.562.404-1.125.8-1.678 1.177v-367.47l.009.009 1.67-1.67 22.256-22.262c3.889-3.89 10.191-3.81 14.035.126 28.259 28.941 49.737 64.531 61.873 104.193 2.68 8.717 4.903 17.636 6.652 26.731 3.003 15.764 4.594 32.038 4.594 48.682z" fill="#8fc8f5"/><path d="m362.485 223.476c-31.01 18.963-67.469 29.894-106.485 29.894s-75.475-10.931-106.485-29.895c1.74-9.095 3.963-18.014 6.634-26.731 12.144-39.669 33.623-75.252 61.875-104.2 3.842-3.937 10.145-4.018 14.035-.128l23.941 23.942 23.933-23.933c3.89-3.89 10.192-3.809 14.034.128 28.252 28.941 49.731 64.531 61.874 104.192 2.672 8.717 4.896 17.636 6.644 26.731z" fill="#65b2fe"/><path d="m362.485 223.476c-31.01 18.963-67.469 29.894-106.485 29.894v-137.012l23.933-23.933c3.89-3.89 10.192-3.809 14.034.128 28.252 28.941 49.731 64.531 61.874 104.192 2.672 8.717 4.896 17.636 6.644 26.731z" fill="#0e9ce7"/><path d="m355.842 196.744c-26.626 22.285-60.8 35.826-98.155 36.222-.553.009-1.107.009-1.669.009-.009 0-.009 0-.018 0-37.997 0-72.812-13.612-99.842-36.23 11.09-36.186 29.93-68.972 54.605-96.415 2.38-2.662 4.819-5.268 7.311-7.822 3.828-3.924 10.127-3.967 14.003-.091l23.923 23.923.018.018 1.669-1.67 22.248-22.268c3.885-3.888 10.19-3.822 14.029.112 2.884 2.955 5.689 5.978 8.407 9.071 24.148 27.18 42.583 59.517 53.471 95.141z" fill="#fff"/><path d="m355.842 196.744c-26.626 22.285-60.8 35.826-98.155 36.222-.559.009-1.119.009-1.687.009v-116.635l.018.018 1.669-1.67 22.248-22.268c3.885-3.888 10.19-3.822 14.029.112 2.884 2.955 5.689 5.978 8.407 9.071 24.148 27.18 42.583 59.517 53.471 95.141z" fill="#d1f6ff"/><path d="m291.631 182.362-4.572 4.572c-2.714 2.714-7.158 2.717-9.875.007l-.101-.101c-2.724-2.716-2.728-7.165-.007-9.885l4.574-4.573c1.813-1.823 1.813-4.767 0-6.58l-4.579-4.579c-2.718-2.718-2.717-7.165.003-9.881l.101-.101c2.718-2.714 7.163-2.713 9.879.003l4.577 4.577c1.813 1.813 4.756 1.813 6.579 0l4.572-4.572c2.718-2.718 7.164-2.717 9.881.002l.102.102c2.726 2.728 2.725 7.15-.002 9.877l-4.572 4.572c-1.823 1.813-1.823 4.756 0 6.58l4.568 4.568c2.718 2.718 2.717 7.165-.003 9.881l-.101.101c-2.718 2.714-7.163 2.713-9.879-.003l-4.566-4.566c-1.823-1.824-4.766-1.824-6.579-.001z" fill="#4e689b"/><g fill="#65b2fe"><ellipse cx="256" cy="284.673" rx="87.489" ry="12.261"/><ellipse cx="256" cy="331.408" rx="87.489" ry="12.261"/><ellipse cx="256" cy="378.142" rx="72.353" ry="12.261"/></g><path d="m256 365.881c26.046 0 50.637 4.422 72.353 12.261-21.717 7.839-46.307 12.261-72.353 12.261z" fill="#0e9ce7"/><path d="m256 319.147c31.495 0 61.224 4.422 87.489 12.261-26.265 7.839-55.994 12.261-87.489 12.261z" fill="#0e9ce7"/><path d="m343.489 284.673c-26.265 7.839-55.994 12.261-87.489 12.261v-24.522c31.495 0 61.224 4.422 87.489 12.261z" fill="#0e9ce7"/></svg>