<svg id="Capa_1" enable-background="new 0 0 512 512" height="512" viewBox="0 0 512 512" width="512" xmlns="http://www.w3.org/2000/svg"><path d="m512 256c0 141.38-114.62 256-256 256h-.2l-178-72.21h-.01c-47.97-46.53-77.79-111.68-77.79-183.79 0-141.38 114.62-256 256-256s256 114.62 256 256z" fill="#65b2fe"/><path d="m512 256c0 87.11-43.52 164.07-110 210.31-41.41 28.8-91.73 45.69-146 45.69h-.2l-177.99-72.2-.02-.01c-47.97-46.54-77.79-111.69-77.79-183.79 0-46.22 12.25-89.57 33.68-127 44.12 77.07 127.16 129 222.32 129s178.21-51.93 222.32-129c21.43 37.43 33.68 80.78 33.68 127z" fill="#0e9ce7"/><path d="m317.52 446.89c-.38 3.53-1.18 6.98-2.47 10.29-10.57 27.26-31.67 46.46-59.25 54.82h-.01c-69.18-.05-131.94-27.56-177.99-72.2l-.01-.01c-21.05-29.52-33.29-66.85-23.18-98.84 5.28-16.72 15.83-31.06 33.1-40.64 29.16-16.19 56.86-9.67 82.1 11.02 15.82 12.96 28.86 28.99 44.92 41.66 15.24 12.02 33.62 17.7 51.63 24.22 37.79 13.69 54.24 41.15 51.16 69.68z" fill="#ffe853"/><g fill="#fed110"><path d="m317.52 446.89c-.38 3.53-1.18 6.98-2.47 10.29-10.57 27.26-31.67 46.46-59.25 54.82-69.19-.05-131.96-27.56-178.01-72.21-21.05-29.52-33.29-66.85-23.18-98.84 5.28-16.72 15.83-31.06 33.1-40.65 7.04 33.57 23.6 65.15 47.49 89.76 30.49 31.41 72.66 51.19 116.29 54.58 21.85 1.7 44.51-.45 66.03 2.25z"/><path d="m160.7 340.647c-16.362 5.773-31.629 14.463-45.005 25.457-10.974 9.024-20.67 19.589-28.662 31.369-3.121 4.606-9.312 5.9-14.004 2.997-.126-.078-.248-.161-.371-.243-4.728-3.204-5.961-9.642-2.756-14.37 9.679-14.269 21.562-26.987 35.05-37.668 14.656-11.613 31.2-20.827 48.863-27.061 5.391-1.901 11.298.927 13.199 6.318 1.903 5.385-.923 11.3-6.314 13.201z"/><path d="m141.875 469.279c-.974-.269-1.875-.667-2.695-1.174-3.807-2.356-5.773-7.022-4.522-11.561 4.732-17.087 11.49-33.616 20.048-49.163 8.521-15.466 18.82-29.963 30.66-43.048 3.84-4.238 10.38-4.558 14.624-.728 4.233 3.836 4.558 10.38.726 14.616-11.204 12.373-20.885 26.14-28.806 40.85-7.345 13.634-13.174 28.088-17.303 42.996-1.522 5.505-7.222 8.738-12.732 7.212z"/><path d="m238.178 501.968c-2.259.167-4.409-.405-6.199-1.513-2.726-1.687-4.628-4.603-4.884-8.044-1.257-16.961-.527-34.098 2.106-50.94 2.61-16.647 7.069-33 13.34-48.606 2.128-5.304 8.151-7.878 13.455-5.75s7.883 8.154 5.755 13.458c-5.659 14.1-9.706 28.878-12.072 43.917-2.417 15.335-3.085 30.945-1.943 46.395.422 5.7-3.858 10.66-9.558 11.083z"/></g><path d="m104.952 348.189c3.243 6.166 6.827 12.153 10.744 17.915-10.974 9.024-20.67 19.589-28.662 31.369-3.121 4.606-9.312 5.9-14.004 2.997-.126-.078-.248-.161-.371-.243-4.728-3.204-5.961-9.642-2.756-14.37 9.678-14.27 21.561-26.987 35.049-37.668z" fill="#ff9f00"/><path d="m154.607 462.067c-1.522 5.505-7.222 8.738-12.732 7.212-.974-.269-1.875-.667-2.695-1.174-3.807-2.356-5.773-7.022-4.522-11.561 4.732-17.087 11.49-33.616 20.048-49.163 5.505 4.22 11.248 8.122 17.204 11.69-7.346 13.633-13.175 28.088-17.303 42.996z" fill="#ff9f00"/><path d="m238.178 501.968c-2.259.167-4.409-.405-6.199-1.513-2.726-1.687-4.628-4.603-4.884-8.044-1.257-16.961-.527-34.098 2.106-50.94 6.762 1.402 13.595 2.418 20.477 3.019-2.417 15.335-3.085 30.945-1.943 46.395.423 5.7-3.857 10.66-9.557 11.083z" fill="#ff9f00"/><path d="m141.564 211.131c-26.58-31.601-42.597-87.009-20.833-123.289 7.779-12.969 19.501-22.889 35.904-27.472 27.703-7.74 49.64 3.275 66.68 25.688 10.673 14.039 18.41 30.096 29.349 43.939 10.381 13.137 24.664 21.584 38.467 30.661 28.968 19.049 37.274 45.382 28.977 68.699-1.022 2.886-2.39 5.62-4.132 8.143-34.614 50.161-111.446 48.498-174.412-26.369z" fill="#ffe853"/><path d="m141.564 211.131c-26.58-31.601-42.597-87.009-20.833-123.289 7.779-12.969 19.503-22.89 35.906-27.473-.809 29.568 6.76 59.381 21.881 84.816 19.292 32.452 50.71 57.495 86.638 69.072 17.993 5.799 37.437 8.53 54.952 15.099-1.022 2.886-2.39 5.62-4.132 8.143-34.614 50.162-111.446 48.499-174.412-26.368z" fill="#fed110"/><path d="m209.802 108.829c-14.884 1.568-29.432 5.803-42.856 12.35-11.014 5.374-21.264 12.298-30.328 20.582-3.541 3.239-8.994 3.086-12.35-.289-.09-.09-.176-.184-.262-.279-3.326-3.635-3.071-9.283.564-12.609 10.977-10.035 23.493-18.326 36.948-24.588 14.621-6.81 30.347-11.229 46.414-12.924 4.903-.516 9.294 3.04 9.809 7.943.519 4.901-3.036 9.298-7.939 9.814z" fill="#fed110"/><path d="m168.257 212.985c-.763-.421-1.44-.935-2.026-1.525-2.722-2.739-3.438-7.048-1.48-10.605 7.391-13.389 16.37-25.904 26.662-37.236 10.245-11.27 21.789-21.372 34.341-29.981 4.07-2.787 9.622-1.746 12.416 2.316 2.783 4.066 1.746 9.621-2.316 12.408-11.877 8.138-22.755 17.751-32.346 28.508-8.892 9.969-16.676 20.929-23.124 32.611-2.379 4.315-7.809 5.886-12.127 3.504z" fill="#fed110"/><path d="m242.514 259.689c-1.929-.312-3.618-1.223-4.898-2.511-1.949-1.961-2.962-4.788-2.488-7.726 2.341-14.483 6.383-28.715 11.964-42.318 5.523-13.445 12.537-26.273 20.922-38.111 2.847-4.024 8.415-4.978 12.44-2.131 4.024 2.847 4.982 8.419 2.135 12.443-7.57 10.697-13.924 22.286-18.92 34.431-5.098 12.382-8.783 25.346-10.917 38.538-.787 4.866-5.371 8.171-10.238 7.385z" fill="#fed110"/><path d="m161.518 103.996c1.487 5.823 3.295 11.563 5.428 17.182-11.014 5.374-21.264 12.298-30.328 20.582-3.541 3.239-8.994 3.086-12.35-.289-.09-.09-.176-.184-.262-.279-3.326-3.635-3.071-9.283.564-12.609 10.977-10.033 23.493-18.325 36.948-24.587z" fill="#ff9f00"/><path d="m180.384 209.482c-2.379 4.314-7.809 5.885-12.126 3.503-.763-.421-1.44-.935-2.026-1.525-2.722-2.739-3.438-7.048-1.48-10.605 7.391-13.389 16.37-25.904 26.662-37.236 3.774 4.643 7.811 9.066 12.095 13.252-8.893 9.969-16.677 20.929-23.125 32.611z" fill="#ff9f00"/><path d="m242.514 259.689c-1.929-.312-3.618-1.223-4.898-2.511-1.949-1.961-2.962-4.788-2.488-7.726 2.341-14.483 6.383-28.715 11.964-42.318 5.392 2.53 10.923 4.75 16.576 6.632-5.098 12.382-8.783 25.346-10.917 38.538-.786 4.866-5.37 8.171-10.237 7.385z" fill="#ff9f00"/><path d="m475.509 317.839c18.549-34.257 22.808-88.504-4.205-117.888-9.655-10.504-22.375-17.44-38.404-18.555-27.071-1.882-45.247 12.47-56.729 36.423-7.192 15.003-11.285 31.312-18.76 46.185-7.093 14.114-18.684 24.637-29.712 35.651-23.144 23.113-25.809 49.027-13.706 68.994 1.493 2.473 3.278 4.738 5.368 6.739 41.528 39.765 112.208 23.611 156.148-57.549z" fill="#ffe853"/><path d="m475.509 317.839c18.549-34.257 22.808-88.504-4.205-117.888-9.656-10.504-22.376-17.441-38.406-18.555 6.373 27.168 5.051 56.157-4.083 82.536-11.652 33.657-35.92 62.776-66.917 80.308-15.523 8.782-32.971 15.004-47.905 24.407 1.493 2.473 3.278 4.738 5.368 6.739 41.528 39.767 112.208 23.613 156.148-57.547z" fill="#fed110"/><path d="m392.991 236.29c14.052-1.382 28.301-.237 41.95 3.258 11.2 2.871 21.988 7.319 31.94 13.249 3.888 2.32 8.898 1.14 11.357-2.617.066-.101.128-.204.189-.307 2.382-3.992 1.072-9.162-2.92-11.544-12.052-7.184-25.195-12.465-38.819-15.691-14.806-3.511-30.178-4.603-45.347-3.112-4.629.456-8.009 4.577-7.553 9.206.452 4.627 4.574 8.014 9.203 7.558z" fill="#fed110"/><path d="m451.195 324.631c.625-.534 1.153-1.138 1.582-1.794 1.995-3.048 1.836-7.166-.65-10.081-9.377-10.966-20.055-20.822-31.721-29.335-11.611-8.465-24.2-15.603-37.437-21.17-4.291-1.801-9.223.217-11.032 4.503-1.798 4.287.217 9.223 4.501 11.025 12.523 5.261 24.404 12.074 35.313 20.189 10.113 7.52 19.391 16.167 27.572 25.735 3.02 3.532 8.336 3.951 11.872.928z" fill="#fed110"/><path d="m391.464 381.915c1.723-.656 3.111-1.818 4.049-3.252 1.428-2.183 1.826-4.988.829-7.613-4.918-12.937-11.361-25.319-19.106-36.828-7.661-11.373-16.583-21.892-26.584-31.236-3.396-3.177-8.723-2.999-11.9.398-3.177 3.396-3.001 8.727.395 11.904 9.031 8.445 17.107 17.944 24.033 28.216 7.066 10.472 12.938 21.75 17.42 33.534 1.652 4.347 6.516 6.529 10.864 4.877z" fill="#fed110"/><path d="m436.688 222.638c-.266 5.663-.845 11.312-1.747 16.91 11.2 2.871 21.988 7.319 31.94 13.249 3.888 2.32 8.898 1.14 11.357-2.617.066-.101.128-.204.189-.307 2.382-3.992 1.072-9.162-2.92-11.544-12.052-7.184-25.195-12.464-38.819-15.691z" fill="#ff9f00"/><path d="m439.324 323.701c3.019 3.534 8.335 3.953 11.872.93.625-.534 1.153-1.138 1.582-1.794 1.995-3.048 1.836-7.166-.65-10.081-9.377-10.966-20.055-20.822-31.721-29.335-2.604 5.008-5.493 9.863-8.655 14.547 10.113 7.518 19.391 16.165 27.572 25.733z" fill="#ff9f00"/><path d="m391.464 381.915c1.723-.656 3.111-1.818 4.049-3.252 1.428-2.183 1.826-4.988.829-7.613-4.918-12.937-11.361-25.319-19.106-36.828-4.501 3.364-9.189 6.468-14.056 9.282 7.066 10.472 12.938 21.75 17.42 33.534 1.652 4.347 6.516 6.529 10.864 4.877z" fill="#ff9f00"/></svg>