<svg id="Capa_1" enable-background="new 0 0 512 512" height="512" viewBox="0 0 512 512" width="512" xmlns="http://www.w3.org/2000/svg"><circle cx="256" cy="256" fill="#4e689b" r="256"/><path d="m512 256c0 87.11-43.52 164.07-110 210.31-41.41 28.8-91.73 45.69-146 45.69s-104.59-16.89-146-45.69c-66.48-46.24-110-123.2-110-210.31 0-46.22 12.25-89.57 33.68-127 44.12 77.07 127.16 129 222.32 129s178.21-51.93 222.32-129c21.43 37.43 33.68 80.78 33.68 127z" fill="#374c81"/><path d="m478.44 329.8c0 25.12-4.16 49.26-11.84 71.78-.01 0-.01.01-.01.01-46.21 66.71-123.3 110.41-210.59 110.41s-164.38-43.7-210.59-110.41c-7.69-22.52-11.85-46.67-11.85-71.79 0-61.42 24.9-117.03 65.16-157.28 36.48-36.49 85.58-60.36 140.2-64.5 9.22-.7 17.08 6.59 17.08 15.83v205.95l145.63-145.63c6.49-6.49 17.19-6.19 23.17.77 33.44 38.91 53.64 89.53 53.64 144.86z" fill="#f4873d"/><path d="m478.44 329.8c0 25.12-4.16 49.27-11.85 71.79-46.21 66.71-123.3 110.41-210.59 110.41v-182.2l145.63-145.63c6.49-6.49 17.19-6.19 23.17.77 33.44 38.91 53.64 89.53 53.64 144.86z" fill="#ec781b"/><path d="m434.984 329.8c0 49.426-20.038 94.167-52.428 126.567-32.389 32.39-77.13 52.428-126.557 52.428s-94.167-20.038-126.557-52.428c-32.389-32.4-52.428-77.141-52.428-126.567s20.038-94.178 52.428-126.557c32.39-32.389 77.13-52.428 126.557-52.428v178.985l105.676-105.676 20.88-20.881c32.391 32.379 52.429 77.13 52.429 126.557z" fill="#f79f63"/><path d="m434.984 329.8c0 49.426-20.038 94.167-52.428 126.567-32.389 32.39-77.13 52.428-126.557 52.428v-178.995l105.676-105.676 20.88-20.881c32.391 32.379 52.429 77.13 52.429 126.557z" fill="#f4873d"/><path d="m405.456 329.8c0 21.323 10.818 44.665 3.131 63.203-7.979 19.229-32.422 27.985-46.911 42.474s-23.245 38.943-42.473 46.911c-18.548 7.687-41.88-3.131-63.203-3.131s-44.665 10.818-63.203 3.131c-19.229-7.968-27.984-32.422-42.473-46.911s-38.932-23.245-46.911-42.474c-7.687-18.538 3.131-41.88 3.131-63.203s-10.818-44.654-3.131-63.203c7.979-19.229 32.422-27.985 46.911-42.473 14.489-14.478 23.245-38.932 42.473-46.9 18.538-7.698 41.88 3.131 63.203 3.131v149.445l105.676-105.676c14.489 14.489 38.932 23.245 46.911 42.473 7.687 18.548-3.131 41.88-3.131 63.203z" fill="#ffe853"/><path d="m405.456 329.8c0 21.323 10.818 44.665 3.131 63.203-7.979 19.229-32.422 27.985-46.911 42.474s-23.245 38.943-42.473 46.911c-18.548 7.687-41.88-3.131-63.203-3.131v-149.457l105.676-105.676c14.489 14.489 38.932 23.245 46.911 42.473 7.687 18.548-3.131 41.88-3.131 63.203z" fill="#fed110"/><path d="m422.094 125.011-133.208 133.208c-4.124 4.124-11.185 1.198-11.185-4.632v-188.41c0-10.17 8.659-18.278 18.797-17.425 47.245 3.951 90.28 22.673 124.495 51.521 7.838 6.607 8.345 18.494 1.101 25.738z" fill="#ec781b"/><path d="m404.257 142.844-20.88 20.88-94.492 94.492c-4.127 4.127-11.184 1.204-11.184-4.633v-163.167c49.426 0 94.166 20.039 126.556 52.428z" fill="#f4873d"/><path d="m383.377 163.728-94.491 94.491c-4.124 4.124-11.185 1.198-11.185-4.632v-133.628c21.323 0 44.654-10.829 63.203-3.131 19.228 7.968 27.984 32.411 42.473 46.9z" fill="#fed110"/><ellipse cx="156.792" cy="280.626" fill="#fe3345" rx="24.053" ry="24.053" transform="matrix(.942 -.336 .336 .942 -85.161 68.981)"/><path d="m180.845 280.626c0 13.283-10.77 24.053-24.053 24.053v-48.107c13.283 0 24.053 10.771 24.053 24.054z" fill="#de1263"/><path d="m167.065 280.626c0 5.676-4.601 10.274-10.274 10.274-5.672 0-10.274-4.597-10.274-10.274 0-5.672 4.601-10.27 10.274-10.27 5.673.001 10.274 4.598 10.274 10.27z" fill="#ff6477"/><path d="m167.065 280.626c0 5.676-4.601 10.274-10.274 10.274v-20.543c5.673 0 10.274 4.597 10.274 10.269z" fill="#fe3345"/><ellipse cx="214.908" cy="420.17" fill="#fe3345" rx="24.053" ry="24.053" transform="matrix(.855 -.519 .519 .855 -186.893 172.614)"/><path d="m238.961 420.17c0 13.283-10.77 24.053-24.053 24.053v-48.107c13.283.001 24.053 10.771 24.053 24.054z" fill="#de1263"/><path d="m225.181 420.171c0 5.676-4.601 10.274-10.274 10.274-5.672 0-10.274-4.598-10.274-10.274 0-5.672 4.601-10.27 10.274-10.27s10.274 4.598 10.274 10.27z" fill="#ff6477"/><path d="m225.181 420.171c0 5.676-4.601 10.274-10.274 10.274v-20.543c5.673-.001 10.274 4.597 10.274 10.269z" fill="#fe3345"/><ellipse cx="342.184" cy="399.627" fill="#fe3345" rx="24.053" ry="24.053" transform="matrix(.989 -.151 .151 .989 -56.277 56.087)"/><path d="m366.238 399.627c0 13.283-10.77 24.053-24.053 24.053v-48.107c13.282 0 24.053 10.771 24.053 24.054z" fill="#de1263"/><path d="m352.458 399.628c0 5.676-4.601 10.274-10.274 10.274-5.672 0-10.274-4.598-10.274-10.274 0-5.672 4.601-10.27 10.274-10.27s10.274 4.597 10.274 10.27z" fill="#ff6477"/><path d="m352.458 399.628c0 5.676-4.601 10.274-10.274 10.274v-20.543c5.673-.001 10.274 4.596 10.274 10.269z" fill="#fe3345"/><ellipse cx="342.184" cy="301.819" fill="#fe3345" rx="24.053" ry="24.053" transform="matrix(.227 -.974 .974 .227 -29.543 566.401)"/><path d="m366.238 301.819c0 13.283-10.77 24.053-24.053 24.053v-48.107c13.282.001 24.053 10.771 24.053 24.054z" fill="#de1263"/><path d="m352.458 301.82c0 5.676-4.601 10.274-10.274 10.274-5.672 0-10.274-4.598-10.274-10.274 0-5.672 4.601-10.27 10.274-10.27s10.274 4.598 10.274 10.27z" fill="#ff6477"/><path d="m352.458 301.82c0 5.676-4.601 10.274-10.274 10.274v-20.544c5.673 0 10.274 4.598 10.274 10.27z" fill="#fe3345"/><ellipse cx="312.021" cy="164.186" fill="#fe3345" rx="24.053" ry="24.053" transform="matrix(.336 -.942 .942 .336 52.576 402.937)"/><path d="m336.075 164.186c0 13.283-10.77 24.053-24.053 24.053v-48.107c13.282 0 24.053 10.771 24.053 24.054z" fill="#de1263"/><path d="m322.295 164.187c0 5.676-4.601 10.274-10.274 10.274-5.672 0-10.274-4.598-10.274-10.274 0-5.672 4.601-10.27 10.274-10.27s10.274 4.597 10.274 10.27z" fill="#ff6477"/><path d="m322.295 164.187c0 5.676-4.601 10.274-10.274 10.274v-20.543c5.673-.001 10.274 4.596 10.274 10.269z" fill="#fe3345"/><path d="m184.863 221.318 13.999-10.058c4.327-3.109 10.354-2.121 13.462 2.206 3.108 4.327 2.121 10.354-2.206 13.462l-13.999 10.058c-4.327 3.109-10.354 2.121-13.462-2.206-3.108-4.326-2.12-10.353 2.206-13.462z" fill="#00a042"/><g fill="#6cdc2d"><path d="m383.447 267.693 12.792 11.554c3.954 3.571 4.264 9.671.693 13.624-3.571 3.953-9.671 4.264-13.624.693l-12.792-11.554c-3.954-3.571-4.264-9.671-.693-13.624 3.571-3.954 9.67-4.264 13.624-.693z"/><path d="m205.795 301.874 13.999-10.058c4.327-3.108 10.354-2.121 13.462 2.206 3.108 4.327 2.121 10.354-2.206 13.462l-13.999 10.058c-4.327 3.108-10.354 2.121-13.462-2.206-3.109-4.327-2.121-10.354 2.206-13.462z"/><path d="m299.393 347.918 13.999-10.058c4.326-3.108 10.354-2.121 13.462 2.206 3.108 4.327 2.121 10.354-2.206 13.462l-13.999 10.058c-4.327 3.108-10.354 2.121-13.462-2.206-3.108-4.326-2.12-10.354 2.206-13.462z"/><path d="m296.307 210.584 13.999-10.058c4.327-3.109 10.354-2.121 13.462 2.206 3.108 4.327 2.121 10.354-2.206 13.462l-13.999 10.058c-4.327 3.108-10.354 2.121-13.462-2.206-3.108-4.326-2.121-10.354 2.206-13.462z"/></g><path d="m148.478 342.071 15.22 8.092c4.704 2.501 6.49 8.342 3.989 13.046-2.501 4.704-8.342 6.49-13.046 3.989l-15.22-8.092c-4.704-2.501-6.49-8.342-3.989-13.046 2.502-4.704 8.342-6.49 13.046-3.989z" fill="#00a042"/><path d="m284.886 404.428 15.22 8.092c4.704 2.501 6.49 8.342 3.989 13.046-2.501 4.704-8.342 6.49-13.046 3.989l-15.22-8.092c-4.704-2.501-6.49-8.342-3.989-13.046 2.502-4.704 8.342-6.49 13.046-3.989z" fill="#00a042"/><path d="m305.853 101.501 15.22 8.092c4.704 2.501 6.49 8.342 3.989 13.046-2.501 4.704-8.342 6.49-13.046 3.989l-15.22-8.092c-4.704-2.501-6.49-8.342-3.989-13.046 2.501-4.704 8.342-6.49 13.046-3.989z" fill="#00a042"/></svg>