<svg id="Capa_1" enable-background="new 0 0 512 512" height="512" viewBox="0 0 512 512" width="512" xmlns="http://www.w3.org/2000/svg"><path d="m512 256.001c0 89.5-45.93 168.27-115.5 214.029l-22.044 6.585c-77.299 23.091-159.645 23.196-237.003.303l-20.843-6.168c-70.19-45.65-116.61-124.78-116.61-214.75 0-141.351 114.574-255.954 255.915-256 141.047-.046 256.085 114.953 256.085 256.001z" fill="#4e689b"/><path d="m512 256c0 87.11-43.52 164.07-110 210.31-1.82 1.26-3.65 2.5-5.5 3.72h-.01l-22.03 6.581c-77.301 23.093-159.65 23.199-237.011.306l-20.839-6.167c-2.23-1.44-4.43-2.92-6.61-4.44-66.48-46.24-110-123.2-110-210.31 0-46.22 12.25-89.57 33.68-127 44.12 77.07 127.16 129 222.32 129s178.21-51.93 222.32-129c21.43 37.43 33.68 80.78 33.68 127z" fill="#374c81"/><path d="m331.935 85.109c19.628-.177 31.516 21.76 20.509 38.012-.445.657-.903 1.308-1.372 1.953-8.581 11.77-20.467 20.28-34.374 24.611-12.843 3.999-23.82 11.858-31.744 22.728-7.925 10.87-12.048 23.724-11.927 37.175l-32.051.29c-.184-20.388 6.067-39.872 18.077-56.346 12.011-16.475 28.648-28.388 48.115-34.449 14.954-4.658 24.908-18.311 24.767-33.974z" fill="#ec781b"/><path d="m414.127 72.832.299.69c7.208 16.643 6.609 35.507-1.099 51.924-4.76 10.139-7.216 21.302-7.102 32.834.241 24.353-19.39 44.255-43.743 44.475l-42.465.384c-17.958.162-32.437 14.905-32.275 32.863l-32.051.29c-.322-35.631 28.405-64.882 64.036-65.204l42.465-.384c6.708-.061 12.034-5.597 11.98-12.306-.232-28.708 10.716-55.793 30.835-76.28z" fill="#ec781b"/><path d="m179.828 86.483c.142 15.663 10.34 29.134 25.377 33.52 19.573 5.709 36.423 17.318 48.73 33.573 12.306 16.256 18.908 35.623 19.093 56.011l-32.051.29c-.122-13.45-4.477-26.229-12.597-36.953-8.12-10.725-19.236-18.384-32.149-22.15-13.983-4.079-26.021-12.373-34.813-23.986-.481-.636-.95-1.278-1.407-1.927-11.302-16.051.188-38.2 19.817-38.378z" fill="#f4873d"/><path d="m97.426 75.694 9.286 9.12c20.486 20.119 31.922 47.003 32.208 75.71.067 6.708 5.492 12.148 12.201 12.087l42.465-.384c35.632-.322 64.883 28.405 65.204 64.036l-32.051.29c-.162-17.958-14.905-32.437-32.864-32.275l-42.465.384c-24.353.22-44.34-19.322-44.539-43.676-.094-11.533-2.751-22.65-7.694-32.701-8.004-16.276-8.944-35.125-2.038-51.896z" fill="#f4873d"/><path d="m283.45 212.22c.22 24-9.75 45.72-25.87 61.04-.53-.49-1.06-.98-1.58-1.49-15.48-14.94-25.19-35.85-25.4-59.07-.18-19.5 6.37-37.49 17.47-51.77 2.04-2.62 4.95-4.01 7.93-4.18 3.33-.2 6.72 1.14 9.05 4.03 11.36 14.08 18.22 31.94 18.4 51.44z" fill="#ec781b"/><path d="m283.45 212.22c.22 24-9.75 45.72-25.87 61.04-.53-.49-1.06-.98-1.58-1.49v-115.02c3.33-.2 6.72 1.14 9.05 4.03 11.36 14.08 18.22 31.94 18.4 51.44z" fill="#c55733"/><path d="m330.64 239.99c0 24.56-19.91 44.47-44.48 44.47-11.31 0-21.63-4.23-29.48-11.19-.23.2-.45.4-.68.59-7.76 6.61-17.82 10.6-28.81 10.6-24.56 0-44.47-19.91-44.47-44.47 0-24.57 19.91-44.48 44.47-44.48 10.99 0 21.05 4 28.81 10.61.23.19.45.39.68.59 7.85-6.96 18.17-11.2 29.48-11.2 24.57 0 44.48 19.91 44.48 44.48z" fill="#f79f63"/><path d="m330.64 239.99c0 24.56-19.91 44.47-44.48 44.47-11.31 0-21.63-4.23-29.48-11.19-.23.2-.45.4-.68.59v-67.74c.23.19.45.39.68.59 7.85-6.96 18.17-11.2 29.48-11.2 24.57 0 44.48 19.91 44.48 44.48z" fill="#f4873d"/><path d="m396.5 470.03c-40.34 26.53-88.62 41.97-140.5 41.97-51.41 0-99.28-15.16-139.39-41.25 1.07-3.27 2.65-6.51 4.76-9.65l8.44-12.57c12.53-18.65 30.97-33.79 52.93-44.27 21.76-10.39 46.96-16.2 73.26-16.29.23-.01.45-.01.68-.01 53.06 0 101.81 23.28 126.86 60.57l8.44 12.57c1.96 2.91 3.46 5.91 4.52 8.93z" fill="#f79f63"/><path d="m396.5 470.03c-40.34 26.53-88.62 41.97-140.5 41.97v-124.03c.23-.01.45-.01.68-.01 53.06 0 101.81 23.28 126.86 60.57l8.44 12.57c1.96 2.91 3.46 5.91 4.52 8.93z" fill="#f4873d"/><path d="m350.89 306.86v.7c0 77.52-24.32 148.38-64.5 202.65-9.96 1.18-20.11 1.79-30.39 1.79-9.77 0-19.42-.55-28.91-1.62-40.26-54.29-64.62-125.22-64.62-202.82v-.7c.07-37 30.27-66.87 67.27-66.87h53.87c37 0 67.21 29.87 67.28 66.87z" fill="#f4873d"/><path d="m350.89 306.86v.7c0 77.52-24.32 148.38-64.5 202.65-9.96 1.18-20.11 1.79-30.39 1.79v-272.01h27.61c37 0 67.21 29.87 67.28 66.87z" fill="#ec781b"/><path d="m316.058 303.87c7.504 1.978 7.504 12.716 0 14.694-18.81 4.959-39.017 7.655-60.058 7.655s-41.248-2.696-60.058-7.655c-7.504-1.978-7.504-12.716 0-14.694 18.81-4.959 39.018-7.655 60.058-7.655s41.248 2.696 60.058 7.655z" fill="#ec781b"/><path d="m316.058 318.564c-18.81 4.959-39.017 7.655-60.058 7.655v-30.003c21.041 0 41.248 2.696 60.058 7.655 7.504 1.977 7.504 12.715 0 14.693z" fill="#c55733"/><path d="m316.058 365.611c7.504 1.978 7.504 12.716 0 14.694-18.81 4.959-39.017 7.655-60.058 7.655s-41.248-2.696-60.058-7.655c-7.504-1.978-7.504-12.716 0-14.694 18.81-4.959 39.018-7.655 60.058-7.655s41.248 2.696 60.058 7.655z" fill="#ec781b"/><path d="m316.058 380.306c-18.81 4.959-39.017 7.655-60.058 7.655v-30.003c21.041 0 41.248 2.696 60.058 7.655 7.504 1.977 7.504 12.714 0 14.693z" fill="#c55733"/><path d="m305.497 426.007c6.184 1.63 6.184 10.48 0 12.111-15.502 4.087-32.157 6.309-49.497 6.309-17.341 0-33.995-2.222-49.497-6.309-6.184-1.63-6.184-10.48 0-12.111 15.502-4.087 32.157-6.309 49.497-6.309 17.341 0 33.995 2.222 49.497 6.309z" fill="#ec781b"/><path d="m305.497 438.117c-15.502 4.087-32.157 6.309-49.497 6.309v-24.728c17.341 0 33.995 2.222 49.497 6.309 6.185 1.63 6.185 10.48 0 12.11z" fill="#c55733"/></svg>