<svg id="Capa_1" enable-background="new 0 0 512 512" height="512" viewBox="0 0 512 512" width="512" xmlns="http://www.w3.org/2000/svg"><circle cx="256" cy="256" fill="#ffe853" r="256"/><path d="m512 256c0 85.43-41.86 161.1-106.19 207.6-1.26.92-2.53 1.82-3.81 2.71-41.41 28.8-91.73 45.69-146 45.69s-104.59-16.89-146-45.69c-1.28-.89-2.55-1.79-3.81-2.71-64.33-46.5-106.19-122.17-106.19-207.6 0-46.22 12.25-89.57 33.68-127 18.18 31.77 42.98 59.25 72.51 80.59 42.12 30.46 93.87 48.41 149.81 48.41s107.69-17.94 149.81-48.41c29.54-21.33 54.33-48.82 72.51-80.59 21.43 37.43 33.68 80.78 33.68 127z" fill="#fed110"/><path d="m405.81 139.89v323.71c-1.26.92-2.53 1.82-3.81 2.71-41.41 28.8-91.73 45.69-146 45.69s-104.59-16.89-146-45.69c-1.28-.89-2.55-1.79-3.81-2.71v-323.71c0-20.85 16.91-37.76 37.76-37.76h224.1c20.85 0 37.76 16.91 37.76 37.76z" fill="#fff"/><path d="m405.81 139.89v323.71c-1.26.92-2.53 1.82-3.81 2.71-41.41 28.8-91.73 45.69-146 45.69v-409.87h112.05c20.85 0 37.76 16.91 37.76 37.76z" fill="#d1f6ff"/><path d="m240.91 260.974c0 40.451-16.029 77.167-42.079 104.126-26.055-26.959-42.084-63.675-42.084-104.126 0-15.967 2.499-31.348 7.124-45.776 6.211-19.395 16.266-37.066 29.265-52.12l5.927 8.668 5.719-8.36c12.876 14.987 22.836 32.55 29.009 51.812 4.624 14.429 7.119 29.809 7.119 45.776z" fill="#8fc8f5"/><path d="m233.79 215.198c-10.031 6.613-22.046 10.462-34.96 10.462s-24.929-3.849-34.96-10.462c6.211-19.395 16.266-37.066 29.265-52.12l5.927 8.668 5.719-8.36c12.876 14.987 22.836 32.55 29.009 51.812z" fill="#d1f6ff"/><ellipse cx="190.937" cy="189.271" fill="#4e689b" rx="7.894" ry="7.894" transform="matrix(.16 -.987 .987 .16 -26.412 347.511)"/><path d="m355.253 260.974c0 40.451-16.029 77.167-42.079 104.126-26.055-26.959-42.084-63.675-42.084-104.126 0-15.967 2.5-31.348 7.125-45.776 6.211-19.395 16.266-37.066 29.265-52.12l5.927 8.668 5.718-8.36c12.876 14.987 22.836 32.55 29.009 51.812 4.625 14.429 7.119 29.809 7.119 45.776z" fill="#65b2fe"/><path d="m348.134 215.198c-10.031 6.613-22.046 10.462-34.96 10.462s-24.929-3.849-34.96-10.462c6.211-19.395 16.266-37.066 29.265-52.12l5.927 8.668 5.718-8.36c12.877 14.987 22.837 32.55 29.01 51.812z" fill="#8fc8f5"/><ellipse cx="305.28" cy="189.271" fill="#4e689b" rx="7.894" ry="7.894" transform="matrix(.16 -.987 .987 .16 69.661 460.386)"/><path d="m368.046 463.069h-224.092v-323.175h224.091v323.175zm.004-360.939h-224.1c-20.85 0-37.76 16.91-37.76 37.76v323.71c42.12 30.45 93.87 48.4 149.81 48.4s107.69-17.95 149.81-48.4v-323.71c0-20.85-16.91-37.76-37.76-37.76z" fill="#adb6bc"/><path d="m405.81 139.89v323.71c-42.12 30.45-93.87 48.4-149.81 48.4v-48.93h112.05v-323.18h-112.05v-37.76h112.05c20.85 0 37.76 16.91 37.76 37.76z" fill="#8b969f"/><path d="m415.25 278.22v178.22c-43.71 34.78-99.06 55.56-159.25 55.56s-115.54-20.78-159.25-55.56v-178.22z" fill="#4e689b"/><path d="m415.25 278.22v178.22c-43.71 34.78-99.06 55.56-159.25 55.56v-233.78z" fill="#374c81"/><path d="m368.05 278.22v164.57c0 17.05-13.82 30.87-30.87 30.87h-162.36c-17.05 0-30.87-13.82-30.87-30.87v-164.57z" fill="#65b2fe"/><path d="m368.05 278.22v164.57c0 17.05-13.82 30.87-30.87 30.87h-81.18v-195.44z" fill="#0e9ce7"/><path d="m434.929 290.639v39.759c0 10.093-8.178 18.271-18.271 18.271h-321.317c-10.088 0-18.271-8.178-18.271-18.271v-39.759c0-10.093 8.183-18.271 18.271-18.271h321.317c10.094.001 18.271 8.178 18.271 18.271z" fill="#4e689b"/><path d="m474.171 281.503h-8.704c-6.357 0-11.511 5.154-11.511 11.511 0 4.707-3.816 8.523-8.523 8.523h-119.31v17.963h119.31c4.707 0 8.523 3.816 8.523 8.523 0 6.358 5.154 11.511 11.511 11.511h8.704c6.357 0 11.511-5.154 11.511-11.511v-35.009c.001-6.357-5.153-11.511-11.511-11.511z" fill="#8b969f"/><path d="m434.929 290.639v39.759c0 10.091-8.18 18.271-18.271 18.271h-272.704v-76.3h272.704c10.091 0 18.271 8.18 18.271 18.27z" fill="#374c81"/><path d="m434.929 290.639v39.759c0 10.093-8.178 18.271-18.271 18.271h-160.658v-76.3h160.659c10.093 0 18.27 8.177 18.27 18.27z" fill="#234177"/></svg>