<svg id="Capa_1" enable-background="new 0 0 512 512" height="512" viewBox="0 0 512 512" width="512" xmlns="http://www.w3.org/2000/svg"><path d="m511.998 255.072c.39 110.06-68.685 204.045-165.878 240.608h-.01l-18.263 3.308c-47.512 8.605-96.183 8.605-143.694 0l-18.263-3.308h-.01c-96.92-36.46-165.88-130.02-165.88-239.68 0-141.242 114.396-255.776 255.586-256 140.747-.223 255.913 114.325 256.412 255.072z" fill="#b6e337"/><path d="m512 256c0 87.11-43.52 164.07-110 210.31-17.2 11.97-35.95 21.87-55.88 29.37l-18.281 3.311c-47.507 8.603-96.172 8.603-143.679 0l-18.281-3.311c-19.93-7.5-38.68-17.4-55.88-29.37-66.479-46.24-109.999-123.2-109.999-210.31 0-46.22 12.25-89.57 33.68-127 44.12 77.07 127.16 129 222.32 129s178.21-51.93 222.32-129c21.43 37.43 33.68 80.78 33.68 127z" fill="#6cdc2d"/><path d="m354.52 386.92v3.02c0 9.44-.44 18.88-1.3 28.29l-4.42 48.21-2.68 29.24c-7.97 3-16.13 5.61-24.46 7.81-20.96 5.56-42.96 8.51-65.66 8.51-15.53 0-30.74-1.38-45.51-4.03-6.81-1.23-13.53-2.72-20.15-4.48-8.33-2.2-16.49-4.81-24.46-7.81l-2.68-29.24-4.42-48.21c-.86-9.41-1.3-18.86-1.3-28.29v-3.02c0-23.75 2.61-47.38 7.92-70.41 4.29-18.66 10.35-36.9 18.21-54.46 16.41-36.66 25.02-76.54 25.02-117.1v-1.77c0-6.86-1.59-13.58-4.09-19.96-.81-2.04-1.25-4.27-1.23-6.61.04-9.92 8.43-17.8 18.36-17.8h68.66c9.93 0 18.32 7.88 18.36 17.8.02 2.34-.42 4.57-1.23 6.61-2.5 6.38-4.09 13.1-4.09 19.96v1.77c0 40.56 8.61 80.44 25.02 117.1 7.86 17.56 13.92 35.8 18.21 54.46 5.31 23.03 7.92 46.66 7.92 70.41z" fill="#fefefe"/><path d="m354.52 386.92v3.02c0 9.44-.44 18.88-1.3 28.29l-4.42 48.21-2.68 29.24c-7.97 3-16.13 5.61-24.46 7.81-20.96 5.56-42.96 8.51-65.66 8.51-15.53 0-30.74-1.38-45.51-4.03l-2.1-41.53-2.44-48.21c-.47-9.41-.71-18.86-.71-28.29v-3.02c0-23.75 1.44-47.38 4.37-70.41 2.36-18.66 5.7-36.9 10.04-54.46 9.05-36.66 13.79-76.54 13.79-117.1v-1.77c0-6.86-.87-13.58-2.25-19.96-.44-2.04-.69-4.27-.67-6.61.02-9.92 4.64-17.8 10.12-17.8h49.69c9.93 0 18.32 7.88 18.36 17.8.02 2.34-.42 4.57-1.23 6.61-2.5 6.38-4.09 13.1-4.09 19.96v1.77c0 40.56 8.61 80.44 25.02 117.1 7.86 17.56 13.92 35.8 18.21 54.46 5.31 23.03 7.92 46.66 7.92 70.41z" fill="#d1f6ff"/><path d="m354.52 386.92v3.02c0 9.44-.44 18.88-1.3 28.29l-4.42 48.21-2.68 29.24c-7.97 3-16.13 5.61-24.46 7.81-20.96 5.56-42.96 8.51-65.66 8.51v-413.19h34.33c9.93 0 18.32 7.88 18.36 17.8.02 2.34-.42 4.57-1.23 6.61-2.5 6.38-4.09 13.1-4.09 19.96v1.77c0 40.56 8.61 80.44 25.02 117.1 7.86 17.56 13.92 35.8 18.21 54.46 5.31 23.03 7.92 46.66 7.92 70.41z" fill="#8fc8f5"/><path d="m329.39 386.92v3.02c0 8.61-.4 17.35-1.19 25.99l-6.54 87.56c-20.96 5.56-42.96 8.51-65.66 8.51s-44.7-2.95-65.66-8.51l-6.54-87.56c-.79-8.64-1.19-17.39-1.19-25.99v-3.02c0-22.03 2.44-43.82 7.27-64.77 3.49-15.14 8.23-29.9 14.12-43.99h104c5.88 14.08 10.63 28.85 14.12 44 4.83 20.94 7.27 42.73 7.27 64.76z" fill="#83250d"/><path d="m329.39 386.92v3.02c0 8.61-.4 17.35-1.19 25.99l-6.54 87.56c-20.96 5.56-42.96 8.51-65.66 8.51v-233.84h52c5.88 14.08 10.63 28.85 14.12 44 4.83 20.94 7.27 42.73 7.27 64.76z" fill="#531d10"/><path d="m323.932 117.785v-29.159c0-5.396-4.369-9.776-9.765-9.776h-116.334c-5.396 0-9.765 4.38-9.765 9.776v29.159z" fill="#4e689b"/><path d="m323.932 117.785v-29.159c0-5.396-4.369-9.776-9.765-9.776h-58.167v38.935z" fill="#374c81"/><path d="m354.518 386.921v3.015c0 .513 0 1.027-.011 1.54-.033 8.935-.47 17.859-1.289 26.751l-1.518 16.538-2.895 31.678h-185.61l-4.413-48.215c-.765-8.335-1.191-16.702-1.278-25.069-.011-1.07-.022-2.152-.022-3.222v-3.015c0-13.108.797-26.183 2.403-39.138 1.3-10.519 3.135-20.962 5.516-31.274h181.197c5.309 23.026 7.92 46.664 7.92 70.411z" fill="#de1263"/><path d="m354.518 386.921v3.015c0 .513 0 1.027-.011 1.54-.033 8.935-.47 17.859-1.289 26.751l-1.518 16.538-2.895 31.678h-92.805v-149.934h90.598c5.309 23.027 7.92 46.665 7.92 70.412z" fill="#bc0e5c"/><path d="m354.507 391.477c-.033 8.935-.47 17.859-1.289 26.751l-1.518 16.538h-94.476c-18.843 0-36.91-7.482-50.237-20.809-6.652-6.652-14.506-11.863-23.037-15.402-8.313-3.441-17.281-5.309-26.445-5.396-.011-1.07-.022-2.152-.022-3.222v-3.015c0-13.108.797-26.183 2.403-39.138h52.825c13.654 0 26.566 6.226 35.075 16.909 6.74 8.466 15.227 15.151 24.73 19.738 9.503 4.577 20.022 7.046 30.837 7.046z" fill="#d1f6ff"/></svg>