<svg id="Capa_1" enable-background="new 0 0 512 512" height="512" viewBox="0 0 512 512" width="512" xmlns="http://www.w3.org/2000/svg"><circle cx="256" cy="256" fill="#ffe853" r="256"/><path d="m512 256c0 87.11-43.52 164.07-110 210.31-41.41 28.8-91.73 45.69-146 45.69s-104.59-16.89-146-45.69c-66.48-46.24-110-123.2-110-210.31 0-46.22 12.25-89.57 33.68-127 44.12 77.07 127.16 129 222.32 129s178.21-51.93 222.32-129c21.43 37.43 33.68 80.78 33.68 127z" fill="#fed110"/><path d="m68.477 286.094h71.269v30.794h-71.269z" fill="#de1263"/><path d="m178.712 137.514c-2.325 11.11-6.251 21.851-11.616 31.88l.017-.005-18.455 33.835c-12.726 23.342-31.228 41.531-52.753 53.764 3.638 14.677 1.998 30.696-5.813 45.018l-.052.094c-2.769 5.066-6.775 9.348-11.646 12.447-8.231 5.237-19.149 2.236-23.625-6.433-.304-.588-.604-1.178-.9-1.769-12.194-24.123-18.965-50.773-19.731-77.887-.073-.565-.159-1.151-.215-1.739-.036-.354-.068-.715-.095-1.077-.406-5.368-.472-10.775-.237-16.189.752-17.653 4.938-35.403 12.859-52.251 1.186-2.559 2.468-5.102 3.848-7.632 18.853-34.558 50.368-57.821 85.649-67.168 6.548-1.747 11.979 5.174 8.747 11.1l.189.099c-2.141 3.926 2.174 6.28.041 10.192-2.143 3.92-6.457 1.572-8.587 5.476-2.133 3.911 2.177 6.267.049 10.177-2.141 3.926-6.457 1.572-8.591 5.484-2.133 3.911 2.181 6.26.039 10.186-2.136 3.924-6.452 1.571-8.585 5.482s2.181 6.26.039 10.186c-2.136 3.924-6.452 1.57-8.585 5.482-2.141 3.926 2.173 6.274.031 10.2-.16.294-.324.534-.503.765.066-.026.152-.051.247-.104 3.933-2.095 1.631-6.437 5.559-8.53 3.943-2.104 6.259 2.245 10.195.137 3.935-2.09 1.64-6.427 5.573-8.522 3.929-2.088 6.239 2.239 10.174.149 3.933-2.095 1.648-6.441 5.576-8.535 3.933-2.095 6.244 2.237 10.178.142 3.942-2.085 1.64-6.427 5.568-8.521 3.933-2.095 6.244 2.237 10.177.142 2.708-1.45 5.876.927 5.234 3.925z" fill="#bc0e5c"/><path d="m95.905 256.987c3.638 14.677 1.998 30.696-5.813 45.018l-.052.095c-2.769 5.066-6.775 9.348-11.646 12.447-8.231 5.237-19.149 2.236-23.625-6.433-.304-.588-.604-1.178-.9-1.769-12.194-24.123-18.965-50.773-19.731-77.887-.074-.564 61.767 28.529 61.767 28.529z" fill="#fe3345"/><path d="m372.254 286.094h71.269v30.794h-71.269z" fill="#bc0e5c"/><path d="m333.289 137.514c2.325 11.11 6.251 21.851 11.616 31.88l-.017-.005 18.455 33.835c12.726 23.342 31.228 41.531 52.753 53.764-3.638 14.677-1.998 30.696 5.813 45.018l.052.094c2.768 5.066 6.775 9.348 11.646 12.447 8.231 5.237 19.149 2.236 23.625-6.433.304-.588.604-1.178.9-1.769 12.194-24.123 18.965-50.773 19.731-77.887.074-.565.159-1.151.215-1.739.036-.354.068-.715.095-1.077.406-5.368.472-10.775.237-16.189-.752-17.653-4.938-35.403-12.859-52.251-1.186-2.559-2.468-5.102-3.848-7.632-18.853-34.558-50.368-57.821-85.649-67.168-6.548-1.747-11.979 5.174-8.746 11.1l-.19.099c2.142 3.926-2.174 6.28-.041 10.192 2.143 3.92 6.457 1.572 8.587 5.476 2.133 3.911-2.177 6.267-.049 10.177 2.141 3.926 6.457 1.572 8.591 5.484 2.133 3.911-2.181 6.26-.039 10.186 2.136 3.924 6.452 1.571 8.585 5.482s-2.181 6.26-.039 10.186c2.136 3.924 6.452 1.57 8.585 5.482 2.141 3.926-2.173 6.274-.031 10.2.16.294.324.534.503.765-.066-.026-.152-.051-.247-.104-3.933-2.095-1.631-6.437-5.559-8.53-3.943-2.104-6.259 2.245-10.195.137-3.935-2.09-1.64-6.427-5.573-8.522-3.929-2.088-6.239 2.239-10.173.149-3.933-2.095-1.648-6.441-5.576-8.535-3.933-2.095-6.245 2.237-10.178.142-3.942-2.085-1.64-6.427-5.568-8.521-3.933-2.095-6.244 2.237-10.177.142-2.71-1.45-5.878.927-5.235 3.925z" fill="#bc0e5c"/><path d="m416.095 256.987c-3.638 14.677-1.998 30.696 5.813 45.018l.052.094c2.768 5.066 6.775 9.348 11.646 12.447 8.231 5.237 19.149 2.236 23.625-6.433.304-.588.604-1.178.9-1.769 12.194-24.123 18.965-50.773 19.731-77.887.074-.563-61.767 28.53-61.767 28.53z" fill="#de1263"/><path d="m246.025 305.268c-2.496 2.496-5.773 3.744-9.05 3.744-3.268 0-6.545-1.248-9.041-3.744l-10.908-10.908c-10.879-10.879-18.262-24.322-21.597-38.964-1.334-5.849-2.02-11.899-2.02-18.043v-.553c0-7.069 5.725-12.794 12.794-12.794s12.794 5.726 12.794 12.794v.552c0 6.23 1.029 12.318 3.02 18.043 2.677 7.774 7.116 14.89 13.099 20.873l10.908 10.908c4.994 4.992 4.994 13.09.001 18.092z" fill="#fff"/><path d="m318.59 236.8v.552c0 6.145-.686 12.194-2.02 18.043-3.334 14.643-10.717 28.085-21.597 38.964l-10.908 10.908c-2.496 2.496-5.773 3.744-9.041 3.744-3.277 0-6.554-1.248-9.05-3.744-4.992-5.001-4.992-13.099 0-18.091l10.908-10.908c5.983-5.983 10.422-13.099 13.099-20.873 1.991-5.726 3.02-11.813 3.02-18.043v-.552c0-7.069 5.725-12.794 12.794-12.794 7.069-.001 12.795 5.725 12.795 12.794z" fill="#fff"/><path d="m218.999 237.352c0 1.405.052 2.803.156 4.191.559 7.463-5.261 13.852-12.745 13.852-6.72 0-12.267-5.2-12.77-11.901-.153-2.034-.23-4.083-.23-6.143v-.194c0-6.891 5.298-12.818 12.182-13.139 7.348-.342 13.406 5.508 13.406 12.78v.554z" fill="#22283a"/><path d="m318.59 237.159v.193c0 2.06-.077 4.109-.23 6.143-.503 6.701-6.05 11.9-12.77 11.9-7.484 0-13.303-6.389-12.745-13.852.104-1.388.156-2.786.156-4.191v-.552c0-7.272 6.059-13.122 13.407-12.78 6.884.32 12.182 6.248 12.182 13.139z" fill="#22283a"/><g fill="#de1263"><path d="m178.79 350.63v34.89h-60.68l-23.22 23.23c-8.58 8.58-14.49 19.33-17.18 30.96-9.3-9.03-17.92-18.76-25.77-29.11 5.13-10.55 12.01-20.27 20.47-28.72 10.01-10 21.79-17.82 34.61-23.13s26.68-8.12 40.83-8.12z"/><path d="m145.39 456.28c-2.97 6.77-3.13 14.44-.44 21.33 1.3 3.36 2.06 6.79 2.29 10.2-12.99-6.1-25.39-13.27-37.08-21.39.2-11.39 2.65-22.75 7.32-33.39 4.64-10.58 11.29-20.02 19.46-27.87 8.18-7.84 17.89-14.09 28.65-18.29l22.5-8.78 12.68 32.52-42.64 16.63z"/><path d="m228.65 416.14c0 3.07-.89 6.17-2.76 8.89l-13.12 19.12c-8.79 12.82-.91 42.8-.91 42.8.15.84.28 1.67.39 2.5.98 7.59-1.3 13.62-5.26 17.86-13.27-2.57-26.18-6.17-38.63-10.71-.03-.11-.05-.22-.07-.34-.94-5.05-1.4-10.13-1.4-15.19 0-16.63 5-33.01 14.54-46.92l18.48-26.94c4.94-7.2 14.8-9.01 21.98-4.02 4.4 3.06 6.76 7.96 6.76 12.95z"/></g><path d="m460.05 410.59c-7.84 10.35-16.46 20.08-25.76 29.11-2.7-11.63-8.6-22.37-17.18-30.95l-23.22-23.23h-60.68v-34.89h30.94c14.15 0 28.01 2.81 40.83 8.12s24.6 13.13 34.61 23.13c8.45 8.45 15.34 18.17 20.46 28.71z" fill="#bc0e5c"/><path d="m367.05 477.61c2.69-6.89 2.53-14.56-.44-21.33l-12.74-29.04-42.64-16.63 12.68-32.52 22.5 8.78c10.76 4.2 20.47 10.45 28.65 18.29 8.17 7.85 14.82 17.29 19.46 27.87 4.67 10.64 7.12 22 7.32 33.39-11.69 8.12-24.09 15.28-37.08 21.39.23-3.41.99-6.84 2.29-10.2z" fill="#bc0e5c"/><path d="m345.11 481.07c0 5.06-.46 10.14-1.4 15.19-.02.12-.04.23-.07.34-12.47 4.55-25.39 8.15-38.68 10.72-3.91-4.19-6.16-10.14-5.24-17.62.11-.91 8.3-32.73-.49-45.55l-13.12-19.12c-1.87-2.72-2.76-5.82-2.76-8.89 0-4.99 2.36-9.89 6.76-12.95 7.18-4.99 17.04-3.18 21.98 4.02l18.48 26.94c9.54 13.91 14.54 30.29 14.54 46.92z" fill="#bc0e5c"/><path d="m397.34 315.586c-13.62 65.58-71.72 114.85-141.34 114.85s-127.72-49.27-141.34-114.85c-3.16-15.21 8.34-29.51 23.87-29.51h234.94c15.53-.001 27.03 14.299 23.87 29.51z" fill="#fe3345"/><path d="m397.34 315.586c-13.62 65.58-71.72 114.85-141.34 114.85v-144.36h117.47c15.53-.001 27.03 14.299 23.87 29.51z" fill="#de1263"/><path d="m318.59 348.066c0 4.44-1.8 8.46-4.71 11.37s-6.93 4.71-11.37 4.71h-93.02c-8.88 0-16.08-7.2-16.08-16.08 0-4.44 1.8-8.46 4.71-11.37s6.93-4.71 11.37-4.71h93.02c8.88 0 16.08 7.199 16.08 16.08z" fill="#de1263"/><path d="m318.59 348.066c0 4.44-1.8 8.46-4.71 11.37s-6.93 4.71-11.37 4.71h-46.51v-32.16h46.51c8.88 0 16.08 7.199 16.08 16.08z" fill="#bc0e5c"/></svg>