<svg id="Capa_1" enable-background="new 0 0 512 512" height="512" viewBox="0 0 512 512" width="512" xmlns="http://www.w3.org/2000/svg"><circle cx="256" cy="256" fill="#ffe853" r="256"/><path d="m512 256c0 87.11-43.52 164.07-110 210.31-41.41 28.8-91.73 45.69-146 45.69s-104.59-16.89-146-45.69c-66.48-46.24-110-123.2-110-210.31 0-46.22 12.25-89.57 33.68-127 44.12 77.07 127.16 129 222.32 129s178.21-51.93 222.32-129c21.43 37.43 33.68 80.78 33.68 127z" fill="#fed110"/><path d="m66.21 311.62h126.526v51.664h-126.526z" fill="#bc0e5c"/><path d="m444.85 425.63c0 1.1-.02 2.19-.07 3.27-46.8 51.07-114.05 83.1-188.78 83.1-12.75 0-25.28-.93-37.53-2.74-59.55-8.75-112.44-38-151.25-80.36-.01-.14-.15-.28-.39-.43-.87-.94-1.72-1.89-2.56-2.84z" fill="#f79f63"/><path d="m444.85 425.63c0 1.1-.02 2.19-.07 3.27-46.8 51.07-114.05 83.1-188.78 83.1h-15.31c-7.47 0-14.94-.95-22.22-2.74-39.18-9.6-72.9-43.4-72.9-83.63z" fill="#f4873d"/><path d="m447.73 425.63c-.97 1.1-1.96 2.19-2.95 3.27-46.8 51.07-114.05 83.1-188.78 83.1v-86.37z" fill="#ec781b"/><path d="m464.04 363.89v41.31c-5.09 7.09-10.53 13.91-16.31 20.43h-383.46c-5.78-6.52-11.22-13.34-16.31-20.43v-41.31z" fill="#a63917"/><path d="m464.04 363.89v41.31c-5.09 7.09-10.53 13.91-16.31 20.43h-191.73v-61.74z" fill="#83250d"/><path d="m192.74 311.62h126.52v51.66h-126.52z" fill="#fe3345"/><path d="m256 311.62h63.26v51.66h-63.26z" fill="#de1263"/><path d="m319.263 311.62h126.526v51.664h-126.526z" fill="#bc0e5c"/><path d="m449.058 311.62h-386.116c-6.063 0-10.465-5.735-8.942-11.603 23.315-89.797 104.907-156.097 202-156.097h.66c96.806.297 178.077 66.505 201.34 156.098 1.524 5.867-2.88 11.602-8.942 11.602z" fill="#f79f63"/><path d="m449.058 311.62h-303.488c0-67.415 36.501-139.083 110.43-167.7h.66c96.806.297 178.077 66.505 201.34 156.098 1.524 5.867-2.88 11.602-8.942 11.602z" fill="#f4873d"/><path d="m449.059 311.62h-193.059v-167.7c97.093 0 178.685 66.3 202 156.097 1.524 5.868-2.879 11.603-8.941 11.603z" fill="#ec781b"/><path d="m475.38 363.41c0 2.82-.99 5.41-2.63 7.35s-3.92 3.24-6.5 3.45c-27.74 2.33-30.76 15.12-64 15.12-36.57 0-36.57-15.48-73.13-15.48-36.57 0-36.57 15.48-73.12 15.48h-.01c-36.56 0-36.56-15.48-73.12-15.48s-36.56 15.48-73.13 15.48c-33.23 0-36.25-12.79-63.99-15.12-5.16-.43-9.13-5.16-9.13-10.8 0-5.63 3.97-10.36 9.13-10.79 27.74-2.33 30.76-15.12 63.99-15.12 36.57 0 36.57 15.48 73.13 15.48s36.56-15.48 73.12-15.48h.01c36.55 0 36.55 15.48 73.12 15.48 36.56 0 36.56-15.48 73.13-15.48 33.24 0 36.26 12.79 64 15.12 5.16.43 9.13 5.16 9.13 10.79z" fill="#6cdc2d"/><path d="m475.38 363.41c0 2.82-.99 5.41-2.63 7.35s-3.92 3.24-6.5 3.45c-27.74 2.33-30.76 15.12-64 15.12-36.57 0-36.57-15.48-73.13-15.48-36.57 0-36.57 15.48-73.12 15.48v-51.83c36.55 0 36.55 15.48 73.12 15.48 36.56 0 36.56-15.48 73.13-15.48 33.24 0 36.26 12.79 64 15.12 5.16.43 9.13 5.16 9.13 10.79z" fill="#00a042"/><g fill="#c55733"><ellipse cx="256" cy="231.116" rx="16.314" ry="7.613"/><ellipse cx="256" cy="170.6" rx="16.314" ry="7.613"/><ellipse cx="141.75" cy="256" rx="16.314" ry="7.613"/><ellipse cx="370.25" cy="256" rx="16.314" ry="7.613"/><ellipse cx="323.162" cy="190.066" rx="16.314" ry="7.613"/><ellipse cx="188.838" cy="190.066" rx="16.314" ry="7.613"/></g></svg>