<svg id="Capa_1" enable-background="new 0 0 512 512" height="512" viewBox="0 0 512 512" width="512" xmlns="http://www.w3.org/2000/svg"><path d="m511.996 254.611c.526 99.205-55.393 185.418-137.506 228.368h-.01l-31.793 7.787c-56.949 13.949-116.424 13.949-173.373 0l-31.793-7.787h-.01c-81.731-42.749-137.511-128.359-137.511-226.979 0-141.183 114.301-255.681 255.41-255.999 141.488-.32 255.836 113.123 256.586 254.61z" fill="#4e689b"/><path d="m512 256c0 87.11-43.52 164.07-110 210.31-8.78 6.11-17.97 11.68-27.51 16.67l-31.81 7.791c-56.945 13.947-116.414 13.947-173.359 0l-31.81-7.791c-9.54-4.99-18.73-10.56-27.51-16.67-66.481-46.24-110.001-123.2-110.001-210.31 0-46.22 12.25-89.57 33.68-127 44.12 77.07 127.16 129 222.32 129s178.21-51.93 222.32-129c21.43 37.43 33.68 80.78 33.68 127z" fill="#374c81"/><path d="m425.076 128.009-.127.141-10.387 11.713-208.07-6.417c-3.706-.114-6.631-3.175-6.581-6.881l.023-1.599.023-1.599c.054-3.701 3.066-6.686 6.772-6.694l208.17-.527 1.817-.005z" fill="#fff"/><path d="m425.076 128.009-.127.141-225.015-3.184.023-1.599c.054-3.701 3.066-6.686 6.772-6.694l208.17-.527 1.817-.005z" fill="#d1f6ff"/><path d="m485.3 142.05-70.74-2.19.17-11.85.17-11.86 55.45-.14c2.77 4.22 5.4 8.52 7.91 12.9 2.47 4.3 4.82 8.69 7.04 13.14z" fill="#8fc8f5"/><path d="m478.26 128.91-63.53-.9.17-11.86 55.45-.14c2.77 4.22 5.4 8.52 7.91 12.9z" fill="#65b2fe"/><path d="m287.993 88.597h-3.015-18.973-3.015-12.99-2.955-18.973-2.955-16.005v257.661h16.005 2.955 18.973 2.955 12.99 3.015 18.973 3.015 15.945v-257.661z" fill="#ffe853"/><path d="m209.112 88.597h18.96v257.662h-18.96z" fill="#ffe853"/><path d="m228.079 88.597h18.96v257.662h-18.96z" fill="#fed110"/><path d="m247.045 88.597h18.96v257.662h-18.96z" fill="#ffe853"/><path d="m266.011 88.597h18.96v257.662h-18.96z" fill="#fed110"/><path d="m284.978 88.597h18.96v257.662h-18.96z" fill="#ffe853"/><path d="m425.076 90.707-.127.141-10.387 11.713-208.07-6.417c-3.706-.114-6.631-3.175-6.581-6.881l.023-1.599.023-1.599c.054-3.701 3.066-6.685 6.772-6.694l208.17-.527 1.817-.005z" fill="#fff"/><path d="m425.076 90.707-.127.141-225.015-3.184.023-1.599c.054-3.701 3.066-6.685 6.772-6.694l208.17-.527 1.817-.005z" fill="#d1f6ff"/><path d="m462.02 104.03-47.46-1.47.17-11.85.17-11.86 25.84-.07c3.87 4.03 7.6 8.18 11.19 12.45 3.5 4.15 6.87 8.42 10.09 12.8z" fill="#65b2fe"/><path d="m451.93 91.23-37.2-.52.17-11.86 25.84-.07c3.87 4.03 7.6 8.18 11.19 12.45z" fill="#8fc8f5"/><path d="m394.11 213.25-6.37 87.56-3.29 45.25-8.85 121.65-1.11 15.27c-35.43 18.54-75.73 29.02-118.49 29.02-20.29 0-40.03-2.36-58.96-6.83-20.96-4.94-40.92-12.45-59.53-22.19l-1.11-15.27-8.85-121.65-3.29-45.25-6.37-87.56z" fill="#fff"/><path d="m294.457 320.5s4.303 191.5-38.457 191.5c-20.29 0-40.03-2.36-58.96-6.83l-1.29-37.46-4.21-121.65-1.57-45.25-3.03-87.56h69.06z" fill="#d1f6ff"/><path d="m394.11 213.25-6.37 87.56-3.29 45.25-8.85 121.65-1.11 15.27c-35.43 18.54-75.73 29.02-118.49 29.02v-298.75z" fill="#8fc8f5"/><path d="m394.108 213.254-6.371 87.557h-263.481l-6.364-87.557z" fill="#d1f6ff"/><path d="m284.978 250.614-28.978 50.197h-66.029l-3.028-87.557h69.057z" fill="#8fc8f5"/><path d="m277.915 236.333-21.915 16.955h-138.821c-11.056 0-20.017-8.961-20.017-20.017v-18.018c0-1.105.894-1.999 1.999-1.999h156.839s32.971 23.079 21.915 23.079z" fill="#fff"/><path d="m394.108 213.254-2.912 40.034h-202.871l-1.382-40.034z" fill="#d1f6ff"/><path d="m384.446 346.059-8.845 121.651h-239.202l-8.852-121.651z" fill="#ff6477"/><path d="m384.446 346.059-8.845 121.651h-179.852l-4.21-121.651z" fill="#fe3345"/><path d="m394.108 213.254-6.371 87.557h-131.737v-87.557z" fill="#65b2fe"/><path d="m384.446 346.059-8.845 121.651h-119.601v-121.651z" fill="#de1263"/><path d="m299.83 406.88c0 24.21-19.62 43.84-43.83 43.84s-43.83-19.63-43.83-43.84c0-24.2 19.62-43.83 43.83-43.83s43.83 19.63 43.83 43.83z" fill="#ffe853"/><path d="m414.839 215.253v18.018c0 11.056-8.961 20.017-20.017 20.017h-138.822v-40.034h156.839c1.106 0 2 .893 2 1.999z" fill="#8fc8f5"/><path d="m299.83 406.88c0 24.21-19.62 43.84-43.83 43.84v-87.67c24.21 0 43.83 19.63 43.83 43.83z" fill="#fed110"/></svg>