<svg id="Capa_1" enable-background="new 0 0 512 512" height="512" viewBox="0 0 512 512" width="512" xmlns="http://www.w3.org/2000/svg"><path d="m511.999 256.538c-.185 89.857-46.669 168.853-116.869 214.382l-64.912 19.166c-48.416 14.296-99.96 14.093-148.262-.583l-68.436-20.793h-.01c-68.46-45.95-113.51-124.07-113.51-212.71 0-141.38 114.619-255.999 255.999-256 141.249-.001 256.291 115.29 256 256.538z" fill="#65b2fe"/><path d="m512 256c0 87.11-43.52 164.07-110 210.31-2.26 1.57-4.55 3.11-6.87 4.61l-64.915 19.167c-48.414 14.295-99.955 14.093-148.256-.581l-68.419-20.786c-1.19-.79-2.37-1.59-3.54-2.41-66.48-46.24-110-123.2-110-210.31 0-46.22 12.25-89.57 33.68-127 44.12 77.07 127.16 129 222.32 129s178.21-51.93 222.32-129c21.43 37.43 33.68 80.78 33.68 127z" fill="#0e9ce7"/><path d="m153.052 165.326c5.547-3.886 13.077-5.479 20.169-5.039 8.443.523 17.469 2.111 24.945-1.848 6.399-3.388 10.169-10.09 14.338-16.009s9.951-11.785 17.19-11.876c9.355-.117 16.144 9.287 25.247 11.444 9.551 2.263 18.816-3.8 27.38-8.596s20.076-8.274 27.517-1.872c10.785 9.281 2.24 29.533 12.18 39.715 4.303 4.407 10.84 5.511 16.821 6.979 5.982 1.469 12.49 4.122 14.805 9.829 3.64 8.976-5.355 18.321-5.155 28.005.212 10.281 10.746 19.237 8.118 29.179-1.556 5.886-7.547 9.739-13.567 10.649s-12.12-.536-18.032-1.99-11.997-2.935-18.027-2.092c-7.439 1.04-13.917 5.486-19.857 10.084s-11.829 9.575-18.937 12.007c-7.107 2.431-15.908 1.686-20.873-3.951-3.004-3.41-4.164-8.005-5.944-12.187-9.662-22.701-50.489 16.34-58.082-15.354-2.293-9.573 3.475-20.553-1.449-29.077-5.394-9.336-19.169-8.647-28.107-14.678-5.622-3.794-9.146-10.514-9.07-17.296.082-7.284 3.449-12.565 8.39-16.026z" fill="#6cdc2d"/><path d="m217.482 131.312v122.358c0 6.687-5.416 12.103-12.103 12.103h-26.549c-6.687 0-12.103-5.416-12.103-12.103v-122.358c0-6.687 5.416-12.103 12.103-12.103h26.549c6.687 0 12.103 5.416 12.103 12.103z" fill="#a63917"/><path d="m217.482 131.312v122.358c0 6.687-5.416 12.103-12.103 12.103h-13.275v-146.564h13.275c6.687 0 12.103 5.416 12.103 12.103z" fill="#83250d"/><path d="m281.953 110.414v122.358c0 6.686-5.416 12.103-12.103 12.103h-26.549c-6.687 0-12.103-5.416-12.103-12.103v-122.358c0-6.687 5.416-12.102 12.103-12.102h26.549c6.687-.001 12.103 5.415 12.103 12.102z" fill="#a63917"/><path d="m281.953 110.414v122.358c0 6.686-5.416 12.103-12.103 12.103h-13.275v-146.564h13.275c6.687 0 12.103 5.416 12.103 12.103z" fill="#83250d"/><path d="m347.395 150.146v122.358c0 6.686-5.416 12.103-12.103 12.103h-26.549c-6.687 0-12.103-5.416-12.103-12.103v-122.358c0-6.687 5.416-12.102 12.103-12.102h26.549c6.687 0 12.103 5.416 12.103 12.102z" fill="#a63917"/><path d="m347.395 150.146v122.358c0 6.686-5.416 12.103-12.103 12.103h-13.275v-146.563h13.275c6.687 0 12.103 5.416 12.103 12.102z" fill="#83250d"/><path d="m257.482 213.376c0 28.373-22.997 51.376-51.37 51.376s-51.37-23.003-51.37-51.376c0-28.367 22.997-51.37 51.37-51.37 28.372 0 51.37 23.003 51.37 51.37z" fill="#fe3345"/><path d="m257.482 213.376c0 28.373-22.997 51.376-51.37 51.376v-102.746c28.372 0 51.37 23.003 51.37 51.37z" fill="#de1263"/><circle cx="206.111" cy="213.376" fill="#ff6477" r="29.964"/><path d="m236.075 213.376c0 16.553-13.416 29.964-29.964 29.964v-59.928c16.548 0 29.964 13.416 29.964 29.964z" fill="#ed5681"/><path d="m345.898 232.205c0 28.373-22.997 51.376-51.37 51.376s-51.37-23.003-51.37-51.376c0-28.367 22.997-51.37 51.37-51.37s51.37 23.003 51.37 51.37z" fill="#fe3345"/><path d="m345.898 232.205c0 28.373-22.997 51.376-51.37 51.376v-102.746c28.373 0 51.37 23.003 51.37 51.37z" fill="#de1263"/><ellipse cx="294.528" cy="232.205" fill="#ff6477" rx="29.964" ry="29.964" transform="matrix(.973 -.23 .23 .973 -45.471 73.881)"/><path d="m324.492 232.205c0 16.553-13.416 29.964-29.964 29.964v-59.928c16.548 0 29.964 13.417 29.964 29.964z" fill="#ed5681"/><path d="m309.99 291.49v214.81c-17.41 3.73-35.47 5.7-53.99 5.7-19.72 0-38.91-2.23-57.35-6.46-30.88-7.07-59.63-19.72-85.14-36.83v-258.45c0-20.36 21.96-33.15 39.67-23.12l143.34 81.23c8.33 4.72 13.47 13.55 13.47 23.12z" fill="#fdf7bd"/><path d="m395.13 210.26v260.66c-40.06 25.99-87.83 41.08-139.13 41.08-19.72 0-38.91-2.23-57.35-6.46v-214.05c0-9.57 5.15-18.4 13.47-23.12l43.88-24.86 99.47-56.37c17.71-10.03 39.66 2.76 39.66 23.12z" fill="#f7e6b0"/><path d="m395.13 210.26v260.66c-40.06 25.99-87.83 41.08-139.13 41.08v-268.49l99.47-56.37c17.71-10.03 39.66 2.76 39.66 23.12z" fill="#f9d19a"/><circle cx="334.707" cy="302.204" fill="#fcaa77" r="13.893"/><circle cx="334.707" cy="414.849" fill="#fcaa77" r="19.648"/><g fill="#ffc0a3"><circle cx="158.748" cy="410.842" r="15.641"/><ellipse cx="246.477" cy="355.195" rx="13.143" ry="13.143" transform="matrix(.924 -.383 .383 .924 -117.165 121.36)"/><ellipse cx="152.808" cy="282.556" rx="19.648" ry="19.648" transform="matrix(.924 -.383 .383 .924 -96.498 79.986)"/></g></svg>