<svg id="Capa_1" enable-background="new 0 0 512 512" height="512" viewBox="0 0 512 512" width="512" xmlns="http://www.w3.org/2000/svg"><path d="m512 255.86c.059 110.46-69.849 204.604-167.83 240.549l-.03.01-47.706 8.433c-26.749 4.728-54.12 4.727-80.868-.004l-47.716-8.439c-97.95-35.919-167.85-130.009-167.85-240.409 0-141.236 114.386-255.766 255.568-256 141.054-.233 256.357 114.805 256.432 255.86z" fill="#4e689b"/><path d="m512 256c0 87.11-43.52 164.07-110 210.31-17.76 12.36-37.17 22.52-57.83 30.1l-47.73 8.44c-26.753 4.73-54.128 4.73-80.88-.001l-47.71-8.438v.01c-20.66-7.59-40.08-17.75-57.85-30.11-66.48-46.241-110-123.201-110-210.311 0-46.22 12.25-89.57 33.68-127 44.12 77.07 127.16 129 222.32 129s178.21-51.93 222.32-129c21.43 37.43 33.68 80.78 33.68 127z" fill="#374c81"/><path d="m483.83 326.73c0 10.47-3.34 20.43-9.63 28.81-5.76 7.66-11.65 15.24-17.66 22.75-7.92 9.88-16.05 19.63-24.38 29.22-10.61 12.22-21.54 24.18-32.75 35.84-4.38 4.56-8.8 9.07-13.26 13.53-4.46 4.47-8.97 8.89-13.53 13.26-9.3 8.94-18.79 17.7-28.45 26.27l-.01.01c-.01 0-.01 0-.02.01-24.58 9-50.92 14.36-78.37 15.38-3.24.13-6.5.19-9.77.19-3.26 0-6.51-.06-9.75-.19h-.01c-27.45-1.02-53.81-6.38-78.39-15.4l-.01-.01c-9.61-8.5-19.05-17.21-28.29-26.1-4.62-4.43-9.18-8.9-13.7-13.42-4.41-4.41-8.78-8.86-13.11-13.37-11.21-11.65-22.14-23.61-32.75-35.83-8.33-9.59-16.46-19.33-24.38-29.21-6.07-7.57-12-15.21-17.81-22.93-6.3-8.37-9.63-18.34-9.63-28.81s3.33-20.43 9.63-28.81c5.76-7.65 11.65-15.24 17.66-22.75 7.92-9.88 16.05-19.63 24.38-29.21 10.61-12.22 21.54-24.18 32.75-35.84 4.38-4.56 8.8-9.07 13.26-13.54 4.46-4.46 8.98-8.88 13.53-13.26 11.66-11.21 23.63-22.14 35.84-32.75 9.59-8.33 19.34-16.46 29.22-24.37 7.51-6.02 15.09-11.91 22.75-17.67 8.37-6.29 18.34-9.62 28.81-9.62s20.43 3.33 28.81 9.62c7.71 5.81 15.36 11.75 22.93 17.81 9.88 7.92 19.62 16.05 29.21 24.38 12.21 10.62 24.17 21.55 35.83 32.76 4.5 4.33 8.96 8.7 13.37 13.1 4.51 4.52 8.99 9.09 13.42 13.7 11.21 11.66 22.13 23.63 32.74 35.85 8.32 9.59 16.45 19.34 24.37 29.23 5.96 7.44 11.8 14.97 17.52 22.56 6.29 8.38 9.63 18.34 9.63 28.81z" fill="#ec781b"/><path d="m483.83 326.73c0 10.47-3.34 20.43-9.63 28.81-5.76 7.66-11.65 15.24-17.66 22.75-7.92 9.88-16.05 19.63-24.38 29.22-10.61 12.22-21.54 24.18-32.75 35.84-4.38 4.56-8.8 9.07-13.26 13.53-4.46 4.47-8.97 8.89-13.53 13.26-9.3 8.94-18.79 17.7-28.45 26.27l-.01.01c-.01 0-.01 0-.02.01-24.58 9-50.92 14.36-78.37 15.38-3.24.13-6.5.19-9.77.19v-413.09c10.47 0 20.43 3.33 28.81 9.62 7.71 5.81 15.36 11.75 22.93 17.81 9.88 7.92 19.62 16.05 29.21 24.38 12.21 10.62 24.17 21.55 35.83 32.76 4.5 4.33 8.96 8.7 13.37 13.1 4.51 4.52 8.99 9.09 13.42 13.7 11.21 11.66 22.13 23.63 32.74 35.85 8.32 9.59 16.45 19.34 24.37 29.23 5.96 7.44 11.8 14.97 17.52 22.56 6.29 8.38 9.63 18.34 9.63 28.81z" fill="#c55733"/><path d="m474.2 297.92c-5.72-7.59-11.56-15.12-17.52-22.57-7.92-9.88-16.05-19.63-24.37-29.22-10.61-12.22-21.53-24.19-32.74-35.85-4.43-4.62-8.91-9.18-13.42-13.7-4.41-4.41-8.87-8.78-13.37-13.1-11.66-11.22-23.62-22.15-35.83-32.76-9.59-8.33-19.33-16.46-29.21-24.38-7.57-6.06-15.22-12-22.93-17.81-8.38-6.3-18.34-9.63-28.81-9.63s-20.44 3.33-28.81 9.63c-7.66 5.76-15.24 11.65-22.75 17.66-9.88 7.92-19.63 16.05-29.22 24.38-12.21 10.61-24.18 21.54-35.84 32.75-4.55 4.38-9.07 8.8-13.53 13.26s-8.88 8.98-13.26 13.53c-11.21 11.66-22.14 23.63-32.75 35.84-8.33 9.59-16.46 19.34-24.38 29.22-6.01 7.51-11.9 15.09-17.66 22.75-6.3 8.37-9.63 18.34-9.63 28.81s3.33 20.43 9.63 28.81c5.81 7.71 11.74 15.36 17.81 22.93 7.92 9.88 16.05 19.62 24.38 29.21 10.61 12.21 21.54 24.17 32.75 35.83 4.33 4.5 8.7 8.96 13.11 13.37 4.52 4.52 9.08 8.99 13.7 13.42 9.25 8.89 18.69 17.6 28.3 26.11 24.58 9.02 50.94 14.38 78.39 15.4-4.92-3.73-9.8-7.52-14.65-11.37l24.57-24.57 24.43 24.43c-4.9 3.89-9.84 7.73-14.82 11.51 27.46-1.02 53.8-6.38 78.39-15.39l.01-.01c9.66-8.57 19.15-17.33 28.45-26.27 4.56-4.38 9.07-8.8 13.53-13.26s8.88-8.98 13.26-13.54c11.21-11.65 22.14-23.62 32.75-35.84 8.33-9.58 16.46-19.33 24.38-29.21 6.01-7.51 11.9-15.1 17.66-22.75 6.29-8.38 9.63-18.34 9.63-28.81s-3.34-20.43-9.63-28.81zm-68.76-24.93-27.1 27.1-34.29-34.29 28.72-28.72c11.2 11.67 22.1 23.66 32.67 35.91zm-183.57-7.19 34.29-34.29 34.3 34.29-34.3 34.29zm7.5 61.09-34.3 34.29-34.29-34.29 34.29-34.29zm87.88-34.29 34.3 34.29-34.3 34.29-34.29-34.29zm-7.17-115.02c12.25 10.58 24.23 21.49 35.9 32.7l-28.73 28.72-34.29-34.29zm-60.11-38.76c3.55-2.67 8.51-2.67 12.06 0 6.3 4.73 12.54 9.56 18.74 14.49l-24.61 24.6-24.75-24.75c6.13-4.87 12.32-9.65 18.56-14.34zm-47.88 38.62 27.28 27.27-34.3 34.29-28.88-28.88c11.67-11.2 23.65-22.11 35.9-32.68zm-62.7 59.48 28.88 28.88-34.29 34.29-27.27-27.27c10.57-12.25 21.48-24.23 32.68-35.9zm-71.3 95.84c-2.67-3.55-2.67-8.51 0-12.06 4.69-6.24 9.47-12.43 14.34-18.56l24.75 24.75-24.6 24.61c-4.92-6.19-9.75-12.44-14.49-18.74zm38.77 48.05 27.12-27.12 34.29 34.29-28.72 28.73c-11.21-11.67-22.12-23.65-32.69-35.9zm95.4 95.36c-12.25-10.57-24.24-21.47-35.91-32.67l28.72-28.72 34.3 34.29zm53.9-53.9-34.29-34.29 34.29-34.29 34.3 34.29zm53.75 53.75-26.95-26.95 34.29-34.29 28.56 28.56c-11.67 11.2-23.65 22.11-35.9 32.68zm62.7-59.48-28.56-28.56 34.29-34.29 26.96 26.95c-10.58 12.25-21.49 24.23-32.69 35.9zm71.3-83.78c-4.69 6.23-9.47 12.42-14.34 18.56l-24.43-24.43 24.57-24.57c4.82 6.07 9.56 12.21 14.2 18.38 2.67 3.55 2.67 8.51 0 12.06z" fill="#f79f63"/><path d="m474.2 297.92c-5.72-7.59-11.56-15.12-17.52-22.56-7.92-9.89-16.05-19.64-24.37-29.23-10.61-12.22-21.53-24.19-32.74-35.85-4.43-4.61-8.91-9.18-13.42-13.7-4.41-4.41-8.87-8.77-13.37-13.1-11.66-11.21-23.62-22.14-35.83-32.76-9.59-8.33-19.33-16.46-29.21-24.38-7.57-6.06-15.22-12-22.93-17.81-8.38-6.29-18.34-9.62-28.81-9.62v37.91c2.13 0 4.26.66 6.03 2 6.3 4.74 12.54 9.57 18.74 14.49l-24.61 24.61-.16-.16v53.91l.16-.16 34.3 34.29-34.3 34.3-.16-.16v53.91l.16-.16 34.3 34.29-34.3 34.3-.16-.16v53.91l.16-.16 24.43 24.43c-4.9 3.89-9.84 7.73-14.82 11.51 27.46-1.02 53.81-6.38 78.4-15.4 9.66-8.57 19.15-17.33 28.45-26.27 4.56-4.37 9.07-8.79 13.53-13.26 4.46-4.46 8.88-8.97 13.26-13.53 11.21-11.66 22.14-23.62 32.75-35.84 8.33-9.59 16.46-19.34 24.38-29.22 6.01-7.51 11.9-15.09 17.66-22.75 6.29-8.38 9.63-18.34 9.63-28.81s-3.34-20.43-9.63-28.81zm-68.76-24.92-27.1 27.1-34.29-34.3 28.72-28.72c11.2 11.68 22.1 23.67 32.67 35.92zm-122.48-68.29 27.12-27.12c12.25 10.57 24.23 21.49 35.9 32.69l-28.73 28.73zm0 122.18 34.29-34.29 34.3 34.29-34.3 34.3zm26.95 149.14-26.95-26.96 34.29-34.29 28.56 28.56c-11.67 11.2-23.65 22.11-35.9 32.69zm62.7-59.48-28.56-28.57 34.29-34.29 26.96 26.95c-10.58 12.25-21.49 24.23-32.69 35.91zm71.3-83.79c-4.69 6.24-9.47 12.43-14.34 18.56l-24.43-24.43 24.57-24.57c4.82 6.08 9.56 12.21 14.2 18.38 2.67 3.55 2.67 8.51 0 12.06z" fill="#f4873d"/><path d="m380.95 188.487c0 14.29-11.59 25.88-25.88 25.88-7.15 0-13.61 2.9-18.3 7.58-4.68 4.69-7.58 11.15-7.58 18.3v20.77c0 10.69-8.67 19.36-19.36 19.36h-.01c-10.69 0-19.36 8.67-19.36 19.36v53.94c0 18.95-15.35 34.3-34.29 34.3h-.17c-18.87-.09-34.13-15.4-34.13-34.3v-119.69c0-7.4-6-13.4-13.4-13.4-3.7 0-7.05 1.5-9.47 3.93-2.43 2.42-3.93 5.77-3.93 9.47v37.36c0 15.88-12.87 28.75-28.75 28.75-7.94 0-15.13-3.22-20.33-8.42-5.21-5.2-8.43-12.39-8.43-20.33l-.02-60.29-.01-28.35c-.01-14.93 6.38-29.14 17.54-39.05 2.66-2.37 5.34-4.72 8.02-7.05 9.71-8.44 19.73-16.8 29.79-24.85 7.65-6.14 15.46-12.2 23.19-18.02 11.61-8.72 25.42-13.33 39.93-13.33 14.5 0 28.3 4.61 39.92 13.32 7.88 5.95 15.74 12.05 23.38 18.17 10.03 8.03 20.04 16.39 29.78 24.85 4.92 4.28 9.81 8.62 14.65 13 10.95 9.91 17.22 23.97 17.22 38.74z" fill="#fed110"/><path d="m380.95 188.487c0 14.29-11.59 25.88-25.88 25.88-7.15 0-13.61 2.9-18.3 7.58-4.68 4.69-7.58 11.15-7.58 18.3v20.77c0 10.69-8.67 19.36-19.36 19.36h-.01c-10.69 0-19.36 8.67-19.36 19.36v53.94c0 18.95-15.35 34.3-34.29 34.3h-.17v-307.57c14.5 0 28.3 4.61 39.92 13.32 7.88 5.95 15.74 12.05 23.38 18.17 10.03 8.03 20.04 16.39 29.78 24.85 4.92 4.28 9.81 8.62 14.65 13 10.95 9.91 17.22 23.97 17.22 38.74z" fill="#ff9f00"/><g fill="#ffe853"><path d="m160.778 239.574c-6.097 0-11.04-4.943-11.04-11.04v-34.774c0-6.097 4.943-11.04 11.04-11.04 6.097 0 11.04 4.943 11.04 11.04v34.775c0 6.097-4.943 11.039-11.04 11.039z"/><path d="m301.495 265.343c-6.097 0-11.04-4.943-11.04-11.04v-17.276c0-6.097 4.943-11.04 11.04-11.04 6.097 0 11.04 4.943 11.04 11.04v17.276c0 6.097-4.943 11.04-11.04 11.04z"/><path d="m301.495 207.918c-6.097 0-11.04-4.943-11.04-11.04v-8.638c0-6.097 4.943-11.04 11.04-11.04 6.097 0 11.04 4.943 11.04 11.04v8.638c0 6.098-4.943 11.04-11.04 11.04z"/></g><circle cx="344.049" cy="177.913" fill="#fed110" r="17.147"/></svg>