<svg id="Capa_1" enable-background="new 0 0 512 512" height="512" viewBox="0 0 512 512" width="512" xmlns="http://www.w3.org/2000/svg"><path d="m511.999 255.494c.149 76.803-33.522 145.743-86.959 192.756l-101.132 38.14c-43.767 16.506-92.048 16.506-135.816 0l-101.132-38.14c-53.32-46.91-86.96-115.65-86.96-192.25 0-141.21 114.345-255.725 255.491-255.999 141.856-.277 256.234 113.637 256.508 255.493z" fill="#65b2fe"/><path d="m512 256c0 76.59-33.65 145.34-86.96 192.25l-.01.01-101.128 38.135c-43.764 16.503-92.04 16.503-135.804 0l-101.128-38.135-.01-.01c-53.31-46.91-86.96-115.66-86.96-192.25 0-46.22 12.25-89.57 33.68-127 44.12 77.07 127.16 129 222.32 129s178.21-51.93 222.32-129c21.43 37.43 33.68 80.78 33.68 127z" fill="#0e9ce7"/><path d="m244.722 304.007c16.096 66.318 27.581 131.607 34.703 194.677l-48.403 11.747c-22.581-59.319-42.302-122.609-58.398-188.927-16.098-66.327-27.583-131.616-34.706-194.686l48.403-11.748c22.582 59.321 42.303 122.611 58.401 188.937z" fill="#fed110"/><path d="m244.722 304.007c16.096 66.318 27.581 131.607 34.703 194.677l-24.201 5.874-93.104-383.612 24.201-5.874c22.582 59.319 42.303 122.609 58.401 188.935z" fill="#ff9f00"/><path d="m211.262 298.831c43.74 52.383 82.89 105.879 117.145 159.313l-38.232 31.924c-46.466-43.238-92.121-91.302-135.861-143.685-43.746-52.39-82.895-105.886-117.151-159.32l38.232-31.924c46.466 43.238 92.121 91.302 135.867 143.692z" fill="#fed110"/><path d="m211.262 298.831c43.74 52.383 82.89 105.879 117.145 159.313l-19.116 15.962-253.011-303.005 19.116-15.962c46.465 43.238 92.12 91.302 135.866 143.692z" fill="#ff9f00"/><path d="m269.687 302.653c-18.587 65.663-32.529 130.472-42.028 193.228l47.925 13.566c24.804-58.424 46.901-120.924 65.488-186.587 18.59-65.672 32.531-130.481 42.03-193.237l-47.925-13.566c-24.804 58.423-46.9 120.924-65.49 186.596z" fill="#ff9f00"/><path d="m269.687 302.653c-18.587 65.663-32.529 130.472-42.028 193.228l23.962 6.783 107.519-379.824-23.962-6.783c-24.805 58.423-46.901 120.924-65.491 186.596z" fill="#fed110"/><path d="m299.931 298.831c-43.74 52.383-82.889 105.879-117.145 159.313l38.232 31.924c46.466-43.238 92.121-91.302 135.861-143.685 43.746-52.39 82.895-105.886 117.151-159.32l-38.232-31.924c-46.466 43.238-92.121 91.302-135.867 143.692z" fill="#ff9f00"/><path d="m299.931 298.831c-43.74 52.383-82.889 105.879-117.145 159.313l19.116 15.962 253.012-303.005-19.116-15.962c-46.466 43.238-92.121 91.302-135.867 143.692z" fill="#fed110"/><path d="m293.095 309.336c0 68.243-4.238 134.399-12.191 197.37h-49.808c-7.954-62.971-12.191-129.127-12.191-197.37 0-68.252 4.238-134.408 12.191-197.379h49.808c7.953 62.971 12.191 129.127 12.191 197.379z" fill="#fed110"/><path d="m293.095 309.336c0 68.243-4.238 134.399-12.191 197.37h-24.904v-394.749h24.904c7.953 62.971 12.191 129.127 12.191 197.379z" fill="#ff9f00"/><path d="m427.56 302.36v54.24c0 13.18-.85 49.69-2.52 91.65-45.09 39.68-104.26 63.75-169.04 63.75s-123.95-24.07-169.04-63.75c-1.67-41.96-2.52-78.47-2.52-91.65v-54.24c0-10.87 8.82-19.69 19.69-19.69h79.23c7.16 0 13.44 4.97 14.89 11.98 5.53 26.82 29.28 46.99 57.75 46.99s52.23-20.17 57.76-46.99c1.45-7.01 7.73-11.98 14.89-11.98h79.22c10.87 0 19.69 8.82 19.69 19.69z" fill="#fe3345"/><path d="m427.56 302.36v54.24c0 13.18-.85 49.69-2.52 91.65-45.09 39.68-104.26 63.75-169.04 63.75v-170.36c28.47 0 52.23-20.17 57.76-46.99 1.45-7.01 7.73-11.98 14.89-11.98h79.22c10.87 0 19.69 8.82 19.69 19.69z" fill="#de1263"/><path d="m339.87 465.27c0 12.58-2.77 24.51-7.73 35.21-24.05 7.49-49.63 11.52-76.14 11.52s-52.09-4.03-76.14-11.52c-4.96-10.7-7.73-22.63-7.73-35.21 0-46.32 37.55-83.87 83.87-83.87s83.87 37.55 83.87 83.87z" fill="#fed110"/><path d="m339.87 465.27c0 12.58-2.77 24.51-7.73 35.21-24.05 7.49-49.63 11.52-76.14 11.52v-130.6c46.32 0 83.87 37.55 83.87 83.87z" fill="#ff9f00"/><path d="m302.715 465.277c0 25.807-20.915 46.723-46.715 46.723s-46.716-20.916-46.716-46.723c0-25.8 20.916-46.715 46.716-46.715 25.8-.001 46.715 20.915 46.715 46.715z" fill="#fff"/><path d="m302.715 465.277c0 25.807-20.915 46.723-46.715 46.723v-93.439c25.8 0 46.715 20.916 46.715 46.716z" fill="#d1f6ff"/><g fill="#ec781b"><circle cx="241.717" cy="264.559" r="8.797"/><circle cx="275.898" cy="304.462" r="6.221"/><circle cx="271.318" cy="233.448" r="6.221"/><path d="m275.898 157.643c0 3.436-2.785 6.221-6.221 6.221-3.435 0-6.221-2.785-6.221-6.221s2.785-6.221 6.221-6.221 6.221 2.785 6.221 6.221z"/><circle cx="244.294" cy="189.992" r="6.221"/><circle cx="334.294" cy="163.863" r="6.221"/><circle cx="348.893" cy="216.784" r="6.221"/><circle cx="318.368" cy="262.221" r="6.221"/><circle cx="370.128" cy="245.889" r="6.221"/><circle cx="423.216" cy="239.669" r="6.221"/><circle cx="423.216" cy="189.992" r="6.221"/><circle cx="176.027" cy="170.084" r="6.221"/><path d="m208.46 193.642c0 3.436-2.785 6.221-6.221 6.221s-6.221-2.785-6.221-6.221 2.785-6.221 6.221-6.221 6.221 2.785 6.221 6.221z"/><circle cx="185.318" cy="221.007" r="6.221"/><circle cx="68.193" cy="206.083" r="6.221"/><circle cx="119.954" cy="221.007" r="6.221"/><circle cx="122.608" cy="268.441" r="6.221"/><circle cx="202.239" cy="262.221" r="6.221"/></g></svg>