<svg id="Capa_1" enable-background="new 0 0 512 512" height="512" viewBox="0 0 512 512" width="512" xmlns="http://www.w3.org/2000/svg"><circle cx="256" cy="256" fill="#b6e337" r="256"/><path d="m512 256c0 87.11-43.52 164.07-110 210.31-41.41 28.8-91.73 45.69-146 45.69s-104.59-16.89-146-45.69c-66.48-46.24-110-123.2-110-210.31 0-46.22 12.25-89.57 33.68-127 44.12 77.07 127.16 129 222.32 129s178.21-51.93 222.32-129c21.43 37.43 33.68 80.78 33.68 127z" fill="#6cdc2d"/><path d="m222.05 117.58v392.19c-4.44-.59-8.85-1.29-13.21-2.11-12.43-2.31-24.54-5.52-36.27-9.57-14.2-4.89-27.84-10.99-40.78-18.19-5.58-12.39-8.69-26.13-8.69-40.6v-222.77c0-36.62 19.9-68.6 49.47-85.71 14.55-8.42 31.45-13.24 49.48-13.24z" fill="#f4873d"/><path d="m222.05 117.58v392.19c-4.44-.59-8.85-1.29-13.21-2.11-12.43-2.31-24.54-5.52-36.27-9.57v-367.27c14.55-8.42 31.45-13.24 49.48-13.24z" fill="#f79f63"/><path d="m388.15 216.53v222.77c0 14.68-3.19 28.61-8.93 41.14-27.35 15.05-57.74 25.24-90.02 29.42v-392.28c18.03 0 34.93 4.82 49.48 13.24 29.57 17.11 49.47 49.09 49.47 85.71z" fill="#ec781b"/><path d="m338.68 130.82v367.53c-15.85 5.4-32.4 9.3-49.48 11.51v-392.28c18.03 0 34.93 4.82 49.48 13.24z" fill="#f4873d"/><path d="m302.41 117.58v390.22c-4.37.8-8.77 1.49-13.21 2.06-10.86 1.41-21.95 2.14-33.2 2.14h-.38c-15.98-.02-31.61-1.51-46.78-4.34v-390.08c0-25.83 20.95-46.78 46.78-46.78 12.92 0 24.62 5.24 33.09 13.7 8.46 8.47 13.7 20.17 13.7 33.08z" fill="#fe3345"/><path d="m302.41 117.58v390.22c-4.37.8-8.77 1.49-13.21 2.06-10.86 1.41-21.95 2.14-33.2 2.14h-.38v-441.2c12.92 0 24.62 5.24 33.09 13.7 8.46 8.47 13.7 20.17 13.7 33.08z" fill="#de1263"/><path d="m266.97 337.22c-5.735 6.118-8.062 8.871-8.062 15.6s2.327 9.482 8.062 15.6c6.826 7.291 16.177 17.272 16.177 36.149s-9.351 28.863-16.177 36.149c-5.735 6.123-8.062 8.871-8.062 15.605 0 8.299-6.724 15.028-15.028 15.028-8.299 0-15.028-6.729-15.028-15.028 0-18.877 9.351-28.863 16.181-36.149 5.735-6.123 8.057-8.871 8.057-15.605 0-6.729-2.322-9.482-8.057-15.6-6.83-7.291-16.181-17.272-16.181-36.149s9.356-28.858 16.181-36.149c5.735-6.118 8.057-8.871 8.057-15.6s-2.322-9.482-8.057-15.6c-6.825-7.286-16.181-17.272-16.181-36.149 0-18.872 9.356-28.858 16.181-36.144 5.735-6.122 8.057-8.871 8.057-15.6 0-8.299 6.729-15.028 15.028-15.028 8.304 0 15.028 6.729 15.028 15.028 0 18.877-9.351 28.858-16.177 36.144-5.735 6.122-8.062 8.871-8.062 15.6 0 6.733 2.327 9.482 8.062 15.6 6.826 7.291 16.177 17.272 16.177 36.149.001 18.877-9.35 28.858-16.176 36.149z" fill="#ffe853"/><path d="m266.97 337.22c-5.735 6.118-8.062 8.871-8.062 15.6s2.327 9.482 8.062 15.6c6.826 7.291 16.177 17.272 16.177 36.149s-9.351 28.863-16.177 36.149c-5.735 6.123-8.062 8.871-8.062 15.605 0 8.299-6.724 15.028-15.028 15.028v-15.028c0-25.877 24.238-25.877 24.238-51.754 0-25.872-24.238-25.872-24.238-51.749s24.238-25.877 24.238-51.749-24.238-25.872-24.238-51.749c0-25.872 24.238-25.872 24.238-51.744v-15.028c8.304 0 15.028 6.729 15.028 15.028 0 18.877-9.351 28.858-16.177 36.144-5.735 6.122-8.062 8.871-8.062 15.6 0 6.733 2.327 9.482 8.062 15.6 6.826 7.291 16.177 17.272 16.177 36.149.001 18.877-9.35 28.858-16.176 36.149z" fill="#fed110"/></svg>