<svg id="Capa_1" enable-background="new 0 0 512 512" height="512" viewBox="0 0 512 512" width="512" xmlns="http://www.w3.org/2000/svg"><circle cx="256" cy="256" fill="#b6e337" r="256"/><path d="m512 256c0 87.11-43.52 164.07-110 210.31-41.41 28.8-91.73 45.69-146 45.69s-104.59-16.89-146-45.69c-66.48-46.24-110-123.2-110-210.31 0-46.22 12.25-89.57 33.68-127 44.12 77.07 127.16 129 222.32 129s178.21-51.93 222.32-129c21.43 37.43 33.68 80.78 33.68 127z" fill="#6cdc2d"/><path d="m460.27 336.171v74.149c-46.74 61.77-120.84 101.68-204.27 101.68h-.82c-67.64-.21-129.12-26.66-174.76-69.71-.32-5.54-.48-11.11-.48-16.71v-135.45z" fill="#c55733"/><path d="m460.27 336.171v74.149c-46.74 61.77-120.84 101.68-204.27 101.68h-.82v-221.87z" fill="#a63917"/><path d="m109.47 290.13v175.81c-10.26-7.17-19.97-15.08-29.05-23.65-.32-5.54-.48-11.11-.48-16.71v-135.45z" fill="#ec781b"/><path d="m109.464 290.132h-29.526v46.061c0 45.138 10.432 88.355 29.527 128.277v-.003c12.861-.119 25.603-.652 38.189-1.561 14.643-1.074 27.082 10.539 27.082 25.218 0 3.204 1.147 6.252 3.103 8.593 1.946 2.332 4.691 3.957 7.877 4.333 7.583.9 14.018-5.003 14.018-12.403v-24.089c0-4.453 3.195-8.272 7.583-9.052l.184-.037c5.664-1.01 10.87 3.351 10.87 9.107v3.241c0 6.904 5.6 12.494 12.494 12.494 3.452 0 6.573-1.395 8.841-3.654 2.258-2.267 3.654-5.389 3.654-8.841v-5.573c0-7.693 4.774-14.477 11.824-17.195.606-.239 1.239-.45 1.882-.624 52.401-14.156 100.598-35.353 142.717-62.16 6.702-4.26 15.469.551 15.469 8.492 0 3.452 1.395 6.582 3.654 8.841 2.267 2.258 5.389 3.663 8.841 3.663s6.573-1.405 8.841-3.663c2.258-2.258 3.654-5.389 3.654-8.841v-22.363c0-9.336 4.03-18.25 11.117-24.337 3.02-2.589 5.995-5.214 8.914-7.886v-46.039h-350.809z" fill="#fff"/><path d="m460.272 290.132v46.039c-2.919 2.672-5.894 5.297-8.914 7.886-7.087 6.087-11.117 15.001-11.117 24.337v22.363c0 3.452-1.395 6.582-3.654 8.841-2.268 2.258-5.389 3.663-8.841 3.663s-6.573-1.405-8.841-3.663c-2.258-2.258-3.654-5.389-3.654-8.841 0-7.941-8.767-12.751-15.469-8.492-42.119 26.807-90.316 48.004-142.717 62.16-.643.174-1.276.386-1.882.624v-154.917z" fill="#d1f6ff"/><path d="m460.272 290.132c-54.072 49.363-124.669 87.36-205.088 108.778-45.801 12.201-94.787 19.031-145.719 19.508-19.104-39.916-29.533-83.146-29.533-128.277 0-45.121 10.429-88.351 29.533-128.267 50.932.487 99.919 7.308 145.719 19.508 80.41 21.408 150.998 59.396 205.088 108.75z" fill="#fd7db9"/><path d="m460.272 290.132c-54.072 49.363-124.669 87.36-205.088 108.778v-217.529c80.41 21.409 150.998 59.397 205.088 108.751z" fill="#fc5e98"/><path d="m133.122 379.787c-4.939 13.403.946 28.936-3.837 42.395-2.488 7.005-8.097 12.504-14.817 15.607-2.396 1.111-4.93 1.91-7.519 2.359-5.022.89-10.227.487-14.955-1.506-11.127-4.682-18.664-18.214-16.662-30.203.936-5.609 4.058-8.868 3.791-14.606-.321-6.628-5.912-14.624-9.997-19.481-4.673-5.545-10.824-10.704-12.118-17.397-2.405-12.476 13.018-23.033 13.22-35.666.229-15.092-21.115-26.788-18.232-41.697 2.075-10.714 16.24-17.984 17.094-28.817.826-10.548-11.531-20.408-7.702-30.479 3.323-8.74 17.057-12.1 21.096-20.619 4.251-8.96-4.067-18.498-4.921-28.11-1.102-12.485 13.091-24.328 28.037-23.392 3.993.257 7.757 1.276 11.09 2.956 7.418 3.736 12.678 10.75 13.385 19.866 1.065 13.697-13.642 17.516-6.188 33.031 3.599 7.464 9.171 15.083 7.372 23.171-1.873 8.382-11.209 13.826-12.228 22.354-1.349 11.246 12.348 19.582 12.439 30.91.092 11.971-14.946 20.325-14.037 32.269 1.147 15.092 25.237 18.269 29.212 32.884 3.296 12.138-9.181 22.365-13.523 34.171z" fill="#fdf7bd"/><g fill="#fff"><path d="m195.402 358.799c-.341-2.45-1.189-4.752-2.52-6.837-1.031-1.594-2.368-2.829-4.009-3.702-1.519-1.175-3.253-1.897-5.2-2.164l-.799-.196c-4.697-1.15-10.61 1.11-13.545 4.887-2.391 3.077-3.745 6.767-3.372 10.724.342 3.623 2.272 7.313 5.045 9.668 1.995 1.68 4.277 2.751 6.847 3.213 2.573.445 5.084.22 7.533-.677.255-.062.509-.124.764-.186l3.231-1.695c1.594-1.031 2.829-2.368 3.702-4.009.829-.983 1.357-2.109 1.584-3.376.75-1.797.995-3.679.739-5.65z"/><path d="m338.231 237.568c-.341-2.45-1.189-4.752-2.52-6.837-1.031-1.594-2.367-2.829-4.009-3.702-1.519-1.175-3.253-1.896-5.2-2.164l-.799-.196c-4.697-1.15-10.61 1.11-13.545 4.887-2.391 3.077-3.745 6.767-3.371 10.724.342 3.623 2.272 7.313 5.045 9.668 1.995 1.68 4.277 2.751 6.847 3.213 2.573.445 5.084.22 7.533-.677.255-.062.509-.124.764-.186 1.077-.565 2.154-1.13 3.231-1.696 1.594-1.031 2.829-2.368 3.702-4.009.829-.983 1.357-2.109 1.584-3.376.749-1.796.994-3.678.738-5.649z"/><path d="m202.258 305.995c-12.589 0-10.694 19.514 1.849 19.514 12.589 0 10.695-19.514-1.849-19.514z"/><path d="m181.815 205.204c-.826-8.79-8.31-13.666-16.527-13.666-8.193 0-14.38 8.927-13.666 16.527.826 8.79 8.31 13.666 16.527 13.666 8.193 0 14.38-8.927 13.666-16.527z"/><path d="m406.899 284.185c-.847-9.021-8.528-14.024-16.96-14.024-8.408 0-14.757 9.161-14.025 16.96.847 9.021 8.528 14.024 16.96 14.024 8.409 0 14.758-9.161 14.025-16.96z"/><path d="m338.269 331.111c-.891-9.481-8.963-14.74-17.826-14.74-8.837 0-15.51 9.629-14.74 17.826.891 9.482 8.963 14.741 17.826 14.741 8.837-.001 15.51-9.63 14.74-17.827z"/></g><ellipse cx="255.184" cy="267.465" fill="#fe3345" rx="38.53" ry="38.53" transform="matrix(.158 -.987 .987 .158 -49.301 477.097)"/><path d="m255.184 228.935v77.06c21.279 0 38.53-17.25 38.53-38.53s-17.251-38.53-38.53-38.53z" fill="#de1263"/><path d="m285.863 193.284c-10.688-5.667-23.914 3.528-29.761 12.331-6.802 10.241-11.338 29.702-4.106 40.513 1.361 2.035 4.57 1.712 5.591-.468 4.254-9.083.692-19.939 4.805-29.511 1.952-4.543 4.98-8.838 9.232-11.483 4.237-2.636 9.214-2.345 13.888-3.525 3.806-.961 3.296-6.296.351-7.857z" fill="#bc0e5c"/><path d="m104.819 191.93c2.515 5.931 5.563 12.605 2.965 18.498-2.681 6.05-10.264 8.529-13.559 14.266-3.782 6.564-.744 14.817 2.525 21.647 4.039 8.446 6.38 14.992 2.277 23.511-3.149 6.546-10.098 11.117-11.319 18.618-2.515 15.414 19.15 24.025 12.439 40.412-2.047 4.994-5.664 9.171-8.281 13.89-2.616 4.728-4.168 10.631-1.744 15.46 2.598 5.169 8.868 7.464 12.173 12.219 5.067 7.289 1.561 17.222-2.093 25.319-6.683 14.826-3.351 32.333 6.748 44.378-5.022.89-10.227.487-14.955-1.506-11.127-4.682-18.664-18.214-16.662-30.203.936-5.609 4.058-8.868 3.791-14.606-.321-6.628-5.912-14.624-9.997-19.481-4.673-5.545-10.824-10.704-12.118-17.397-2.405-12.476 13.018-23.033 13.22-35.666.229-15.092-21.115-26.788-18.232-41.697 2.075-10.714 16.24-17.984 17.094-28.817.826-10.548-11.531-20.408-7.702-30.479 3.323-8.74 17.057-12.1 21.096-20.619 4.251-8.96-4.067-18.498-4.921-28.11-1.102-12.485 13.091-24.328 28.037-23.392 3.993.257 7.757 1.276 11.09 2.956-10.926 10.256-17.352 27.909-11.872 40.799z" fill="#fff"/></svg>