<svg id="Capa_1" enable-background="new 0 0 512 512" height="512" viewBox="0 0 512 512" width="512" xmlns="http://www.w3.org/2000/svg"><path d="m512 256c0 91.76-48.28 172.25-120.83 217.44l-99.12 36.04h-.01c-11.77 1.66-23.81 2.52-36.04 2.52s-24.25-.86-36.02-2.51h-.01l-99.11-36.03c-72.56-45.19-120.86-125.69-120.86-217.46 0-141.38 114.62-256 256-256s256 114.62 256 256z" fill="#4e689b"/><path d="m512 256c0 87.11-43.52 164.07-110 210.31-3.55 2.47-7.16 4.84-10.83 7.13l-99.13 36.04c-11.77 1.66-23.8 2.52-36.04 2.52s-24.27-.86-36.05-2.52l-99.09-36.02c-3.68-2.29-7.31-4.68-10.86-7.15-66.48-46.24-110-123.2-110-210.31 0-46.22 12.25-89.57 33.68-127 44.12 77.07 127.16 129 222.32 129s178.21-51.93 222.32-129c21.43 37.43 33.68 80.78 33.68 127z" fill="#374c81"/><path d="m401.02 165.56c-11.62-13.28-24.98-24.89-39.69-34.5-28.22-18.45-60.95-29.19-94.63-31.02-3.58-.19-7.15-.3-10.7-.3-3.56 0-7.11.11-10.68.3-33.7 1.83-66.43 12.57-94.63 31.02-14.72 9.61-28.07 21.22-39.68 34.49-32.26 36.86-49.08 84.08-47.38 133.03.03.76.06 1.53.09 2.29.43 8.93 1.23 17.91 2.4 26.7 3.22 24 9.23 47.57 17.85 69.95 2.41 6.33 5.13 12.76 8.09 19.15 4.79 10.34 10.25 20.56 16.25 30.45 4.8 7.88 8.85 16.26 12.04 24.93.17.47.34.94.51 1.41 29.55 18.41 63.14 30.96 99.12 36.03v-189.06h72.06v189.05c35.99-5.07 69.58-17.63 99.13-36.04.16-.48.34-.95.51-1.42 3.11-8.43 7.02-16.6 11.66-24.31l.39-.65c5.92-9.72 11.36-19.94 16.23-30.4 2.93-6.32 5.65-12.76 8.06-19.08 8.66-22.53 14.67-46.1 17.83-69.97 1.19-8.76 2.01-17.78 2.43-26.77.03-.69.06-1.39.08-2.07l.01-.25c1.7-48.88-15.11-96.09-47.35-132.96z" fill="#fff"/><path d="m448.37 298.52-.01.25c-.02.68-.05 1.38-.08 2.07-.42 8.99-1.24 18.01-2.43 26.77-3.16 23.87-9.17 47.44-17.83 69.97-2.41 6.32-5.13 12.76-8.06 19.08-4.87 10.46-10.31 20.68-16.23 30.4l-.39.65c-4.64 7.71-8.55 15.88-11.66 24.31-.17.47-.35.94-.51 1.42-29.55 18.41-63.14 30.97-99.13 36.04v-189.05h-36.04v-220.69c3.55 0 7.12.11 10.7.3 33.68 1.83 66.41 12.57 94.63 31.02 14.71 9.61 28.07 21.22 39.69 34.5 32.24 36.87 49.05 84.08 47.35 132.96z" fill="#8fc8f5"/><path d="m411.14 297.22c-.02.58-.04 1.18-.08 1.77-.36 7.9-1.07 15.79-2.13 23.64-2.78 20.94-8.01 41.63-15.69 61.59-2.16 5.66-4.53 11.26-7.09 16.79-4.23 9.1-8.97 18.01-14.25 26.69l-.02.03c-6.08 10-11.15 20.53-15.16 31.41-2.02 5.48-3.78 11.05-5.26 16.68-1.67 6.37-2.99 12.82-3.96 19.33-17.63 6.76-36.2 11.62-55.46 14.33v-111.72c0-5.2-1.1-10.13-3.08-14.59-4.46-10.07-13.41-17.71-24.3-20.39-2.55-.63-5.21-.99-7.95-1.04-.24 0-.47-.01-.71-.01-2.98 0-5.89.39-8.66 1.1-10.71 2.74-19.54 10.43-24.06 20.44-2.12 4.66-3.3 9.81-3.3 15.2v111.02c-19.26-2.71-37.83-7.57-55.46-14.32-.97-6.52-2.29-12.99-3.96-19.36-1.48-5.64-3.23-11.2-5.26-16.68-4.01-10.87-9.08-21.38-15.15-31.38l-.04-.05c-5.27-8.69-10.03-17.6-14.25-26.7-2.56-5.53-4.93-11.12-7.09-16.78-7.69-19.96-12.91-40.65-15.71-61.59-1.05-7.85-1.76-15.74-2.12-23.63-.04-.59-.06-1.18-.08-1.77-1.42-40.93 13.22-78.62 38.18-107.15 9.33-10.66 20.1-20.04 32.02-27.83 22.13-14.47 48.19-23.48 76.28-25.01 2.87-.16 5.75-.24 8.66-.24s5.79.08 8.66.24c28.08 1.53 54.14 10.53 76.27 25.01 11.92 7.78 22.71 17.17 32.05 27.84 24.94 28.53 39.58 66.21 38.16 107.13z" fill="#f79f63"/><path d="m411.14 297.22c-.02.58-.04 1.18-.08 1.77-.36 7.9-1.07 15.79-2.13 23.64-2.78 20.94-8.01 41.63-15.69 61.59-2.16 5.66-4.53 11.26-7.09 16.79-4.23 9.1-8.97 18.01-14.25 26.69l-.02.03c-6.08 10-11.15 20.53-15.16 31.41-2.02 5.48-3.78 11.05-5.26 16.68-1.67 6.37-2.99 12.82-3.96 19.33-17.63 6.76-36.2 11.62-55.46 14.33v-111.72c0-5.2-1.1-10.13-3.08-14.59-4.46-10.07-13.41-17.71-24.3-20.39-2.55-.63-5.21-.99-7.95-1.04-.24 0-.47-.01-.71-.01v-224.73c2.91 0 5.79.08 8.66.24 28.08 1.53 54.14 10.53 76.27 25.01 11.92 7.78 22.71 17.17 32.05 27.84 24.94 28.53 39.58 66.21 38.16 107.13z" fill="#ec781b"/><path d="m355.398 255.662c-12.29-28.41-36.397-50.554-66.098-60.178 5.667-4.67 12.185-8.491 19.437-11.282 13.465-5.163 28.011-6.244 42.054-3.117 7.829 1.742 15.291 4.796 22.186 9.015-9.341-10.674-20.129-20.066-32.052-27.854-12.794-.892-25.86.976-38.391 5.783-13.35 5.121-36.439 22.669-37.877 22.554v-53.336c-2.865-.157-5.751-.241-8.658-.241s-5.793.084-8.658.241v53.336c-1.438.115-24.527-17.432-37.877-22.554-12.531-4.807-25.597-6.664-38.401-5.772-11.923 7.787-22.69 17.17-32.02 27.833 6.885-4.219 14.347-7.263 22.165-9.005 14.042-3.127 28.589-2.046 42.054 3.117 7.252 2.792 13.77 6.612 19.437 11.282-29.701 9.624-53.818 31.768-66.097 60.178-21.148 9.666-40.196 23.771-55.739 41.571.021.588.042 1.186.074 1.774.367 7.892 1.07 15.774 2.12 23.624l.661-.944c12.216-17.632 27.917-32.115 45.832-42.799-1.165 6.35-1.784 12.898-1.784 19.573 0 21.441 6.276 41.455 17.075 58.289-16.719 6.57-32.293 15.837-46.073 27.476 2.162 5.657 4.534 11.251 7.095 16.782 11.966-10.869 25.6-19.665 40.313-26.083 5.434-2.371 11.753-1.347 16.091 2.695 10.767 10.035 23.571 17.906 37.715 22.905v-2.047c0-5.394 1.176-10.547 3.296-15.207-10.537-4.072-20.13-10.054-28.357-17.527 9.897-2.078 20.067-3.159 30.372-3.159h22.05v.252c2.771-.714 5.678-1.102 8.658-1.102.241 0 .472.01.714.01 2.739.052 5.395.409 7.945 1.039v-.199h22.05c10.306 0 20.476 1.081 30.372 3.159-8.165 7.41-17.673 13.36-28.116 17.432 1.973 4.46 3.075 9.393 3.075 14.588v2.75c14.141-4.998 26.937-12.86 37.694-22.89 4.338-4.044 10.658-5.069 16.094-2.698 14.712 6.418 28.347 15.215 40.321 26.092 2.561-5.531 4.933-11.135 7.095-16.792-13.78-11.628-29.365-20.906-46.083-27.486 10.799-16.823 17.065-36.837 17.065-58.279 0-6.675-.609-13.224-1.774-19.573 17.904 10.684 33.615 25.167 45.832 42.799l.651.944c1.06-7.85 1.763-15.732 2.13-23.635.031-.588.052-1.186.073-1.774-15.545-17.789-34.593-31.894-55.741-41.56zm-114.108-35.645c2.833 6.41 4.722 13.353 5.558 20.669h-21.557c-15.029 0-29.785 2.046-43.942 5.961 10.62-15.252 25.776-27.107 43.5-33.592 6.445-2.358 13.667.684 16.441 6.962zm-15.998 125.241c-14.829 0-29.407 2.015-43.386 5.825-10.59-14.861-16.813-33.028-16.813-52.622 0-10.411 1.763-20.423 5.006-29.753 17.317-6.969 36.019-10.705 55.193-10.705h20.812c-19.93 4.513-34.854 22.354-34.854 43.628 0 14.312 6.759 27.071 17.249 35.263 3.515 2.745 1.631 8.365-2.83 8.365h-.377zm22.05-17.611c-10.894-3.631-18.765-13.916-18.765-26.017s7.871-22.386 18.765-26.017zm39.809-114.592c17.723 6.485 32.88 18.34 43.5 33.592-14.158-3.915-28.914-5.961-43.943-5.961h-21.557c.836-7.316 2.725-14.26 5.558-20.669 2.775-6.278 9.997-9.32 16.442-6.962zm-22.493 62.558c10.894 3.631 18.765 13.916 18.765 26.017s-7.871 22.386-18.765 26.017zm65.437 75.47c-13.979-3.81-28.557-5.825-43.386-5.825h-.377c-4.46 0-6.345-5.62-2.83-8.365 10.49-8.192 17.249-20.951 17.249-35.263 0-21.273-14.924-39.115-34.854-43.628h20.812c19.185 0 37.877 3.736 55.193 10.705 3.243 9.33 5.006 19.342 5.006 29.753 0 19.595-6.224 37.762-16.813 52.623zm-38.055 109.914c20.885.745 41.088 5.898 59.423 14.829 1.48-5.636 3.233-11.198 5.258-16.677-20.056-9.383-42.022-14.756-64.681-15.491zm-131.481 14.819c18.335-8.931 38.538-14.084 59.423-14.819v-17.338c-22.659.724-44.625 6.098-64.68 15.48 2.024 5.479 3.777 11.041 5.257 16.677z" fill="#ec781b"/><path d="m355.398 255.657c-12.29-28.41-36.397-50.554-66.098-60.178 5.667-4.67 12.185-8.49 19.437-11.282 13.465-5.153 28.011-6.244 42.053-3.117 7.829 1.742 15.291 4.796 22.186 9.015-9.34-10.673-20.129-20.067-32.052-27.843-12.793-.903-25.86.965-38.391 5.772-13.35 5.121-36.439 22.669-37.877 22.564v-53.346c-2.865-.157-5.751-.241-8.658-.241v224.73c.241 0 .472.01.714.01 2.739.052 5.395.409 7.945 1.039v-.199h22.05c10.306 0 20.476 1.081 30.372 3.159-8.165 7.409-17.674 13.36-28.116 17.432 1.973 4.46 3.075 9.393 3.075 14.588v2.75c14.137-4.996 26.941-12.856 37.698-22.89 4.334-4.04 10.652-5.069 16.089-2.697 14.714 6.423 28.347 15.218 40.322 26.091 2.561-5.531 4.933-11.135 7.095-16.792-13.78-11.628-29.365-20.906-46.084-27.486 10.799-16.824 17.065-36.838 17.065-58.279 0-6.675-.609-13.224-1.774-19.573 17.905 10.684 33.616 25.167 45.832 42.799l.651.945c1.06-7.85 1.763-15.732 2.13-23.635.032-.588.053-1.186.074-1.774-15.542-17.791-34.59-31.896-55.738-41.562zm-84.684-35.641c2.771-6.276 9.991-9.32 16.435-6.958 17.726 6.486 32.881 18.335 43.502 33.584-14.158-3.915-28.914-5.961-43.943-5.961h-21.557c.84-7.315 2.729-14.253 5.563-20.665zm-6.056 107.626v-52.034c10.894 3.631 18.765 13.916 18.765 26.017s-7.871 22.386-18.765 26.017zm65.437 23.436c-13.979-3.81-28.557-5.825-43.386-5.825h-.378c-4.46 0-6.349-5.615-2.834-8.365 10.495-8.186 17.254-20.948 17.254-35.263 0-21.273-14.924-39.115-34.854-43.628h20.812c19.185 0 37.876 3.736 55.193 10.705 3.243 9.33 5.006 19.342 5.006 29.754 0 19.594-6.224 37.761-16.813 52.622zm-38.055 92.576v17.338c20.885.745 41.088 5.898 59.423 14.83 1.48-5.636 3.233-11.198 5.258-16.677-20.056-9.383-42.023-14.756-64.681-15.491z" fill="#c55733"/><ellipse cx="256" cy="301.63" fill="#fff" rx="27.424" ry="36.039"/><ellipse cx="256" cy="301.63" fill="#fdf7bd" rx="14.309" ry="18.804"/><path d="m307.952 179.425 14.795 7.866c4.573 2.431 6.309 8.109 3.878 12.681-2.431 4.573-8.109 6.309-12.681 3.878l-14.795-7.866c-4.573-2.431-6.309-8.109-3.878-12.681 2.43-4.573 8.108-6.309 12.681-3.878z" fill="#ffe853"/><path d="m143.421 420.643 14.795 7.866c4.573 2.431 6.309 8.109 3.878 12.681-2.431 4.573-8.109 6.309-12.681 3.878l-14.795-7.866c-4.573-2.431-6.309-8.109-3.878-12.681 2.431-4.573 8.109-6.309 12.681-3.878z" fill="#ffe853"/><path d="m219.578 186.455-10.457 13.092c-3.232 4.046-9.132 4.707-13.178 1.475-4.046-3.232-4.707-9.132-1.475-13.178l10.457-13.092c3.232-4.046 9.132-4.707 13.178-1.475 4.046 3.231 4.707 9.131 1.475 13.178z" fill="#6cdc2d"/><path d="m149.244 250.205-13.047 10.514c-4.032 3.249-9.935 2.615-13.185-1.418-3.249-4.032-2.615-9.935 1.418-13.185l13.047-10.514c4.032-3.249 9.935-2.615 13.185 1.418 3.249 4.032 2.615 9.935-1.418 13.185z" fill="#00a042"/><path d="m408.933 322.626-13.047 10.514c-4.032 3.249-9.935 2.615-13.185-1.418-3.25-4.032-2.615-9.935 1.418-13.185l13.047-10.514c4.032-3.25 9.935-2.615 13.185 1.418 3.249 4.032 2.615 9.935-1.418 13.185z" fill="#ffe853"/><path d="m349.948 415.836-13.047 10.514c-4.032 3.249-9.935 2.615-13.185-1.418-3.249-4.032-2.615-9.935 1.418-13.185l13.047-10.514c4.032-3.249 9.935-2.615 13.185 1.418 3.249 4.033 2.614 9.935-1.418 13.185z" fill="#ffe853"/><path d="m340.069 469.395-13.047 10.514c-4.032 3.249-9.935 2.615-13.185-1.418-3.249-4.032-2.615-9.935 1.418-13.185l13.047-10.514c4.032-3.249 9.935-2.615 13.185 1.418 3.249 4.032 2.614 9.935-1.418 13.185z" fill="#00a042"/><g fill="#6cdc2d"><path d="m329.589 306.987-14.511-8.378c-4.485-2.589-6.021-8.324-3.432-12.809 2.589-4.485 8.324-6.021 12.809-3.432l14.511 8.378c4.485 2.589 6.021 8.324 3.432 12.809-2.589 4.485-8.324 6.021-12.809 3.432z"/><path d="m184.611 381.841-13.092-10.457c-4.046-3.232-4.706-9.132-1.475-13.179 3.232-4.046 9.132-4.707 13.179-1.475l13.092 10.457c4.046 3.232 4.706 9.132 1.475 13.179-3.233 4.046-9.133 4.706-13.179 1.475z"/></g></svg>