<?xml version="1.0" encoding="iso-8859-1"?>
<!-- Generator: Adobe Illustrator 21.0.0, SVG Export Plug-In . SVG Version: 6.00 Build 0)  -->
<svg xmlns="http://www.w3.org/2000/svg" xmlns:xlink="http://www.w3.org/1999/xlink" version="1.1" id="Capa_1" x="0px" y="0px" viewBox="0 0 512 512" style="enable-background:new 0 0 512 512;" xml:space="preserve" width="512" height="512">
<g id="XMLID_943_">
	<g id="XMLID_1603_">
		<g id="XMLID_1604_">
			<g id="XMLID_1605_">
				<g id="XMLID_1606_">
					<g id="XMLID_1607_">
						<g id="XMLID_1608_">
							<g id="XMLID_1609_">
								<g id="XMLID_1610_">
									<g id="XMLID_1611_">
										<g id="XMLID_1612_">
											<g id="XMLID_1613_">
												<g id="XMLID_1614_">
													<g id="XMLID_1615_">
														<circle id="XMLID_1629_" style="fill:#FFDBA9;" cx="256" cy="256" r="256"/>
													</g>
												</g>
											</g>
										</g>
									</g>
								</g>
							</g>
						</g>
					</g>
				</g>
			</g>
		</g>
	</g>
	<path id="XMLID_1224_" style="fill:#FFC473;" d="M512,256c0-31.597-5.739-61.849-16.207-89.791L392.38,62.796   c-23.888,57.065-54.411,76.733-73.08,83.509c-16.987-5.631-37.732-6.247-63.3-6.247c-20.843,0-38.48,0.411-53.49,3.613   l-82.89-80.875c0,0-21.914,72.142,15.162,109.087l15.049,15.03c-0.154,0.324-0.31,0.642-0.462,0.97   c-0.07,0.149-0.139,0.3-0.208,0.451c-0.497,1.078-0.99,2.172-1.475,3.298c-1.22,2.837-2.275,5.619-3.177,8.355   c-18.733-12.442-59.515-29.953-120.255-5.15c0,0,5.638,18.586,23.659,34.409l143.24,143.45c0.469,5,0.656,10.103,0.687,15.686   c-1.998,3.66-3.135,7.857-3.135,12.32v26.737c0,7.458,3.173,14.171,8.241,18.872l66.105,65.588   C401.175,508.164,512,395.027,512,256z"/>
	<g id="XMLID_439_">
		<g id="XMLID_1215_">
			<path id="XMLID_1217_" style="fill:#BD9B7B;" d="M209.672,149.861c0,0-53.008,1.428-90.052-87.065     c0,0-35.277,116.06,59.279,129.163L209.672,149.861z"/>
			<path id="XMLID_1216_" style="fill:#B38A65;" d="M302.328,149.861c0,0,53.008,1.428,90.052-87.065     c0,0,35.277,116.06-59.279,129.163L302.328,149.861z"/>
		</g>
		<path id="XMLID_1310_" style="fill:#FFFFFF;" d="M364.315,191.632c-20.972-48.76-53.603-51.574-108.315-51.574    c-54.711,0-87.343,2.815-108.314,51.574c-19.331,44.946,2.539,76.271,25.518,124.919c22.979,48.648,18.237,58.298,18.237,110.924    c0,21.885,54.711,15.866,64.559,15.866c9.848,0,64.559,9.185,64.559-15.866c0-52.625-4.742-62.276,18.237-110.924    C361.775,267.903,383.646,236.578,364.315,191.632z"/>
		<path id="XMLID_1214_" style="fill:#FFF5CB;" d="M320.18,386.6c-0.13,10.92,0.38,23.58,0.38,40.87    c0,25.06-54.71,15.87-64.56,15.87V140.06c54.71,0,87.34,2.81,108.31,51.57c19.34,44.95-2.53,76.27-25.51,124.92    C323.37,349.21,320.44,364.3,320.18,386.6z"/>
		<path id="XMLID_1213_" style="fill:#BD9B7B;" d="M298.639,453.189h-84.184c-14.221,0-25.75-11.529-25.75-25.75v-26.737    c0-14.221,11.529-25.75,25.75-25.75h84.184c14.221,0,25.75,11.529,25.75,25.75v26.737    C324.389,441.66,312.86,453.189,298.639,453.189z"/>
		<path id="XMLID_1212_" style="fill:#B38A65;" d="M324.39,400.7v26.74c0,14.22-11.53,25.75-25.75,25.75H256v-78.24h42.64    c9.01,0,16.95,4.63,21.54,11.65C322.85,390.65,324.39,395.49,324.39,400.7z"/>
		<g id="XMLID_1201_">
			<path id="XMLID_1211_" style="fill:#8A6746;" d="M367.491,199.987c-0.902-2.736-1.956-5.518-3.176-8.355     c-1.047-2.434-2.124-4.748-3.23-6.958c-21.035-0.152-57.857,4.112-72.702,33.803c-21.337,42.675,20.243,58.541,8.207,98.48     c-5.62,18.648,8.799,33.955,25.769,44.977c2.368-12.361,7.127-25.67,16.439-45.384c12.481-26.424,24.62-47.737,30.022-68.898     c96.818,20.173,118.928-52.816,118.928-52.816C427.005,170.033,386.224,187.545,367.491,199.987z"/>
			<path id="XMLID_1202_" style="fill:#AE774E;" d="M223.618,218.477c-14.846-29.691-51.667-33.956-72.702-33.803     c-1.106,2.21-2.183,4.524-3.23,6.958c-1.22,2.837-2.274,5.619-3.176,8.355c-18.733-12.443-59.515-29.954-120.256-5.151     c0,0,22.11,72.99,118.928,52.816c5.402,21.161,17.541,42.474,30.022,68.898c9.312,19.714,14.071,33.024,16.439,45.384     c16.97-11.022,31.389-26.329,25.769-44.978C203.374,277.018,244.955,261.152,223.618,218.477z"/>
		</g>
		<g id="XMLID_1197_">
			
				<ellipse id="XMLID_1199_" transform="matrix(0.3703 -0.9289 0.9289 0.3703 -134.6834 345.544)" style="fill:#57555C;" cx="187.518" cy="272.109" rx="10.669" ry="15.681"/>
			
				<ellipse id="XMLID_1198_" transform="matrix(0.9289 -0.3703 0.3703 0.9289 -77.6915 139.4875)" style="fill:#3C3B41;" cx="324.482" cy="272.109" rx="15.681" ry="10.669"/>
		</g>
		<g id="XMLID_440_">
			<path id="XMLID_1058_" style="fill:#AE774E;" d="M235.734,404.127c6.038,6.189,7.268,15.575,2.748,20.963     c-4.52,5.388-13.079,4.739-19.116-1.45c-6.038-6.189-7.268-15.575-2.748-20.963C221.138,397.289,229.697,397.938,235.734,404.127     z"/>
			<path id="XMLID_947_" style="fill:#8A6746;" d="M277.36,404.127c-6.038,6.189-7.268,15.575-2.748,20.963     c4.52,5.388,13.079,4.739,19.116-1.45c6.038-6.189,7.268-15.575,2.748-20.963C291.956,397.289,283.397,397.938,277.36,404.127z"/>
		</g>
	</g>
</g>















</svg>
