<?xml version="1.0" encoding="iso-8859-1"?>
<!-- Generator: Adobe Illustrator 21.0.0, SVG Export Plug-In . SVG Version: 6.00 Build 0)  -->
<svg xmlns="http://www.w3.org/2000/svg" xmlns:xlink="http://www.w3.org/1999/xlink" version="1.1" id="Capa_1" x="0px" y="0px" viewBox="0 0 512 512" style="enable-background:new 0 0 512 512;" xml:space="preserve" width="512" height="512">
<g id="XMLID_1321_">
	<g id="XMLID_1336_">
		<g id="XMLID_1338_">
			<g id="XMLID_1339_">
				<g id="XMLID_1340_">
					<g id="XMLID_1342_">
						<g id="XMLID_1345_">
							<g id="XMLID_1346_">
								<g id="XMLID_1347_">
									<g id="XMLID_1348_">
										<g id="XMLID_1350_">
											<g id="XMLID_1351_">
												<g id="XMLID_1353_">
													<g id="XMLID_1354_">
														<circle id="XMLID_1355_" style="fill:#715539;" cx="256" cy="256" r="256"/>
													</g>
												</g>
											</g>
										</g>
									</g>
								</g>
							</g>
						</g>
					</g>
				</g>
			</g>
		</g>
	</g>
	<g id="XMLID_1322_">
		<path id="XMLID_1335_" style="fill:#5A422D;" d="M512,256c0-6.345-0.24-12.634-0.694-18.863L331.031,58.405    c-2.741-3.128-6.468-5.773-11.361-7.8c-14.518-6.014-32.329,0.468-43.545,14.12l-22.054-22.138    c-6.648-7.136-15.865-10.902-28.352-8.828c-24.959,4.147-27.098,30.688-19.694,54.509c-16.181-15.962-39.06-24.105-51.934-8.218    c-13.583,16.762-5.823,33.503,8.27,47.513l24.705,24.706c-31.342,20.503-52.062,55.897-52.062,96.146v155.661l39.901,49.713    l57.082,57.082c7.907,0.736,15.913,1.13,24.013,1.13C397.385,512,512,397.385,512,256z"/>
		<g id="XMLID_1325_">
			<path id="XMLID_1479_" style="fill:#FF738E;" d="M319.67,50.604c-18.841-7.805-43.241,5.422-51.554,28.078     c-3.236-25.734-14.888-49.494-42.398-44.924c-24.959,4.147-27.098,30.688-19.694,54.509     c-16.181-15.962-39.06-24.105-51.934-8.218c-33.674,41.555,63.821,82.995,63.821,82.995h74.641     C292.553,163.045,371.576,72.106,319.67,50.604z"/>
			<path id="XMLID_1334_" style="fill:#FF3D62;" d="M304.78,147.567c-6.94,9.4-12.23,15.48-12.23,15.48h-42.72V38.767     c10.77,7.99,16.23,23.55,18.29,39.91c8.31-22.65,32.71-35.88,51.55-28.07C358.15,66.547,324.67,120.647,304.78,147.567z"/>
			<path id="XMLID_1439_" style="fill:#FFB74F;" d="M356.689,342.808c0,0,31.001,13.407,66.153-20.471h-66.153V342.808z"/>
			<path id="XMLID_1437_" style="fill:#FFE670;" d="M356.689,289.787c0,0,38.975-23.084,83.167,35.249h-83.167V289.787z"/>
			<path id="XMLID_1363_" style="fill:#FFFFFF;" d="M364.666,404.075L364.666,404.075V248.414     c0-63.419-51.411-114.831-114.831-114.831h0c-63.419,0-114.831,51.411-114.831,114.831v155.661l39.901,49.713l37.465-46.678     l37.465,46.678L287.3,407.11l37.465,46.678L364.666,404.075z"/>
			<path id="XMLID_1333_" style="fill:#FFF5CB;" d="M364.67,248.417v155.66l-39.91,49.71l-37.46-46.68l-37.47,46.68v-320.2h0.01     c19.9,0,38.62,5.06,54.94,13.98C340.46,167.037,364.67,204.897,364.67,248.417z"/>
			<circle id="XMLID_1436_" style="fill:#57555C;" cx="306.438" cy="261.116" r="19.426"/>
		</g>
	</g>
</g>















</svg>
