<?xml version="1.0" encoding="iso-8859-1"?>
<!-- Generator: Adobe Illustrator 21.0.0, SVG Export Plug-In . SVG Version: 6.00 Build 0)  -->
<svg xmlns="http://www.w3.org/2000/svg" xmlns:xlink="http://www.w3.org/1999/xlink" version="1.1" id="Capa_1" x="0px" y="0px" viewBox="0 0 512 512" style="enable-background:new 0 0 512 512;" xml:space="preserve" width="512" height="512">
<g id="XMLID_1153_">
	<g id="XMLID_2117_">
		<g id="XMLID_2118_">
			<g id="XMLID_2119_">
				<g id="XMLID_2120_">
					<g id="XMLID_2121_">
						<g id="XMLID_2123_">
							<g id="XMLID_2124_">
								<g id="XMLID_2125_">
									<g id="XMLID_2126_">
										<g id="XMLID_2132_">
											<g id="XMLID_2133_">
												<g id="XMLID_2134_">
													<g id="XMLID_2136_">
														<circle id="XMLID_2295_" style="fill:#9BFCFF;" cx="256" cy="256" r="256"/>
													</g>
												</g>
											</g>
										</g>
									</g>
								</g>
							</g>
						</g>
					</g>
				</g>
			</g>
		</g>
	</g>
	<path id="XMLID_1180_" style="fill:#27D8F6;" d="M512,256c0-17.108-1.693-33.818-4.893-49.986l-33.968-32.649   c-2.102-3.783-7.795-6.265-17.884-6.413c-5.835-0.086-11.637-0.364-17.356-0.777l-64.072-64.17   c-8.97-10.303-22.173-16.822-36.907-16.822c-4.976,0-9.77,0.759-14.292,2.142l-18.271-18.35C292.265,56.069,275.08,48,256,48   c-27.749,0-51.502,17.055-61.384,41.249c-5.985-2.61-12.589-4.066-19.535-4.066c-27.025,0-48.933,21.908-48.933,48.932   c0,8.466,2.151,16.429,5.935,23.374c-20.002,4.416-47.352,9.05-75.337,9.462c-22.772,0.335-23.172,12.551-10.368,24.802   l44.209,44.161c-1.084,4.038-1.674,8.278-1.674,12.658c0,15.67,7.404,29.599,18.896,38.511c2.522,3.253,5.446,6.177,8.699,8.699   c0.355,0.458,0.718,0.91,1.09,1.355c-3.254,6.932-5.083,14.664-5.083,22.828c0,14.491,5.731,27.634,15.044,37.308l29.179,29.059   c3.234,8.329,8.684,15.552,15.636,20.932l103.934,103.934C408.198,500.848,512,390.549,512,256z"/>
	<g id="XMLID_1171_">
		<g id="XMLID_1174_">
			<path id="XMLID_1179_" style="fill:#FFFFFF;" d="M137.644,199.84c-26.914,0-48.732,21.818-48.732,48.732     c0,20.437,12.586,37.925,30.426,45.164c-4.339,7.763-6.823,16.704-6.823,26.23c0,25.328,17.493,46.56,41.052,52.304     c1.831,25.244,22.876,45.16,48.588,45.16c2.674,0,5.294-0.224,7.851-0.638c6.652,18.996,24.727,32.625,45.994,32.625     c21.267,0,39.342-13.629,45.994-32.625c2.557,0.414,5.178,0.638,7.852,0.638c25.711,0,46.757-19.916,48.588-45.16     c23.56-5.744,41.052-26.976,41.052-52.304c0-9.525-2.483-18.467-6.823-26.23c17.84-7.239,30.426-24.727,30.426-45.164     c0-26.914-21.818-48.732-48.732-48.732H137.644z"/>
			<path id="XMLID_1178_" style="fill:#FFF5CB;" d="M392.66,293.74c4.34,7.76,6.83,16.7,6.83,26.23c0,25.32-17.5,46.56-41.06,52.3     c-1.83,25.24-22.87,45.16-48.58,45.16c-2.68,0-5.3-0.22-7.86-0.64c-6.65,19-24.72,32.63-45.99,32.63V199.84h118.36     c0.61,0,1.22,0.01,1.82,0.04c26.07,0.95,46.91,22.39,46.91,48.69C423.09,269.01,410.5,286.5,392.66,293.74z"/>
			<g id="XMLID_2240_">
				<path id="XMLID_1762_" style="fill:#FFB74F;" d="M163.434,149.304c0,0-52.141,16.846-106.689,17.648s19.252,69.789,95.459,44.12      L163.434,149.304z"/>
				<path id="XMLID_2241_" style="fill:#FF9A00;" d="M348.565,149.304c0,0,52.141,16.846,106.689,17.648      s-19.252,69.789-95.459,44.12L348.565,149.304z"/>
			</g>
			<path id="XMLID_2200_" style="fill:#FFDBA9;" d="M256,96.933c-64.111,0-130.845,55.949-119.405,129.945     c11.44,73.997,71.021,180.48,119.405,180.48s107.965-106.483,119.405-180.48C386.845,152.881,320.111,96.933,256,96.933z"/>
			<path id="XMLID_1177_" style="fill:#FFC473;" d="M375.41,226.88C363.96,300.87,304.38,407.36,256,407.36V96.93     c46.62,0,94.63,29.58,112.95,74.18c3.71,9.02,6.2,18.65,7.23,28.77C377.05,208.55,376.85,217.57,375.41,226.88z"/>
			<g id="XMLID_2275_">
				<circle id="XMLID_2242_" style="fill:#78777F;" cx="197.341" cy="270.231" r="15.041"/>
				<circle id="XMLID_2276_" style="fill:#57555C;" cx="314.659" cy="270.231" r="15.041"/>
			</g>
			<path id="XMLID_2379_" style="fill:#FFFFFF;" d="M336.919,85.183c-6.947,0-13.55,1.456-19.536,4.066     C307.502,65.055,283.749,48,256,48c-27.749,0-51.502,17.055-61.384,41.249c-5.985-2.61-12.589-4.066-19.535-4.066     c-27.025,0-48.933,21.908-48.933,48.932c0,27.025,21.908,48.933,48.933,48.933c15.378,0,29.092-7.1,38.062-18.193     c11.558,9.807,26.511,15.734,42.857,15.734c16.345,0,31.299-5.927,42.857-15.734c8.971,11.094,22.684,18.193,38.063,18.193     c27.025,0,48.932-21.908,48.932-48.933C385.852,107.09,363.944,85.183,336.919,85.183z"/>
			<path id="XMLID_1176_" style="fill:#FFF5CB;" d="M385.85,134.12c0,14.77-6.55,28.02-16.9,36.99     c-8.59,7.44-19.78,11.94-32.03,11.94c-15.38,0-29.09-7.1-38.06-18.2c-11.56,9.81-26.51,15.74-42.86,15.74V48     c27.75,0,51.5,17.06,61.38,41.25c5.99-2.61,12.59-4.07,19.54-4.07C363.94,85.18,385.85,107.09,385.85,134.12z"/>
			<path id="XMLID_1175_" style="fill:#FFB74F;" d="M277.221,351.953c1.155,0,2.262,0.195,3.3,0.542     c11.179-18.116-6.899-22.401-24.521-22.401c-17.622,0-35.7,4.285-24.521,22.401c1.038-0.347,2.145-0.542,3.3-0.542     c5.757,0,10.424,4.667,10.424,10.424c0,1.994-0.57,3.85-1.541,5.434c5.99,5.59,9.932,6.001,12.337,6.001     c2.405,0,6.348-0.411,12.337-6.001c-0.971-1.584-1.541-3.44-1.541-5.434C266.797,356.62,271.464,351.953,277.221,351.953z"/>
		</g>
		<path id="XMLID_1173_" style="fill:#FF9A00;" d="M280.52,352.49c-1.04-0.34-2.14-0.54-3.3-0.54c-5.76,0-10.42,4.67-10.42,10.43    c0,1.99,0.57,3.85,1.54,5.43c-5.99,5.59-9.94,6-12.34,6v-43.72C273.62,330.09,291.7,334.38,280.52,352.49z"/>
	</g>
</g>















</svg>
