<?xml version="1.0" encoding="iso-8859-1"?>
<!-- Generator: Adobe Illustrator 21.0.0, SVG Export Plug-In . SVG Version: 6.00 Build 0)  -->
<svg xmlns="http://www.w3.org/2000/svg" xmlns:xlink="http://www.w3.org/1999/xlink" version="1.1" id="Capa_1" x="0px" y="0px" viewBox="0 0 512 512" style="enable-background:new 0 0 512 512;" xml:space="preserve" width="512" height="512">
<g id="XMLID_191_">
	<g id="XMLID_364_">
		<g id="XMLID_367_">
			<g id="XMLID_368_">
				<g id="XMLID_369_">
					<g id="XMLID_370_">
						<g id="XMLID_371_">
							<g id="XMLID_372_">
								<g id="XMLID_373_">
									<g id="XMLID_374_">
										<g id="XMLID_375_">
											<g id="XMLID_376_">
												<g id="XMLID_377_">
													<g id="XMLID_378_">
														<circle id="XMLID_379_" style="fill:#AE774E;" cx="256" cy="256" r="256"/>
													</g>
												</g>
											</g>
										</g>
									</g>
								</g>
							</g>
						</g>
					</g>
				</g>
			</g>
		</g>
	</g>
	<g id="XMLID_213_">
		<path id="XMLID_297_" style="fill:#715539;" d="M512,256c0-27.904-4.481-54.757-12.734-79.9l-97.716-97.716    c0,0-10.326,21.229-50.802,36.185c-30.022,11.093-41.705,30.48-45.606,48.09c-12.949-3.399-29.044-5.273-49.141-5.273    c-14.634,0-27.137,0.998-37.857,2.851l-25.358-25.276c-7.117-7.951-17.244-15.112-31.532-20.391    c-12.926-4.776-22.769-10.191-30.19-15.35l-20.613-20.835c0,0-17.411,29.115-18.861,61.333    c-0.838,18.618,3.407,38.764,17.727,54.531l41.76,41.463c0.02,0.024,0.042,0.048,0.062,0.072    c-6.043,41.473-43.578,49.781-43.578,115.21c0,21.616,9.595,38.475,24.576,51.376l109.204,109.204    C246.194,511.847,251.079,512,256,512C397.385,512,512,397.385,512,256z"/>
		<g id="XMLID_214_">
			<path id="XMLID_296_" style="fill:#FFC9D0;" d="M358.002,218.461c50.926-11.895,63.815-47.482,62.408-78.744     c-1.449-32.218-18.861-61.333-18.861-61.333s-10.326,21.229-50.802,36.185c-30.022,11.093-41.705,30.48-45.606,48.09     c-12.949-3.399-29.044-5.273-49.141-5.273c-20.097,0-36.192,1.874-49.141,5.273c-3.901-17.609-15.583-36.996-45.606-48.09     c-40.477-14.956-50.802-36.185-50.802-36.185s-17.411,29.115-18.861,61.333c-1.406,31.262,11.483,66.849,62.408,78.744     c-1.123,5.276-1.978,10.74-2.715,16.334c-5.582,42.339-43.722,50.25-43.722,116.198S196.867,438.626,256,438.626     s148.439-21.685,148.439-87.634s-38.139-73.859-43.722-116.198C359.979,229.201,359.125,223.736,358.002,218.461z"/>
			<path id="XMLID_716_" style="fill:#FFA8B4;" d="M360.72,234.79c5.58,42.34,43.72,50.25,43.72,116.2S315.13,438.63,256,438.63     V157.39c20.1,0,36.19,1.87,49.14,5.27c3.9-17.61,15.58-37,45.61-48.09c40.47-14.96,50.8-36.19,50.8-36.19     s17.41,29.12,18.86,61.34c1.41,31.26-11.48,66.85-62.41,78.74C359.12,223.74,359.98,229.2,360.72,234.79z"/>
			<path id="XMLID_295_" style="fill:#FF738E;" d="M192.185,167.703c-3.377-12.123-12.349-25.609-34.721-31.085     c-27.977-6.848-36.435-20.143-36.435-20.143s-9.338,20.629-7.855,42.104c1.396,20.212,12.034,42.092,44.313,47.062     C162.98,189.674,172.738,176.293,192.185,167.703z"/>
			<path id="XMLID_251_" style="fill:#FF0335;" d="M354.512,205.641c32.279-4.97,42.918-26.849,44.313-47.062     c1.483-21.475-7.855-42.104-7.855-42.104s-8.458,13.295-36.435,20.143c-22.372,5.476-31.343,18.962-34.721,31.085     C339.262,176.293,349.02,189.674,354.512,205.641z"/>
			<ellipse id="XMLID_1319_" style="fill:#FF3D62;" cx="256" cy="364.23" rx="31.73" ry="22.475"/>
			<path id="XMLID_713_" style="fill:#E7001F;" d="M287.73,364.23c0,1.21-0.14,2.4-0.4,3.56c-2.41,10.72-15.52,18.91-31.33,18.91     v-44.95C273.52,341.75,287.73,351.82,287.73,364.23z"/>
			<g id="XMLID_218_">
				<path id="XMLID_219_" style="fill:#FF738E;" d="M272.387,371.161h-32.774c-19.296,0-35.083-15.788-35.083-35.083v-7.573      c0-19.296,15.788-35.083,35.083-35.083h32.774c19.296,0,35.083,15.787,35.083,35.083v7.573      C307.47,355.373,291.683,371.161,272.387,371.161z"/>
				<path id="XMLID_712_" style="fill:#FF0335;" d="M307.47,328.5v7.58c0,13.95-8.26,26.08-20.14,31.71      c-4.54,2.16-9.6,3.37-14.94,3.37H256v-77.74h16.39C291.68,293.42,307.47,309.21,307.47,328.5z"/>
				<g id="XMLID_907_">
					<ellipse id="XMLID_576_" style="fill:#FF3D62;" cx="234.154" cy="332.29" rx="11.738" ry="16.857"/>
					<ellipse id="XMLID_676_" style="fill:#E7001F;" cx="277.846" cy="332.29" rx="11.738" ry="16.857"/>
				</g>
			</g>
			<g id="XMLID_736_">
				<circle id="XMLID_215_" style="fill:#57555C;" cx="190.081" cy="267.959" r="12.464"/>
				<circle id="XMLID_739_" style="fill:#3C3B41;" cx="321.919" cy="267.959" r="12.464"/>
			</g>
		</g>
	</g>
</g>















</svg>
