<?xml version="1.0" encoding="iso-8859-1"?>
<!-- Generator: Adobe Illustrator 19.0.0, SVG Export Plug-In . SVG Version: 6.00 Build 0)  -->
<svg version="1.1" id="Layer_1" xmlns="http://www.w3.org/2000/svg" xmlns:xlink="http://www.w3.org/1999/xlink" x="0px" y="0px"
	 viewBox="0 0 512 512" style="enable-background:new 0 0 512 512;" xml:space="preserve">
<path style="fill:#521F0E;" d="M225.523,510.187C98.507,495.116,0,387.07,0,256C0,114.616,114.615,0,256,0
	c131.245,0,239.402,98.77,254.245,226.03L225.523,510.187z"/>
<path style="fill:#3A160A;" d="M256,512c-10.315,0-20.481-0.628-30.477-1.813L99.22,383.884l113.042-248.752l135.131,135.131
	l64.144-142.94l98.708,98.708C511.391,235.863,512,245.859,512,256C512,397.384,397.384,512,256,512z"/>
<path style="fill:#692811;" d="M471.358,289.772c-1.313-96.404-56.212-184.665-102.386-184.036v300.522
	C422.226,405.532,472.372,364.202,471.358,289.772z"/>
<path style="fill:#813115;" d="M420.166,289.772c-0.657-96.404-28.107-184.665-51.192-184.036l-43.116,184.036l43.116,116.486
	C395.6,405.532,420.673,364.202,420.166,289.772z"/>
<rect x="409.032" y="278.639" style="fill:#934D2B;" width="22.261" height="22.261"/>
<path style="fill:#A56840;" d="M266.596,292.561c1.014,74.44,49.125,114.422,102.378,113.696V105.736
	C322.8,106.365,265.283,196.157,266.596,292.561z"/>
<path style="fill:#934D2B;" d="M317.785,292.561c0.508,74.44,24.563,114.422,51.189,113.696V105.736
	C345.887,106.365,317.128,196.157,317.785,292.561z"/>
<path style="fill:#813115;" d="M244.297,222.228c-1.313,96.404-56.212,184.665-102.386,184.036V105.742
	C195.165,106.467,245.311,147.798,244.297,222.228z"/>
<path style="fill:#934D2B;" d="M193.105,222.228c-0.657,96.404-28.107,184.665-51.192,184.036L98.797,222.228l43.116-116.486
	C168.539,106.467,193.612,147.798,193.105,222.228z"/>
<path style="fill:#B78456;" d="M39.535,219.439c1.014-74.44,49.125-114.422,102.378-113.696v300.522
	C95.74,405.635,38.222,315.843,39.535,219.439z"/>
<rect x="181.971" y="211.1" style="fill:#692811;" width="22.261" height="22.261"/>
<rect x="141.913" y="244.491" style="fill:#B78456;" width="22.261" height="22.261"/>
<path style="fill:#A56840;" d="M90.724,219.439c0.508-74.44,24.563-114.422,51.189-113.696v300.522
	C118.826,405.635,90.067,315.843,90.724,219.439z"/>
<g>
</g>
<g>
</g>
<g>
</g>
<g>
</g>
<g>
</g>
<g>
</g>
<g>
</g>
<g>
</g>
<g>
</g>
<g>
</g>
<g>
</g>
<g>
</g>
<g>
</g>
<g>
</g>
<g>
</g>
</svg>
