<?xml version="1.0" encoding="iso-8859-1"?>
<!-- Generator: Adobe Illustrator 19.0.0, SVG Export Plug-In . SVG Version: 6.00 Build 0)  -->
<svg version="1.1" id="Capa_1" xmlns="http://www.w3.org/2000/svg" xmlns:xlink="http://www.w3.org/1999/xlink" x="0px" y="0px"
	 viewBox="0 0 512 512" style="enable-background:new 0 0 512 512;" xml:space="preserve">
<circle style="fill:#405BE9;" cx="256" cy="256" r="256"/>
<path style="fill:#052AE3;" d="M512,256c0-6.824-0.273-13.584-0.798-20.273L366.875,91.399H114.456v316.805L214.962,508.71
	C228.325,510.864,242.029,512,256,512C397.385,512,512,397.385,512,256z"/>
<rect x="114.46" y="91.4" style="fill:#00E8F2;" width="252.42" height="316.81"/>
<rect x="240.98" y="91.4" style="fill:#00B8C0;" width="125.89" height="316.81"/>
<rect x="114.46" y="199.48" style="fill:#FFAA20;" width="252.42" height="208.72"/>
<rect x="240.98" y="199.48" style="fill:#FF8A00;" width="125.89" height="208.73"/>
<path style="fill:#FFFFFF;" d="M252.208,316.916c0,53.709,27.791,97.249,83.896,97.249S420,370.625,420,316.916
	c0-1.806-0.046-3.6-0.13-5.382H252.337C252.253,313.316,252.208,315.11,252.208,316.916z"/>
<path style="fill:#FFF5CA;" d="M419.998,316.92c0,2.809-0.076,5.596-0.24,8.339c0,0.294-0.022,0.599-0.044,0.893
	c-0.109,1.742-0.24,3.473-0.414,5.193c-0.033,0.348-0.065,0.708-0.109,1.056c-0.055,0.577-0.12,1.154-0.196,1.731
	c-0.087,0.806-0.196,1.6-0.305,2.384c-0.109,0.795-0.218,1.579-0.349,2.362c-0.12,0.784-0.25,1.568-0.381,2.341
	c-4.725,26.989-17.659,49.449-38.899,62.034h-0.011c-11.758,6.967-26.074,10.909-42.949,10.909V311.531h83.765
	C419.954,313.316,419.998,315.113,419.998,316.92z"/>
<rect x="293.15" y="403.25" style="fill:#00E8F2;" width="85.91" height="18.622"/>
<rect x="336.1" y="403.25" style="fill:#00B8C0;" width="42.96" height="18.628"/>
<path style="fill:#FF6339;" d="M252.44,325.254c0.302,5.463,0.901,10.799,1.805,15.967h163.717
	c0.904-5.168,1.503-10.504,1.805-15.967H252.44z"/>
<path style="fill:#EB1800;" d="M419.769,325.259c-0.022,0.294-0.033,0.599-0.055,0.893c-0.109,1.742-0.24,3.473-0.414,5.193
	c-0.033,0.348-0.065,0.708-0.109,1.056c-0.055,0.577-0.12,1.154-0.196,1.731c-0.087,0.806-0.196,1.6-0.305,2.384
	c-0.109,0.795-0.218,1.579-0.349,2.362c-0.12,0.784-0.25,1.568-0.381,2.341h-81.859v-15.96H419.769z"/>
<rect x="114.46" y="141.34" style="fill:#FFFFFF;" width="252.42" height="74.18"/>
<rect x="240.98" y="141.34" style="fill:#FFF5CA;" width="125.89" height="74.18"/>
<g>
	<path style="fill:#FF7600;" d="M135.367,178.098c0-2.381,0.43-4.736,1.292-7.064c0.86-2.326,2.116-4.405,3.765-6.238
		c1.648-1.832,3.664-3.316,6.046-4.452c2.381-1.135,5.093-1.704,8.135-1.704c3.591,0,6.696,0.789,9.316,2.364
		c2.62,1.576,4.571,3.627,5.854,6.156l-5.827,4.013c-0.514-1.1-1.136-2.025-1.869-2.776c-0.734-0.751-1.521-1.347-2.363-1.786
		c-0.844-0.44-1.723-0.76-2.639-0.962c-0.916-0.202-1.814-0.303-2.693-0.303c-1.906,0-3.563,0.385-4.975,1.155
		c-1.411,0.769-2.583,1.768-3.517,2.995c-0.934,1.229-1.641,2.621-2.117,4.177c-0.477,1.558-0.714,3.106-0.714,4.645
		c0,1.723,0.274,3.381,0.824,4.975c0.55,1.594,1.328,2.996,2.336,4.205c1.008,1.21,2.217,2.181,3.628,2.914
		c1.41,0.733,2.959,1.099,4.644,1.099c0.88,0,1.795-0.11,2.748-0.33c0.953-0.219,1.86-0.568,2.721-1.044
		c0.861-0.476,1.658-1.09,2.392-1.841c0.732-0.751,1.318-1.658,1.758-2.721l6.212,3.573c-0.623,1.466-1.511,2.758-2.666,3.875
		c-1.154,1.119-2.455,2.062-3.902,2.831c-1.448,0.769-2.996,1.355-4.644,1.758c-1.649,0.403-3.263,0.605-4.837,0.605
		c-2.785,0-5.332-0.586-7.641-1.759s-4.296-2.702-5.964-4.59c-1.667-1.887-2.968-4.031-3.902-6.431
		C135.834,183.037,135.367,180.59,135.367,178.098z"/>
	<path style="fill:#FF7600;" d="M202.533,191.234v6.651h-27.098V158.86h26.603v6.65H183.02v9.4h16.435v6.156H183.02v10.168
		L202.533,191.234L202.533,191.234z"/>
	<path style="fill:#FF7600;" d="M208.47,197.886v-39.025h17.259c1.795,0,3.453,0.376,4.974,1.126
		c1.521,0.752,2.831,1.741,3.93,2.969s1.96,2.62,2.584,4.177c0.622,1.558,0.934,3.125,0.934,4.699c0,2.529-0.633,4.829-1.896,6.898
		c-1.264,2.071-2.978,3.564-5.14,4.48l8.905,14.676h-8.52l-7.97-13.082h-7.476v13.082L208.47,197.886L208.47,197.886z
		 M216.055,178.153h9.509c0.696,0,1.347-0.165,1.951-0.495c0.605-0.33,1.127-0.778,1.567-1.347c0.44-0.567,0.788-1.237,1.044-2.006
		c0.256-0.77,0.385-1.595,0.385-2.474c0-0.916-0.147-1.759-0.44-2.528c-0.294-0.77-0.687-1.438-1.182-2.007
		c-0.495-0.567-1.063-1.007-1.703-1.319c-0.642-0.31-1.292-0.467-1.952-0.467h-9.179V178.153z"/>
</g>
<g>
	<path style="fill:#DA6100;" d="M272.119,191.234v6.651h-27.098V158.86h26.603v6.65h-19.019v9.4h16.435v6.156h-16.435v10.168
		L272.119,191.234L272.119,191.234z"/>
	<path style="fill:#DA6100;" d="M289.158,158.861h6.706l14.84,39.025h-7.805l-3.628-9.729H285.64l-3.572,9.729h-7.805
		L289.158,158.861z M297.897,182.825l-5.387-15.335l-5.606,15.335H297.897z"/>
	<path style="fill:#DA6100;" d="M314.991,197.886v-39.025h7.585v32.374h19.898v6.651L314.991,197.886L314.991,197.886z"/>
</g>
<g>
	<polygon style="fill:#FFFFFF;" points="201.953,319.108 209.686,334.776 226.977,337.289 214.465,349.485 217.419,366.706 
		201.953,358.576 186.487,366.706 189.441,349.485 176.929,337.289 194.22,334.776 	"/>
	<polygon style="fill:#FFFFFF;" points="162.925,253.342 170.658,269.011 187.949,271.523 175.437,283.72 178.391,300.941 
		162.925,292.81 147.459,300.941 150.413,283.72 137.901,271.523 155.192,269.011 	"/>
	<polygon style="fill:#FFFFFF;" points="240.981,253.342 248.714,269.011 266.005,271.523 253.493,283.72 256.446,300.941 
		240.981,292.81 225.515,300.941 228.469,283.72 215.957,271.523 233.248,269.011 	"/>
</g>
<polygon style="fill:#FFF5CA;" points="253.492,283.716 256.449,300.942 240.984,292.813 240.984,253.342 248.712,269.013 
	266.001,271.527 "/>
<g>
</g>
<g>
</g>
<g>
</g>
<g>
</g>
<g>
</g>
<g>
</g>
<g>
</g>
<g>
</g>
<g>
</g>
<g>
</g>
<g>
</g>
<g>
</g>
<g>
</g>
<g>
</g>
<g>
</g>
</svg>
