<svg id="Capa_1" enable-background="new 0 0 512 512" height="512" viewBox="0 0 512 512" width="512" xmlns="http://www.w3.org/2000/svg"><circle cx="256" cy="256" fill="#ff583e" r="256"/><path d="m509.651 221.308-167.7-22.278-88.599-88.599-17.763 32.597-32.597-32.597-19.239 31.342-31.342-31.342-49.218 39.089 43.472 43.472-43.472 12.315 38.836 38.836-38.836 15.464 48.498 48.498 4.104 183.531c30.777 13.107 64.643 20.364 100.205 20.364 141.385 0 256-114.615 256-256 0-11.768-.811-23.345-2.349-34.692z" fill="#db0404"/><path d="m493.09 159.308h-178.133c-11.31-23.516-35.372-39.788-63.164-39.788h-148.601v30h144.881v25.788h-144.881v30h144.881v24.3h-144.881v30h148.601c27.199 0 50.809-15.594 62.406-38.3h195.452c-2.932-21.644-8.57-42.426-16.561-62z" fill="#e6e6e6"/><path d="m103.192 190.428v14.88h144.881v24.3h-144.881v30h148.601c27.199 0 50.809-15.594 62.406-38.3h195.452c-1.424-10.51-3.491-20.815-6.151-30.88z" fill="#cdcdcd"/><path d="m139.059 103.784c-9.243 0-16.736 7.493-16.736 16.735v353.837c10.667 6.544 21.847 12.332 33.471 17.281v-371.117c0-9.243-7.492-16.736-16.735-16.736z" fill="#ffcc91"/><path d="m189.64 103.784c-9.243 0-16.735 7.493-16.735 16.735v377.681c10.846 3.72 22.022 6.726 33.471 8.975v-386.655c-.001-9.243-7.493-16.736-16.736-16.736z" fill="#ffcc91"/><g fill="#ffa564"><path d="m206.375 120.52c0-9.243-7.493-16.735-16.736-16.735-.24 0-.473.026-.711.036v399.285c5.739 1.552 11.556 2.913 17.447 4.071z"/><path d="m240 103.784c-9.243 0-16.736 7.493-16.736 16.735v389.406c10.72 1.368 21.645 2.075 32.736 2.075.246 0 .49-.009.736-.009v-391.471c0-9.243-7.493-16.736-16.736-16.736z"/></g></svg>