<svg id="Capa_1" enable-background="new 0 0 512 512" height="512" viewBox="0 0 512 512" width="512" xmlns="http://www.w3.org/2000/svg"><circle cx="256" cy="256" fill="#007f82" r="256"/><path d="m263.289 511.891c122.679-3.431 223.775-93.162 244.725-210.649l-165.643-165.643-1.63 2.913-55.022-55.023-134.158 153.719 57.921 57.921-46.744 12.956 77.177 77.177-38.635 64.619z" fill="#026363"/><path d="m310.72 449.882h-109.44l-19.033-170.347h147.506z" fill="#ffb978"/><path d="m329.753 279.535h-73.753v170.347h54.72z" fill="#ffa564"/><path d="m162.738 223.388h186.524v84.697h-186.524z" fill="#ffcc91"/><path d="m256 223.388h93.262v84.697h-93.262z" fill="#ffb978"/><path d="m282.413 409 25.105-25.106 9.512 9.513 7.472-66.871-16.984 16.983-19.957-19.957-20.188 20.187 19.958 19.958-25.106 25.105-50.48-50.48-20.187 20.188 7.854 7.854-6.713 6.712 4.058 36.318 22.842-22.842 22.438 22.438-40.77 40.77.013.112h40.251l20.694-20.694 20.695 20.694h27.8l1.264-11.311z" fill="#ffa564"/><path d="m317.03 393.407 7.472-66.871-16.984 16.983-19.957-19.957-20.187 20.187 19.957 19.958-25.106 25.105-6.225-6.225v52.826l6.225-6.225 20.694 20.694h27.801l1.264-11.311-29.571-29.571 25.105-25.106z" fill="#ff8945"/><path d="m335.619 246.466h-159.238c-20.953 0-37.94-16.986-37.94-37.94 0-20.953 16.986-37.94 37.94-37.94h159.238c20.953 0 37.94 16.986 37.94 37.94 0 20.954-16.987 37.94-37.94 37.94z" fill="#fff"/><path d="m335.619 170.587h-79.619v75.879h79.619c20.953 0 37.939-16.986 37.939-37.94.001-20.953-16.985-37.939-37.939-37.939z" fill="#e9edf5"/><path d="m318.787 183.915h-125.574c-16.524 0-29.919-13.395-29.919-29.919 0-16.524 13.395-29.919 29.919-29.919h125.574c16.524 0 29.919 13.395 29.919 29.919-.001 16.524-13.396 29.919-29.919 29.919z" fill="#fff"/><path d="m318.787 124.078h-62.787v59.838h62.787c16.524 0 29.919-13.395 29.919-29.919 0-16.524-13.395-29.919-29.919-29.919z" fill="#e9edf5"/><path d="m212.885 110.375c0-23.812 43.115-52.794 43.115-52.794s43.115 28.982 43.115 52.794-19.303 25.224-43.115 25.224-43.115-1.412-43.115-25.224z" fill="#fff"/><path d="m256 135.598c.135 0-.135.001 0 0 23.812.001 43.115-1.411 43.115-25.223s-43.115-52.794-43.115-52.794z" fill="#e9edf5"/></svg>