<svg id="Capa_1" enable-background="new 0 0 512 512" height="512" viewBox="0 0 512 512" width="512" xmlns="http://www.w3.org/2000/svg"><circle cx="256" cy="256" fill="#65b2fe" r="256"/><path d="m512 256c0 87.11-43.52 164.07-110 210.31-41.41 28.8-91.73 45.69-146 45.69s-104.59-16.89-146-45.69c-66.48-46.24-110-123.2-110-210.31 0-46.22 12.25-89.57 33.68-127 44.12 77.07 127.16 129 222.32 129s178.21-51.93 222.32-129c21.43 37.43 33.68 80.78 33.68 127z" fill="#0e9ce7"/><path d="m330.68 500.93c-23.62 7.2-48.7 11.07-74.68 11.07s-51.06-3.87-74.68-11.07l15.88-78.66h117.6z" fill="#4e689b"/><path d="m330.68 500.93c-23.62 7.2-48.7 11.07-74.68 11.07v-89.73h58.8z" fill="#374c81"/><path d="m438.11 324.76-182.11.01h-182.11c9.26-43.2 30.67-84.31 64.23-117.88 33.56-33.56 74.68-54.97 117.88-64.23h.02c43.19 9.27 84.3 30.68 117.86 64.23 33.56 33.56 54.97 74.67 64.23 117.87z" fill="#fff"/><path d="m438.11 324.76-182.11.01v-182.11h.02c43.19 9.27 84.3 30.68 117.86 64.23 33.56 33.56 54.97 74.67 64.23 117.87z" fill="#fdf7bd"/><path d="m459.1 301.29c-1.45 20.65-5.98 40.45-13.14 58.94-2.96 7.668-28.375 15.111-32.209 22.297-4.131 7.743 13.251 15.187 8.189 22.293-12.33 17.32-27.31 32.62-44.34 45.32-15.04 11.21-33.44 16.99-52.19 16.99h-138.78c-19.43 0-38.31-6.4-53.78-18.16-16.39-12.47-30.83-27.37-42.79-44.15-4.114-5.775 10.065-11.773 6.56-17.974-4.811-8.51-27.027-17.401-30.59-26.616-7.15-18.5-11.68-38.29-13.13-58.94-.54-7.81 5.65-14.45 13.48-14.45h379.24c7.83 0 14.02 6.64 13.48 14.45z" fill="#374c81"/><path d="m459.1 301.29c-1.45 20.65-5.98 40.45-13.14 58.94-6.15 15.93-14.26 30.89-24.02 44.59-12.33 17.32-27.31 32.62-44.34 45.32-15.04 11.21-33.44 16.99-52.19 16.99h-69.37c-19.43 0-37.17-6.4-50.54-18.16-14.17-12.47-25.95-27.37-34.92-44.15-7.31-13.7-12.75-28.66-16.07-44.59-3.85-18.5-4.85-38.29-2.62-58.94.85-7.81 8.23-14.45 16.06-14.45h277.67c7.83 0 14.02 6.64 13.48 14.45z" fill="#234177"/><path d="m459.1 301.29c-1.45 20.65-5.98 40.45-13.14 58.94-2.96 7.668-24.375 15.111-28.209 22.297-4.131 7.743 9.251 15.187 4.189 22.293-12.33 17.32-27.31 32.62-44.34 45.32-15.04 11.21-33.44 16.99-52.19 16.99h-69.41v-180.29h189.62c7.83 0 14.02 6.64 13.48 14.45z" fill="#22283a"/><path d="m468.69 292.94c0 7.47-3.03 14.23-7.92 19.13-4.9 4.89-11.66 7.92-19.13 7.92h-380.52c-14.94 0-27.05-12.11-27.05-27.05 0-7.47 3.03-14.23 7.92-19.13 4.9-4.89 11.66-7.92 19.13-7.92h380.52c14.94 0 27.05 12.11 27.05 27.05z" fill="#4e689b"/><path d="m468.69 292.94c0 7.47-3.03 14.23-7.92 19.13-4.9 4.89-11.66 7.92-19.13 7.92h-280.92c-14.94 0-27.05-12.11-27.05-27.05 0-7.47 3.03-14.23 7.92-19.13 4.9-4.89 11.66-7.92 19.13-7.92h280.92c14.94 0 27.05 12.11 27.05 27.05z" fill="#374c81"/><path d="m192.52 191.606c1.245 1.634.382 4.011-1.62 4.468-5.895 1.342-12.231 1.064-18.338-1.151-6.105-2.214-11.147-6.062-14.811-10.87-1.245-1.634-.383-4.012 1.62-4.468 5.894-1.342 12.231-1.064 18.336 1.15 6.107 2.215 11.15 6.063 14.813 10.871z" fill="#fdf7bd"/><path d="m345.778 246.22c-1.956-.625-2.612-3.068-1.233-4.59 4.061-4.478 9.414-7.882 15.687-9.567 6.272-1.685 12.609-1.421 18.367.42 1.956.625 2.612 3.068 1.233 4.59-4.061 4.478-9.413 7.881-15.685 9.566-6.273 1.685-12.61 1.422-18.369-.419z" fill="#f9d19a"/><path d="m319.773 172.212c-.962-1.815.277-4.02 2.327-4.144 6.034-.363 12.241.945 17.905 4.125 5.663 3.18 10.01 7.798 12.841 13.14.962 1.815-.277 4.02-2.327 4.144-6.034.363-12.241-.944-17.903-4.124-5.665-3.181-10.012-7.8-12.843-13.141z" fill="#f7e6b0"/><path d="m143.818 229.501c1.982.195 3.101 2.377 2.103 4.1-2.938 5.072-7.319 9.387-12.923 12.261-5.603 2.873-11.663 3.913-17.496 3.341-1.982-.195-3.101-2.377-2.103-4.1 2.938-5.072 7.319-9.387 12.921-12.26 5.604-2.875 11.664-3.915 17.498-3.342z" fill="#f9d19a"/><path d="m294.34 265.667c1.357 1.93.262 4.621-2.057 5.056-6.825 1.28-14.086.681-20.998-2.131-6.91-2.811-12.528-7.45-16.521-13.132-1.357-1.93-.262-4.621 2.057-5.056 6.825-1.281 14.086-.681 20.996 2.13 6.912 2.812 12.53 7.451 16.523 13.133z" fill="#f7e6b0"/><path d="m231.984 169.019c-2.359-.011-3.92-2.462-2.932-4.605 2.907-6.306 7.6-11.88 13.894-15.887 6.293-4.007 13.327-5.901 20.272-5.868 2.359.011 3.92 2.462 2.932 4.605-2.907 6.306-7.6 11.879-13.892 15.886-6.294 4.008-13.329 5.902-20.274 5.869z" fill="#f7e6b0"/><g fill="#fff"><path d="m292.375 80.424c-2.359-.011-3.92-2.462-2.932-4.605 2.908-6.306 7.6-11.88 13.894-15.887 6.293-4.007 13.328-5.901 20.272-5.868 2.359.011 3.92 2.462 2.932 4.605-2.907 6.306-7.6 11.879-13.893 15.886-6.294 4.008-13.329 5.902-20.273 5.869z"/><path d="m342.791 102.424c1.392-.734 3.079.218 3.171 1.789.269 4.623-.743 9.375-3.188 13.709-2.445 4.333-5.989 7.656-10.085 9.816-1.392.734-3.079-.218-3.171-1.789-.269-4.623.743-9.375 3.187-13.708 2.445-4.334 5.989-7.657 10.086-9.817z"/><path d="m291.361 21.539c-1.48-.007-2.46-1.545-1.84-2.89 1.825-3.957 4.769-7.455 8.719-9.97 3.949-2.514 8.363-3.703 12.721-3.682 1.48.007 2.46 1.545 1.84 2.89-1.825 3.958-4.769 7.455-8.718 9.969-3.949 2.515-8.364 3.704-12.722 3.683z"/><path d="m186.65 30.512c-.824-1.314-.012-3.043 1.525-3.249 4.525-.605 9.272.04 13.712 2.125 4.439 2.084 7.967 5.325 10.392 9.193.824 1.314.012 3.043-1.525 3.249-4.525.605-9.271-.04-13.711-2.125s-7.967-5.325-10.393-9.193z"/><path d="m213.458 97.787c-1.699-.008-2.823-1.773-2.112-3.317 2.094-4.542 5.474-8.557 10.008-11.443 4.533-2.886 9.6-4.251 14.601-4.227 1.699.008 2.823 1.773 2.112 3.317-2.094 4.542-5.474 8.557-10.007 11.443s-9.6 4.251-14.602 4.227z"/><path d="m275.983 116.255c-.449-2.316 1.65-4.325 3.944-3.774 6.752 1.621 13.134 5.136 18.293 10.527 5.158 5.39 8.388 11.92 9.711 18.737.449 2.316-1.65 4.325-3.944 3.774-6.752-1.621-13.134-5.136-18.292-10.525-5.159-5.391-8.39-11.922-9.712-18.739z"/><path d="m240.026 21.152c-.449-2.316 1.65-4.325 3.944-3.774 6.752 1.621 13.134 5.136 18.293 10.527 5.158 5.39 8.388 11.92 9.711 18.737.449 2.316-1.65 4.325-3.944 3.774-6.752-1.621-13.134-5.136-18.292-10.526-5.159-5.391-8.39-11.921-9.712-18.738z"/><path d="m174.021 115.839c-.282-2.237 1.846-4.02 3.999-3.35 6.337 1.972 12.201 5.726 16.78 11.192 4.578 5.465 7.247 11.896 8.078 18.48.282 2.237-1.846 4.02-3.999 3.35-6.337-1.972-12.2-5.726-16.779-11.191-4.579-5.466-7.248-11.897-8.079-18.481z"/></g><path d="m226.587 227.8c2.015.505 2.835 2.929 1.54 4.554-3.811 4.783-8.996 8.564-15.221 10.67-6.224 2.105-12.638 2.248-18.57.76-2.015-.505-2.835-2.929-1.541-4.554 3.811-4.783 8.995-8.564 15.219-10.669 6.226-2.106 12.64-2.248 18.573-.761z" fill="#fdf7bd"/><path d="m312.399 216.24c1.21 1.689.267 4.068-1.772 4.469-6 1.182-12.4.711-18.509-1.71-6.108-2.421-11.091-6.462-14.653-11.434-1.21-1.689-.267-4.068 1.771-4.469 6.001-1.182 12.4-.711 18.507 1.71 6.11 2.421 11.094 6.462 14.656 11.434z" fill="#f7e6b0"/><circle cx="214.947" cy="202.475" fill="#fe3345" r="11.866"/><circle cx="380.566" cy="237.488" fill="#fe3345" r="11.866"/><circle cx="153.67" cy="217.828" fill="#fe3345" r="8.364"/><circle cx="309.614" cy="244.007" fill="#fe3345" r="8.364"/><ellipse cx="340.682" cy="206.649" fill="#fe3345" rx="8.364" ry="8.364" transform="matrix(.26 -.966 .966 .26 52.608 481.933)"/><circle cx="287.775" cy="162.852" fill="#fe3345" r="8.364"/><ellipse cx="210.798" cy="163.516" fill="#fe3345" rx="8.364" ry="8.364" transform="matrix(.139 -.99 .99 .139 19.491 349.459)"/><path d="m191.659 236.854c-.62-6.602-6.242-10.264-12.413-10.264-6.154 0-10.801 6.705-10.264 12.413.62 6.602 6.242 10.264 12.413 10.264 6.153 0 10.8-6.705 10.264-12.413z" fill="#6cdc2d"/><path d="m274.486 187.541c-.182-.398-.364-.795-.547-1.193-.612-1.627-1.578-3.006-2.897-4.138-1.373-1.157-2.944-1.894-4.713-2.211-1.771-.307-3.499-.151-5.185.466-1.251.415-2.317 1.095-3.196 2.04-1.034.794-1.815 1.803-2.343 3.025-.773 1.655-1.08 3.393-.919 5.213.323 3.416 2.497 6.619 5.641 8.056.411.188.823.376 1.234.564.805.256 1.611.513 2.416.769l2.533.104c.796-.182 1.593-.364 2.389-.546 1.188-.394 2.2-1.04 3.035-1.937.679-.479 1.199-1.093 1.559-1.843.549-.652.899-1.398 1.05-2.237.367-.786.513-1.611.436-2.475.164-1.249-.001-2.468-.493-3.657z" fill="#6cdc2d"/><path d="m328.548 221.336c-9.91 0-8.418 15.361 1.456 15.361 9.909 0 8.418-15.361-1.456-15.361z" fill="#6cdc2d"/><path d="m445.96 360.23c-6.15 15.93-14.26 30.89-24.02 44.59h-331.88c-9.76-13.7-17.87-28.66-24.03-44.59z" fill="#fff"/><path d="m445.96 360.23c-6.15 15.93-14.26 30.89-24.02 44.59h-251.36c-7.31-13.7-12.75-28.66-16.07-44.59z" fill="#d1f6ff"/><path d="m468.69 292.94c0 7.47-3.03 14.23-7.92 19.13-4.9 4.89-11.66 7.92-19.13 7.92h-185.64v-54.1h185.64c14.94 0 27.05 12.11 27.05 27.05z" fill="#234177"/><path d="m445.96 360.23c-6.15 15.93-14.26 30.89-24.02 44.59h-165.94v-44.59z" fill="#8fc8f5"/></svg>