<svg id="Capa_1" enable-background="new 0 0 512 512" height="512" viewBox="0 0 512 512" width="512" xmlns="http://www.w3.org/2000/svg"><circle cx="256" cy="256" fill="#007f82" r="256"/><path d="m512 256c0-9.965-.589-19.792-1.697-29.461l-124.005-124.004-291.826 292.454 112.254 112.254c15.947 3.11 32.417 4.757 49.274 4.757 141.385 0 256-114.615 256-256z" fill="#026363"/><path d="m94.472 164.349 178.836-103.096s118.154-10.023 145.055 103.096l-323.891 32.434z" fill="#ffb978"/><path d="m273.308 61.253-17.713 10.211v109.185l162.768-16.299c-26.901-113.12-145.055-103.097-145.055-103.097z" fill="#ff8945"/><path d="m94.472 164.349h323.891v230.641h-323.891z" fill="#ffcc91"/><path d="m255.595 164.349h162.768v230.64h-162.768z" fill="#ffa564"/><circle cx="344.4" cy="254.921" fill="#ff965a" r="45.748"/><g fill="#ffa564"><path d="m181.733 349.242c-25.266 0-45.748 20.482-45.748 45.748h91.495c.001-25.266-20.481-45.748-45.747-45.748z"/><circle cx="134.113" cy="238.38" r="22.127"/><path d="m246.78 186.477c12.221 0 22.127-9.907 22.127-22.127h-44.255c0 12.219 9.907 22.127 22.128 22.127z"/></g><path d="m268.907 164.349h-13.312v20.297c7.833-3.407 13.312-11.21 13.312-20.297z" fill="#ff965a"/><circle cx="352.113" cy="363.016" fill="#ff965a" r="22.127"/><circle cx="221.283" cy="279.21" fill="#ffa564" r="31.964"/></svg>