<svg height="512pt" viewBox="0 0 512 512" width="512pt" xmlns="http://www.w3.org/2000/svg"><path d="m512 256c0 141.386719-114.613281 256-256 256s-256-114.613281-256-256 114.613281-256 256-256 256 114.613281 256 256zm0 0" fill="#b46e5a"/><path d="m186.824219 314.511719 174.761719 174.765625c49.894531-22.621094 91.230468-60.785156 117.867187-108.300782l-165.644531-166.140624zm0 0" fill="#915041"/><path d="m206.398438 305.570312c57.738281 57.738282 128.898437 90.839844 196.582031 97.375-6.535157-67.683593-39.636719-138.84375-97.375-196.582031-57.742188-57.742187-128.902344-90.84375-196.585938-97.378906 6.535157 67.683594 39.636719 138.84375 97.378907 196.585937zm0 0" fill="#9dea60"/><path d="m164.871094 255.90625c12.003906 17.316406 25.847656 33.988281 41.523437 49.664062 57.742188 57.738282 128.902344 90.839844 196.585938 97.375-4.765625-49.351562-23.671875-100.542968-55.9375-147.039062zm0 0" fill="#78c62e"/><path d="m214.867188 173.703125c0 22.714844-18.414063 41.132813-41.132813 41.132813-22.714844 0-41.128906-18.417969-41.128906-41.132813 0-22.71875 18.414062-41.132813 41.128906-41.132813 22.71875 0 41.132813 18.414063 41.132813 41.132813zm0 0" fill="#b6ff76"/><path d="m363.617188 324.03125c0 22.71875-18.414063 41.132812-41.128907 41.132812-22.71875 0-41.132812-18.414062-41.132812-41.132812 0-22.714844 18.414062-41.128906 41.132812-41.128906 22.714844 0 41.128907 18.414062 41.128907 41.128906zm0 0" fill="#9dea60"/><path d="m290.371094 249.203125c0 22.71875-18.414063 41.132813-41.132813 41.132813-22.714843 0-41.132812-18.414063-41.132812-41.132813 0-22.714844 18.417969-41.132813 41.132812-41.132813 22.71875 0 41.132813 18.417969 41.132813 41.132813zm0 0" fill="#b6ff76"/><path d="m208.65625 255.90625c3.203125 19.527344 20.148438 34.429688 40.582031 34.429688 20.433594 0 37.378907-14.902344 40.578125-34.429688zm0 0" fill="#9dea60"/><path d="m109.019531 108.984375 293.960938 293.960937s-261.765625 27.851563-293.960938-293.960937zm0 0" fill="#5ed166"/><path d="m148.25 255.90625c82.132812 165.398438 254.730469 147.039062 254.730469 147.039062l-147.042969-147.039062zm0 0" fill="#3f9e46"/></svg>