<?xml version="1.0" encoding="iso-8859-1"?>
<!-- Generator: Adobe Illustrator 19.0.0, SVG Export Plug-In . SVG Version: 6.00 Build 0)  -->
<svg version="1.1" id="Layer_1" xmlns="http://www.w3.org/2000/svg" xmlns:xlink="http://www.w3.org/1999/xlink" x="0px" y="0px"
	 viewBox="0 0 512 512" style="enable-background:new 0 0 512 512;" xml:space="preserve">
<path style="fill:#365F2C;" d="M508.099,211.269C486.941,91.212,382.126,0,256,0C114.615,0,0,114.615,0,256
	c0,126.126,91.212,230.941,211.269,252.099L508.099,211.269z"/>
<path style="fill:#193D2F;" d="M512,256c0-15.26-1.341-30.206-3.901-44.731L362.134,65.306l-64.1,64.1l-97.686-97.688
	l-50.482,414.977l61.403,61.403C225.794,510.659,240.74,512,256,512C397.384,512,512,397.384,512,256z"/>
<rect x="178.087" y="31.717" style="fill:#A0AD2F;" width="22.261" height="44.522"/>
<path style="fill:#BEC130;" d="M133.565,138.049v269.294c0,30.736,24.917,55.652,55.652,55.652V82.386L133.565,138.049z"/>
<path style="fill:#A0AD2F;" d="M166.957,82.396l22.261,380.599c30.736,0,55.652-24.917,55.652-55.652V138.049L166.957,82.396z"/>
<polygon style="fill:#63842C;" points="222.609,99.03 178.087,99.03 178.087,385.082 222.609,385.082 222.609,318.299 
	211.478,307.169 222.609,296.038 222.609,229.256 211.478,218.125 222.609,206.995 "/>
<polygon style="fill:#81982D;" points="155.826,99.03 155.826,206.995 166.957,218.125 155.826,229.256 155.826,296.038 
	166.957,307.169 155.826,318.299 155.826,385.082 189.217,385.082 189.217,99.03 "/>
<path style="fill:#44702A;" d="M189.217,60.141l-22.261,43.374l22.261,47.826c12.264-6.339,21.859-17.84,26.467-31.942
	c7.804,9.402,18.111,15.902,29.185,18.647v-22.261C244.866,85.104,219.902,60.141,189.217,60.141z"/>
<path style="fill:#63842C;" d="M133.565,115.778v22.271c11.074-2.746,21.382-9.246,29.185-18.647
	c4.608,14.101,14.204,25.603,26.467,31.942V60.141C158.536,60.141,133.574,85.098,133.565,115.778z"/>
<path style="fill:#FFF3AD;" d="M189.217,351.691l-26.713,44.522l26.713,44.522c18.442,0,33.391-14.949,33.391-33.391v-22.261
	C222.609,366.641,207.658,351.691,189.217,351.691z"/>
<path style="fill:#FFFFFF;" d="M155.826,385.082v22.261c0,18.442,14.949,33.391,33.391,33.391v-89.043
	C170.775,351.691,155.826,366.641,155.826,385.082z"/>
<path style="fill:#FFE376;" d="M189.217,262.647l-26.713,44.522l26.713,44.522c18.442,0,33.391-14.949,33.391-33.391v-22.261
	C222.609,277.598,207.658,262.647,189.217,262.647z"/>
<g>
	<path style="fill:#FFF3AD;" d="M155.826,296.038v22.261c0,18.442,14.949,33.391,33.391,33.391v-89.043
		C170.775,262.647,155.826,277.598,155.826,296.038z"/>
	<path style="fill:#FFF3AD;" d="M189.217,173.604l-26.713,44.522l26.713,44.522c18.442,0,33.391-14.949,33.391-33.391v-22.261
		C222.609,188.554,207.658,173.604,189.217,173.604z"/>
</g>
<path style="fill:#FFFFFF;" d="M155.826,206.995v22.261c0,18.442,14.949,33.391,33.391,33.391v-89.043
	C170.775,173.604,155.826,188.554,155.826,206.995z"/>
<rect x="311.652" y="435.757" style="fill:#A0AD2F;" width="22.261" height="44.522"/>
<path style="fill:#BEC130;" d="M267.13,373.951V104.657c0-30.736,24.917-55.652,55.652-55.652v380.609L267.13,373.951z"/>
<path style="fill:#A0AD2F;" d="M300.522,429.604l22.261-380.599c30.736,0,55.652,24.917,55.652,55.652v269.294L300.522,429.604z"/>
<polygon style="fill:#63842C;" points="356.174,412.97 311.652,412.97 311.652,126.918 356.174,126.918 356.174,193.701 
	345.043,204.831 356.174,215.962 356.174,282.744 345.043,293.875 356.174,305.005 "/>
<polygon style="fill:#81982D;" points="289.391,412.97 289.391,305.005 300.522,293.875 289.391,282.743 289.391,215.962 
	300.522,204.831 289.391,193.701 289.391,126.918 322.783,126.918 322.783,412.97 "/>
<path style="fill:#44702A;" d="M322.783,451.859l-22.261-43.374l22.261-47.826c12.264,6.339,21.859,17.84,26.467,31.942
	c7.804-9.402,18.111-15.902,29.185-18.647v22.261C378.431,426.896,353.467,451.859,322.783,451.859z"/>
<path style="fill:#63842C;" d="M267.13,396.222v-22.271c11.074,2.746,21.382,9.246,29.185,18.647
	c4.608-14.101,14.204-25.603,26.467-31.942v91.202C292.102,451.859,267.139,426.902,267.13,396.222z"/>
<path style="fill:#FFF3AD;" d="M322.783,160.309l-26.713-44.522l26.713-44.522c18.442,0,33.391,14.949,33.391,33.391v22.261
	C356.174,145.359,341.225,160.309,322.783,160.309z"/>
<path style="fill:#FFFFFF;" d="M289.391,126.918v-22.261c0-18.442,14.949-33.391,33.391-33.391v89.043
	C304.341,160.309,289.391,145.359,289.391,126.918z"/>
<path style="fill:#FFE376;" d="M322.783,249.353l-26.713-44.522l26.713-44.522c18.442,0,33.391,14.949,33.391,33.391v22.261
	C356.174,234.402,341.225,249.353,322.783,249.353z"/>
<g>
	<path style="fill:#FFF3AD;" d="M289.391,215.962v-22.261c0-18.442,14.949-33.391,33.391-33.391v89.043
		C304.341,249.353,289.391,234.402,289.391,215.962z"/>
	<path style="fill:#FFF3AD;" d="M322.783,338.396l-26.713-44.522l26.713-44.522c18.442,0,33.391,14.949,33.391,33.391v22.261
		C356.174,323.446,341.225,338.396,322.783,338.396z"/>
</g>
<path style="fill:#FFFFFF;" d="M289.391,305.005v-22.261c0-18.442,14.949-33.391,33.391-33.391v89.043
	C304.341,338.396,289.391,323.446,289.391,305.005z"/>
<g>
</g>
<g>
</g>
<g>
</g>
<g>
</g>
<g>
</g>
<g>
</g>
<g>
</g>
<g>
</g>
<g>
</g>
<g>
</g>
<g>
</g>
<g>
</g>
<g>
</g>
<g>
</g>
<g>
</g>
</svg>
