<?xml version="1.0" encoding="iso-8859-1"?>
<!-- Generator: Adobe Illustrator 19.0.0, SVG Export Plug-In . SVG Version: 6.00 Build 0)  -->
<svg version="1.1" id="Layer_1" xmlns="http://www.w3.org/2000/svg" xmlns:xlink="http://www.w3.org/1999/xlink" x="0px" y="0px"
	 viewBox="0 0 512 512" style="enable-background:new 0 0 512 512;" xml:space="preserve">
<path style="fill:#0D5D52;" d="M511.918,249.526c-1.593-63.341-26.555-126.204-74.896-174.544
	c-99.974-99.975-262.067-99.975-362.041,0c-99.975,99.975-99.975,262.067,0,362.041c54.791,54.791,128.24,79.55,199.896,74.284
	L511.918,249.526z"/>
<path style="fill:#193D2F;" d="M511.918,249.526L315.269,52.877l-18.894,9.765L267.133,33.4l-34.735,435.427l42.48,42.48
	c59.091-4.342,116.962-29.1,162.145-74.284C488.658,385.388,513.62,317.184,511.918,249.526z"/>
<path style="fill:#81982D;" d="M283.829,155.835h-22.261v-33.392c0-32.97,14.206-64.411,38.976-86.26l14.726,16.694
	c-19.98,17.626-31.44,42.982-31.44,69.567V155.835z"/>
<path style="fill:#DDD532;" d="M250.437,155.835h-22.261v-33.392c0-26.585-11.46-51.941-31.44-69.567l14.726-16.694
	c24.771,21.85,38.976,53.291,38.976,86.26V155.835z"/>
<rect x="244.872" y="33.403" style="fill:#BEC130;" width="22.261" height="111.305"/>
<path style="fill:#F94C10;" d="M339.456,200.286l4.488-22.261c0.721-3.575,1.103-7.273,1.103-11.059
	c0-30.736-24.917-55.653-55.653-55.653h-33.392l-33.392,183.653l33.392,183.653c16.169,0,29.653-11.493,32.73-26.755l5.84-28.968
	l-5.179-11.131l9.667-11.13l35.906-178.088l-34.442-11.131L339.456,200.286z"/>
<g>
	<polygon style="fill:#F72E12;" points="256.003,422.896 294.573,422.896 299.062,400.635 256.003,400.635 	"/>
	<polygon style="fill:#F72E12;" points="278.264,200.286 278.264,222.547 334.968,222.547 339.456,200.286 	"/>
</g>
<path style="fill:#FA690E;" d="M222.611,111.313c-30.736,0-55.653,24.917-55.653,55.653c0,3.787,0.382,7.484,1.103,11.059
	l32.288,11.131l-27.801,11.13l22.441,111.305l16.49,11.131l-12.001,11.13l4.488,22.261l18.644,11.13l-14.156,11.131l14.817,73.49
	c3.078,15.262,16.56,26.755,32.73,26.755V111.313L222.611,111.313L222.611,111.313z"/>
<g>
	<polygon style="fill:#F94C10;" points="233.741,178.025 168.061,178.025 172.549,200.286 233.741,200.286 	"/>
	<polygon style="fill:#F94C10;" points="233.741,356.113 203.967,356.113 208.455,378.374 233.741,378.374 	"/>
</g>
<polygon style="fill:#F72E12;" points="256.003,311.591 283.829,311.591 283.829,333.852 256.003,333.852 244.872,322.721 "/>
<polygon style="fill:#F94C10;" points="256.003,311.591 194.991,311.591 199.48,333.852 256.003,333.852 "/>
<g>
</g>
<g>
</g>
<g>
</g>
<g>
</g>
<g>
</g>
<g>
</g>
<g>
</g>
<g>
</g>
<g>
</g>
<g>
</g>
<g>
</g>
<g>
</g>
<g>
</g>
<g>
</g>
<g>
</g>
</svg>
