<svg id="Capa_1" enable-background="new 0 0 512 512" height="512" viewBox="0 0 512 512" width="512" xmlns="http://www.w3.org/2000/svg"><circle cx="256" cy="256" fill="#ffe853" r="256"/><path d="m512 256c0 87.11-43.52 164.07-110 210.31-41.41 28.8-91.73 45.69-146 45.69s-104.59-16.89-146-45.69c-66.48-46.24-110-123.2-110-210.31 0-46.22 12.25-89.57 33.68-127 44.12 77.07 127.16 129 222.32 129s178.21-51.93 222.32-129c21.43 37.43 33.68 80.78 33.68 127z" fill="#fed110"/><path d="m233.95 59.68-61.27 358.63-12.82 75.02c-5.71-2.32-11.32-4.83-16.81-7.54-1.27-.63-2.53-1.26-3.79-1.91-5.6-2.87-11.06-5.94-16.42-9.21h-.01c-1.2-.73-2.39-1.47-3.58-2.23l12.69-61.79 73.2-356.39c1.3-6.34 7.45-10.47 13.82-9.27l5.49 1.03c6.36 1.19 10.59 7.28 9.5 13.66z" fill="#ec781b"/><path d="m221.7 45.5-82.44 438.38c-5.6-2.87-11.06-5.94-16.42-9.21h-.01c-1.2-.73-2.39-1.47-3.58-2.23l12.69-61.79 73.2-356.39c1.3-6.34 7.45-10.47 13.82-9.27z" fill="#a63917"/><path d="m172.68 418.31-12.82 75.02c-5.71-2.32-11.32-4.83-16.81-7.54-1.27-.63-2.53-1.26-3.79-1.91-5.6-2.87-11.06-5.94-16.42-9.21h-.01c-1.2-.73-2.39-1.47-3.58-2.23l12.69-61.79z" fill="#a63917"/><path d="m152.31 414.48-13.05 69.4c-5.6-2.87-11.06-5.94-16.42-9.21h-.01c-1.2-.73-2.39-1.47-3.58-2.23l12.69-61.79z" fill="#83250d"/><path d="m442.86 245.923c0 25.828-3.789 50.779-10.84 74.317-9.143 30.531-32.945 54.333-63.486 63.486-23.537 7.051-48.489 10.831-74.317 10.831-26.224 0-51.543-3.902-75.391-11.161-29.74-9.049-53.042-32.351-62.091-62.091-7.258-23.848-11.161-49.158-11.161-75.382s3.902-51.533 11.161-75.391c9.049-29.74 32.351-53.041 62.1-62.091 23.848-7.258 49.158-11.161 75.382-11.161s51.533 3.902 75.382 11.161c29.749 9.049 53.051 32.351 62.1 62.091 7.258 23.858 11.161 49.167 11.161 75.391z" fill="#4e689b"/><path d="m442.86 245.923c0 25.828-3.789 50.779-10.84 74.317-9.143 30.531-32.945 54.333-63.486 63.486-23.537 7.051-48.489 10.831-74.317 10.831v-297.277c26.224 0 51.533 3.902 75.382 11.161 29.749 9.049 53.051 32.351 62.1 62.091 7.258 23.858 11.161 49.167 11.161 75.391z" fill="#374c81"/><path d="m417.71 245.923c0 21.464-3.148 42.182-9.002 61.742-7.607 25.366-27.374 45.142-52.749 52.74-19.55 5.863-40.278 9.002-61.742 9.002-21.784 0-42.823-3.243-62.637-9.266-24.706-7.522-44.068-26.884-51.58-51.59-6.033-19.814-9.275-40.844-9.275-62.628s3.243-42.814 9.275-62.637c7.513-24.706 26.874-44.068 51.59-51.59 19.814-6.023 40.844-9.266 62.628-9.266s42.814 3.243 62.628 9.266c24.716 7.522 44.077 26.884 51.59 51.59 6.032 19.823 9.274 40.853 9.274 62.637z" fill="#fff"/><path d="m417.71 245.923c0 21.464-3.148 42.182-9.002 61.742-7.607 25.366-27.374 45.142-52.749 52.74-19.55 5.863-40.278 9.002-61.742 9.002v-246.977c21.784 0 42.814 3.243 62.628 9.266 24.716 7.522 44.077 26.884 51.59 51.59 6.033 19.823 9.275 40.853 9.275 62.637z" fill="#fdf7bd"/><path d="m351.453 245.923c0 9.945-1.461 19.55-4.176 28.618-3.525 11.755-12.688 20.917-24.442 24.442-9.068 2.715-18.673 4.176-28.618 4.176-10.095 0-19.842-1.508-29.033-4.298-11.443-3.488-20.417-12.462-23.905-23.914-2.79-9.181-4.298-18.928-4.298-29.023 0-10.096 1.508-19.842 4.298-29.033 3.488-11.453 12.462-20.427 23.914-23.905 9.181-2.8 18.928-4.298 29.023-4.298 10.096 0 19.842 1.499 29.023 4.298 11.453 3.478 20.427 12.452 23.914 23.905 2.792 9.19 4.3 18.936 4.3 29.032z" fill="#f79f63"/><path d="m351.453 245.923c0 9.945-1.461 19.55-4.176 28.618-3.525 11.755-12.688 20.917-24.442 24.442-9.068 2.715-18.673 4.176-28.618 4.176v-114.472c10.096 0 19.842 1.499 29.023 4.298 11.453 3.478 20.427 12.452 23.914 23.905 2.791 9.191 4.299 18.937 4.299 29.033z" fill="#f4873d"/><path d="m318.744 245.923c0 4.261-.622 8.38-1.791 12.263-1.508 5.034-5.429 8.964-10.472 10.473-3.884 1.169-8.003 1.791-12.264 1.791-4.327 0-8.503-.641-12.443-1.848-4.902-1.489-8.748-5.335-10.246-10.246-1.197-3.931-1.838-8.107-1.838-12.433 0-4.327.641-8.503 1.838-12.443 1.499-4.911 5.345-8.757 10.246-10.246 3.94-1.197 8.116-1.838 12.443-1.838s8.503.641 12.443 1.838c4.902 1.489 8.747 5.335 10.246 10.246 1.197 3.94 1.838 8.116 1.838 12.443z" fill="#f4873d"/><path d="m260.117 164.609c2.763 4.886-1.261 10.819-6.823 10.058-7.022-.961-13.937-3.513-20.201-7.762-6.262-4.248-11.19-9.729-14.679-15.898-2.763-4.886 1.261-10.818 6.822-10.057 7.022.961 13.936 3.513 20.199 7.761 6.264 4.247 11.193 9.728 14.682 15.898z" fill="#fdf7bd"/><path d="m372.47 162.897c2.763 4.886-1.261 10.819-6.822 10.058-7.022-.961-13.937-3.513-20.201-7.762-6.262-4.248-11.19-9.729-14.679-15.898-2.763-4.886 1.261-10.818 6.822-10.057 7.022.961 13.936 3.513 20.199 7.761 6.264 4.248 11.192 9.729 14.681 15.898z" fill="#f7e6b0"/><path d="m193.869 289.256c-5.275 1.921-10.463-3.026-8.796-8.386 2.105-6.768 5.761-13.168 10.984-18.646 5.222-5.477 11.439-9.434 18.099-11.859 5.275-1.921 10.463 3.026 8.796 8.386-2.104 6.768-5.761 13.167-10.982 18.644-5.223 5.478-11.441 9.436-18.101 11.861z" fill="#fdf7bd"/><path d="m356.112 203.416c-4.385-3.505-2.861-10.509 2.584-11.875 6.875-1.725 14.242-1.932 21.638-.323 7.394 1.609 14.009 4.859 19.546 9.284 4.385 3.505 2.861 10.509-2.584 11.875-6.874 1.725-14.242 1.933-21.636.324-7.396-1.61-14.011-4.86-19.548-9.285z" fill="#fff"/><path d="m288.679 135.566c4.491-3.367 10.891-.137 10.85 5.476-.052 7.088-1.696 14.272-5.107 21.03-3.41 6.756-8.213 12.346-13.883 16.597-4.491 3.367-10.891.137-10.85-5.476.052-7.087 1.696-14.272 5.106-21.027 3.41-6.757 8.214-12.348 13.884-16.6z" fill="#f7e6b0"/><path d="m234.352 198.487c4.087 3.848 2 10.707-3.537 11.627-6.992 1.162-14.352.773-21.593-1.43-7.24-2.202-13.57-5.977-18.729-10.836-4.087-3.848-2-10.706 3.537-11.627 6.992-1.163 14.351-.773 21.591 1.429 7.24 2.203 13.571 5.978 18.731 10.837z" fill="#fdf7bd"/><path d="m373.639 266.835c-5.275 1.921-10.463-3.026-8.796-8.386 2.105-6.768 5.761-13.168 10.984-18.646 5.222-5.477 11.439-9.435 18.099-11.859 5.275-1.921 10.463 3.026 8.796 8.386-2.104 6.768-5.761 13.167-10.983 18.644-5.222 5.478-11.44 9.436-18.1 11.861z" fill="#f7e6b0"/><path d="m339.26 326.076c-3.925-4.013-1.558-10.78 4.013-11.472 7.034-.874 14.372-.181 21.516 2.318 7.143 2.499 13.312 6.531 18.267 11.598 3.925 4.013 1.558 10.78-4.013 11.472-7.033.874-14.371.181-21.514-2.317-7.143-2.499-13.313-6.532-18.269-11.599z" fill="#fff"/><path d="m319.905 330.737c5.58-.611 9.444 5.427 6.55 10.237-3.653 6.073-8.727 11.42-15.102 15.499-6.374 4.078-13.354 6.444-20.4 7.216-5.58.611-9.443-5.427-6.55-10.237 3.653-6.074 8.726-11.42 15.1-15.498 6.376-4.078 13.357-6.445 20.402-7.217z" fill="#f7e6b0"/><path d="m224.454 315.766c-3.154-4.643.371-10.885 5.976-10.583 7.077.383 14.178 2.36 20.768 6.082 6.589 3.721 11.949 8.78 15.932 14.642 3.154 4.643-.371 10.885-5.976 10.582-7.077-.382-14.177-2.36-20.766-6.081-6.59-3.72-11.951-8.779-15.934-14.642z" fill="#fdf7bd"/><path d="m318.744 245.923c0 4.261-.622 8.38-1.791 12.263-1.508 5.034-5.429 8.964-10.472 10.473-3.884 1.169-8.003 1.791-12.264 1.791v-49.054c4.327 0 8.503.641 12.443 1.838 4.902 1.489 8.747 5.335 10.246 10.246 1.197 3.94 1.838 8.116 1.838 12.443z" fill="#ec781b"/><path d="m474.53 258.98-280.97 192.25-50.51 34.56c-13.69-6.74-26.7-14.67-38.87-23.65l68.01-43.28 287.22-182.78c5.12-3.26 11.89-1.81 15.23 3.25l2.88 4.36c3.34 5.06 2.01 11.86-2.99 15.29z" fill="#ec781b"/><path d="m474.53 258.98-280.97 192.25-50.51 34.56c-6.92-3.41-13.65-7.12-20.21-11.12l353.24-233.16 1.44 2.18c3.34 5.06 2.01 11.86-2.99 15.29z" fill="#a63917"/><path d="m193.56 451.23-50.51 34.56c-13.69-6.74-26.7-14.67-38.87-23.65l68.01-43.28z" fill="#a63917"/><path d="m193.56 451.23-50.51 34.56c-6.92-3.41-13.66-7.12-20.22-11.12l60.04-39.63z" fill="#83250d"/><g fill="#a63917"><circle cx="340.836" cy="457.989" r="10.783"/><ellipse cx="377.996" cy="369.863" rx="6.765" ry="6.765" transform="matrix(1 -.006 .006 1 -2.214 2.277)"/><path d="m374.14 427.12c-.47-6.37-4.94-11.86-11.05-13.74-.06-.01-.11-.03-.17-.05-3.55-1.04-5.73-4.58-4.9-8.19.41-1.78.6-3.65.56-5.57-.058-2.588-.565-5.073-1.446-7.381-.991-2.597.562-5.451 3.248-6.164.019-.005.038-.01.058-.015 4.08-1.08 6.01-5.74 3.83-9.36-1.15-1.92-3.21-3.05-5.38-3.05-.56 0-1.12.07-1.68.23-5.65 1.57-11.39 2.93-17.2 4.07-3.015.596-6.049 1.135-9.105 1.613-7.387 1.156-13.759 6.128-16.196 13.197-.122.353-.235.71-.339 1.07-.68 2.32-1 4.79-.88 7.35.5 11.19 9.41 20.49 20.57 21.44.71.06 1.41.09 2.1.08 3.64-.02 6.67 2.84 6.85 6.47.01.21.03.41.05.62.67 7.47 6.8 13.52 14.28 14.1 9.57.74 17.5-7.16 16.8-16.72z"/></g><path d="m336.818 401.979c0 3.736-3.029 6.765-6.765 6.765s-6.765-3.029-6.765-6.765 3.029-6.765 6.765-6.765 6.765 3.028 6.765 6.765z" fill="#ec781b"/><path d="m348.059 455.459c0 2.339-1.896 4.235-4.235 4.235s-4.235-1.896-4.235-4.235 1.896-4.235 4.235-4.235 4.235 1.896 4.235 4.235z" fill="#ec781b"/></svg>