<svg id="Capa_1" enable-background="new 0 0 512 512" height="512" viewBox="0 0 512 512" width="512" xmlns="http://www.w3.org/2000/svg"><path d="m512 256.066c0 42.52-10.37 82.629-28.72 117.919l-.01.01-55.828 32.681c-111.726 65.403-249.279 68.577-363.902 8.396l-13.67-7.177c-31.34-42.48-49.87-94.99-49.87-151.83 0-142.321 116.15-257.524 258.826-255.985 140.606 1.517 253.174 115.371 253.174 255.986z" fill="#4e689b"/><path d="m512 256.065c0 42.52-10.37 82.63-28.72 117.92h-.01l-55.82 32.679c-111.73 65.41-249.291 68.585-363.919 8.398l-13.651-7.167h-.01c-31.34-42.48-49.87-95-49.87-151.83 0-46.22 12.25-89.57 33.68-127 44.12 77.07 127.16 129 222.32 129s178.21-51.93 222.32-129c21.43 37.43 33.68 80.78 33.68 127z" fill="#374c81"/><path d="m182.871 94.851 12.966-9.316c4.007-2.879 9.59-1.965 12.469 2.043 2.879 4.007 1.964 9.59-2.043 12.469l-12.966 9.316c-4.007 2.879-9.59 1.965-12.469-2.043-2.879-4.007-1.965-9.59 2.043-12.469z" fill="#a63917"/><path d="m280.406 24.777 12.966-9.316c4.007-2.879 9.59-1.965 12.469 2.043 2.879 4.007 1.965 9.59-2.043 12.469l-12.966 9.316c-4.007 2.879-9.59 1.965-12.469-2.043-2.879-4.008-1.965-9.59 2.043-12.469z" fill="#a63917"/><path d="m304.55 102.315 12.966-9.316c4.007-2.879 9.59-1.965 12.469 2.043 2.879 4.007 1.965 9.59-2.043 12.469l-12.966 9.316c-4.007 2.879-9.59 1.965-12.469-2.043-2.879-4.007-1.964-9.59 2.043-12.469z" fill="#ec781b"/><path d="m157.401 154.646 11.912 10.631c3.682 3.285 4.003 8.933.717 12.615-3.285 3.682-8.933 4.003-12.615.717l-11.912-10.631c-3.682-3.285-4.003-8.933-.717-12.615 3.285-3.682 8.933-4.003 12.615-.717z" fill="#ec781b"/><path d="m204.346 19.804 12.966-9.316c4.007-2.879 9.59-1.964 12.469 2.043 2.879 4.007 1.964 9.59-2.043 12.469l-12.966 9.316c-4.007 2.879-9.59 1.965-12.469-2.043-2.879-4.007-1.965-9.59 2.043-12.469z" fill="#ec781b"/><path d="m352.755 162.822-6.306 14.668c-1.949 4.533-7.204 6.628-11.737 4.679-4.533-1.949-6.628-7.204-4.679-11.737l6.306-14.668c1.949-4.533 7.204-6.628 11.737-4.679 4.533 1.949 6.628 7.204 4.679 11.737z" fill="#ec781b"/><path d="m263.382 61.153 13.827 7.983c4.273 2.467 5.738 7.932 3.27 12.205-2.467 4.273-7.931 5.738-12.205 3.27l-13.827-7.983c-4.273-2.467-5.738-7.932-3.27-12.205 2.468-4.273 7.932-5.737 12.205-3.27z" fill="#83250d"/><path d="m248.838 128.783 13.827 7.983c4.273 2.467 5.737 7.931 3.27 12.205-2.467 4.273-7.931 5.738-12.205 3.27l-13.827-7.983c-4.273-2.467-5.737-7.932-3.27-12.205 2.467-4.273 7.931-5.738 12.205-3.27z" fill="#83250d"/><path d="m483.28 373.985c-4.43 8.52-9.32 16.75-14.64 24.67-.4.59-.8 1.18-1.2 1.76-2.72 3.99-5.56 7.89-8.5 11.71-2.25 2.93-4.56 5.8-6.93 8.62-.71.85-1.43 1.69-2.16 2.53-1.7 1.98-3.44 3.93-5.2 5.85-1.71 1.86-3.43 3.68-5.2 5.48-1.81 1.86-3.64 3.69-5.5 5.5l-.01.01c-1.97 1.89-3.95 3.75-5.98 5.58v.01h-.01c-.03.03-.06.05-.09.08-1.08.98-2.16 1.95-3.26 2.91-.7.61-1.41 1.23-2.12 1.83-12.24-3.75-26.02 3.92-38.08-.4-18.98-6.81-19.69-36.95-38.15-45.08-6.75-2.98-14.46-2.24-21.83-2.35-7.38-.12-15.54-1.59-20.06-7.41-3.42-4.41-4-10.33-6.19-15.46-4.29-10.05-19.34-13.11-28.36-16.92-11.09-4.69-21.97-7.69-29.17-18.29-6.45-9.48-8.22-21.99-4.66-32.89 2.8-8.56 8.72-17.16 6.03-25.74-2.37-7.53-10.5-11.56-18.11-13.67-7.6-2.11-15.88-3.36-21.84-8.53-5.35-4.64-7.98-12.21-6.66-19.16s6.54-13.03 13.21-15.39c9.27-3.28 20.36.28 28.86-4.65 7.12-4.13 10.27-13.07 17.23-17.46 8.11-5.1 19.05-2.46 26.98 2.9s13.99 13.04 21.4 19.11c7.4 6.07 17.24 10.61 26.42 7.91 6.97-2.04 12.64-6.1 19.85-7.51 7.38-1.45 13.47.69 18.95 6.03 5.39 5.24 9.52 11.97 16.04 15.71 4.71 2.72 10.23 3.6 15.62 4.33 5.4.73 10.91 1.38 15.83 3.71 5.41 2.57 10.32 8.53 12.17 14.28 2.2 6.82-.29 14.44 3.59 20.89 7.49 12.47 30.82 7.9 36.41 21.33 3.82 9.19-4.29 19.22-3.54 29.15.61 7.99 6.73 14.29 12.15 20.2 2.46 2.67 4.9 5.64 6.71 8.82z" fill="#00a042"/><path d="m118.386 234.988c4.938-8.474 12.781-15.136 22.462-17.46 10.093-2.422 20.964-2.62 30.034-7.666 9.525-5.3 14.319-14.437 20.168-23.119 5.046-7.491 11.958-7.255 19.888-3.36 5.32 2.613 12.926 7.749 19.146 5.944 6.51-1.89 12.29-9.885 19.207-12.443 7.437-2.751 16.423-2.658 22.644 2.259 6.038 4.772 8.412 13.056 14.362 17.937 5.001 4.102 11.796 5.199 18.258 5.462 6.462.264 13.049-.138 19.288 1.566 13.619 3.72 14.1 14.711 19.871 24.961 7.303 12.969 27.103 8.048 31.938 22.857 2.134 6.538 1.069 13.626.236 20.454-.833 6.827-1.34 14.101 1.741 20.25 4.129 8.242 13.434 12.219 21.853 15.973s17.496 8.886 19.963 17.768c3.205 11.54-6.361 24.088-2.285 35.349 2.257 6.237 8.113 10.283 13.164 14.582 21.289 18.121 9.928 60.93-21.699 49.844-9.979-3.498-17.267-11.908-24.492-19.628s-15.625-15.463-26.108-16.848c-18.322-2.42-35.389 15.423-53.415 11.345-18.479-4.181-23.657-25.584-36.782-36.578-13.679-11.458-29.708-13.84-47.044-12.544-15.168 1.134-32.922 1.385-42.515-10.418-6.804-8.371-7.169-20.417-13.148-29.396-11.356-17.056-34.389-19.523-46.131-35.803-8.851-12.278-7.902-28.762-.604-41.288z" fill="#6cdc2d"/><path d="m467.44 400.415c-2.72 3.99-5.56 7.89-8.5 11.71-2.25 2.93-4.56 5.8-6.93 8.62-.71.85-1.43 1.69-2.16 2.53-1.7 1.98-3.44 3.93-5.2 5.85-1.71 1.86-3.43 3.68-5.2 5.48-1.81 1.86-3.64 3.69-5.5 5.5l-.01.01c-1.97 1.89-3.95 3.75-5.98 5.58v.01h-.01c-.03.03-.06.05-.09.08-37.55-22.61-74.85-45.65-111.9-69.07-9.93-6.29-19.85-12.59-29.74-18.93-27.96-17.91-55.78-36.05-83.44-54.42-12.35-8.2-24.66-16.44-36.95-24.73-9.88-6.66-24.95-14.14-31.49-24.47-2.79-4.39-3.21-10.75.47-14.43 3.98-3.99 10.96-3.42 15.03-7.31 4.63-4.43 3.89-13.08 9.39-16.38 6.56-3.91 14.97 3.65 22.3 1.47 4.86-1.45 7.41-6.58 10.23-10.8 5.81-8.66 18.19-11.16 26.6-4.71 3.6 2.76 6.98 7.51 11.97 5.93 4.86-1.55 6.68-6.77 12.81-7.18 5.56-.37 11.21 2.51 14.19 7.22 1.77 2.81 2.95 6.47 6.07 7.64 9 3.37 16.03-14.26 25.76-3.65 2.25 2.45 3.51 5.61 5.17 8.49 1.66 2.87 4 5.66 7.23 6.43 9.1 2.15 17.57-8.03 25.21 1.23 7.73 9.36 8.32 15.35 22.17 14.27 4.21-.33 8.38-.24 12.09.84 4.28 1.25 7.96 3.82 10.38 8.59 1.85 3.67 3.6 9.89 7.25 12.25 3.55 2.28 7.45.7 11.6 1.34 3.6.55 7.19 2.31 9.11 5.42 4.22 6.79-.66 17.48 5.36 22.73 4.38 3.83 12.32 2.24 15.56 7.06 4.54 6.77-3.06 15.46 6.35 19.5 6.92 2.96 15.23 3.86 15.21 13.83-.01 5.71-4.18 12.68-.81 18.13 3.93 6.35 11.78 6.64 11.59 16.26-.11 5.8-3.51 11.86-1.01 17.1 2.9 6.08 11.98 6.99 15.07 12.97.34.66.58 1.33.75 2.01z" fill="#83250d"/><path d="m467.44 400.415c-2.72 3.99-5.56 7.89-8.5 11.71-2.25 2.93-4.56 5.8-6.93 8.62-.71.85-1.43 1.69-2.16 2.53-1.7 1.98-3.44 3.93-5.2 5.85-1.71 1.86-3.43 3.68-5.2 5.48-1.81 1.86-3.64 3.69-5.5 5.5l-.01.01c-1.97 1.89-3.95 3.75-5.98 5.58v.01h-.01c-.03.03-.06.05-.09.08-37.55-22.61-74.85-45.65-111.9-69.07-9.93-6.29-19.85-12.59-29.74-18.93l74.81-114.56c4.28 1.25 7.96 3.82 10.38 8.59 1.85 3.67 3.6 9.89 7.25 12.25 3.55 2.28 7.45.7 11.6 1.34 3.6.55 7.19 2.31 9.11 5.42 4.22 6.79-.66 17.48 5.36 22.73 4.38 3.83 12.32 2.24 15.56 7.06 4.54 6.77-3.06 15.46 6.35 19.5 6.92 2.96 15.23 3.86 15.21 13.83-.01 5.71-4.18 12.68-.81 18.13 3.93 6.35 11.78 6.64 11.59 16.26-.11 5.8-3.51 11.86-1.01 17.1 2.9 6.08 11.98 6.99 15.07 12.97.34.66.58 1.33.75 2.01z" fill="#531d10"/><ellipse cx="172.924" cy="245.943" fill="#fe3345" rx="43.941" ry="43.941" transform="matrix(.955 -.296 .296 .955 -64.954 62.082)"/><path d="m209.715 269.969c-13.268 20.317-40.5 26.032-60.817 12.764l48.053-73.581c20.317 13.269 26.032 40.5 12.764 60.817z" fill="#de1263"/><path d="m196.684 261.459c-8.573 13.127-26.158 16.81-39.276 8.243s-16.816-26.149-8.243-39.276c8.567-13.118 26.152-16.801 39.27-8.234s16.816 26.149 8.249 39.267z" fill="#ff6477"/><path d="m196.684 261.459c-8.573 13.127-26.158 16.81-39.276 8.243l31.027-47.51c13.118 8.567 16.816 26.149 8.249 39.267z" fill="#fe3345"/><ellipse cx="340.273" cy="275.017" fill="#fe3345" rx="43.941" ry="43.941" transform="matrix(.991 -.134 .134 .991 -33.744 48.012)"/><path d="m377.064 299.043c-13.268 20.317-40.5 26.032-60.817 12.764l48.053-73.581c20.317 13.269 26.032 40.5 12.764 60.817z" fill="#de1263"/><path d="m364.033 290.533c-8.573 13.127-26.158 16.81-39.276 8.243s-16.816-26.149-8.243-39.276c8.567-13.118 26.152-16.801 39.27-8.234s16.816 26.149 8.249 39.267z" fill="#ff6477"/><path d="m364.033 290.533c-8.573 13.127-26.158 16.81-39.276 8.243l31.027-47.51c13.118 8.567 16.816 26.149 8.249 39.267z" fill="#fe3345"/><path d="m468.64 398.655c-3.09 4.6-6.33 9.09-9.7 13.47-2.25 2.93-4.56 5.8-6.93 8.62-.71.85-1.43 1.69-2.16 2.53-1.7 1.98-3.44 3.93-5.2 5.85-1.71 1.86-3.43 3.68-5.2 5.48-1.81 1.86-3.64 3.69-5.5 5.5l-.01.01c-1.97 1.89-3.95 3.75-5.98 5.58v.01h-.01c-1.11 1.01-2.22 2-3.35 2.99-1.01.88-2.02 1.76-3.04 2.63-1.08.92-2.17 1.83-3.27 2.73h-.01l-.01.01c-.45.37-.89.73-1.34 1.09-1.3 1.05-2.6 2.09-3.92 3.11-1.46 1.14-2.94 2.26-4.43 3.36-19.06-13.61-24.15-39.96-11.22-59.76 13.26-20.31 40.5-26.03 60.81-12.76 4.09 2.67 7.59 5.91 10.47 9.55z" fill="#fe3345"/><path d="m468.64 398.655c-3.09 4.6-6.33 9.09-9.7 13.47-2.25 2.93-4.56 5.8-6.93 8.62-.71.85-1.43 1.69-2.16 2.53-1.7 1.98-3.44 3.93-5.2 5.85-1.71 1.86-3.43 3.68-5.2 5.48-1.81 1.86-3.64 3.69-5.5 5.5l-.01.01c-1.97 1.89-3.95 3.75-5.98 5.58v.01h-.01c-1.11 1.01-2.22 2-3.35 2.99-1.01.88-2.02 1.76-3.04 2.63-1.08.92-2.17 1.83-3.27 2.73h-.01l-.01.01c-.45.37-.89.73-1.34 1.09-1.3 1.05-2.6 2.09-3.92 3.11l45.16-69.16c4.09 2.67 7.59 5.91 10.47 9.55z" fill="#de1263"/><path d="m458.94 412.125c-2.25 2.93-4.56 5.8-6.93 8.62-.71.85-1.43 1.69-2.16 2.53-1.7 1.98-3.44 3.93-5.2 5.85-1.71 1.86-3.43 3.68-5.2 5.48-1.81 1.86-3.64 3.69-5.5 5.5l-.01.01c-1.97 1.89-3.95 3.75-5.98 5.58v.01h-.01c-1.11 1.01-2.22 2-3.35 2.99-1.01.88-2.02 1.76-3.04 2.63-1-.49-1.97-1.05-2.93-1.67-13.12-8.57-16.82-26.15-8.24-39.28 8.56-13.11 26.15-16.8 39.27-8.23 4 2.62 7.12 6.07 9.28 9.98z" fill="#ff6477"/><path d="m458.94 412.125c-2.25 2.93-4.56 5.8-6.93 8.62-.71.85-1.43 1.69-2.16 2.53-1.7 1.98-3.44 3.93-5.2 5.85-1.71 1.86-3.43 3.68-5.2 5.48-1.81 1.86-3.64 3.69-5.5 5.5l-.01.01c-1.97 1.89-3.95 3.75-5.98 5.58v.01h-.01c-1.11 1.01-2.22 2-3.35 2.99-1.01.88-2.02 1.76-3.04 2.63-1-.49-1.97-1.05-2.93-1.67l31.03-47.51c4 2.62 7.12 6.07 9.28 9.98z" fill="#fe3345"/><path d="m439.45 434.605c-3.71 3.82-7.54 7.52-11.49 11.09v.01h-.01c-1.11 1.01-2.22 2-3.35 2.99-14.57 12.77-30.6 23.91-47.81 33.13-42.01-19.8-81.92-46.69-123.39-73.79l-1.19-.77c-60.35-39.42-119.07-75.87-161.28-128.15 64.16-52.48 164.81-55.99 246.64-2.55.39.26.79.52 1.18.78 58.32 38.55 93.71 97.57 100.7 157.26z" fill="#ffe853"/><path d="m439.45 434.605c-3.71 3.82-7.54 7.52-11.49 11.09v.01h-.01c-1.11 1.01-2.22 2-3.35 2.99-14.57 12.77-30.6 23.91-47.81 33.13-42.01-19.8-81.92-46.69-123.39-73.79l85.35-130.69c58.32 38.55 93.71 97.57 100.7 157.26z" fill="#fed110"/><g fill="#ff9f00"><path d="m222.286 271.477c.755-1.611 1.07-3.322.945-5.133.008-1.816-.417-3.503-1.274-5.062-.602-1.735-1.613-3.22-3.032-4.453-1.802-1.679-3.902-2.796-6.299-3.351-1.158-.111-2.316-.221-3.474-.332-2.398.086-4.624.75-6.678 1.993-1.655.934-2.955 2.202-3.899 3.803-1.182 1.381-1.945 2.984-2.288 4.809-.517 2.325-.443 4.632.224 6.919.479 1.078.958 2.155 1.437 3.233 1.32 2.128 3.084 3.782 5.293 4.961 1.106.408 2.212.817 3.319 1.225 1.261.216 2.527.328 3.799.336 2.077-.074 4.005-.65 5.784-1.726 1.318-.573 2.453-1.434 3.405-2.584 1.337-1.321 2.249-2.868 2.738-4.638z"/><path d="m398.057 342.451c.008-.038.016-.076.023-.114.58-2.607.496-5.194-.251-7.758-.517-2.017-1.486-3.755-2.909-5.215-1.172-1.723-2.718-3.047-4.638-3.973-1.121-.583-2.276-1.015-3.464-1.307-.438-.177-.875-.349-1.335-.449-.041-.004-.081-.008-.122-.012-1.227-.117-2.453-.234-3.68-.352-.08.002-.159.005-.239.009-1.213.196-2.426.391-3.639.587-.059.007-.117.018-.173.035-.099.032-.191.062-.288.103-1.889.484-3.517 1.392-4.884 2.724-1.614 1.098-2.854 2.546-3.721 4.344-.429 1.162-.858 2.323-1.287 3.485-.485 1.834-.504 3.653-.057 5.457.045 1.259.394 2.428 1.047 3.506.312.899.731 1.733 1.252 2.504.148.333.296.667.444 1 1.046 1.852 2.464 3.306 4.256 4.363 1.008.939 2.183 1.564 3.524 1.875 1.802.845 3.717 1.198 5.744 1.057 1.285-.207 2.57-.415 3.855-.622 1.206-.536 2.412-1.072 3.618-1.609 1.852-1.046 3.306-2.464 4.363-4.256 1.323-1.546 2.177-3.34 2.561-5.382z"/><path d="m308.625 358.165c.551-1.493 1.102-2.986 1.654-4.478.698-3.138.597-6.25-.302-9.337-.646-1.454-1.293-2.908-1.94-4.362-1.781-2.871-4.162-5.103-7.142-6.695-2.138-1.223-4.412-1.849-6.822-1.878-2.35-.424-4.681-.248-6.993.526-2.427.622-4.519 1.789-6.276 3.5-2.074 1.411-3.667 3.271-4.781 5.582-.272.737-.544 1.474-.816 2.21-1.362 3.689-1.644 7.731-.562 11.512l.027.093c.647 1.454 1.293 2.908 1.94 4.362 1.781 2.871 4.162 5.103 7.142 6.695 2.138 1.223 4.412 1.849 6.822 1.878 2.35.423 4.681.248 6.993-.526 2.427-.622 4.519-1.789 6.276-3.5 2.072-1.412 3.666-3.272 4.78-5.582z"/><path d="m409.511 431.945c.627-1.939.583-4.027.515-6.047-.124-3.465-1.084-6.681-2.88-9.649-1.907-3.075-4.457-5.464-7.648-7.169-.089-.041-.178-.081-.267-.122-3.046-1.584-6.285-2.327-9.716-2.228-3.43.122-6.614 1.073-9.551 2.851-3.044 1.888-5.409 4.411-7.096 7.571-1.584 3.046-2.327 6.285-2.228 9.715-.009.102-.017.203-.025.305.124 3.465 1.084 6.681 2.88 9.649 1.907 3.075 4.456 5.464 7.648 7.169.209.128.415.26.627.383.747.467 1.568.78 2.463.94.818.44 1.674.744 2.57.91 2.427.642 4.835.667 7.223.075 2.476-.19 4.771-.985 6.887-2.384 1.314-1.072 2.628-2.143 3.942-3.215 2.332-2.504 3.885-5.422 4.656-8.754z"/><path d="m189.055 319.925c.679-1.448.962-2.986.849-4.615-.167-1.032-.333-2.065-.5-3.097-.637-2.118-1.761-3.937-3.372-5.456-.023-.018-.047-.036-.07-.054-.295-.362-.59-.723-.885-1.085-.925-.66-1.85-1.319-2.775-1.979-1.03-.38-2.06-.761-3.09-1.141-1.078-.103-2.156-.206-3.235-.309l-3.208.517c-1.003.446-2.007.892-3.01 1.338-1.541.87-2.751 2.05-3.63 3.541-.782.839-1.301 1.816-1.56 2.932-.516.992-.757 2.046-.725 3.162-.241 1.083-.206 2.156.104 3.221.04 1.116.349 2.153.928 3.109.33 1.097.912 2.039 1.746 2.825.615.991 1.436 1.761 2.464 2.31.839.782 1.816 1.302 2.932 1.56.316.148.639.268.964.38.035.015.071.027.106.042.037.012.073.026.109.038 1.048.414 2.14.638 3.279.652 1.566.282 3.119.165 4.659-.35l2.906-1.292c1.488-.84 2.656-1.98 3.505-3.419.757-.809 1.259-1.753 1.509-2.83z"/></g><path d="m447.372 339.388.965-2.612c.407-1.83.348-3.646-.176-5.446-.377-.848-.754-1.696-1.131-2.544-1.039-1.675-2.428-2.977-4.166-3.905-1.247-.713-2.573-1.078-3.979-1.095-1.371-.247-2.731-.145-4.079.307-1.416.363-2.636 1.043-3.661 2.042-1.21.823-2.139 1.908-2.789 3.256l-.965 2.612c-.407 1.83-.348 3.646.176 5.446.377.848.754 1.696 1.131 2.544 1.039 1.675 2.428 2.977 4.166 3.905 1.247.713 2.573 1.078 3.979 1.095 1.371.247 2.731.145 4.079-.307 1.416-.363 2.636-1.043 3.661-2.042 1.21-.823 2.14-1.908 2.789-3.256z" fill="#a63917"/><path d="m409.209 287.124c.066-.694.133-1.388.199-2.082-.111-.688-.222-1.377-.333-2.065-.287-.646-.574-1.292-.861-1.938-.56-.992-1.32-1.771-2.28-2.337-.54-.503-1.169-.838-1.888-1.004-.638-.332-1.317-.488-2.036-.467-.697-.155-1.388-.133-2.074.067-.719.026-1.386.225-2.001.597-.706.212-1.312.587-1.819 1.124-.638.396-1.133.924-1.487 1.586-.503.54-.838 1.169-1.004 1.888-.453.965-.641 1.991-.566 3.077l.07.665c.048 1.347.421 2.597 1.119 3.75.525.93 1.237 1.659 2.136 2.189.776.664 1.676 1.092 2.7 1.285 1.306.29 2.601.249 3.885-.126.197-.062.395-.125.592-.187.646-.287 1.292-.574 1.938-.862.567-.462 1.133-.924 1.7-1.387.424-.595.849-1.191 1.274-1.786.246-.661.491-1.324.736-1.987z" fill="#a63917"/><path d="m307.324 226.109c2.126-4.037.266-8.261-3.289-10.583-3.545-2.315-8.744-.201-10.583 3.289-2.127 4.037-.266 8.261 3.289 10.583 3.545 2.316 8.745.202 10.583-3.289z" fill="#a63917"/><path d="m246.864 213.712 1.159-3.139c.489-2.199.419-4.381-.212-6.544-.453-1.019-.906-2.038-1.359-3.057-1.248-2.012-2.917-3.577-5.006-4.692-1.498-.857-3.092-1.296-4.781-1.316-1.647-.297-3.281-.174-4.901.369-1.701.436-3.167 1.253-4.398 2.453-1.453.989-2.57 2.293-3.351 3.912l-1.159 3.139c-.489 2.199-.419 4.381.212 6.544.453 1.019.906 2.038 1.36 3.057 1.248 2.013 2.917 3.577 5.006 4.692 1.498.857 3.092 1.296 4.782 1.316 1.647.297 3.281.174 4.901-.369 1.701-.436 3.167-1.254 4.398-2.453 1.452-.989 2.569-2.293 3.349-3.912z" fill="#a63917"/><path d="m449.85 423.275c-1.7 1.98-3.44 3.93-5.2 5.85-1.71 1.86-3.43 3.68-5.2 5.48-1.81 1.86-3.64 3.69-5.5 5.5l-.01.01c-1.97 1.89-3.95 3.75-5.98 5.58v.01h-.01c-1.11 1.01-2.22 2-3.35 2.99-2.07 1.82-4.18 3.61-6.31 5.36h-.01l-.01.01c-.45.37-.89.73-1.34 1.09-1.25.13-2.5.34-3.73.67-12.47 3.36-19.91 17.45-32.48 20.37-19.64 4.57-36.58-20.38-56.49-17.21-7.28 1.16-13.36 5.96-19.63 9.86-6.26 3.9-13.91 7.09-20.87 4.64-5.26-1.84-8.95-6.51-13.57-9.63-9.06-6.12-23.36-.54-33.01 1.14-11.86 2.07-22.63 5.45-34.43.45-10.55-4.48-18.82-14.03-21.74-25.12-2.29-8.71-1.97-19.15-8.88-24.9-6.07-5.05-15.09-4.02-22.62-1.67-7.54 2.34-15.18 5.78-22.99 4.67-7.01-1.01-13.32-5.94-15.98-12.5s-1.57-14.49 2.76-20.09c6.02-7.78 17.26-10.8 21.74-19.56 3.74-7.32 1.55-16.54 5.02-24 4.05-8.68 14.67-12.4 24.24-12.19s18.83 3.38 28.34 4.47c9.52 1.09 20.24-.43 26.5-7.68 4.75-5.49 7.31-11.97 12.61-17.07 5.41-5.22 11.7-6.71 19.19-5.2 7.37 1.49 14.49 4.9 22 4.52 5.43-.28 10.55-2.53 15.47-4.84 4.93-2.31 9.92-4.75 15.31-5.45 5.95-.77 13.3 1.57 17.97 5.4 5.54 4.54 7.58 12.29 14.33 15.61 13.06 6.42 30.19-10.07 42.17-1.8 8.19 5.65 6.81 18.47 12.82 26.41 4.84 6.39 13.4 8.36 21.16 10.39 7.76 2.02 16.28 5.3 19.41 12.68 2.72 6.39.45 13.65-1.09 20.42-4.03 17.67 9.6 23.12 19.39 35.33z" fill="#00a042"/><path d="m388.09 442.915c-10.29 2.47-20.97-.65-31.22-3.22-10.26-2.57-21.52-4.53-31.08-.01-16.71 7.9-21.38 32.14-38.74 38.48-17.79 6.5-33.74-8.68-50.73-10.8-17.71-2.22-32.47 4.46-46.34 14.95-7.08 5.35-15.07 10.94-23.36 13.71-22.74-8.48-43.94-20.09-63.09-34.31-4.74-3.52-9.36-7.21-13.84-11.05-9.37-7.99-18.14-16.66-26.25-25.92-3.99-4.54-7.81-9.22-11.46-14.04 6.78-6.62 14.65-12.38 19.09-20.71 5.13-9.61 4.21-19.89 4.42-30.36.18-9.03 6.12-12.58 14.89-13.6 5.89-.69 15.06-.49 19.31-5.38 4.45-5.12 4.98-14.97 9.4-20.87 4.76-6.34 12.36-11.13 20.26-10.37 7.66.74 14.14 6.41 21.79 7.29 6.42.74 12.73-2.02 18.3-5.3 5.58-3.29 10.89-7.19 17.06-9.14 13.46-4.26 19.82 4.72 30.23 10.21 13.16 6.94 27.14-7.93 39.23 1.9 5.33 4.33 8.28 10.87 11.28 17.06s6.52 12.57 12.44 16.07c7.93 4.69 17.91 2.99 27.02 1.58s19.52-2.01 26.41 4.12c8.94 7.96 7.7 23.69 17.23 30.94 5.28 4.02 12.39 4.25 18.97 5.12 27.71 3.69 41.36 45.83 8.78 53.65z" fill="#6cdc2d"/><path d="m444.65 429.125c-1.71 1.86-3.43 3.68-5.2 5.48-1.81 1.86-3.64 3.69-5.5 5.5l-.01.01c-1.97 1.89-3.95 3.75-5.98 5.58v.01h-.01c-1.11 1.01-2.22 2-3.35 2.99-.32.02-.64.03-.96.04-46.73 1.49-93.47 2.45-140.23 2.86-11.75.1-23.49.17-35.24.21-33.21.1-66.42-.07-99.62-.52-14.82-.19-29.64-.44-44.46-.75-4.33-.09-9.3.1-14.4.13-.9-.76-1.79-1.53-2.67-2.32-.63-.55-1.26-1.11-1.89-1.68-.01.01-.01.01-.01 0-.89-.8-1.78-1.6-2.66-2.41s-1.75-1.63-2.62-2.45-1.73-1.65-2.59-2.49c-.13-.13-.27-.26-.4-.39-.52-.5-1.02-1-1.53-1.51-.75-.75-1.5-1.5-2.23-2.26-.2-.2-.4-.4-.59-.61-.65-.67-1.3-1.34-1.94-2.02-.64-.67-1.27-1.34-1.9-2.01-.64-.69-1.28-1.39-1.92-2.09-.63-.69-1.25-1.38-1.87-2.08-.49-.53-.96-1.06-1.43-1.6.98-1.35 1.79-2.78 2.17-4.39 1.49-6.22-3.82-13.1-.98-18.84 3.39-6.85 14.56-5.06 19.53-10.86 3.3-3.85 2.67-9.54 2.75-14.61.19-10.43 9.24-19.24 19.81-18.38 4.51.37 9.93 2.53 13.26-1.51 3.25-3.93 1.96-9.3 6.88-12.97 4.48-3.32 10.78-3.96 15.84-1.62 3.01 1.39 5.99 3.83 9.23 3.13 9.4-2.05 5.76-20.67 19.68-17.03 3.22.84 5.99 2.81 8.94 4.33s6.44 2.59 9.57 1.49c8.81-3.13 10.41-16.27 21.85-12.63 11.57 3.68 15.32 8.39 26.37-.03 3.36-2.55 6.91-4.73 10.62-5.84 4.27-1.27 8.75-1.1 13.37 1.6 3.55 2.07 8.38 6.36 12.74 6.36 4.21 0 6.64-3.45 10.46-5.16 3.33-1.49 7.3-1.96 10.6-.39 7.22 3.43 8.92 15.05 16.83 16.21 5.75.84 11.56-4.8 16.9-2.5 7.48 3.23 5.81 14.65 15.9 12.94 7.42-1.26 14.89-5.01 20.27 3.38 3.09 4.81 3.37 12.92 9.15 15.68 6.75 3.2 13.51-.81 18.56 7.38 3.05 4.94 3.47 11.87 8.41 14.92 5.74 3.54 13.86-.62 19.7 2.74 5.22 3 5.8 10.13 6.06 16.15.33 7.89 3.18 10.58 6.79 13.4 2.36 1.84 5.05 3.73 7.59 7.16.96 1.3 1.77 2.75 2.36 4.27z" fill="#83250d"/><path d="m444.65 429.125c-1.71 1.86-3.43 3.68-5.2 5.48-1.81 1.86-3.64 3.69-5.5 5.5l-.01.01c-1.97 1.89-3.95 3.75-5.98 5.58v.01h-.01c-1.11 1.01-2.22 2-3.35 2.99-.32.02-.64.03-.96.04-46.73 1.49-93.47 2.45-140.23 2.86-11.75.1-23.49.17-35.24.21l.79-136.82c4.27-1.27 8.75-1.1 13.37 1.6 3.55 2.07 8.38 6.36 12.74 6.36 4.21 0 6.64-3.45 10.46-5.16 3.33-1.49 7.3-1.96 10.6-.39 7.22 3.43 8.92 15.05 16.83 16.21 5.75.84 11.56-4.8 16.9-2.5 7.48 3.23 5.81 14.65 15.9 12.94 7.42-1.26 14.89-5.01 20.27 3.38 3.09 4.81 3.37 12.92 9.15 15.68 6.75 3.2 13.51-.81 18.56 7.38 3.05 4.94 3.47 11.87 8.41 14.92 5.74 3.54 13.86-.62 19.7 2.74 5.22 3 5.8 10.13 6.06 16.15.33 7.89 3.18 10.58 6.79 13.4 2.36 1.84 5.05 3.73 7.59 7.16.96 1.3 1.77 2.75 2.36 4.27z" fill="#531d10"/><path d="m136.28 419.465c-.12 20.31-14 37.33-32.75 42.25-20.44-15.17-38.54-33.33-53.66-53.82 5.02-18.88 22.28-32.74 42.72-32.62 24.27.14 43.83 19.93 43.69 44.19z" fill="#fe3345"/><path d="m136.28 419.465c-.12 20.31-14 37.33-32.75 42.25-3.88-2.88-7.67-5.87-11.38-8.98l.44-77.46c24.27.14 43.83 19.93 43.69 44.19z" fill="#de1263"/><path d="m120.72 419.375c-.09 15.68-12.88 28.31-28.54 28.22-2.44-.02-4.8-.34-7.05-.93-.01.01-.01.01-.01 0-7.14-6.38-13.9-13.17-20.25-20.32-.61-2.33-.92-4.78-.91-7.3.09-15.66 12.88-28.29 28.54-28.2 15.67.09 28.31 12.86 28.22 28.53z" fill="#ff6477"/><path d="m120.716 419.377c-.09 15.678-12.873 28.303-28.541 28.213l.327-56.743c15.668.09 28.305 12.863 28.214 28.53z" fill="#fe3345"/><circle cx="248.558" cy="359.899" fill="#fe3345" r="43.941"/><path d="m292.498 360.153c-.14 24.265-19.929 43.827-44.194 43.687l.507-87.881c24.266.14 43.827 19.928 43.687 44.194z" fill="#de1263"/><path d="m276.935 360.063c-.091 15.678-12.873 28.303-28.541 28.213-15.667-.09-28.304-12.863-28.213-28.541.09-15.667 12.873-28.293 28.541-28.202s28.303 12.863 28.213 28.53z" fill="#ff6477"/><path d="m276.935 360.063c-.091 15.678-12.873 28.303-28.541 28.213l.327-56.743c15.668.09 28.304 12.863 28.214 28.53z" fill="#fe3345"/><path d="m452.01 420.745c-2.39 2.85-4.85 5.64-7.36 8.38-1.71 1.86-3.43 3.68-5.2 5.48-3.71 3.82-7.54 7.52-11.49 11.09v.01h-.01c-1.11 1.01-2.22 2-3.35 2.99-5.22 4.58-10.63 8.95-16.22 13.08-3.73 2.77-7.53 5.44-11.41 8.01-18.73-5.11-32.46-22.31-32.34-42.65.14-24.26 19.93-43.82 44.2-43.68 21.91.13 39.99 16.28 43.18 37.29z" fill="#fe3345"/><path d="m452.01 420.745c-2.39 2.85-4.85 5.64-7.36 8.38-1.71 1.86-3.43 3.68-5.2 5.48-3.71 3.82-7.54 7.52-11.49 11.09v.01h-.01c-1.11 1.01-2.22 2-3.35 2.99-5.22 4.58-10.63 8.95-16.22 13.08l.45-78.32c21.91.13 39.99 16.28 43.18 37.29z" fill="#de1263"/><path d="m436.95 427.555c-.03 4.51-1.1 8.78-3 12.55l-.01.01c-1.97 1.89-3.95 3.75-5.98 5.58v.01h-.01c-1.11 1.01-2.22 2-3.35 2.99-2.07 1.82-4.18 3.61-6.31 5.36h-.01l-.01.01c-3.07 1.12-6.4 1.72-9.86 1.7-15.67-.09-28.3-12.86-28.21-28.54.09-15.66 12.87-28.29 28.54-28.2 15.66.09 28.3 12.86 28.21 28.53z" fill="#ff6477"/><path d="m436.95 427.555c-.03 4.51-1.1 8.78-3 12.55-1.97 1.89-3.96 3.76-5.99 5.59v.01h-.01c-1.11 1.01-2.22 2-3.35 2.99-2.07 1.82-4.18 3.61-6.31 5.36h-.01c-3.08 1.13-6.4 1.73-9.87 1.71l.33-56.74c15.66.09 28.3 12.86 28.21 28.53z" fill="#fe3345"/><path d="m427.96 445.695v.01h-.01c-1.11 1.01-2.22 2-3.35 2.99-43.15 37.81-99.1 61.34-160.5 63.24h-.12c-5.37-.04-10.76-.08-16.16-.11l-1.42-.01c-.65 0-1.29-.01-1.94-.01-.76-.03-1.51-.07-2.26-.11h-.11c-.77-.05-1.53-.09-2.29-.14-.73-.04-1.45-.09-2.17-.14-.13-.01-.27-.02-.4-.03-.69-.05-1.38-.1-2.07-.16-1.59-.12-3.17-.27-4.75-.42-.72-.08-1.44-.15-2.17-.23-.76-.08-1.53-.17-2.29-.26s-1.53-.18-2.29-.28c-2.29-.28-4.56-.6-6.82-.95-.76-.12-1.51-.24-2.26-.36-.76-.12-1.51-.25-2.26-.38-1.5-.25-3-.52-4.49-.81-.58-.11-1.16-.22-1.74-.33-3.96-.79-7.89-1.66-11.78-2.63-.56-.14-1.12-.28-1.67-.41-.67-.18-1.35-.35-2.02-.53-.88-.23-1.76-.47-2.64-.71-3.9-1.07-7.76-2.23-11.58-3.48-.63-.21-1.26-.42-1.89-.63-.75-.25-1.5-.5-2.24-.76-1.34-.47-2.68-.94-4-1.43-1.1-.39-2.19-.8-3.28-1.22-.24-.09-.48-.18-.71-.27-.75-.28-1.5-.57-2.24-.87-1.68-.66-3.34-1.34-5-2.04-.77-.32-1.54-.65-2.3-.98-.58-.24-1.15-.49-1.73-.75-.47-.21-.94-.41-1.41-.63-1.01-.44-2.02-.9-3.02-1.37-.31-.14-.62-.28-.93-.43-1.16-.54-2.31-1.09-3.46-1.65-1.12-.54-2.24-1.1-3.35-1.66-.65-.33-1.3-.66-1.94-.99-.96-.49-1.91-.99-2.86-1.49-1.21-.65-2.42-1.3-3.62-1.97-1.01-.55-2-1.11-3-1.69-.48-.27-.96-.54-1.43-.82-.89-.51-1.77-1.03-2.65-1.55-2.48-1.47-4.93-2.98-7.35-4.55-.71-.45-1.41-.91-2.11-1.37-1.12-.72-2.23-1.46-3.33-2.21-.55-.36-1.09-.73-1.63-1.11-.31-.21-.62-.42-.92-.63-.12-.08-.24-.17-.36-.26-.69-.48-1.37-.96-2.05-1.45-.68-.48-1.36-.97-2.04-1.46-.67-.5-1.35-.99-2.02-1.49-.97-.72-1.93-1.45-2.89-2.18s-1.92-1.48-2.86-2.22c-.06-.05-.11-.09-.16-.12-2.51-1.976-4.97-4.015-7.402-6.086-.176-.149-.352-.294-.528-.444-.685-.582-1.35-1.187-2.027-1.778-.846-.74-1.708-1.461-2.543-2.212-.89-.79-1.78-1.6-2.66-2.42-.88-.81-1.75-1.63-2.62-2.45s-1.73-1.65-2.59-2.49c-.85-.82-1.69-1.65-2.52-2.49-.03-.03-.05-.05-.08-.08-.73-.72-1.45-1.46-2.16-2.19l.01-.01c38.79-48.06 102.71-79.24 174.8-78.83.48.01.95.01 1.42.02 75.95.87 142.25 36.7 179.24 89.96z" fill="#ffe853"/><path d="m427.95 445.705c-1.11 1.01-2.22 2-3.35 2.99-43.18 37.83-99.17 61.37-160.62 63.24-5.37-.04-10.76-.08-16.16-.11l.9-156.09c75.95.87 142.26 36.7 179.23 89.97z" fill="#fed110"/><path d="m147.661 413.921c-.238-1.763-.901-3.372-1.988-4.826-.977-1.531-2.249-2.719-3.814-3.563-1.447-1.132-3.1-1.832-4.961-2.099-2.424-.434-4.794-.235-7.109.598-1.033.534-2.066 1.069-3.099 1.604-1.969 1.372-3.48 3.137-4.532 5.294-.885 1.682-1.29 3.452-1.215 5.309-.245 1.801-.017 3.562.683 5.282.826 2.234 2.138 4.132 3.938 5.694.987.646 1.973 1.292 2.96 1.938 2.262 1.073 4.641 1.507 7.137 1.301 1.151-.256 2.302-.512 3.453-.769 1.177-.502 2.302-1.094 3.375-1.776 1.705-1.188 3.014-2.716 3.925-4.585.797-1.196 1.284-2.535 1.461-4.018.406-1.837.335-3.631-.214-5.384z" fill="#ff9f00"/><path d="m333.846 378.309c-.014-.036-.028-.072-.042-.108-.926-2.506-2.398-4.634-4.416-6.384-1.527-1.415-3.284-2.35-5.271-2.806-1.919-.813-3.936-1.088-6.051-.825-1.258.118-2.463.381-3.619.779-.464.089-.925.181-1.366.346-.036.018-.073.037-.109.056-1.094.566-2.189 1.133-3.283 1.699-.067.045-.13.091-.196.137-.913.822-1.827 1.644-2.74 2.466-.046.037-.088.078-.127.123-.066.08-.127.156-.186.243-1.325 1.43-2.201 3.076-2.628 4.936-.761 1.797-1.019 3.686-.773 5.667.269 1.209.538 2.418.807 3.626.586 1.804 1.556 3.343 2.91 4.617.72 1.034 1.647 1.827 2.78 2.379.75.587 1.553 1.061 2.409 1.426.305.2.61.4.915.599 1.882.99 3.863 1.443 5.941 1.36 1.357.243 2.682.132 3.978-.334 1.973-.267 3.773-1.008 5.401-2.225.968-.871 1.935-1.741 2.903-2.612.723-1.104 1.446-2.208 2.168-3.313.99-1.882 1.443-3.863 1.36-5.941.273-2.017.018-3.987-.765-5.911z" fill="#ff9f00"/><path d="m267.202 439.983c-.346-1.553-.691-3.107-1.037-4.66-1.114-3.015-2.885-5.577-5.314-7.683-1.331-.871-2.663-1.743-3.994-2.615-3.053-1.448-6.263-2.033-9.631-1.756-2.459.131-4.71.837-6.751 2.119-2.205.918-4.069 2.328-5.592 4.232-1.703 1.838-2.828 3.952-3.377 6.343-.978 2.31-1.309 4.737-.993 7.282.171.767.341 1.533.512 2.3.855 3.839 2.808 7.388 5.767 9.98l.073.063c1.331.872 2.663 1.743 3.994 2.615 3.053 1.448 6.263 2.033 9.631 1.756 2.459-.131 4.71-.837 6.751-2.119 2.205-.918 4.069-2.328 5.592-4.232 1.703-1.838 2.829-3.952 3.377-6.343.977-2.31 1.308-4.737.992-7.282z" fill="#ff9f00"/><path d="m391.973 447.313c-.524-1.969-1.693-3.701-2.844-5.361-1.982-2.845-4.532-5.028-7.65-6.548-3.269-1.55-6.707-2.177-10.313-1.88-.097.014-.194.028-.29.043-3.419.319-6.543 1.45-9.372 3.393-2.816 1.962-4.977 4.486-6.482 7.572-1.535 3.236-2.155 6.639-1.861 10.208.319 3.419 1.45 6.543 3.393 9.372.048.09.096.18.144.27 1.982 2.845 4.532 5.028 7.65 6.548 3.269 1.551 6.707 2.177 10.313 1.88.245-.006.49-.006.734-.018.88-.012 1.74-.194 2.579-.545.926-.073 1.81-.283 2.652-.628 2.388-.776 4.425-2.06 6.111-3.851 1.978-1.502 3.476-3.414 4.496-5.736.523-1.613 1.047-3.225 1.57-4.838.604-3.369.327-6.663-.83-9.881z" fill="#ff9f00"/><path d="m146.26 475.845c.07 1.67-.3 3.26-1.09 4.77l-1.75 2.66c-.56.71-1.2 1.32-1.91 1.82-7.34-3.68-14.48-7.7-21.4-12.06.15-1.13.5-2.22 1.06-3.28.6-.92 1.2-1.83 1.8-2.75l2.42-2.18c.96-.49 1.92-.99 2.88-1.49 1.08-.24 2.15-.48 3.22-.72 1.13.06 2.27.11 3.4.16.45.15.89.29 1.34.44h.08c2.18.41 4.11 1.33 5.79 2.76.7.78 1.4 1.56 2.1 2.33.98 1.31 1.58 2.76 1.79 4.34.37 1.04.46 2.11.27 3.2z" fill="#ff9f00"/><path d="m373.631 349.008-.605-2.718c-.65-1.759-1.683-3.253-3.1-4.481-.777-.508-1.553-1.017-2.33-1.525-1.781-.845-3.653-1.186-5.618-1.024-1.435.076-2.747.488-3.938 1.236-1.286.535-2.373 1.358-3.262 2.468-.993 1.072-1.65 2.305-1.97 3.7-.57 1.347-.763 2.763-.579 4.248l.605 2.718c.65 1.759 1.683 3.253 3.1 4.482.777.508 1.553 1.017 2.33 1.525 1.781.845 3.653 1.186 5.618 1.024 1.435-.076 2.747-.488 3.938-1.236 1.286-.535 2.373-1.358 3.262-2.469.993-1.072 1.65-2.305 1.97-3.7.57-1.348.763-2.763.579-4.248z" fill="#a63917"/><path d="m313.233 325.768c-.32-.619-.641-1.238-.961-1.858-.466-.518-.933-1.037-1.399-1.555-.591-.387-1.183-.774-1.774-1.161-1.008-.53-2.069-.773-3.182-.729-.727-.13-1.437-.07-2.13.179-.716.067-1.371.304-1.964.711-.67.247-1.238.641-1.706 1.18-.59.411-1.043.94-1.358 1.587-.478.561-.785 1.204-.919 1.93-.322.678-.452 1.391-.39 2.139-.13.727-.07 1.437.179 2.131.143 1.057.54 2.021 1.192 2.893l.42.521c.77 1.106 1.761 1.954 2.973 2.545.945.497 1.938.724 2.981.682 1.012.137 2 .01 2.966-.384 1.255-.464 2.321-1.201 3.197-2.211.132-.159.264-.319.396-.478.387-.591.774-1.183 1.161-1.774.226-.696.452-1.391.677-2.087.034-.73.068-1.461.103-2.191-.155-.69-.309-1.38-.462-2.07z" fill="#a63917"/><path d="m194.541 329.707c-.401-4.545-4.254-7.087-8.5-7.112-4.234-.024-7.458 4.57-7.111 8.5.4 4.545 4.253 7.087 8.5 7.112 4.234.024 7.458-4.57 7.111-8.5z" fill="#a63917"/><path d="m137.011 352.054-.727-3.266c-.781-2.113-2.022-3.908-3.724-5.385-.933-.611-1.866-1.222-2.799-1.833-2.14-1.015-4.39-1.425-6.75-1.23-1.724.092-3.301.587-4.732 1.485-1.545.643-2.852 1.632-3.919 2.966-1.193 1.288-1.982 2.77-2.367 4.445-.686 1.619-.918 3.32-.696 5.104l.727 3.266c.781 2.113 2.022 3.908 3.724 5.385.933.611 1.866 1.222 2.799 1.833 2.14 1.015 4.39 1.425 6.75 1.23 1.724-.092 3.301-.587 4.731-1.485 1.545-.643 2.852-1.632 3.919-2.966 1.193-1.288 1.982-2.77 2.367-4.445.687-1.619.919-3.32.697-5.104z" fill="#a63917"/></svg>