<svg id="Capa_1" enable-background="new 0 0 512 512" height="512" viewBox="0 0 512 512" width="512" xmlns="http://www.w3.org/2000/svg"><path d="m512 256.324c-.138 111.14-71.106 205.69-170.19 240.936l-.03.01-2.879.494c-54.866 9.422-110.937 9.422-165.803 0l-2.878-.494-.03-.01c-99.18-35.28-170.19-129.98-170.19-241.26 0-141.38 114.619-255.999 255.999-256 141.163 0 256.176 115.161 256.001 256.324z" fill="#65b2fe"/><path d="m512 256c0 87.11-43.52 164.07-110 210.31-18.44 12.83-38.65 23.29-60.19 30.95l-2.882.495c-54.883 9.428-110.973 9.428-165.856 0l-2.882-.495c-21.54-7.66-41.75-18.12-60.19-30.95-66.48-46.24-110-123.2-110-210.31 0-46.22 12.25-89.57 33.68-127 44.12 77.07 127.16 129 222.32 129s178.21-51.93 222.32-129c21.43 37.43 33.68 80.78 33.68 127z" fill="#0e9ce7"/><path d="m315.613 149.724c4.682 25.409-12.124 49.809-37.533 54.491s-49.809-12.125-54.491-37.533z" fill="#de1263"/><path d="m315.613 149.724c4.682 25.409-12.124 49.809-37.533 54.491l-8.479-46.012z" fill="#bc0e5c"/><path d="m298.308 152.913c2.923 15.861-7.564 31.085-23.416 34.006-15.87 2.924-31.085-7.564-34.008-23.425z" fill="#fe3345"/><path d="m298.308 152.913c2.923 15.861-7.564 31.085-23.416 34.006l-5.292-28.716z" fill="#de1263"/><path d="m341.974 211.479c-8.431 11.154-20.765 17.623-33.661 18.934-2.266-12.771.594-26.402 9.025-37.556 8.438-11.163 20.772-17.632 33.677-18.936 2.25 12.773-.609 26.404-9.041 37.558z" fill="#b6e337"/><path d="m351.015 173.921-42.702 56.492c12.896-1.311 25.229-7.78 33.661-18.934s11.291-24.785 9.041-37.558z" fill="#6cdc2d"/><path d="m463.13 313.824c4.811-17.933 2.058-42.395-15.388-51.005-12.721-6.278-29.049-3.567-39.918-12.923-4.987-4.292-8.013-10.53-10.934-16.564s-6.025-12.247-11.104-16.419c-10.799-8.87-25.109 1.232-37.432-1.684-15.878-3.757-23.817-24.13-35.869-33.892-13.402-10.854-30.245-17.446-46.296-8.006-10.188 5.992-17.186 16.81-27.382 22.788-21.469 12.587-57.16-6.425-66.329 29.499-2.45 9.601-1.004 20.41-5.767 29.001-4.265 7.692-12.568 11.799-20.624 14.577-8.056 2.777-16.595 4.801-23.415 10.089-3.955 3.067-10.787 25.809-7.904 34.538h348.362z" fill="#00a042"/><path d="m281.909 222.504c-8.431 11.154-20.765 17.623-33.661 18.934-2.266-12.771.594-26.402 9.025-37.556 8.438-11.163 20.772-17.632 33.677-18.936 2.25 12.773-.609 26.404-9.041 37.558z" fill="#b6e337"/><path d="m290.95 184.946-42.702 56.492c12.896-1.311 25.23-7.78 33.661-18.934 8.432-11.154 11.291-24.785 9.041-37.558z" fill="#6cdc2d"/><path d="m389.312 234.465c1.775 13.869-2.516 27.119-10.816 37.075-10.551-7.543-18.041-19.285-19.816-33.154-1.777-13.88 2.514-27.13 10.826-37.088 10.541 7.556 18.03 19.298 19.806 33.167z" fill="#b6e337"/><path d="m369.505 201.298 8.991 70.242c8.3-9.956 12.591-23.206 10.816-37.075-1.776-13.869-9.265-25.611-19.807-33.167z" fill="#6cdc2d"/><path d="m189.109 195.391c6.133 12.566 6.321 26.491 1.656 38.585-12.414-3.758-23.276-12.474-29.409-25.04-6.137-12.576-6.326-26.502-1.65-38.6 12.409 3.773 23.271 12.489 29.403 25.055z" fill="#b6e337"/><path d="m159.706 170.336 31.059 63.64c4.665-12.093 4.477-26.019-1.656-38.585-6.132-12.566-16.994-21.282-29.403-25.055z" fill="#6cdc2d"/><path d="m440.758 293.926c-12.866 5.474-26.783 4.942-38.619-.344 4.395-12.203 13.663-22.6 26.529-28.074 12.877-5.478 26.794-4.946 38.634.35-4.41 12.198-13.677 22.594-26.544 28.068z" fill="#b6e337"/><path d="m467.302 265.859-65.163 27.724c11.836 5.285 25.753 5.818 38.619.344 12.867-5.475 22.134-15.871 26.544-28.068z" fill="#6cdc2d"/><path d="m103.206 251.638c-10.822-8.854-16.812-21.427-17.626-34.364 12.849-1.773 26.359 1.608 37.181 10.462 10.831 8.861 16.821 21.434 17.628 34.38-12.851 1.757-26.361-1.624-37.183-10.478z" fill="#6cdc2d"/><path d="m140.389 262.116-54.809-44.841c.814 12.937 6.804 25.51 17.626 34.364 10.822 8.853 24.332 12.234 37.183 10.477z" fill="#00a042"/><path d="m351.593 234.984c-4.722 18.188-23.298 29.108-41.487 24.386-18.188-4.722-29.108-23.299-24.386-41.487z" fill="#de1263"/><path d="m351.593 234.984c-4.722 18.188-23.298 29.108-41.487 24.386l8.55-32.937z" fill="#bc0e5c"/><path d="m339.206 231.768c-2.947 11.354-14.538 18.167-25.886 15.221-11.36-2.949-18.167-14.538-15.22-25.892z" fill="#fe3345"/><path d="m339.206 231.768c-2.947 11.354-14.538 18.167-25.886 15.221l5.336-20.556z" fill="#de1263"/><path d="m55.622 313.824h394.682c-1.539-13.665-11.608-26.299-24.571-29.205-7.078-1.587-14.438-.568-21.646-1.25-18.287-1.731-20.328-17.784-31.029-29.837-5.233-5.894-12.786-9.447-20.46-9.625-20.29-.47-29.912 21.132-50.522 17.345-27.257-5.009-20.46-41.737-52.167-36.843-9.813 1.515-18.259 7.112-27.535 10.796-11.433 4.541-23.593-4.239-32.072-13.48-8.48-9.24-17.233-20.238-29.398-21.493-15.69-1.618-27.858 13.603-36.265 27.599s-18.504 30.03-34.204 31.535c-8.651.829-17.783-3.114-25.834.311-7.157 3.044-11.275 11.331-11.932 19.405-.986 12.11 4.922 23.677 2.953 34.742z" fill="#6cdc2d"/><path d="m189.681 287.118c-12.05 22.855-40.352 31.616-63.207 19.566s-31.616-40.353-19.566-63.207z" fill="#de1263"/><path d="m189.681 287.118c-12.05 22.855-40.352 31.616-63.207 19.566l21.82-41.387z" fill="#bc0e5c"/><path d="m174.116 278.912c-7.522 14.267-25.181 19.733-39.44 12.216-14.275-7.526-19.733-25.181-12.211-39.448z" fill="#fe3345"/><path d="m174.116 278.912c-7.522 14.267-25.181 19.733-39.44 12.216l13.618-25.83z" fill="#de1263"/><path d="m458.487 289.104c-12.05 22.855-40.352 31.616-63.207 19.566s-31.616-40.353-19.566-63.207z" fill="#de1263"/><path d="m458.487 289.104c-12.05 22.855-40.352 31.616-63.207 19.566l21.82-41.387z" fill="#bc0e5c"/><path d="m442.922 280.897c-7.522 14.267-25.181 19.733-39.44 12.216-14.275-7.526-19.733-25.181-12.211-39.448z" fill="#fe3345"/><path d="m442.922 280.897c-7.522 14.267-25.181 19.733-39.44 12.216l13.618-25.83z" fill="#de1263"/><path d="m247.536 211.377c-1.193 18.861-17.454 33.187-36.315 31.994s-33.187-17.454-31.994-36.315z" fill="#de1263"/><path d="m247.536 211.377c-1.193 18.861-17.454 33.187-36.315 31.994l2.161-34.155z" fill="#bc0e5c"/><path d="m234.69 210.564c-.745 11.774-10.891 20.713-22.658 19.968-11.781-.745-20.713-10.891-19.968-22.665z" fill="#fe3345"/><path d="m234.69 210.564c-.745 11.774-10.891 20.713-22.658 19.968l1.348-21.316z" fill="#de1263"/><path d="m336.018 283.924c-1.193 18.861-17.454 33.187-36.315 31.994s-33.187-17.454-31.994-36.315z" fill="#de1263"/><path d="m336.018 283.924c-1.193 18.861-17.454 33.187-36.315 31.994l2.16-34.155z" fill="#bc0e5c"/><path d="m323.173 283.112c-.745 11.774-10.891 20.713-22.658 19.968-11.781-.745-20.713-10.891-19.968-22.665z" fill="#fe3345"/><path d="m323.173 283.112c-.745 11.774-10.891 20.713-22.658 19.968l1.348-21.316z" fill="#de1263"/><path d="m205.291 296.222c-4.712-13.164-3.367-27.026 2.601-38.533 11.925 5.101 21.762 14.96 26.475 28.125 4.716 13.175 3.371 27.037-2.608 38.547-11.919-5.116-21.756-14.975-26.468-28.139z" fill="#b6e337"/><path d="m231.759 324.361-23.867-66.672c-5.968 11.506-7.313 25.369-2.601 38.533s14.549 23.023 26.468 28.139z" fill="#d2f279"/><path d="m344.113 304.012c-4.712-13.164-3.367-27.026 2.601-38.533 11.925 5.101 21.762 14.96 26.474 28.125 4.716 13.175 3.371 27.037-2.608 38.547-11.917-5.116-21.754-14.975-26.467-28.139z" fill="#b6e337"/><path d="m370.581 332.151-23.867-66.672c-5.968 11.506-7.313 25.369-2.601 38.533 4.713 13.164 14.55 23.023 26.468 28.139z" fill="#d2f279"/><path d="m268.154 252.237c9.353 3.642 16.233 10.895 19.66 19.545-8.377 4.062-18.35 4.753-27.703 1.112-9.36-3.645-16.24-10.898-19.665-19.555 8.382-4.052 18.355-4.744 27.708-1.102z" fill="#b6e337"/><path d="m240.446 253.338 47.368 18.444c-3.427-8.65-10.307-15.903-19.66-19.545s-19.326-2.95-27.708 1.101z" fill="#d2f279"/><path d="m79.461 278.961c9.353 3.642 16.232 10.895 19.66 19.545-8.377 4.062-18.351 4.753-27.703 1.112-9.36-3.645-16.24-10.898-19.664-19.556 8.381-4.052 18.354-4.743 27.707-1.101z" fill="#b6e337"/><path d="m51.753 280.062 47.368 18.444c-3.427-8.65-10.307-15.903-19.66-19.545s-19.326-2.951-27.708 1.101z" fill="#d2f279"/><path d="m341.81 497.26c-26.82 9.54-55.71 14.74-85.81 14.74s-58.99-5.2-85.81-14.74l18.53-123.89h134.56z" fill="#8fc8f5"/><path d="m341.81 497.26c-26.82 9.54-55.71 14.74-85.81 14.74v-138.63h67.28z" fill="#65b2fe"/><path d="m469.49 314.46c-6.45 18.97-14.39 36.92-23.62 53.59-14.11 25.51-31.25 48.04-50.73 66.74-17.21 16.51-38.27 25.02-59.72 25.02h-158.79c-22.24 0-43.84-9.42-61.54-26.74-18.75-18.36-35.27-40.31-48.96-65.02-9.23-16.67-17.17-34.62-23.63-53.58-1.93-5.7 1.31-12.09 6.14-12.09h414.72c4.83 0 8.07 6.39 6.13 12.08z" fill="#fff"/><path d="m469.49 314.46c-6.45 18.97-14.39 36.92-23.62 53.59-14.11 25.51-31.25 48.04-50.73 66.74-17.21 16.51-38.27 25.02-59.72 25.02h-80.5c-22.23 0-41.92-9.42-56.12-26.74-15.04-18.36-27.12-40.31-35.81-65.02-5.85-16.67-10.16-34.62-12.78-53.58-.79-5.7 3.75-12.09 8.58-12.09h304.57c4.83 0 8.07 6.39 6.13 12.08z" fill="#d1f6ff"/><path d="m463.356 302.383c4.829 0 8.071 6.386 6.134 12.08-6.45 18.969-14.39 36.912-23.62 53.587-14.108 25.507-31.248 48.039-50.734 66.743-17.209 16.509-38.262 25.021-59.716 25.021h-79.42v-157.431z" fill="#8fc8f5"/><path d="m469.49 314.46c-6.45 18.97-14.39 36.92-23.62 53.59h-379.74c-9.23-16.67-17.17-34.62-23.63-53.58-1.93-5.7 1.31-12.09 6.14-12.09h414.72c4.83 0 8.07 6.39 6.13 12.08z" fill="#d1f6ff"/><path d="m469.49 314.46c-6.45 18.97-14.39 36.92-23.62 53.59h-282.88c-5.85-16.67-10.16-34.62-12.78-53.58-.79-5.7 3.75-12.09 8.58-12.09h304.57c4.83 0 8.07 6.39 6.13 12.08z" fill="#8fc8f5"/><path d="m469.491 314.463c-6.45 18.969-14.391 36.912-23.62 53.587h-189.871v-65.668h207.356c4.829.001 8.071 6.387 6.135 12.081z" fill="#65b2fe"/></svg>